# Blender 5.2.1 LTS
# www.blender.org
mtllib house2.mtl
o Cube
v -5.000000 3.000000 5.000000
v -5.000000 3.000000 -5.000000
v 5.000000 -3.000000 5.000000
v 5.000000 3.000000 5.000000
v 5.000000 -3.000000 -5.000000
v 5.000000 3.000000 -5.000000
v -5.000000 2.614282 5.000000
v -5.000000 2.614282 -5.000000
v 5.000000 2.614282 -5.000000
v 5.000000 2.614282 5.000000
v 5.107067 -0.356543 -5.107067
v 5.107067 -0.009777 -5.107067
v -5.107067 -0.356543 -5.107067
v -5.107067 -0.009777 -5.107067
v -5.000000 -0.009777 -5.000000
v -5.000000 -0.356543 -5.000000
v 5.000000 -0.009777 -5.000000
v 5.000000 -0.356543 -5.000000
v 5.000000 -0.009777 5.000000
v 5.000000 -0.356543 5.000000
v -5.000000 -0.356543 5.000000
v -5.000000 -0.009777 5.000000
v 5.107067 -0.009777 5.107067
v 5.107067 -0.356543 5.107067
v -5.107067 -0.356543 5.107067
v -5.107067 -0.009777 5.107067
v -5.276110 2.614282 5.276110
v -5.276110 3.000000 5.276110
v -5.276110 3.000000 -5.276110
v 5.276110 3.000000 -5.276110
v 5.276110 3.000000 5.276110
v -5.276110 2.614282 -5.276110
v 5.276110 2.614282 -5.276110
v 5.276110 2.614282 5.276110
v -5.000000 2.632757 5.000000
v -5.000000 2.632757 -5.000000
v 5.000000 2.632757 -5.000000
v 5.000000 2.632757 5.000000
v 5.207067 -0.009777 2.657614
v 5.207067 -0.009777 2.432143
v 5.207067 -0.009777 0.112736
v 5.207067 -0.009777 -0.112736
v 5.207067 -0.009777 -2.432143
v 5.207067 -0.009777 -2.657614
v 5.207067 -0.356543 -2.432143
v 5.207067 -0.356543 -2.657614
v 5.207067 -0.356543 0.112736
v 5.207067 -0.356543 -0.112736
v 5.207067 -0.356543 2.657614
v 5.207067 -0.356543 2.432143
v 5.100000 -3.000000 2.432143
v 5.100000 -3.000000 2.657614
v 5.100000 -0.456543 2.657614
v 5.100000 -0.456543 2.432143
v 5.100000 -3.000000 -0.112736
v 5.100000 -3.000000 0.112736
v 5.100000 -0.456543 0.112736
v 5.100000 -0.456543 -0.112736
v 5.100000 -3.000000 -2.657614
v 5.100000 -3.000000 -2.432143
v 5.100000 -0.456543 -2.432143
v 5.100000 -0.456543 -2.657614
v 5.100000 0.090223 2.432143
v 5.100000 0.090223 2.657614
v 5.100000 0.090223 -0.112736
v 5.100000 0.090223 0.112736
v 5.100000 0.090223 -2.657614
v 5.100000 0.090223 -2.432143
v 5.376110 3.000000 2.657614
v 5.376110 3.000000 2.432143
v 5.376110 3.000000 0.112736
v 5.376110 3.000000 -0.112735
v 5.376110 3.000000 -2.432143
v 5.376110 3.000000 -2.657614
v 5.376110 2.614282 -2.432143
v 5.376110 2.614282 -2.657614
v 5.100000 2.514282 -2.657614
v 5.100000 2.514282 -2.432143
v 5.376110 2.614282 0.112736
v 5.376110 2.614282 -0.112735
v 5.100000 2.514282 -0.112736
v 5.100000 2.514282 0.112736
v 5.376110 2.614282 2.657614
v 5.376110 2.614282 2.432143
v 5.100000 2.514282 2.432143
v 5.100000 2.514282 2.657614
v -5.207067 -0.009777 -2.657614
v -5.207067 -0.009777 -2.432143
v -5.207067 -0.009777 -0.112736
v -5.207067 -0.009777 0.112736
v -5.207067 -0.009777 2.432143
v -5.207067 -0.009777 2.657614
v -5.207067 -0.356543 2.432143
v -5.207067 -0.356543 2.657614
v -5.207067 -0.356543 -0.112736
v -5.207067 -0.356543 0.112736
v -5.207067 -0.356543 -2.657614
v -5.207067 -0.356543 -2.432143
v -5.100000 -3.000000 -2.432143
v -5.100000 -3.000000 -2.657614
v -5.100000 -0.456543 -2.657614
v -5.100000 -0.456543 -2.432143
v -5.100000 -3.000000 0.112736
v -5.100000 -3.000000 -0.112736
v -5.100000 -0.456543 -0.112736
v -5.100000 -0.456543 0.112736
v -5.100000 -3.000000 2.657614
v -5.100000 -3.000000 2.432143
v -5.100000 -0.456543 2.432143
v -5.100000 -0.456543 2.657614
v -5.100000 0.090223 -2.432143
v -5.100000 0.090223 -2.657614
v -5.100000 2.514282 -2.657614
v -5.100000 2.514282 -2.432143
v -5.100000 0.090223 0.112736
v -5.100000 0.090223 -0.112736
v -5.100000 2.514282 -0.112736
v -5.100000 2.514282 0.112736
v -5.100000 0.090223 2.657614
v -5.100000 0.090223 2.432143
v -5.100000 2.514282 2.432143
v -5.100000 2.514282 2.657614
v -5.376110 2.614282 -2.432143
v -5.376110 2.614282 -2.657614
v -5.376110 3.000000 -2.657614
v -5.376110 3.000000 -2.432143
v -5.376110 2.614282 0.112735
v -5.376110 2.614282 -0.112736
v -5.376110 3.000000 -0.112736
v -5.376110 3.000000 0.112735
v -5.376110 2.614282 2.657614
v -5.376110 2.614282 2.432143
v -5.376110 3.000000 2.432143
v -5.376110 3.000000 2.657614
v -5.000000 -3.000000 -2.432143
v -5.000000 -3.000000 -2.657614
v -5.000000 -3.000000 0.112736
v -5.000000 -3.000000 -0.112736
v -5.000000 -3.000000 2.657614
v -5.000000 -3.000000 2.432143
v -5.107067 -0.009777 2.657614
v -5.107067 -0.009777 2.432143
v -5.107067 -0.009777 0.112736
v -5.107067 -0.009777 -0.112736
v -5.107067 -0.009777 -2.432143
v -5.107067 -0.009777 -2.657614
v -5.000000 2.614282 2.657614
v -5.000000 2.614282 2.432143
v -5.000000 2.614282 0.112736
v -5.000000 2.614282 -0.112736
v -5.000000 2.614282 -2.432143
v -5.000000 2.614282 -2.657614
v -5.107067 -0.356543 -2.432143
v -5.107067 -0.356543 -2.657614
v -5.107067 -0.356543 0.112736
v -5.107067 -0.356543 -0.112736
v -5.107067 -0.356543 2.657614
v -5.107067 -0.356543 2.432143
v -5.000000 -0.009777 2.432143
v -5.000000 -0.009777 2.657614
v -5.000000 -0.009777 -0.112736
v -5.000000 -0.009777 0.112736
v -5.000000 -0.009777 -2.657614
v -5.000000 -0.009777 -2.432143
v -5.000000 -0.356543 -2.432143
v -5.000000 -0.356543 -2.657614
v -5.000000 -0.356543 0.112736
v -5.000000 -0.356543 -0.112736
v -5.000000 -0.356543 2.657614
v -5.000000 -0.356543 2.432143
v -5.276110 3.000000 2.432143
v -5.276110 3.000000 2.657614
v -5.276110 3.000000 -0.112736
v -5.276110 3.000000 0.112735
v -5.276110 3.000000 -2.657614
v -5.276110 3.000000 -2.432143
v -5.276110 2.614282 2.432143
v -5.276110 2.614282 2.657614
v -5.276110 2.614282 -0.112736
v -5.276110 2.614282 0.112735
v -5.276110 2.614282 -2.657614
v -5.276110 2.614282 -2.432143
v 2.432143 -3.000000 -5.000000
v 2.657614 -3.000000 -5.000000
v -0.112736 -3.000000 -5.000000
v 0.112736 -3.000000 -5.000000
v -2.657614 -3.000000 -5.000000
v -2.432143 -3.000000 -5.000000
v -2.432143 -0.009777 -5.107067
v -2.657614 -0.009777 -5.107067
v 0.112736 -0.009777 -5.107067
v -0.112736 -0.009777 -5.107067
v 2.657614 -0.009777 -5.107067
v 2.432143 -0.009777 -5.107067
v -2.432143 2.614282 -5.000000
v -2.657614 2.614282 -5.000000
v 0.112736 2.614282 -5.000000
v -0.112736 2.614282 -5.000000
v 2.657614 2.614282 -5.000000
v 2.432143 2.614282 -5.000000
v 2.432143 -0.356543 -5.107067
v 2.657614 -0.356543 -5.107067
v -0.112736 -0.356543 -5.107067
v 0.112736 -0.356543 -5.107067
v -2.657614 -0.356543 -5.107067
v -2.432143 -0.356543 -5.107067
v -2.432143 -0.009777 -5.000000
v -2.657614 -0.009777 -5.000000
v 0.112736 -0.009777 -5.000000
v -0.112736 -0.009777 -5.000000
v 2.657614 -0.009777 -5.000000
v 2.432143 -0.009777 -5.000000
v 2.432143 -0.356543 -5.000000
v 2.657614 -0.356543 -5.000000
v -0.112736 -0.356543 -5.000000
v 0.112736 -0.356543 -5.000000
v -2.657614 -0.356543 -5.000000
v -2.432143 -0.356543 -5.000000
v -2.432143 3.000000 -5.276110
v -2.657614 3.000000 -5.276110
v 0.112736 3.000000 -5.276110
v -0.112735 3.000000 -5.276110
v 2.657614 3.000000 -5.276110
v 2.432143 3.000000 -5.276110
v -2.657614 2.614282 -5.276110
v -2.432143 2.614282 -5.276110
v -0.112735 2.614282 -5.276110
v 0.112736 2.614282 -5.276110
v 2.432143 2.614282 -5.276110
v 2.657614 2.614282 -5.276110
v -2.432143 -0.356543 5.107067
v -2.657614 -0.356543 5.107067
v 0.112736 -0.356543 5.107067
v -0.112736 -0.356543 5.107067
v 2.657614 -0.356543 5.107067
v 2.432143 -0.356543 5.107067
v -2.432143 -3.000000 5.000000
v -2.657614 -3.000000 5.000000
v 0.112736 -3.000000 5.000000
v -0.112736 -3.000000 5.000000
v 2.657614 -3.000000 5.000000
v 2.432143 -3.000000 5.000000
v 2.657614 2.614282 5.000000
v 2.432143 2.614282 5.000000
v 0.112736 2.614282 5.000000
v -0.112736 2.614282 5.000000
v -2.432143 2.614282 5.000000
v -2.657614 2.614282 5.000000
v 2.432143 -0.009777 5.107067
v 2.657614 -0.009777 5.107067
v -0.112736 -0.009777 5.107067
v 0.112736 -0.009777 5.107067
v -2.657614 -0.009777 5.107067
v -2.432143 -0.009777 5.107067
v 2.432143 -0.009777 5.000000
v 2.657614 -0.009777 5.000000
v -0.112736 -0.009777 5.000000
v 0.112736 -0.009777 5.000000
v -2.657614 -0.009777 5.000000
v -2.432143 -0.009777 5.000000
v -2.432143 -0.356543 5.000000
v -2.657614 -0.356543 5.000000
v 0.112736 -0.356543 5.000000
v -0.112736 -0.356543 5.000000
v 2.657614 -0.356543 5.000000
v 2.432143 -0.356543 5.000000
v 2.432143 3.000000 5.276110
v 2.657614 3.000000 5.276110
v -0.112736 3.000000 5.276110
v 0.112735 3.000000 5.276110
v -2.657614 3.000000 5.276110
v -2.432143 3.000000 5.276110
v 2.432143 2.614282 5.276110
v 2.657614 2.614282 5.276110
v -0.112736 2.614282 5.276110
v 0.112735 2.614282 5.276110
v -2.657614 2.614282 5.276110
v -2.432143 2.614282 5.276110
v 5.107067 -0.009777 -2.657614
v 5.107067 -0.009777 -2.432143
v 5.107067 -0.009777 -0.112736
v 5.107067 -0.009777 0.112736
v 5.107067 -0.009777 2.432143
v 5.107067 -0.009777 2.657614
v 5.000000 -3.000000 2.432143
v 5.000000 -3.000000 2.657614
v 5.000000 -3.000000 -0.112736
v 5.000000 -3.000000 0.112736
v 5.000000 -3.000000 -2.657614
v 5.000000 -3.000000 -2.432143
v 5.000000 2.614282 -2.432143
v 5.000000 2.614282 -2.657614
v 5.000000 2.614282 0.112736
v 5.000000 2.614282 -0.112736
v 5.000000 2.614282 2.657614
v 5.000000 2.614282 2.432143
v 5.107067 -0.356543 2.432143
v 5.107067 -0.356543 2.657614
v 5.107067 -0.356543 -0.112736
v 5.107067 -0.356543 0.112736
v 5.107067 -0.356543 -2.657614
v 5.107067 -0.356543 -2.432143
v 5.000000 -0.009777 -2.432143
v 5.000000 -0.009777 -2.657614
v 5.000000 -0.009777 0.112736
v 5.000000 -0.009777 -0.112736
v 5.000000 -0.009777 2.657614
v 5.000000 -0.009777 2.432143
v 5.000000 -0.356543 2.432143
v 5.000000 -0.356543 2.657614
v 5.000000 -0.356543 -0.112736
v 5.000000 -0.356543 0.112736
v 5.000000 -0.356543 -2.657614
v 5.000000 -0.356543 -2.432143
v 5.276110 3.000000 -2.432143
v 5.276110 3.000000 -2.657614
v 5.276110 3.000000 0.112736
v 5.276110 3.000000 -0.112735
v 5.276110 3.000000 2.657614
v 5.276110 3.000000 2.432143
v 5.276110 2.614282 -2.657614
v 5.276110 2.614282 -2.432143
v 5.276110 2.614282 -0.112735
v 5.276110 2.614282 0.112736
v 5.276110 2.614282 2.432143
v 5.276110 2.614282 2.657614
v 2.657614 2.514282 -5.100000
v 2.432143 2.514282 -5.100000
v 2.432143 2.614282 -5.376110
v 2.657614 2.614282 -5.376110
v 0.112736 2.514282 -5.100000
v -0.112736 2.514282 -5.100000
v -0.112735 2.614282 -5.376110
v 0.112736 2.614282 -5.376110
v -2.432143 2.514282 -5.100000
v -2.657614 2.514282 -5.100000
v -2.657614 2.614282 -5.376110
v -2.432143 2.614282 -5.376110
v -2.657614 3.000000 -5.376110
v -2.432143 3.000000 -5.376110
v -0.112735 3.000000 -5.376110
v 0.112736 3.000000 -5.376110
v 2.432143 3.000000 -5.376110
v 2.657614 3.000000 -5.376110
v -2.432143 0.090223 -5.100000
v -2.657614 0.090223 -5.100000
v 0.112736 0.090223 -5.100000
v -0.112736 0.090223 -5.100000
v 2.657614 0.090223 -5.100000
v 2.432143 0.090223 -5.100000
v -2.657614 -0.456543 -5.100000
v -2.432143 -0.456543 -5.100000
v -2.432143 -3.000000 -5.100000
v -2.657614 -3.000000 -5.100000
v -0.112736 -0.456543 -5.100000
v 0.112736 -0.456543 -5.100000
v 0.112736 -3.000000 -5.100000
v -0.112736 -3.000000 -5.100000
v 2.432143 -0.456543 -5.100000
v 2.657614 -0.456543 -5.100000
v 2.657614 -3.000000 -5.100000
v 2.432143 -3.000000 -5.100000
v 2.432143 -0.356543 -5.207067
v 2.657614 -0.356543 -5.207067
v -0.112736 -0.356543 -5.207067
v 0.112736 -0.356543 -5.207067
v -2.657614 -0.356543 -5.207067
v -2.432143 -0.356543 -5.207067
v -2.432143 -0.009777 -5.207067
v -2.657614 -0.009777 -5.207067
v 0.112736 -0.009777 -5.207067
v -0.112736 -0.009777 -5.207067
v 2.657614 -0.009777 -5.207067
v 2.432143 -0.009777 -5.207067
v 2.657614 3.000000 5.376110
v 2.432143 3.000000 5.376110
v 2.432143 2.614282 5.376110
v 2.657614 2.614282 5.376110
v 0.112735 3.000000 5.376110
v -0.112736 3.000000 5.376110
v -0.112736 2.614282 5.376110
v 0.112735 2.614282 5.376110
v -2.432143 3.000000 5.376110
v -2.657614 3.000000 5.376110
v -2.657614 2.614282 5.376110
v -2.432143 2.614282 5.376110
v 2.657614 2.514282 5.100000
v 2.432143 2.514282 5.100000
v 2.432143 0.090223 5.100000
v 2.657614 0.090223 5.100000
v 0.112736 2.514282 5.100000
v -0.112736 2.514282 5.100000
v -0.112736 0.090223 5.100000
v 0.112736 0.090223 5.100000
v -2.432143 2.514282 5.100000
v -2.657614 2.514282 5.100000
v -2.657614 0.090223 5.100000
v -2.432143 0.090223 5.100000
v 2.657614 -0.456543 5.100000
v 2.432143 -0.456543 5.100000
v 2.432143 -3.000000 5.100000
v 2.657614 -3.000000 5.100000
v 0.112736 -0.356543 5.100000
v -0.112736 -0.356543 5.100000
v -0.112736 -3.000000 5.100000
v 0.112736 -3.000000 5.100000
v -2.432143 -0.456543 5.100000
v -2.657614 -0.456543 5.100000
v -2.657614 -3.000000 5.100000
v -2.432143 -3.000000 5.100000
v 2.432143 -0.009777 5.207067
v 2.657614 -0.009777 5.207067
v -0.112736 -0.009777 5.207067
v 0.112736 -0.009777 5.207067
v -2.657614 -0.009777 5.207067
v -2.432143 -0.009777 5.207067
v -2.432143 -0.356543 5.207067
v -2.657614 -0.356543 5.207067
v 0.112736 -0.356543 5.207067
v -0.112736 -0.356543 5.207067
v 2.657614 -0.356543 5.207067
v 2.432143 -0.356543 5.207067
v -5.000000 -2.349427 -0.426715
v -5.000000 -0.739056 -0.426715
v -5.000000 -0.739056 -2.118163
v -5.000000 -2.349427 -2.118163
v -5.000000 -2.349427 2.118163
v -5.000000 -0.739056 2.118163
v -5.000000 -0.739056 0.426715
v -5.000000 -2.349427 0.426715
v -5.000000 0.638847 4.686020
v -5.000000 2.233719 4.686020
v -5.000000 2.233719 2.971594
v -5.000000 0.638847 2.971594
v -5.000000 0.638847 2.118163
v -5.000000 2.233719 2.118163
v -5.000000 2.233719 0.426715
v -5.000000 0.638847 0.426715
v -5.000000 0.638847 -0.426715
v -5.000000 2.233719 -0.426715
v -5.000000 2.233719 -2.118163
v -5.000000 0.638847 -2.118163
v -5.000000 0.638847 -2.971594
v -5.000000 2.233719 -2.971594
v -5.000000 2.233719 -4.686020
v -5.000000 0.638847 -4.686020
v 3.061254 -2.349427 -5.000000
v 3.061254 -0.739056 -5.000000
v 4.596360 -0.739056 -5.000000
v 4.596360 -2.349427 -5.000000
v 0.515174 -2.349427 -5.000000
v 0.515174 -0.739056 -5.000000
v 2.029705 -0.739056 -5.000000
v 2.029705 -2.349427 -5.000000
v -2.029705 -2.349427 -5.000000
v -2.029705 -0.739056 -5.000000
v -0.515174 -0.739056 -5.000000
v -0.515174 -2.349427 -5.000000
v -4.596360 0.638847 -5.000000
v -4.596360 2.233719 -5.000000
v -3.061254 2.233719 -5.000000
v -3.061254 0.638847 -5.000000
v -2.029705 0.638847 -5.000000
v -2.029705 2.233719 -5.000000
v -0.515174 2.233719 -5.000000
v -0.515174 0.638847 -5.000000
v 0.515174 0.638847 -5.000000
v 0.515174 2.233719 -5.000000
v 2.029705 2.233719 -5.000000
v 2.029705 0.638847 -5.000000
v 3.061254 0.638847 -5.000000
v 3.061254 2.233719 -5.000000
v 4.596360 2.233719 -5.000000
v 4.596360 0.638847 -5.000000
v -0.515174 -2.349427 5.000000
v -0.515174 -0.739056 5.000000
v -2.029705 -0.739056 5.000000
v -2.029705 -2.349427 5.000000
v 2.029705 -2.349427 5.000000
v 2.029705 -0.739056 5.000000
v 0.515174 -0.739056 5.000000
v 0.515174 -2.349427 5.000000
v 4.596360 -2.349427 5.000000
v 4.596360 -0.739056 5.000000
v 3.061254 -0.739056 5.000000
v 3.061254 -2.349427 5.000000
v 4.596360 0.638847 5.000000
v 4.596360 2.233719 5.000000
v 3.061254 2.233719 5.000000
v 3.061254 0.638847 5.000000
v 2.029705 0.638847 5.000000
v 2.029705 2.233719 5.000000
v 0.515174 2.233719 5.000000
v 0.515174 0.638847 5.000000
v -0.515174 0.638847 5.000000
v -0.515174 2.233719 5.000000
v -2.029705 2.233719 5.000000
v -2.029705 0.638847 5.000000
v -3.061254 0.638847 5.000000
v -3.061254 2.233719 5.000000
v -4.596360 2.233719 5.000000
v -4.596360 0.638847 5.000000
v 5.000000 -2.349427 2.971594
v 5.000000 -0.739056 2.971594
v 5.000000 -0.739056 4.686020
v 5.000000 -2.349427 4.686020
v 5.000000 -2.349427 0.426715
v 5.000000 -0.739056 0.426715
v 5.000000 -0.739056 2.118163
v 5.000000 -2.349427 2.118163
v 5.000000 -2.349427 -2.118163
v 5.000000 -0.739056 -2.118163
v 5.000000 -0.739056 -0.426715
v 5.000000 -2.349427 -0.426715
v 5.000000 -2.349427 -4.686020
v 5.000000 -0.739056 -4.686020
v 5.000000 -0.739056 -2.971594
v 5.000000 -2.349427 -2.971594
v 5.000000 0.654839 -4.686020
v 5.000000 2.238773 -4.686020
v 5.000000 2.238773 -2.971594
v 5.000000 0.663319 -2.971594
v 5.000000 0.638847 -2.118163
v 5.000000 2.233719 -2.118163
v 5.000000 2.233719 -0.426715
v 5.000000 0.638847 -0.426715
v 5.000000 0.638847 0.426715
v 5.000000 2.233719 0.426715
v 5.000000 2.233719 2.118163
v 5.000000 0.638847 2.118163
v 5.000000 0.638847 2.971594
v 5.000000 2.233719 2.971594
v 5.000000 2.233719 4.686020
v 5.000000 0.638847 4.686020
v -5.000000 -2.277116 -0.499027
v -5.000000 -0.811367 -0.499027
v -5.000000 -0.811367 -2.045852
v -5.000000 -2.277116 -2.045852
v -5.000000 -2.277116 2.045852
v -5.000000 -0.811367 2.045852
v -5.000000 -0.811367 0.499027
v -5.000000 -2.277116 0.499027
v -5.000000 0.711158 4.613709
v -5.000000 2.161407 4.613709
v -5.000000 2.161407 3.043905
v -5.000000 0.711158 3.043905
v -5.000000 0.711158 2.045852
v -5.000000 2.161407 2.045852
v -5.000000 2.161407 0.499027
v -5.000000 0.711158 0.499027
v -5.000000 0.711158 -0.499027
v -5.000000 2.161407 -0.499027
v -5.000000 2.161407 -2.045852
v -5.000000 0.711158 -2.045852
v -5.000000 0.711158 -3.043905
v -5.000000 2.161407 -3.043905
v -5.000000 2.161407 -4.613709
v -5.000000 0.711158 -4.613709
v 3.133566 -2.277116 -5.000000
v 3.133566 -0.811367 -5.000000
v 4.524049 -0.811367 -5.000000
v 4.524049 -2.277116 -5.000000
v 0.587485 -2.277116 -5.000000
v 0.587485 -0.811367 -5.000000
v 1.957394 -0.811367 -5.000000
v 1.957394 -2.277116 -5.000000
v -1.957394 -2.277116 -5.000000
v -1.957394 -0.811367 -5.000000
v -0.587485 -0.811367 -5.000000
v -0.587485 -2.277116 -5.000000
v -4.524049 0.711158 -5.000000
v -4.524049 2.161407 -5.000000
v -3.133566 2.161407 -5.000000
v -3.133566 0.711158 -5.000000
v -1.957394 0.711158 -5.000000
v -1.957394 2.161407 -5.000000
v -0.587485 2.161407 -5.000000
v -0.587485 0.711158 -5.000000
v 0.587485 0.711158 -5.000000
v 0.587485 2.161407 -5.000000
v 1.957394 2.161407 -5.000000
v 1.957394 0.711158 -5.000000
v 3.133566 0.711158 -5.000000
v 3.133566 2.161407 -5.000000
v 4.524049 2.161407 -5.000000
v 4.524049 0.711158 -5.000000
v -0.587485 -2.277116 5.000000
v -0.587485 -0.811367 5.000000
v -1.957394 -0.811367 5.000000
v -1.957394 -2.277116 5.000000
v 1.957394 -2.277116 5.000000
v 1.957394 -0.811367 5.000000
v 0.587485 -0.811367 5.000000
v 0.587485 -2.277116 5.000000
v 4.524049 -2.277116 5.000000
v 4.524049 -0.811367 5.000000
v 3.133566 -0.811367 5.000000
v 3.133566 -2.277116 5.000000
v 4.524049 0.711158 5.000000
v 4.524049 2.161407 5.000000
v 3.133566 2.161407 5.000000
v 3.133566 0.711158 5.000000
v 1.957394 0.711158 5.000000
v 1.957394 2.161407 5.000000
v 0.587485 2.161407 5.000000
v 0.587485 0.711158 5.000000
v -0.587485 0.711158 5.000000
v -0.587485 2.161407 5.000000
v -1.957394 2.161407 5.000000
v -1.957394 0.711158 5.000000
v -3.133566 0.711158 5.000000
v -3.133566 2.161407 5.000000
v -4.524049 2.161407 5.000000
v -4.524049 0.711158 5.000000
v 5.000000 -2.277116 3.043905
v 5.000000 -0.811367 3.043905
v 5.000000 -0.811367 4.613709
v 5.000000 -2.277116 4.613709
v 5.000000 -2.277116 0.499027
v 5.000000 -0.811367 0.499027
v 5.000000 -0.811367 2.045852
v 5.000000 -2.277116 2.045852
v 5.000000 -2.277116 -2.045852
v 5.000000 -0.811367 -2.045852
v 5.000000 -0.811367 -0.499027
v 5.000000 -2.277116 -0.499027
v 5.000000 -2.277116 -4.613709
v 5.000000 -0.811367 -4.613709
v 5.000000 -0.811367 -3.043905
v 5.000000 -2.277116 -3.043905
v 5.000000 0.729659 -4.613709
v 5.000000 2.166461 -4.613709
v 5.000000 2.166461 -3.043905
v 5.000000 0.733206 -3.043906
v 5.000000 0.711158 -2.045852
v 5.000000 2.161407 -2.045852
v 5.000000 2.161407 -0.499027
v 5.000000 0.711158 -0.499027
v 5.000000 0.711158 0.499027
v 5.000000 2.161407 0.499027
v 5.000000 2.161407 2.045852
v 5.000000 0.711158 2.045852
v 5.000000 0.711158 3.043905
v 5.000000 2.161407 3.043905
v 5.000000 2.161407 4.613709
v 5.000000 0.711158 4.613709
v -4.911945 -0.811367 -0.499027
v -4.911945 -2.277116 -0.499027
v -4.911945 -2.277116 -2.045852
v -4.911945 -0.811367 -2.045852
v -4.911945 -0.811367 2.045852
v -4.911945 -2.277116 2.045852
v -4.911945 -2.277116 0.499027
v -4.911945 -0.811367 0.499027
v -4.911945 0.711158 4.613709
v -4.911945 2.161407 4.613709
v -4.911945 0.711158 3.043905
v -4.911945 2.161407 3.043905
v -4.911945 2.161407 2.045852
v -4.911945 0.711158 2.045852
v -4.911945 0.711158 0.499027
v -4.911945 2.161407 0.499027
v -4.911945 2.161407 -0.499027
v -4.911945 0.711158 -0.499027
v -4.911945 0.711158 -2.045852
v -4.911945 2.161407 -2.045852
v -4.911945 2.161407 -3.043905
v -4.911945 0.711158 -3.043905
v -4.911945 0.711158 -4.613709
v -4.911945 2.161407 -4.613709
v 3.133566 -0.811367 -4.911945
v 3.133566 -2.277116 -4.911945
v 4.524049 -2.277116 -4.911945
v 4.524049 -0.811367 -4.911945
v 0.587485 -0.811367 -4.911945
v 0.587485 -2.277116 -4.911945
v 1.957394 -2.277116 -4.911945
v 1.957394 -0.811367 -4.911945
v -1.957394 -0.811367 -4.911945
v -1.957394 -2.277116 -4.911945
v -0.587485 -2.277116 -4.911945
v -0.587485 -0.811367 -4.911945
v -4.524049 0.711158 -4.911945
v -4.524049 2.161407 -4.911945
v -3.133566 0.711158 -4.911945
v -3.133566 2.161407 -4.911945
v -1.957394 2.161407 -4.911945
v -1.957394 0.711158 -4.911945
v -0.587485 0.711158 -4.911945
v -0.587485 2.161407 -4.911945
v 0.587485 2.161407 -4.911945
v 0.587485 0.711158 -4.911945
v 1.957394 0.711158 -4.911945
v 1.957394 2.161407 -4.911945
v 3.133566 2.161407 -4.911945
v 3.133566 0.711158 -4.911945
v 4.524049 0.711158 -4.911945
v 4.524049 2.161407 -4.911945
v -0.587485 -0.811367 4.911945
v -0.587485 -2.277116 4.911945
v -1.957394 -2.277116 4.911945
v -1.957394 -0.811367 4.911945
v 1.957394 -0.811367 4.911945
v 1.957394 -2.277116 4.911945
v 0.587485 -2.277116 4.911945
v 0.587485 -0.811367 4.911945
v 4.524049 -0.811367 4.911945
v 4.524049 -2.277116 4.911945
v 3.133566 -2.277116 4.911945
v 3.133566 -0.811367 4.911945
v 4.524049 2.161407 4.911945
v 4.524049 0.711158 4.911945
v 3.133566 0.711158 4.911945
v 3.133566 2.161407 4.911945
v 1.957394 2.161407 4.911945
v 1.957394 0.711158 4.911945
v 0.587485 0.711158 4.911945
v 0.587485 2.161407 4.911945
v -0.587485 2.161407 4.911945
v -0.587485 0.711158 4.911945
v -1.957394 0.711158 4.911945
v -1.957394 2.161407 4.911945
v -3.133566 2.161407 4.911945
v -3.133566 0.711158 4.911945
v -4.524049 0.711158 4.911945
v -4.524049 2.161407 4.911945
v 4.911945 -0.811367 3.043905
v 4.911945 -2.277116 3.043905
v 4.911945 -2.277116 4.613709
v 4.911945 -0.811367 4.613709
v 4.911945 -0.811367 0.499027
v 4.911945 -2.277116 0.499027
v 4.911945 -2.277116 2.045852
v 4.911945 -0.811367 2.045852
v 4.911945 -0.811367 -2.045852
v 4.911945 -2.277116 -2.045852
v 4.911945 -2.277116 -0.499027
v 4.911945 -0.811367 -0.499027
v 4.911945 -0.811367 -4.613709
v 4.911945 -2.277116 -4.613709
v 4.911945 -2.277116 -3.043905
v 4.911945 -0.811367 -3.043905
v 4.911945 2.166461 -4.613709
v 4.911945 0.729659 -4.613709
v 4.911945 0.733206 -3.043906
v 4.911945 2.166461 -3.043905
v 4.911945 2.161407 -2.045852
v 4.911945 0.711158 -2.045852
v 4.911945 0.711158 -0.499027
v 4.911945 2.161407 -0.499027
v 4.911945 2.161407 0.499027
v 4.911945 0.711158 0.499027
v 4.911945 0.711158 2.045852
v 4.911945 2.161407 2.045852
v 4.911945 2.161407 3.043905
v 4.911945 0.711158 3.043905
v 4.911945 0.711158 4.613709
v 4.911945 2.161407 4.613709
v -4.428713 -3.000000 3.369925
v -4.692539 -3.000000 3.106099
v -4.692539 -0.356543 3.106100
v -4.428713 -0.356543 3.369925
v -3.369925 -0.356543 4.428713
v -3.106099 -0.356543 4.692539
v -3.106100 -3.000000 4.692539
v -3.369925 -3.000000 4.428713
v -3.035588 -0.356543 -4.622027
v -3.299413 -0.356543 -4.358202
v -4.358202 -0.356543 -3.299413
v -4.622027 -0.356543 -3.035588
v -4.622027 -0.356543 3.035588
v -4.358202 -0.356543 3.299413
v -3.299413 -0.356543 4.358202
v -3.035588 -0.356543 4.622027
v -4.622027 -3.000000 -3.035588
v -4.358202 -3.000000 -3.299413
v -3.299413 -3.000000 -4.358202
v -3.035588 -3.000000 -4.622027
v -3.035588 -3.000000 4.622027
v -3.299413 -3.000000 4.358202
v -4.358202 -3.000000 3.299413
v -4.622027 -3.000000 3.035588
v -4.428713 -3.000000 -3.369925
v -4.692539 -3.000000 -3.106100
v -4.692539 -0.356543 -3.106099
v -4.428713 -0.356543 -3.369925
v -3.369925 -0.356543 -4.428713
v -3.106100 -0.356543 -4.692539
v -3.106099 -3.000000 -4.692539
v -3.369925 -3.000000 -4.428713
v -3.299413 -1.033285 4.358202
v -4.358202 -1.033285 3.299413
v -4.358202 -1.033285 -3.299413
v -3.299413 -1.033285 -4.358202
v -3.123905 -1.033285 4.182694
v -3.123905 -3.000000 4.182694
v -4.182694 -1.033285 -3.123905
v -4.182694 -3.000000 -3.123905
v -3.123905 -3.000000 -4.182694
v -4.182694 -3.000000 3.123905
v -4.182694 -1.033285 3.123905
v -3.123905 -1.033285 -4.182694
vn -0.0000 -0.0000 -1.0000
vn -0.0000 0.7308 -0.6826
vn -0.0000 -0.7308 -0.6826
vn -0.0000 -0.0000 1.0000
vn -0.0000 -0.9402 -0.3405
vn -0.0000 1.0000 -0.0000
vn 1.0000 -0.0000 -0.0000
vn -0.0000 -1.0000 -0.0000
vn -1.0000 -0.0000 -0.0000
vn 0.6826 0.7308 -0.0000
vn 0.6826 -0.7308 -0.0000
vn 0.3405 -0.9402 -0.0000
vn -0.3405 -0.9402 -0.0000
vn -0.6826 0.7308 -0.0000
vn -0.6826 -0.7308 -0.0000
vn -0.0000 0.7308 0.6826
vn -0.0000 -0.7308 0.6826
vn -0.0000 -0.9402 0.3405
vn -0.0000 1.0000 -0.0023
vn -0.7071 -0.0000 -0.7071
vn -0.7071 -0.0000 0.7071
vn 0.7071 -0.0000 0.7071
vn 0.7071 -0.0000 -0.7071
vt 0.667609 0.525841
vt 0.654055 0.525686
vt 0.653841 0.517321
vt 0.667468 0.517674
vt 0.677707 0.734291
vt 0.670826 0.734284
vt 0.670627 0.726072
vt 0.677510 0.725739
vt 0.646832 0.517093
vt 0.647030 0.526014
vt 0.222919 0.098949
vt 0.233096 0.100905
vt 0.233197 0.103507
vt 0.219799 0.102622
vt 0.808301 0.823320
vt 0.808271 0.430856
vt 0.822142 0.431466
vt 0.822142 0.823470
vt 0.653619 0.201916
vt 0.666688 0.201802
vt 0.666700 0.205429
vt 0.653377 0.205568
vt 0.550128 0.531697
vt 0.550021 0.523210
vt 0.232125 0.114240
vt 0.222111 0.114951
vt 0.219525 0.110951
vt 0.232608 0.111173
vt 0.793060 0.730560
vt 0.781526 0.731229
vt 0.781533 0.723182
vt 0.793507 0.725513
vt 0.649737 0.201508
vt 0.646478 0.205411
vt 0.769309 0.621579
vt 0.782240 0.621269
vt 0.782015 0.629306
vt 0.769441 0.630007
vt 0.768753 0.723465
vt 0.769013 0.731913
vt 0.793254 0.306055
vt 0.792520 0.315769
vt 0.790252 0.313834
vt 0.790836 0.308332
vt 0.105902 0.110303
vt 0.102030 0.110690
vt 0.098765 0.106803
vt 0.105711 0.106612
vt 0.670979 0.304624
vt 0.768682 0.302776
vt 0.765963 0.306713
vt 0.674181 0.308441
vt 0.666412 0.217155
vt 0.653317 0.217441
vt 0.653279 0.213778
vt 0.666630 0.213547
vt 0.101707 0.093904
vt 0.105606 0.094513
vt 0.105583 0.098272
vt 0.098656 0.097932
vt 0.778525 0.303933
vt 0.778819 0.306627
vt 0.654504 0.098093
vt 0.667568 0.097900
vt 0.667662 0.101589
vt 0.654316 0.101803
vt 0.794765 0.529680
vt 0.782455 0.529792
vt 0.783020 0.522073
vt 0.794525 0.524358
vt 0.667390 0.113501
vt 0.654352 0.113747
vt 0.654271 0.110068
vt 0.667605 0.109829
vt 0.105919 0.215734
vt 0.102097 0.216170
vt 0.099016 0.212225
vt 0.105843 0.211991
vt 0.231029 0.300877
vt 0.246081 0.302596
vt 0.243714 0.304706
vt 0.231434 0.303545
vt 0.231476 0.314535
vt 0.221473 0.316024
vt 0.218566 0.312267
vt 0.231457 0.311279
vt 0.103862 0.322176
vt 0.100024 0.322842
vt 0.097292 0.318702
vt 0.104130 0.318291
vt 0.671441 0.097501
vt 0.770041 0.099309
vt 0.767102 0.103150
vt 0.674625 0.101454
vt 0.101192 0.305664
vt 0.105060 0.305978
vt 0.104705 0.309733
vt 0.097931 0.309610
vt 0.766165 0.315140
vt 0.674315 0.316967
vt 0.649444 0.217931
vt 0.646350 0.214082
vt 0.245363 0.312158
vt 0.243148 0.310430
vt 0.000876 0.318523
vt 0.000575 0.302630
vt 0.002718 0.306405
vt 0.002472 0.314852
vt 0.778712 0.317872
vt 0.778737 0.314518
vt 0.000575 0.420077
vt 0.378436 0.420077
vt 0.378436 0.797938
vt 0.000575 0.797938
vt 0.805481 0.407150
vt 0.805449 0.011821
vt 0.819320 0.012518
vt 0.819320 0.407341
vt 0.258533 0.401996
vt 0.258500 0.013111
vt 0.272365 0.013836
vt 0.272365 0.402204
vt 0.532747 0.405916
vt 0.532717 0.011931
vt 0.546589 0.012595
vt 0.546589 0.406071
vt 0.779664 0.201938
vt 0.794918 0.205029
vt 0.792205 0.207376
vt 0.779651 0.204156
vt 0.002799 0.200119
vt 0.102328 0.199471
vt 0.099129 0.203413
vt 0.004874 0.203808
vt 0.119098 0.199922
vt 0.122933 0.199535
vt 0.126057 0.203411
vt 0.119138 0.203606
vt 0.247792 0.203239
vt 0.244932 0.212817
vt 0.244145 0.211423
vt 0.245085 0.205469
vt 0.002888 0.215928
vt 0.004537 0.212227
vt 0.667387 0.316905
vt 0.667249 0.308716
vt 0.673618 0.213668
vt 0.673675 0.205193
vt 0.654096 0.317255
vt 0.653950 0.308976
vt 0.647070 0.308859
vt 0.647229 0.317559
vt 0.552494 0.320446
vt 0.552134 0.311868
vt 0.551266 0.215049
vt 0.551678 0.206481
vt 0.766854 0.212933
vt 0.766822 0.204502
vt 0.766933 0.111606
vt 0.674536 0.110051
vt 0.791320 0.213222
vt 0.779359 0.212072
vt 0.780394 0.103729
vt 0.779864 0.111619
vt 0.219331 0.202820
vt 0.232366 0.202654
vt 0.232065 0.210274
vt 0.219314 0.211216
vt 0.218285 0.303979
vt 0.124645 0.317460
vt 0.117584 0.317699
vt 0.117954 0.309362
vt 0.124917 0.308839
vt 0.126147 0.107334
vt 0.119136 0.106907
vt 0.119068 0.098727
vt 0.126191 0.098782
vt 0.119062 0.211855
vt 0.105925 0.203629
vt 0.125962 0.212005
vt 0.244859 0.111058
vt 0.244650 0.105686
vt 0.669080 0.630261
vt 0.655763 0.630616
vt 0.655688 0.622330
vt 0.669013 0.622090
vt 0.002855 0.109646
vt 0.003035 0.101159
vt 0.674721 0.526214
vt 0.674703 0.517703
vt 0.648807 0.622295
vt 0.648873 0.631040
vt 0.650523 0.726412
vt 0.657382 0.726460
vt 0.657588 0.734737
vt 0.650741 0.735106
vt 0.556329 0.739029
vt 0.555976 0.730492
vt 0.554076 0.634798
vt 0.554256 0.626296
vt 0.676058 0.630371
vt 0.675998 0.621853
vt 0.769278 0.529601
vt 0.769519 0.521271
vt 0.794044 0.630674
vt 0.794897 0.624925
vt 0.222295 0.198993
vt 0.768884 0.319077
vt 0.221888 0.215129
vt 0.122660 0.215911
vt 0.671138 0.320880
vt 0.122902 0.094803
vt 0.670556 0.201375
vt 0.769754 0.200646
vt 0.122892 0.111074
vt 0.106173 0.199891
vt 0.769418 0.216885
vt 0.670310 0.217513
vt 0.650479 0.114261
vt 0.647329 0.110447
vt 0.118822 0.215545
vt 0.650622 0.097812
vt 0.647436 0.101783
vt 0.232342 0.200354
vt 0.769542 0.115594
vt 0.671265 0.113881
vt 0.232001 0.214056
vt 0.121203 0.321507
vt 0.117202 0.321380
vt 0.221037 0.299987
vt 0.118096 0.305584
vt 0.121957 0.305070
vt 0.654291 0.320941
vt 0.650446 0.321390
vt 0.792120 0.214702
vt 0.779390 0.215970
vt 0.650184 0.304906
vt 0.654071 0.305276
vt 0.552131 0.111843
vt 0.552812 0.103485
vt 0.791987 0.111371
vt 0.791956 0.105758
vt 0.549730 0.308219
vt 0.246815 0.103299
vt 0.118902 0.095100
vt 0.780164 0.101029
vt 0.793923 0.103411
vt 0.551163 0.324294
vt 0.118996 0.110574
vt 0.794883 0.113265
vt 0.779454 0.114714
vt 0.247783 0.112999
vt 0.667119 0.305070
vt 0.000887 0.097515
vt 0.667264 0.320573
vt 0.001255 0.113415
vt 0.549632 0.202742
vt 0.507487 0.100842
vt 0.521184 0.103247
vt 0.519200 0.105582
vt 0.507700 0.103546
vt 0.377316 0.217580
vt 0.277872 0.215201
vt 0.279575 0.211601
vt 0.379062 0.214240
vt 0.382418 0.097622
vt 0.395423 0.097580
vt 0.395524 0.101262
vt 0.382246 0.101335
vt 0.794845 0.632160
vt 0.782074 0.633180
vt 0.653619 0.722421
vt 0.657488 0.722750
vt 0.395228 0.113196
vt 0.382341 0.113291
vt 0.382232 0.109606
vt 0.395463 0.109508
vt 0.797662 0.622587
vt 0.553583 0.726884
vt 0.522140 0.113079
vt 0.506768 0.114525
vt 0.507163 0.111429
vt 0.519238 0.111172
vt 0.279406 0.098353
vt 0.378554 0.097306
vt 0.375420 0.101242
vt 0.281333 0.102017
vt 0.378526 0.113747
vt 0.375365 0.109901
vt 0.782850 0.519472
vt 0.796656 0.521766
vt 0.554996 0.742876
vt 0.278911 0.113998
vt 0.280703 0.110346
vt 0.797621 0.531556
vt 0.781983 0.532850
vt 0.653990 0.738900
vt 0.670451 0.722416
vt 0.670729 0.737967
vt 0.657818 0.738417
vt 0.380744 0.216249
vt 0.382406 0.213100
vt 0.771943 0.533591
vt 0.552114 0.622672
vt 0.651980 0.618266
vt 0.655867 0.618618
vt 0.668928 0.618443
vt 0.396186 0.306334
vt 0.495466 0.302387
vt 0.492667 0.306355
vt 0.399128 0.310133
vt 0.552490 0.638606
vt 0.668907 0.633906
vt 0.655890 0.634303
vt 0.377757 0.201639
vt 0.381124 0.203087
vt 0.382475 0.205912
vt 0.379439 0.205056
vt 0.772633 0.517571
vt 0.652042 0.634837
vt 0.653844 0.513536
vt 0.667284 0.514059
vt 0.495720 0.318506
vt 0.395428 0.322723
vt 0.398872 0.318737
vt 0.492867 0.314689
vt 0.377895 0.322928
vt 0.374002 0.323512
vt 0.371243 0.319363
vt 0.378195 0.319116
vt 0.667510 0.529502
vt 0.654285 0.529375
vt 0.772052 0.633978
vt 0.547739 0.519643
vt 0.649905 0.512953
vt 0.674284 0.721929
vt 0.398213 0.201665
vt 0.496910 0.200416
vt 0.493998 0.204309
vt 0.401345 0.205446
vt 0.375358 0.306577
vt 0.379253 0.306985
vt 0.378844 0.310680
vt 0.371978 0.310403
vt 0.548649 0.535517
vt 0.549574 0.218824
vt 0.550904 0.099831
vt 0.550307 0.115523
vt 0.447334 0.903035
vt 0.447329 0.842069
vt 0.450194 0.844746
vt 0.450065 0.900216
vt 0.179928 0.801890
vt 0.179932 0.866844
vt 0.177068 0.864160
vt 0.177190 0.804707
vt 0.128742 0.006317
vt 0.125034 0.001888
vt 0.112076 0.000575
vt 0.129116 0.416450
vt 0.116500 0.418927
vt 0.132501 0.411644
vt 0.504759 0.903036
vt 0.501894 0.900358
vt 0.224916 0.011574
vt 0.235070 0.001563
vt 0.118831 0.866843
vt 0.121569 0.864026
vt 0.504754 0.842069
vt 0.502023 0.844888
vt 0.225267 0.401869
vt 0.235468 0.412166
vt 0.550538 0.838070
vt 0.611041 0.838075
vt 0.608306 0.840894
vt 0.553401 0.840755
vt 0.112001 0.415511
vt 0.107786 0.004260
vt 0.248955 0.002167
vt 0.249135 0.412445
vt 0.550538 0.902149
vt 0.553274 0.899330
vt 0.118834 0.934566
vt 0.118829 0.873599
vt 0.121694 0.876277
vt 0.121565 0.931747
vt 0.674467 0.420238
vt 0.661488 0.418857
vt 0.678141 0.424708
vt 0.671329 0.513750
vt 0.671448 0.529953
vt 0.672794 0.618002
vt 0.672789 0.634231
vt 0.674584 0.738237
vt 0.677622 0.826659
vt 0.673811 0.830884
vt 0.660994 0.831361
vt 0.611041 0.902154
vt 0.608179 0.899469
vt 0.774254 0.430406
vt 0.784454 0.420052
vt 0.176259 0.934566
vt 0.173394 0.931889
vt 0.772196 0.617748
vt 0.782234 0.619131
vt 0.826091 0.705856
vt 0.887178 0.705853
vt 0.884447 0.708676
vt 0.828950 0.708545
vt 0.771429 0.719504
vt 0.781246 0.720585
vt 0.774030 0.823843
vt 0.771759 0.735839
vt 0.781550 0.734611
vt 0.784462 0.834119
vt 0.656896 0.827406
vt 0.650382 0.529827
vt 0.657148 0.422532
vt 0.798520 0.420232
vt 0.798555 0.834062
vt 0.795291 0.732550
vt 0.796025 0.722909
vt 0.382828 0.414965
vt 0.387215 0.418497
vt 0.393908 0.217165
vt 0.392301 0.306779
vt 0.391389 0.322466
vt 0.399938 0.416449
vt 0.394352 0.202187
vt 0.394292 0.004433
vt 0.381023 0.004401
vt 0.376995 0.008564
vt 0.176254 0.873600
vt 0.173523 0.876419
vt 0.826096 0.769945
vt 0.828828 0.767122
vt 0.887183 0.769942
vt 0.884324 0.767253
vt 0.496898 0.115403
vt 0.506827 0.201569
vt 0.497407 0.099124
vt 0.498163 0.010702
vt 0.508524 0.000575
vt 0.886438 0.063776
vt 0.886433 0.003378
vt 0.889289 0.006066
vt 0.889159 0.060948
vt 0.496464 0.216694
vt 0.506484 0.215537
vt 0.505429 0.303400
vt 0.498761 0.405806
vt 0.505715 0.317151
vt 0.509129 0.416192
vt 0.944627 0.063772
vt 0.941771 0.061084
vt 0.398440 0.008519
vt 0.399283 0.097197
vt 0.399065 0.113604
vt 0.397768 0.217702
vt 0.403498 0.411801
vt 0.522804 0.001030
vt 0.523085 0.416431
vt 0.519659 0.314909
vt 0.520393 0.305239
vt 0.519296 0.214278
vt 0.522131 0.204592
vt 0.670136 0.008971
vt 0.665923 0.004924
vt 0.652530 0.005010
vt 0.669987 0.413546
vt 0.657095 0.413897
vt 0.673838 0.409362
vt 0.810487 0.838072
vt 0.810492 0.899053
vt 0.807632 0.896369
vt 0.807761 0.840896
vt 0.944622 0.003374
vt 0.941901 0.006202
vt 0.752287 0.838072
vt 0.755147 0.840757
vt 0.752292 0.899054
vt 0.755018 0.896230
vt 0.770689 0.010762
vt 0.781099 0.000575
vt 0.745546 0.902148
vt 0.685043 0.902143
vt 0.687778 0.899324
vt 0.742683 0.899464
vt 0.770875 0.407057
vt 0.781366 0.417514
vt 0.745543 0.838070
vt 0.742807 0.840889
vt 0.652992 0.409891
vt 0.648494 0.009220
vt 0.795459 0.000974
vt 0.795579 0.417708
vt 0.518502 0.212780
vt 0.506513 0.211647
vt 0.506840 0.203785
vt 0.519412 0.206968
vt 0.517389 0.313047
vt 0.505735 0.313869
vt 0.505786 0.306074
vt 0.517980 0.307498
vt 0.494300 0.111413
vt 0.402333 0.109771
vt 0.402450 0.101158
vt 0.494480 0.102962
vt 0.493927 0.212768
vt 0.401154 0.213879
vt 0.280049 0.203296
vt 0.275218 0.313509
vt 0.275695 0.305065
vt 0.394582 0.213743
vt 0.394760 0.205762
vt 0.391755 0.318825
vt 0.392148 0.310538
vt 0.278050 0.199585
vt 0.273515 0.317136
vt 0.273645 0.301233
vt 0.087699 0.228213
vt 0.027135 0.227879
vt 0.086850 0.293215
vt 0.025805 0.291603
vt 0.087580 0.123011
vt 0.026354 0.124519
vt 0.087946 0.187573
vt 0.027250 0.188086
vt 0.210551 0.022623
vt 0.151836 0.019588
vt 0.208755 0.086733
vt 0.148146 0.084111
vt 0.207570 0.125906
vt 0.147335 0.123803
vt 0.207799 0.187562
vt 0.147229 0.187623
vt 0.207285 0.226861
vt 0.146799 0.227589
vt 0.206611 0.289091
vt 0.146452 0.291939
vt 0.207525 0.328336
vt 0.146706 0.331776
vt 0.210749 0.391348
vt 0.154008 0.397166
vt 0.640195 0.754710
vt 0.579901 0.757148
vt 0.642108 0.812726
vt 0.558189 0.831399
vt 0.581970 0.815148
vt 0.637886 0.650620
vt 0.577205 0.652992
vt 0.638885 0.707877
vt 0.577972 0.710531
vt 0.636034 0.545919
vt 0.574270 0.549223
vt 0.637248 0.603527
vt 0.576280 0.606318
vt 0.759708 0.444902
vt 0.700958 0.441475
vt 0.758354 0.502007
vt 0.697022 0.499711
vt 0.757378 0.547791
vt 0.696265 0.545850
vt 0.757554 0.602982
vt 0.697056 0.602851
vt 0.757578 0.648901
vt 0.697331 0.649177
vt 0.757275 0.704860
vt 0.698070 0.706178
vt 0.758067 0.751316
vt 0.699056 0.752828
vt 0.759616 0.809050
vt 0.700919 0.810675
vt 0.362563 0.232622
vt 0.301923 0.231020
vt 0.361183 0.290597
vt 0.299391 0.287549
vt 0.364018 0.128951
vt 0.303432 0.128926
vt 0.363577 0.186195
vt 0.302845 0.185113
vt 0.276169 0.011545
vt 0.362830 0.024130
vt 0.301507 0.025834
vt 0.363918 0.082206
vt 0.303507 0.082924
vt 0.483628 0.025558
vt 0.423132 0.024283
vt 0.483245 0.083569
vt 0.423472 0.082303
vt 0.482623 0.130021
vt 0.423010 0.129180
vt 0.482525 0.185745
vt 0.422600 0.186276
vt 0.481887 0.231838
vt 0.421764 0.232699
vt 0.481149 0.288004
vt 0.420834 0.290176
vt 0.481790 0.334004
vt 0.421198 0.336791
vt 0.484175 0.391469
vt 0.425677 0.394709
vt 0.636428 0.333684
vt 0.575961 0.335476
vt 0.638308 0.398490
vt 0.553933 0.413121
vt 0.577941 0.400433
vt 0.634988 0.229938
vt 0.574158 0.230609
vt 0.635534 0.293548
vt 0.574285 0.295444
vt 0.635894 0.126253
vt 0.574891 0.127023
vt 0.635366 0.189881
vt 0.574379 0.190630
vt 0.547739 0.012760
vt 0.634276 0.021537
vt 0.573040 0.023583
vt 0.635971 0.086253
vt 0.575157 0.087557
vt 0.756272 0.022303
vt 0.695671 0.021234
vt 0.755959 0.087144
vt 0.696650 0.086010
vt 0.755205 0.126971
vt 0.695460 0.126053
vt 0.755334 0.189176
vt 0.695005 0.189502
vt 0.754957 0.228618
vt 0.694743 0.229036
vt 0.754517 0.291335
vt 0.695076 0.292409
vt 0.754977 0.331123
vt 0.695554 0.332216
vt 0.756461 0.395521
vt 0.697459 0.396920
vt 0.889977 0.772743
vt 0.823302 0.772741
vt 0.823292 0.703056
vt 0.889977 0.703057
vt 0.889977 0.631068
vt 0.823292 0.631067
vt 0.826091 0.628271
vt 0.887178 0.628268
vt 0.823292 0.561381
vt 0.826086 0.564182
vt 0.889967 0.561383
vt 0.887173 0.564179
vt 0.317826 0.869634
vt 0.251717 0.869635
vt 0.254515 0.866834
vt 0.315033 0.866838
vt 0.251717 0.799088
vt 0.254511 0.801890
vt 0.317826 0.799098
vt 0.315028 0.801894
vt 0.681091 0.904945
vt 0.614990 0.904945
vt 0.617789 0.902143
vt 0.678292 0.902148
vt 0.614991 0.835269
vt 0.617785 0.838065
vt 0.681082 0.835269
vt 0.678288 0.838070
vt 0.823292 0.773897
vt 0.889383 0.773893
vt 0.886589 0.776694
vt 0.826086 0.776694
vt 0.889393 0.843574
vt 0.886594 0.840773
vt 0.823292 0.843568
vt 0.826091 0.840772
vt 0.886579 0.323738
vt 0.820471 0.323738
vt 0.823268 0.320937
vt 0.883786 0.320941
vt 0.820470 0.253191
vt 0.823264 0.255993
vt 0.886579 0.253202
vt 0.883781 0.255998
vt 0.749491 0.901852
vt 0.749491 0.835269
vt 0.813288 0.835274
vt 0.813288 0.901857
vt 0.507555 0.839271
vt 0.507555 0.905840
vt 0.444533 0.905834
vt 0.444533 0.839264
vt 0.823292 0.911293
vt 0.823292 0.844724
vt 0.826089 0.847528
vt 0.826093 0.908495
vt 0.886314 0.844730
vt 0.883513 0.847529
vt 0.886314 0.911300
vt 0.883518 0.908495
vt 0.180205 0.936795
vt 0.180205 0.870795
vt 0.183002 0.873599
vt 0.183007 0.933997
vt 0.243993 0.870799
vt 0.241191 0.873597
vt 0.243993 0.936799
vt 0.241196 0.933995
vt 0.887740 0.319177
vt 0.887729 0.253191
vt 0.890531 0.255995
vt 0.890536 0.316378
vt 0.950747 0.253193
vt 0.947945 0.255992
vt 0.950747 0.319179
vt 0.947950 0.316375
vt 0.887475 0.910710
vt 0.887464 0.844724
vt 0.890266 0.847528
vt 0.890272 0.907911
vt 0.950482 0.844726
vt 0.947681 0.847525
vt 0.950482 0.910712
vt 0.947686 0.907907
vt 0.883648 0.133725
vt 0.883636 0.067725
vt 0.886438 0.070528
vt 0.886444 0.130926
vt 0.947429 0.067726
vt 0.944628 0.070524
vt 0.947429 0.133725
vt 0.944633 0.130922
vt 0.179055 0.870801
vt 0.179055 0.937371
vt 0.116033 0.937364
vt 0.116033 0.870795
vt 0.251717 0.937354
vt 0.251717 0.870785
vt 0.254514 0.873589
vt 0.254519 0.934555
vt 0.314740 0.870791
vt 0.311939 0.873589
vt 0.314740 0.937360
vt 0.311943 0.934556
vt 0.379586 0.905848
vt 0.379586 0.839264
vt 0.382382 0.842068
vt 0.382387 0.903050
vt 0.443383 0.839269
vt 0.440582 0.842067
vt 0.443383 0.905853
vt 0.440587 0.903049
vt 0.000575 0.940552
vt 0.000575 0.874552
vt 0.003372 0.877356
vt 0.003376 0.937754
vt 0.064362 0.874556
vt 0.061561 0.877354
vt 0.064362 0.940556
vt 0.061566 0.937752
vt 0.887740 0.386314
vt 0.887729 0.320329
vt 0.890531 0.323133
vt 0.890536 0.383515
vt 0.950747 0.320330
vt 0.947945 0.323129
vt 0.950747 0.386316
vt 0.947950 0.383512
vt 0.946644 0.134877
vt 0.946655 0.200863
vt 0.943853 0.198059
vt 0.943847 0.137676
vt 0.883636 0.200861
vt 0.886438 0.198062
vt 0.883636 0.134875
vt 0.886433 0.137679
vt 0.947418 0.000575
vt 0.947429 0.066575
vt 0.883636 0.066575
vt 0.883636 0.000575
vt 0.182725 0.869645
vt 0.116033 0.869639
vt 0.116033 0.799088
vt 0.118827 0.801889
vt 0.182725 0.799094
vt 0.823292 0.490544
vt 0.889967 0.490545
vt 0.887173 0.493341
vt 0.826086 0.493344
vt 0.889977 0.560231
vt 0.887178 0.557430
vt 0.823292 0.560229
vt 0.826091 0.557433
vt 0.889977 0.701906
vt 0.823292 0.701904
vt 0.826091 0.699108
vt 0.887178 0.699105
vt 0.823292 0.632218
vt 0.826086 0.635019
vt 0.889967 0.632220
vt 0.887173 0.635016
vt 0.183875 0.799088
vt 0.250568 0.799094
vt 0.247770 0.801890
vt 0.186669 0.801889
vt 0.250568 0.869645
vt 0.247774 0.866844
vt 0.183875 0.869639
vt 0.186673 0.866843
vt 0.888989 0.489394
vt 0.823292 0.489387
vt 0.826090 0.486590
vt 0.886097 0.486593
vt 0.823292 0.418857
vt 0.826086 0.421659
vt 0.888669 0.418859
vt 0.885966 0.421657
vt 0.682240 0.835269
vt 0.748341 0.835269
vt 0.685039 0.838065
vt 0.748340 0.904945
vt 0.682249 0.904945
vt 0.613835 0.904950
vt 0.547744 0.904950
vt 0.547739 0.835269
vt 0.613840 0.835279
vt 0.886579 0.395434
vt 0.820471 0.395435
vt 0.823268 0.392633
vt 0.883786 0.392638
vt 0.820470 0.324888
vt 0.823264 0.327689
vt 0.886579 0.324898
vt 0.883781 0.327694
vt 0.946512 0.669925
vt 0.891127 0.669925
vt 0.891127 0.611477
vt 0.946512 0.611477
vt 0.946512 0.729524
vt 0.891127 0.729524
vt 0.891127 0.671075
vt 0.946512 0.671075
vt 0.944938 0.478174
vt 0.890139 0.478174
vt 0.890139 0.418857
vt 0.944938 0.418857
vt 0.726324 0.964543
vt 0.671525 0.964543
vt 0.671525 0.906094
vt 0.726324 0.906094
vt 0.602539 0.964548
vt 0.547739 0.964548
vt 0.547739 0.906100
vt 0.602539 0.906100
vt 0.945342 0.833210
vt 0.890543 0.833210
vt 0.890543 0.773893
vt 0.945342 0.773893
vt 0.940005 0.911862
vt 0.940005 0.967247
vt 0.887464 0.967247
vt 0.887464 0.911862
vt 0.370739 0.920021
vt 0.370739 0.975406
vt 0.318976 0.975406
vt 0.318976 0.920021
vt 0.992919 0.911862
vt 0.992919 0.967246
vt 0.941155 0.967246
vt 0.941155 0.911862
vt 0.168574 0.938520
vt 0.168574 0.993320
vt 0.116033 0.993320
vt 0.116033 0.938520
vt 0.998256 0.773893
vt 0.998256 0.828692
vt 0.946492 0.828692
vt 0.946492 0.773893
vt 0.998331 0.551010
vt 0.998331 0.605810
vt 0.946568 0.605810
vt 0.946568 0.551010
vt 0.053116 0.941706
vt 0.053116 0.996505
vt 0.000575 0.996505
vt 0.000575 0.941706
vt 0.231969 0.937949
vt 0.231969 0.993334
vt 0.180205 0.993334
vt 0.180205 0.937949
vt 0.303481 0.938510
vt 0.303481 0.993895
vt 0.251717 0.993895
vt 0.251717 0.938510
vt 0.875833 0.912449
vt 0.875833 0.967834
vt 0.823292 0.967834
vt 0.823292 0.912449
vt 0.106807 0.941706
vt 0.106807 0.996505
vt 0.054266 0.996505
vt 0.054266 0.941706
vt 0.998839 0.490544
vt 0.998839 0.545343
vt 0.947076 0.545343
vt 0.947076 0.490544
vt 0.999425 0.611477
vt 0.999425 0.666276
vt 0.947662 0.666276
vt 0.947662 0.611477
vt 0.998628 0.418857
vt 0.998628 0.473657
vt 0.946087 0.473657
vt 0.946087 0.418857
vt 0.374361 0.858405
vt 0.318976 0.858405
vt 0.318976 0.799088
vt 0.374361 0.799088
vt 0.804876 0.961455
vt 0.749491 0.961455
vt 0.749491 0.903007
vt 0.804876 0.903007
vt 0.670375 0.964543
vt 0.614990 0.964543
vt 0.614990 0.906094
vt 0.670375 0.906094
vt 0.374361 0.918871
vt 0.318976 0.918871
vt 0.318976 0.859555
vt 0.374361 0.859555
vt 0.945418 0.610327
vt 0.891127 0.610327
vt 0.891127 0.551010
vt 0.945284 0.551010
vt 0.499332 0.965438
vt 0.444533 0.965438
vt 0.444533 0.906990
vt 0.499332 0.906990
vt 0.434385 0.965451
vt 0.379586 0.965451
vt 0.379586 0.907002
vt 0.434385 0.907002
vt 0.945926 0.549860
vt 0.891127 0.549860
vt 0.891127 0.490544
vt 0.945926 0.490544
vt 0.121690 0.804573
vt 0.828822 0.625448
vt 0.884319 0.625579
vt 0.884442 0.567002
vt 0.257378 0.876266
vt 0.257250 0.931736
vt 0.828946 0.566871
vt 0.309079 0.931878
vt 0.826010 0.389820
vt 0.880918 0.389959
vt 0.309208 0.876409
vt 0.881040 0.330508
vt 0.826131 0.330369
vt 0.828953 0.850206
vt 0.828824 0.905675
vt 0.880653 0.905818
vt 0.884442 0.496164
vt 0.828945 0.496033
vt 0.880782 0.850348
vt 0.828822 0.554610
vt 0.884319 0.554741
vt 0.257257 0.864020
vt 0.312165 0.864159
vt 0.312286 0.804708
vt 0.385242 0.844752
vt 0.385113 0.900226
vt 0.257378 0.804569
vt 0.437727 0.900365
vt 0.437856 0.844892
vt 0.185858 0.876287
vt 0.185728 0.931169
vt 0.238339 0.931307
vt 0.828822 0.696285
vt 0.884319 0.696416
vt 0.238470 0.876425
vt 0.884442 0.637839
vt 0.828945 0.637708
vt 0.620524 0.899324
vt 0.675429 0.899464
vt 0.675553 0.840889
vt 0.006228 0.880044
vt 0.006098 0.934926
vt 0.620648 0.840749
vt 0.058709 0.935064
vt 0.058840 0.880182
vt 0.893392 0.258676
vt 0.893262 0.313555
vt 0.945089 0.313693
vt 0.245032 0.804707
vt 0.189533 0.804573
vt 0.945219 0.258815
vt 0.189411 0.864026
vt 0.244910 0.864160
vt 0.883854 0.779514
vt 0.828949 0.779378
vt 0.828826 0.837953
vt 0.893392 0.325814
vt 0.893262 0.380692
vt 0.883731 0.838088
vt 0.945089 0.380831
vt 0.945219 0.325952
vt 0.893128 0.850209
vt 0.892998 0.905088
vt 0.944824 0.905226
vt 0.828835 0.483780
vt 0.883222 0.483920
vt 0.944955 0.850348
vt 0.883225 0.424468
vt 0.828958 0.424333
vt 0.826010 0.318123
vt 0.880918 0.318262
vt 0.881040 0.258811
vt 0.940991 0.195377
vt 0.941121 0.140499
vt 0.826131 0.258672
vt 0.889295 0.140360
vt 0.889164 0.195239
vt 0.889295 0.073216
vt 0.889165 0.128098
vt 0.941776 0.128234
vt 0.687902 0.840750
vt 0.941907 0.073352
vt 0.481340 0.649311
vt 0.490288 0.668663
vt 0.486922 0.666331
vt 0.480760 0.653573
vt 0.478367 0.815910
vt 0.392069 0.773329
vt 0.397291 0.760241
vt 0.485486 0.803394
vt 0.478002 0.607455
vt 0.392298 0.563698
vt 0.397821 0.550710
vt 0.485294 0.595066
vt 0.488853 0.593043
vt 0.478232 0.611706
vt 0.490436 0.457804
vt 0.420123 0.488659
vt 0.393412 0.497306
vt 0.394897 0.494062
vt 0.487033 0.455526
vt 0.390058 0.689493
vt 0.394052 0.703275
vt 0.390634 0.480427
vt 0.480634 0.442817
vt 0.419327 0.698238
vt 0.392517 0.706547
vt 0.481134 0.438530
vt 0.386853 0.686844
vt 0.387374 0.477861
vt 0.821667 0.125733
vt 0.820916 0.105908
vt 0.820470 0.091846
vt 0.820470 0.034463
vt 0.820916 0.020400
vt 0.821667 0.000575
vt 0.882487 0.063154
vt 0.421423 0.766704
vt 0.396134 0.756870
vt 0.379586 0.668069
vt 0.473773 0.630695
vt 0.388589 0.775750
vt 0.478659 0.820167
vt 0.469469 0.838115
vt 0.379586 0.793678
vt 0.821667 0.252041
vt 0.820916 0.232216
vt 0.820470 0.218154
vt 0.820470 0.160771
vt 0.820916 0.146708
vt 0.821667 0.126883
vt 0.882487 0.189462
vt 0.421798 0.557497
vt 0.396752 0.547374
vt 0.472994 0.420077
vt 0.379586 0.459375
vt 0.468914 0.629546
vt 0.379586 0.583943
vt 0.388750 0.566054
vt 0.489010 0.801319
vt 0.428166 0.494609
vt 0.430363 0.551632
vt 0.057154 0.799088
vt 0.057154 0.873402
vt 0.000575 0.873403
vt 0.000575 0.799088
vt 0.114883 0.799088
vt 0.114883 0.873403
vt 0.058304 0.873403
vt 0.058304 0.799088
vt 0.429930 0.760739
vt 0.493411 0.793483
vt 0.427383 0.704226
vt 0.493920 0.677253
vt 0.493365 0.585271
vt 0.494259 0.466307
s 0
f 369/1/1 368/2/1 367/3/1 370/4/1
f 349/5/2 373/6/2 374/7/2 350/8/2
f 351/9/3 367/3/3 368/2/3 352/10/3
f 147/11/4 178/12/4 131/13/4 122/14/4
f 6/15/4 2/16/4 36/17/4 37/18/4
f 299/19/1 281/20/1 42/21/1 48/22/1
f 352/10/1 353/23/1 354/24/1 351/9/1
f 177/25/1 148/26/1 121/27/1 132/28/1
f 344/29/1 330/30/1 329/31/1 343/32/1
f 311/33/1 299/19/1 48/22/1 58/34/1
f 332/35/5 333/36/5 334/37/5 331/38/5
f 328/39/5 329/31/5 330/30/5 327/40/5
f 320/41/6 319/42/6 69/43/6 70/44/6
f 158/45/1 170/46/1 109/47/1 93/48/1
f 308/49/1 296/50/1 85/51/1 63/52/1
f 282/53/4 300/54/4 47/55/4 41/56/4
f 169/57/4 157/58/4 94/59/4 110/60/4
f 296/50/1 325/61/1 84/62/1 85/51/1
f 301/63/1 279/64/1 44/65/1 46/66/1
f 340/67/1 338/68/1 337/69/1 339/70/1
f 280/71/4 302/72/4 45/73/4 43/74/4
f 156/75/1 168/76/1 105/77/1 95/78/1
f 182/79/4 176/80/4 126/81/4 123/82/4
f 181/83/1 152/84/1 113/85/1 124/86/1
f 154/87/1 166/88/1 101/89/1 97/90/1
f 304/91/1 292/92/1 77/93/1 67/94/1
f 165/95/4 153/96/4 98/97/4 102/98/4
f 86/99/7 64/100/7 63/52/7 85/51/7
f 300/54/4 312/101/4 57/102/4 47/55/4
f 175/103/1 181/83/1 124/86/1 125/104/1
f 176/80/6 175/103/6 125/104/6 126/81/6
f 136/105/8 135/106/8 99/107/8 100/108/8
f 319/42/4 326/109/4 83/110/4 69/43/4
f 37/111/6 36/112/6 35/113/6 38/114/6
f 4/115/9 6/116/9 37/117/9 38/118/9
f 2/119/7 1/120/7 35/121/7 36/122/7
f 1/123/1 4/124/1 38/125/1 35/126/1
f 323/127/1 318/128/1 72/129/1 80/130/1
f 137/131/4 167/132/4 106/133/4 103/134/4
f 143/135/4 162/136/4 115/137/4 90/138/4
f 174/139/6 173/140/6 129/141/6 130/142/6
f 138/143/8 137/131/8 103/134/8 104/144/8
f 64/100/10 39/145/10 40/146/10 63/52/10
f 66/147/10 41/56/10 42/21/10 65/148/10
f 39/145/7 49/149/7 50/150/7 40/146/7
f 43/74/7 45/73/7 46/66/7 44/65/7
f 58/34/11 48/22/11 47/55/11 57/102/11
f 54/151/11 50/150/11 49/149/11 53/152/11
f 53/152/7 52/153/7 51/154/7 54/151/7
f 57/102/7 56/155/7 55/156/7 58/34/7
f 82/157/7 66/147/7 65/148/7 81/158/7
f 78/159/7 68/160/7 67/94/7 77/93/7
f 69/43/7 83/110/7 84/62/7 70/44/7
f 71/161/7 79/162/7 80/130/7 72/129/7
f 77/93/12 76/163/12 75/164/12 78/159/12
f 85/51/12 84/62/12 83/110/12 86/99/12
f 122/14/13 131/13/13 132/28/13 121/27/13
f 118/165/13 127/166/13 128/167/13 117/168/13
f 114/169/13 123/82/13 124/86/13 113/85/13
f 112/170/14 87/171/14 88/172/14 111/173/14
f 120/174/14 91/175/14 92/176/14 119/177/14
f 87/171/9 97/90/9 98/97/9 88/172/9
f 89/178/9 95/78/9 96/179/9 90/138/9
f 91/175/9 93/48/9 94/59/9 92/176/9
f 110/60/15 94/59/15 93/48/15 109/47/15
f 102/98/15 98/97/15 97/90/15 101/89/15
f 101/89/9 100/108/9 99/107/9 102/98/9
f 105/77/9 104/144/9 103/134/9 106/133/9
f 113/85/9 112/170/9 111/173/9 114/169/9
f 117/168/9 116/180/9 115/137/9 118/165/9
f 125/104/9 124/86/9 123/82/9 126/81/9
f 129/141/9 128/167/9 127/166/9 130/142/9
f 133/181/9 132/28/9 131/13/9 134/182/9
f 371/183/1 366/184/1 365/185/1 372/186/1
f 109/47/9 108/187/9 107/188/9 110/60/9
f 345/189/2 369/1/2 370/4/2 346/190/2
f 355/191/3 365/185/3 366/184/3 356/192/3
f 359/193/3 363/194/3 364/195/3 360/196/3
f 360/196/1 361/197/1 362/198/1 359/193/1
f 356/192/1 357/199/1 358/200/1 355/191/1
f 331/38/1 347/201/1 348/202/1 332/35/1
f 335/203/1 345/189/1 346/190/1 336/204/1
f 342/205/1 334/37/1 333/36/1 341/206/1
f 336/204/5 337/69/5 338/68/5 335/203/5
f 41/56/7 47/55/7 48/22/7 42/21/7
f 162/136/4 149/207/4 118/165/4 115/137/4
f 81/158/12 80/130/12 79/162/12 82/157/12
f 326/109/4 295/208/4 86/99/4 83/110/4
f 106/133/15 96/179/15 95/78/15 105/77/15
f 150/209/1 161/210/1 116/180/1 117/168/1
f 347/201/2 371/183/2 372/186/2 348/202/2
f 295/208/4 307/211/4 64/100/4 86/99/4
f 160/212/4 147/11/4 122/14/4 119/177/4
f 306/213/1 294/214/1 81/158/1 65/148/1
f 148/26/1 159/215/1 120/174/1 121/27/1
f 167/132/4 155/216/4 96/179/4 106/133/4
f 293/217/4 305/218/4 66/147/4 82/157/4
f 302/72/4 314/219/4 61/220/4 45/73/4
f 161/210/1 144/221/1 89/178/1 116/180/1
f 313/222/1 301/63/1 46/66/1 62/223/1
f 149/207/4 180/224/4 127/166/4 118/165/4
f 291/225/4 303/226/4 68/160/4 78/159/4
f 179/227/1 150/209/1 117/168/1 128/167/1
f 325/61/1 320/41/1 70/44/1 84/62/1
f 163/228/1 146/229/1 87/171/1 112/170/1
f 151/230/4 182/79/4 123/82/4 114/169/4
f 180/224/4 174/139/4 130/142/4 127/166/4
f 166/88/1 136/105/1 100/108/1 101/89/1
f 145/231/4 164/232/4 111/173/4 88/172/4
f 298/233/4 310/234/4 53/152/4 49/149/4
f 135/106/4 165/95/4 102/98/4 99/107/4
f 173/140/1 179/227/1 128/167/1 129/141/1
f 317/235/4 324/236/4 79/162/4 71/161/4
f 309/237/1 297/238/1 50/150/1 54/151/1
f 61/220/7 60/239/7 59/240/7 62/223/7
f 73/241/7 75/164/7 76/163/7 74/242/7
f 116/180/14 89/178/14 90/138/14 115/137/14
f 68/160/10 43/74/10 44/65/10 67/94/10
f 121/27/9 120/174/9 119/177/9 122/14/9
f 62/223/11 46/66/11 45/73/11 61/220/11
f 327/40/1 349/5/1 350/8/1 328/39/1
f 318/128/6 317/235/6 71/161/6 72/129/6
f 285/243/1 309/237/1 54/151/1 51/154/1
f 178/12/4 172/244/4 134/182/4 131/13/4
f 168/76/1 138/143/1 104/144/1 105/77/1
f 141/245/4 160/212/4 119/177/4 92/176/4
f 321/246/1 316/247/1 74/242/1 76/163/1
f 286/248/8 285/243/8 51/154/8 52/153/8
f 159/215/1 142/249/1 91/175/1 120/174/1
f 315/250/4 322/251/4 75/164/4 73/241/4
f 310/234/4 286/248/4 52/153/4 53/152/4
f 171/252/1 177/25/1 132/28/1 133/181/1
f 283/253/1 308/49/1 63/52/1 40/146/1
f 139/254/4 169/57/4 110/60/4 107/188/4
f 153/96/4 145/231/4 88/172/4 98/97/4
f 316/247/6 315/250/6 73/241/6 74/242/6
f 172/244/6 171/252/6 133/181/6 134/182/6
f 307/211/4 284/255/4 39/145/4 64/100/4
f 140/256/8 139/254/8 107/188/8 108/187/8
f 146/229/1 154/87/1 97/90/1 87/171/1
f 322/251/4 291/225/4 78/159/4 75/164/4
f 287/257/1 311/33/1 58/34/1 55/156/1
f 274/258/7 268/259/7 375/260/7 378/261/7
f 264/262/9 240/263/9 405/264/9 404/265/9
f 235/266/7 250/267/7 412/268/7 421/269/7
f 221/270/7 228/271/7 334/37/7 342/205/7
f 213/272/9 201/273/9 363/194/9 359/193/9
f 249/274/9 236/275/9 422/276/9 411/277/9
f 222/278/6 221/270/6 342/205/6 341/206/6
f 183/279/9 213/272/9 359/193/9 362/198/9
f 267/280/9 273/281/9 377/282/9 376/283/9
f 241/284/7 265/285/7 399/286/7 402/287/7
f 236/275/9 266/288/9 400/289/9 422/276/9
f 225/290/9 220/291/9 339/70/9 337/69/9
f 184/292/8 183/279/8 362/198/8 361/197/8
f 268/259/6 267/280/6 376/283/6 375/260/6
f 242/293/8 241/284/8 402/287/8 401/294/8
f 219/295/7 226/296/7 338/68/7 340/67/7
f 214/297/7 184/292/7 361/197/7 360/196/7
f 201/273/9 194/298/9 374/7/9 363/194/9
f 266/288/9 242/293/9 401/294/9 400/289/9
f 265/285/7 235/266/7 421/269/7 399/286/7
f 220/291/6 219/295/6 340/67/6 339/70/6
f 193/299/7 202/300/7 364/195/7 373/6/7
f 234/301/9 264/262/9 404/265/9 420/302/9
f 226/296/7 195/303/7 335/203/7 338/68/7
f 185/304/9 215/305/9 355/191/9 358/200/9
f 203/306/9 192/307/9 372/186/9 365/185/9
f 260/308/7 247/309/7 395/310/7 398/311/7
f 186/312/8 185/304/8 358/200/8 357/199/8
f 191/313/7 204/314/7 366/184/7 371/183/7
f 263/315/6 233/316/6 419/317/6 403/318/6
f 196/319/9 225/290/9 337/69/9 336/204/9
f 216/320/7 186/312/7 357/199/7 356/192/7
f 205/321/9 190/322/9 370/4/9 367/3/9
f 248/323/9 259/324/9 397/325/9 396/326/9
f 232/327/9 262/328/9 408/329/9 418/330/9
f 189/331/7 206/332/7 368/2/7 369/1/7
f 228/271/7 197/333/7 331/38/7 334/37/7
f 187/334/9 217/335/9 351/9/9 354/24/9
f 194/298/9 212/336/9 350/8/9 374/7/9
f 258/337/7 245/338/7 391/339/7 394/340/7
f 261/341/7 231/342/7 417/343/7 407/344/7
f 188/345/8 187/334/8 354/24/8 353/23/8
f 281/20/1 306/213/1 65/148/1 42/21/1
f 170/46/1 140/256/1 108/187/1 109/47/1
f 288/346/8 287/257/8 55/156/8 56/155/8
f 305/218/4 282/53/4 41/56/4 66/147/4
f 155/216/4 143/135/4 90/138/4 96/179/4
f 292/92/1 321/246/1 76/163/1 77/93/1
f 312/101/4 288/346/4 56/155/4 57/102/4
f 279/64/1 304/91/1 67/94/1 44/65/1
f 164/232/4 151/230/4 114/169/4 111/173/4
f 144/221/1 156/75/1 95/78/1 89/178/1
f 303/226/4 280/71/4 43/74/4 68/160/4
f 324/236/4 293/217/4 82/157/4 79/162/4
f 289/347/1 313/222/1 62/223/1 59/240/1
f 297/238/1 283/253/1 40/146/1 50/150/1
f 152/84/1 163/228/1 112/170/1 113/85/1
f 157/58/4 141/245/4 92/176/4 94/59/4
f 290/348/8 289/347/8 59/240/8 60/239/8
f 284/255/4 298/233/4 49/149/4 39/145/4
f 142/249/1 158/45/1 93/48/1 91/175/1
f 294/214/1 323/127/1 80/130/1 81/158/1
f 314/219/4 290/348/4 60/239/4 61/220/4
f 565/349/9 566/350/9 677/351/9 678/352/9
f 618/353/6 615/354/6 728/355/6 729/356/6
f 22/357/6 160/212/6 141/245/6 26/358/6
f 142/249/9 143/135/9 155/216/9 158/45/9
f 26/358/9 141/245/9 157/58/9 25/359/9
f 159/215/6 162/136/6 143/135/6 142/249/6
f 144/221/9 145/231/9 153/96/9 156/75/9
f 161/210/6 164/232/6 145/231/6 144/221/6
f 146/229/9 14/360/9 13/361/9 154/87/9
f 163/228/6 15/362/6 14/360/6 146/229/6
f 564/363/8 565/349/8 678/352/8 675/364/8
f 149/207/8 148/26/8 177/25/8 180/224/8
f 147/11/8 7/365/8 27/366/8 178/12/8
f 615/354/4 616/367/4 727/368/4 728/355/4
f 566/350/6 563/369/6 676/370/6 677/351/6
f 151/230/8 150/209/8 179/227/8 182/79/8
f 8/371/8 152/84/8 181/83/8 32/372/8
f 641/373/1 642/374/1 753/375/1 754/376/1
f 16/377/8 166/88/8 154/87/8 13/361/8
f 165/95/8 168/76/8 156/75/8 153/96/8
f 167/132/8 170/46/8 158/45/8 155/216/8
f 169/57/8 21/378/8 25/359/8 157/58/8
f 27/366/9 28/379/9 172/244/9 178/12/9
f 1/120/6 2/119/6 29/380/6 175/103/6 176/80/6 173/140/6 174/139/6 171/252/6 172/244/6 28/379/6
f 177/25/9 171/252/9 174/139/9 180/224/9
f 179/227/9 173/140/9 176/80/9 182/79/9
f 181/83/9 175/103/9 29/380/9 32/372/9
f 563/369/7 564/363/7 675/364/7 676/370/7
f 640/381/8 641/373/8 754/376/8 751/382/8
f 589/383/7 590/384/7 701/385/7 702/386/7
f 14/387/1 190/322/1 205/321/1 13/388/1
f 15/389/6 208/390/6 190/322/6 14/387/6
f 189/331/1 192/307/1 203/306/1 206/332/1
f 207/391/6 210/392/6 192/307/6 189/331/6
f 191/313/1 194/298/1 201/273/1 204/314/1
f 209/393/6 212/336/6 194/298/6 191/313/6
f 211/394/6 17/395/6 12/396/6 193/299/6
f 193/299/1 12/396/1 11/397/1 202/300/1
f 642/374/6 639/398/6 752/399/6 753/375/6
f 196/319/8 8/400/8 32/401/8 225/290/8
f 588/402/8 589/383/8 702/386/8 699/403/8
f 198/404/8 195/303/8 226/296/8 227/405/8
f 537/406/4 538/407/4 649/408/4 650/409/4
f 200/410/8 197/333/8 228/271/8 229/411/8
f 9/412/8 199/413/8 230/414/8 33/415/8
f 639/398/4 640/381/4 751/382/4 752/399/4
f 18/416/8 214/297/8 202/300/8 11/397/8
f 213/272/8 216/320/8 204/314/8 201/273/8
f 215/305/8 218/417/8 206/332/8 203/306/8
f 217/335/8 16/418/8 13/388/8 205/321/8
f 32/401/1 29/419/1 220/291/1 225/290/1
f 2/16/6 6/15/6 30/420/6 223/421/6 224/422/6 221/270/6 222/278/6 219/295/6 220/291/6 29/419/6
f 226/296/1 219/295/1 222/278/1 227/405/1
f 228/271/1 221/270/1 224/422/1 229/411/1
f 230/414/1 223/421/1 30/420/1 33/415/1
f 21/423/8 262/328/8 232/327/8 25/424/8
f 251/425/4 254/426/4 231/342/4 234/301/4
f 261/341/8 264/262/8 234/301/8 231/342/8
f 253/427/4 26/428/4 25/424/4 232/327/4
f 249/274/4 252/429/4 233/316/4 236/275/4
f 263/315/8 266/288/8 236/275/8 233/316/8
f 23/430/4 250/267/4 235/266/4 24/431/4
f 265/285/8 20/432/8 24/431/8 235/266/8
f 590/384/6 587/433/6 700/434/6 701/385/6
f 536/435/8 537/406/8 650/409/8 647/436/8
f 587/433/9 588/402/9 699/403/9 700/434/9
f 538/407/6 535/437/6 648/438/6 649/408/6
f 245/338/8 244/439/8 273/281/8 276/440/8
f 243/441/8 10/442/8 34/443/8 274/258/8
f 613/444/7 614/445/7 725/446/7 726/447/7
f 535/437/1 536/435/1 647/436/1 648/438/1
f 247/309/8 246/448/8 275/449/8 278/450/8
f 7/451/8 248/323/8 277/452/8 27/453/8
f 612/454/8 613/444/8 726/447/8 723/455/8
f 19/456/6 256/457/6 250/267/6 23/430/6
f 255/458/6 258/337/6 252/429/6 249/274/6
f 257/459/6 260/308/6 254/426/6 251/425/6
f 259/324/6 22/460/6 26/428/6 253/427/6
f 34/443/4 31/461/4 268/259/4 274/258/4
f 4/124/6 1/123/6 28/462/6 271/463/6 272/464/6 269/465/6 270/466/6 267/280/6 268/259/6 31/461/6
f 273/281/4 267/280/4 270/466/4 276/440/4
f 275/449/4 269/465/4 272/464/4 278/450/4
f 277/452/4 271/463/4 28/462/4 27/453/4
f 17/467/6 304/91/6 279/64/6 12/468/6
f 280/71/7 281/20/7 299/19/7 302/72/7
f 12/468/7 279/64/7 301/63/7 11/469/7
f 303/226/6 306/213/6 281/20/6 280/71/6
f 282/53/7 283/253/7 297/238/7 300/54/7
f 305/218/6 308/49/6 283/253/6 282/53/6
f 284/255/7 23/470/7 24/471/7 298/233/7
f 307/211/6 19/472/6 23/470/6 284/255/6
f 561/473/9 562/474/9 673/475/9 674/476/9
f 614/445/6 611/477/6 724/478/6 725/446/6
f 560/479/8 561/473/8 674/476/8 671/480/8
f 611/477/9 612/454/9 723/455/9 724/478/9
f 562/474/6 559/481/6 672/482/6 673/475/6
f 292/92/8 9/483/8 33/484/8 321/246/8
f 637/485/1 638/486/1 749/487/1 750/488/1
f 294/214/8 291/225/8 322/251/8 323/127/8
f 559/481/7 560/479/7 671/480/7 672/482/7
f 296/50/8 293/217/8 324/236/8 325/61/8
f 10/489/8 295/208/8 326/109/8 34/490/8
f 636/491/8 637/485/8 750/488/8 747/492/8
f 20/493/8 310/234/8 298/233/8 24/471/8
f 309/237/8 312/101/8 300/54/8 297/238/8
f 311/33/8 314/219/8 302/72/8 299/19/8
f 313/222/8 18/494/8 11/469/8 301/63/8
f 33/484/7 30/495/7 316/247/7 321/246/7
f 6/116/6 4/115/6 31/496/6 319/42/6 320/41/6 317/235/6 318/128/6 315/250/6 316/247/6 30/495/6
f 322/251/7 315/250/7 318/128/7 323/127/7
f 324/236/7 317/235/7 320/41/7 325/61/7
f 326/109/7 319/42/7 31/496/7 34/490/7
f 373/6/1 364/195/1 363/194/1 374/7/1
f 376/283/4 377/282/4 378/261/4 375/260/4
f 380/497/4 381/498/4 382/499/4 379/500/4
f 384/501/4 385/502/4 386/503/4 383/504/4
f 388/505/4 389/506/4 390/507/4 387/508/4
f 392/509/4 393/510/4 394/340/4 391/339/4
f 396/326/4 397/325/4 398/311/4 395/310/4
f 400/289/4 401/294/4 402/287/4 399/286/4
f 404/265/4 405/264/4 406/511/4 403/318/4
f 408/329/4 409/512/4 410/513/4 407/344/4
f 389/506/16 411/277/16 412/268/16 390/507/16
f 393/510/16 413/514/16 414/515/16 394/340/16
f 397/325/16 415/516/16 416/517/16 398/311/16
f 407/344/17 417/343/17 418/330/17 408/329/17
f 403/318/8 419/317/8 420/302/8 404/265/8
f 399/286/17 421/269/17 422/276/17 400/289/17
f 411/277/4 422/276/4 421/269/4 412/268/4
f 413/514/4 420/302/4 419/317/4 414/515/4
f 415/516/4 418/330/4 417/343/4 416/517/4
f 395/310/18 386/503/18 385/502/18 396/326/18
f 391/339/18 382/499/18 381/498/18 392/509/18
f 387/508/18 378/261/18 377/282/18 388/505/18
f 227/405/9 222/278/9 341/206/9 333/36/9
f 251/425/9 234/301/9 420/302/9 413/514/9
f 240/263/8 239/518/8 406/511/8 405/264/8
f 270/466/6 269/465/6 380/497/6 379/500/6
f 202/300/7 214/297/7 360/196/7 364/195/7
f 224/422/6 223/421/6 344/29/6 343/32/6
f 233/316/7 252/429/7 414/515/7 419/317/7
f 239/518/7 263/315/7 403/318/7 406/511/7
f 269/465/9 275/449/9 381/498/9 380/497/9
f 215/305/9 203/306/9 365/185/9 355/191/9
f 223/421/7 230/414/7 330/30/7 344/29/7
f 253/427/9 232/327/9 418/330/9 415/516/9
f 229/411/9 224/422/9 343/32/9 329/31/9
f 231/342/7 254/426/7 416/517/7 417/343/7
f 262/328/9 238/519/9 409/512/9 408/329/9
f 276/440/7 270/466/7 379/500/7 382/499/7
f 204/314/7 216/320/7 356/192/7 366/184/7
f 195/303/7 207/391/7 345/189/7 335/203/7
f 247/309/7 278/450/7 386/503/7 395/310/7
f 238/519/8 237/520/8 410/513/8 409/512/8
f 272/464/6 271/463/6 384/501/6 383/504/6
f 217/335/9 205/321/9 367/3/9 351/9/9
f 277/452/9 248/323/9 396/326/9 385/502/9
f 237/520/7 261/341/7 407/344/7 410/513/7
f 271/463/9 277/452/9 385/502/9 384/501/9
f 208/390/9 196/319/9 336/204/9 346/190/9
f 245/338/7 276/440/7 382/499/7 391/339/7
f 255/458/9 249/274/9 411/277/9 389/506/9
f 206/332/7 218/417/7 352/10/7 368/2/7
f 197/333/7 209/393/7 347/201/7 331/38/7
f 275/449/9 246/448/9 392/509/9 381/498/9
f 278/450/7 272/464/7 383/504/7 386/503/7
f 207/391/7 189/331/7 369/1/7 345/189/7
f 243/441/7 274/258/7 378/261/7 387/508/7
f 250/267/7 256/457/7 390/507/7 412/268/7
f 210/392/9 198/404/9 332/35/9 348/202/9
f 273/281/9 244/439/9 388/505/9 377/282/9
f 257/459/9 251/425/9 413/514/9 393/510/9
f 244/439/9 255/458/9 389/506/9 388/505/9
f 190/322/9 208/390/9 346/190/9 370/4/9
f 199/413/7 211/394/7 349/5/7 327/40/7
f 200/410/9 229/411/9 329/31/9 328/39/9
f 209/393/7 191/313/7 371/183/7 347/201/7
f 252/429/7 258/337/7 394/340/7 414/515/7
f 256/457/7 243/441/7 387/508/7 390/507/7
f 212/336/9 200/410/9 328/39/9 350/8/9
f 230/414/7 199/413/7 327/40/7 330/30/7
f 259/324/9 253/427/9 415/516/9 397/325/9
f 192/307/9 210/392/9 348/202/9 372/186/9
f 246/448/9 257/459/9 393/510/9 392/509/9
f 211/394/7 193/299/7 373/6/7 349/5/7
f 218/417/7 188/345/7 353/23/7 352/10/7
f 198/404/9 227/405/9 333/36/9 332/35/9
f 254/426/7 260/308/7 398/311/7 416/517/7
f 138/143/9 168/76/9 424/521/9 423/522/9
f 168/76/9 165/95/9 425/523/9 424/521/9
f 165/95/9 135/106/9 426/524/9 425/523/9
f 135/106/9 138/143/9 423/522/9 426/524/9
f 140/256/9 170/46/9 428/525/9 427/526/9
f 170/46/9 167/132/9 429/527/9 428/525/9
f 167/132/9 137/131/9 430/528/9 429/527/9
f 137/131/9 140/256/9 427/526/9 430/528/9
f 22/357/9 7/365/9 432/529/9 431/530/9
f 7/365/9 147/11/9 433/531/9 432/529/9
f 147/11/9 160/212/9 434/532/9 433/531/9
f 160/212/9 22/357/9 431/530/9 434/532/9
f 159/215/9 148/26/9 436/533/9 435/534/9
f 148/26/9 149/207/9 437/535/9 436/533/9
f 149/207/9 162/136/9 438/536/9 437/535/9
f 162/136/9 159/215/9 435/534/9 438/536/9
f 161/210/9 150/209/9 440/537/9 439/538/9
f 150/209/9 151/230/9 441/539/9 440/537/9
f 151/230/9 164/232/9 442/540/9 441/539/9
f 164/232/9 161/210/9 439/538/9 442/540/9
f 163/228/9 152/84/9 444/541/9 443/542/9
f 152/84/9 8/371/9 445/543/9 444/541/9
f 8/371/9 15/362/9 446/544/9 445/543/9
f 15/362/9 163/228/9 443/542/9 446/544/9
f 184/292/1 214/297/1 448/545/1 447/546/1
f 214/297/1 18/416/1 449/547/1 448/545/1
f 18/416/1 5/548/1 450/549/1 449/547/1
f 5/548/1 184/292/1 447/546/1 450/549/1
f 186/312/1 216/320/1 452/550/1 451/551/1
f 216/320/1 213/272/1 453/552/1 452/550/1
f 213/272/1 183/279/1 454/553/1 453/552/1
f 183/279/1 186/312/1 451/551/1 454/553/1
f 188/345/1 218/417/1 456/554/1 455/555/1
f 218/417/1 215/305/1 457/556/1 456/554/1
f 215/305/1 185/304/1 458/557/1 457/556/1
f 185/304/1 188/345/1 455/555/1 458/557/1
f 15/389/1 8/400/1 460/558/1 459/559/1
f 8/400/1 196/319/1 461/560/1 460/558/1
f 196/319/1 208/390/1 462/561/1 461/560/1
f 208/390/1 15/389/1 459/559/1 462/561/1
f 207/391/1 195/303/1 464/562/1 463/563/1
f 195/303/1 198/404/1 465/564/1 464/562/1
f 198/404/1 210/392/1 466/565/1 465/564/1
f 210/392/1 207/391/1 463/563/1 466/565/1
f 209/393/1 197/333/1 468/566/1 467/567/1
f 197/333/1 200/410/1 469/568/1 468/566/1
f 200/410/1 212/336/1 470/569/1 469/568/1
f 212/336/1 209/393/1 467/567/1 470/569/1
f 211/394/1 199/413/1 472/570/1 471/571/1
f 199/413/1 9/412/1 473/572/1 472/570/1
f 9/412/1 17/395/1 474/573/1 473/572/1
f 17/395/1 211/394/1 471/571/1 474/573/1
f 240/263/4 264/262/4 476/574/4 475/575/4
f 264/262/4 261/341/4 477/576/4 476/574/4
f 261/341/4 237/520/4 478/577/4 477/576/4
f 237/520/4 240/263/4 475/575/4 478/577/4
f 242/293/4 266/288/4 480/578/4 479/579/4
f 266/288/4 263/315/4 481/580/4 480/578/4
f 263/315/4 239/518/4 482/581/4 481/580/4
f 239/518/4 242/293/4 479/579/4 482/581/4
f 3/582/4 20/432/4 484/583/4 483/584/4
f 20/432/4 265/285/4 485/585/4 484/583/4
f 265/285/4 241/284/4 486/586/4 485/585/4
f 241/284/4 3/582/4 483/584/4 486/586/4
f 19/456/4 10/442/4 488/587/4 487/588/4
f 10/442/4 243/441/4 489/589/4 488/587/4
f 243/441/4 256/457/4 490/590/4 489/589/4
f 256/457/4 19/456/4 487/588/4 490/590/4
f 255/458/4 244/439/4 492/591/4 491/592/4
f 244/439/4 245/338/4 493/593/4 492/591/4
f 245/338/4 258/337/4 494/594/4 493/593/4
f 258/337/4 255/458/4 491/592/4 494/594/4
f 257/459/4 246/448/4 496/595/4 495/596/4
f 246/448/4 247/309/4 497/597/4 496/595/4
f 247/309/4 260/308/4 498/598/4 497/597/4
f 260/308/4 257/459/4 495/596/4 498/598/4
f 259/324/4 248/323/4 500/599/4 499/600/4
f 248/323/4 7/451/4 501/601/4 500/599/4
f 7/451/4 22/460/4 502/602/4 501/601/4
f 22/460/4 259/324/4 499/600/4 502/602/4
f 286/248/7 310/234/7 504/603/7 503/604/7
f 310/234/7 20/493/7 505/605/7 504/603/7
f 20/493/7 3/606/7 506/607/7 505/605/7
f 3/606/7 286/248/7 503/604/7 506/607/7
f 288/346/7 312/101/7 508/608/7 507/609/7
f 312/101/7 309/237/7 509/610/7 508/608/7
f 309/237/7 285/243/7 510/611/7 509/610/7
f 285/243/7 288/346/7 507/609/7 510/611/7
f 290/348/7 314/219/7 512/612/7 511/613/7
f 314/219/7 311/33/7 513/614/7 512/612/7
f 311/33/7 287/257/7 514/615/7 513/614/7
f 287/257/7 290/348/7 511/613/7 514/615/7
f 5/616/7 18/494/7 516/617/7 515/618/7
f 18/494/7 313/222/7 517/619/7 516/617/7
f 313/222/7 289/347/7 518/620/7 517/619/7
f 289/347/7 5/616/7 515/618/7 518/620/7
f 17/467/7 9/483/7 520/621/7 519/622/7
f 9/483/7 292/92/7 521/623/7 520/621/7
f 292/92/7 304/91/7 522/624/7 521/623/7
f 304/91/7 17/467/7 519/622/7 522/624/7
f 303/226/7 291/225/7 524/625/7 523/626/7
f 291/225/7 294/214/7 525/627/7 524/625/7
f 294/214/7 306/213/7 526/628/7 525/627/7
f 306/213/7 303/226/7 523/626/7 526/628/7
f 305/218/7 293/217/7 528/629/7 527/630/7
f 293/217/7 296/50/7 529/631/7 528/629/7
f 296/50/7 308/49/7 530/632/7 529/631/7
f 308/49/7 305/218/7 527/630/7 530/632/7
f 307/211/7 295/208/7 532/633/7 531/634/7
f 295/208/7 10/489/7 533/635/7 532/633/7
f 10/489/7 19/472/7 534/636/7 533/635/7
f 19/472/7 307/211/7 531/634/7 534/636/7
f 423/637/9 424/638/9 536/435/9 535/437/9
f 424/638/9 425/639/9 537/406/9 536/435/9
f 425/639/9 426/640/9 538/407/9 537/406/9
f 426/640/9 423/637/9 535/437/9 538/407/9
f 427/641/9 428/642/9 540/643/9 539/644/9
f 428/642/9 429/645/9 541/646/9 540/643/9
f 429/645/9 430/647/9 542/648/9 541/646/9
f 430/647/9 427/641/9 539/644/9 542/648/9
f 431/649/9 432/650/9 544/651/9 543/652/9
f 432/650/9 433/653/9 545/654/9 544/651/9
f 433/653/9 434/655/9 546/656/9 545/654/9
f 434/655/9 431/649/9 543/652/9 546/656/9
f 435/657/9 436/658/9 548/659/9 547/660/9
f 436/658/9 437/661/9 549/662/9 548/659/9
f 437/661/9 438/663/9 550/664/9 549/662/9
f 438/663/9 435/657/9 547/660/9 550/664/9
f 439/665/9 440/666/9 552/667/9 551/668/9
f 440/666/9 441/669/9 553/670/9 552/667/9
f 441/669/9 442/671/9 554/672/9 553/670/9
f 442/671/9 439/665/9 551/668/9 554/672/9
f 443/673/9 444/674/9 556/675/9 555/676/9
f 444/674/9 445/677/9 557/678/9 556/675/9
f 445/677/9 446/679/9 558/680/9 557/678/9
f 446/679/9 443/673/9 555/676/9 558/680/9
f 447/681/1 448/682/1 560/479/1 559/481/1
f 448/682/1 449/683/1 561/473/1 560/479/1
f 449/683/1 450/684/1 562/474/1 561/473/1
f 450/684/1 447/681/1 559/481/1 562/474/1
f 451/685/1 452/686/1 564/363/1 563/369/1
f 452/686/1 453/687/1 565/349/1 564/363/1
f 453/687/1 454/688/1 566/350/1 565/349/1
f 454/688/1 451/685/1 563/369/1 566/350/1
f 455/689/1 456/690/1 568/691/1 567/692/1
f 456/690/1 457/693/1 569/694/1 568/691/1
f 457/693/1 458/695/1 570/696/1 569/694/1
f 458/695/1 455/689/1 567/692/1 570/696/1
f 459/697/1 460/698/1 572/699/1 571/700/1
f 460/698/1 461/701/1 573/702/1 572/699/1
f 461/701/1 462/703/1 574/704/1 573/702/1
f 462/703/1 459/697/1 571/700/1 574/704/1
f 463/705/1 464/706/1 576/707/1 575/708/1
f 464/706/1 465/709/1 577/710/1 576/707/1
f 465/709/1 466/711/1 578/712/1 577/710/1
f 466/711/1 463/705/1 575/708/1 578/712/1
f 467/713/1 468/714/1 580/715/1 579/716/1
f 468/714/1 469/717/1 581/718/1 580/715/1
f 469/717/1 470/719/1 582/720/1 581/718/1
f 470/719/1 467/713/1 579/716/1 582/720/1
f 471/721/1 472/722/1 584/723/1 583/724/1
f 472/722/1 473/725/1 585/726/1 584/723/1
f 473/725/1 474/727/1 586/728/1 585/726/1
f 474/727/1 471/721/1 583/724/1 586/728/1
f 475/729/4 476/730/4 588/402/4 587/433/4
f 476/730/4 477/731/4 589/383/4 588/402/4
f 477/731/4 478/732/4 590/384/4 589/383/4
f 478/732/4 475/729/4 587/433/4 590/384/4
f 479/733/4 480/734/4 592/735/4 591/736/4
f 480/734/4 481/737/4 593/738/4 592/735/4
f 481/737/4 482/739/4 594/740/4 593/738/4
f 482/739/4 479/733/4 591/736/4 594/740/4
f 483/741/4 484/742/4 596/743/4 595/744/4
f 484/742/4 485/745/4 597/746/4 596/743/4
f 485/745/4 486/747/4 598/748/4 597/746/4
f 486/747/4 483/741/4 595/744/4 598/748/4
f 487/749/4 488/750/4 600/751/4 599/752/4
f 488/750/4 489/753/4 601/754/4 600/751/4
f 489/753/4 490/755/4 602/756/4 601/754/4
f 490/755/4 487/749/4 599/752/4 602/756/4
f 491/757/4 492/758/4 604/759/4 603/760/4
f 492/758/4 493/761/4 605/762/4 604/759/4
f 493/761/4 494/763/4 606/764/4 605/762/4
f 494/763/4 491/757/4 603/760/4 606/764/4
f 495/765/4 496/766/4 608/767/4 607/768/4
f 496/766/4 497/769/4 609/770/4 608/767/4
f 497/769/4 498/771/4 610/772/4 609/770/4
f 498/771/4 495/765/4 607/768/4 610/772/4
f 499/773/4 500/774/4 612/454/4 611/477/4
f 500/774/4 501/775/4 613/444/4 612/454/4
f 501/775/4 502/776/4 614/445/4 613/444/4
f 502/776/4 499/773/4 611/477/4 614/445/4
f 503/777/7 504/778/7 616/367/7 615/354/7
f 504/778/7 505/779/7 617/780/7 616/367/7
f 505/779/7 506/781/7 618/353/7 617/780/7
f 506/781/7 503/777/7 615/354/7 618/353/7
f 507/782/7 508/783/7 620/784/7 619/785/7
f 508/783/7 509/786/7 621/787/7 620/784/7
f 509/786/7 510/788/7 622/789/7 621/787/7
f 510/788/7 507/782/7 619/785/7 622/789/7
f 511/790/7 512/791/7 624/792/7 623/793/7
f 512/791/7 513/794/7 625/795/7 624/792/7
f 513/794/7 514/796/7 626/797/7 625/795/7
f 514/796/7 511/790/7 623/793/7 626/797/7
f 515/798/7 516/799/7 628/800/7 627/801/7
f 516/799/7 517/802/7 629/803/7 628/800/7
f 517/802/7 518/804/7 630/805/7 629/803/7
f 518/804/7 515/798/7 627/801/7 630/805/7
f 519/806/7 520/807/7 632/808/7 631/809/7
f 520/807/7 521/810/7 633/811/7 632/808/7
f 521/810/7 522/812/7 634/813/7 633/811/7
f 522/812/7 519/806/7 631/809/7 634/813/7
f 523/814/7 524/815/7 636/491/7 635/816/7
f 524/815/7 525/817/7 637/485/7 636/491/7
f 525/817/7 526/818/7 638/486/7 637/485/7
f 526/818/7 523/814/7 635/816/7 638/486/7
f 527/819/7 528/820/7 640/381/7 639/398/7
f 528/820/7 529/821/7 641/373/7 640/381/7
f 529/821/7 530/822/7 642/374/7 641/373/7
f 530/822/7 527/819/7 639/398/7 642/374/7
f 531/823/7 532/824/7 644/825/7 643/826/7
f 532/824/7 533/827/7 645/828/7 644/825/7
f 533/827/7 534/829/7 646/830/7 645/828/7
f 534/829/7 531/823/7 643/826/7 646/830/7
f 648/831/9 647/832/9 650/833/9 649/834/9
f 652/835/9 651/836/9 654/837/9 653/838/9
f 655/839/9 656/840/9 658/841/9 657/842/9
f 660/843/9 659/844/9 662/845/9 661/846/9
f 664/847/9 663/848/9 666/849/9 665/850/9
f 668/851/9 667/852/9 670/853/9 669/854/9
f 672/855/1 671/856/1 674/857/1 673/858/1
f 676/859/1 675/860/1 678/861/1 677/862/1
f 680/863/1 679/864/1 682/865/1 681/866/1
f 683/867/1 684/868/1 686/869/1 685/870/1
f 688/871/1 687/872/1 690/873/1 689/874/1
f 692/875/1 691/876/1 694/877/1 693/878/1
f 696/879/1 695/880/1 698/881/1 697/882/1
f 700/883/4 699/884/4 702/885/4 701/886/4
f 704/887/4 703/888/4 706/889/4 705/890/4
f 708/891/4 707/892/4 710/893/4 709/894/4
f 712/895/4 711/896/4 714/897/4 713/898/4
f 716/899/4 715/900/4 718/901/4 717/902/4
f 720/903/4 719/904/4 722/905/4 721/906/4
f 724/907/4 723/908/4 726/909/4 725/910/4
f 728/911/7 727/912/7 730/913/7 729/914/7
f 732/915/7 731/916/7 734/917/7 733/918/7
f 736/919/7 735/920/7 738/921/7 737/922/7
f 740/923/7 739/924/7 742/925/7 741/926/7
f 744/927/7 743/928/7 746/929/7 745/930/7
f 748/931/7 747/932/7 750/933/7 749/934/7
f 752/935/7 751/936/7 754/937/7 753/938/7
f 756/939/7 755/940/7 758/941/7 757/942/7
f 616/367/8 617/780/8 730/943/8 727/368/8
f 539/644/1 540/643/1 651/944/1 652/945/1
f 617/780/1 618/353/1 729/356/1 730/943/1
f 542/648/6 539/644/6 652/945/6 653/946/6
f 591/736/9 592/735/9 703/947/9 704/948/9
f 540/643/8 541/646/8 654/949/8 651/944/8
f 594/740/6 591/736/6 704/948/6 705/950/6
f 643/826/4 644/825/4 755/951/4 756/952/4
f 541/646/4 542/648/4 653/946/4 654/949/4
f 592/735/8 593/738/8 706/953/8 703/947/8
f 646/830/6 643/826/6 756/952/6 757/954/6
f 593/738/7 594/740/7 705/950/7 706/953/7
f 644/825/8 645/828/8 758/955/8 755/951/8
f 567/692/7 568/691/7 679/956/7 680/957/7
f 645/828/1 646/830/1 757/954/1 758/955/1
f 570/696/6 567/692/6 680/957/6 681/958/6
f 619/785/4 620/784/4 731/959/4 732/960/4
f 568/691/8 569/694/8 682/961/8 679/956/8
f 622/789/6 619/785/6 732/960/6 733/962/6
f 569/694/9 570/696/9 681/958/9 682/961/9
f 620/784/8 621/787/8 734/963/8 731/959/8
f 543/652/1 544/651/1 656/964/1 655/965/1
f 621/787/1 622/789/1 733/962/1 734/963/1
f 546/656/6 543/652/6 655/965/6 657/966/6
f 595/744/9 596/743/9 707/967/9 708/968/9
f 544/651/8 545/654/8 658/969/8 656/964/8
f 598/748/6 595/744/6 708/968/6 709/970/6
f 545/654/4 546/656/4 657/966/4 658/969/4
f 596/743/8 597/746/8 710/971/8 707/967/8
f 597/746/7 598/748/7 709/970/7 710/971/7
f 571/700/7 572/699/7 684/972/7 683/973/7
f 574/704/6 571/700/6 683/973/6 685/974/6
f 623/793/4 624/792/4 735/975/4 736/976/4
f 572/699/8 573/702/8 686/977/8 684/972/8
f 626/797/6 623/793/6 736/976/6 737/978/6
f 573/702/9 574/704/9 685/974/9 686/977/9
f 624/792/8 625/795/8 738/979/8 735/975/8
f 547/660/1 548/659/1 659/980/1 660/981/1
f 625/795/1 626/797/1 737/978/1 738/979/1
f 550/664/6 547/660/6 660/981/6 661/982/6
f 599/752/9 600/751/9 711/983/9 712/984/9
f 548/659/8 549/662/8 662/985/8 659/980/8
f 602/756/6 599/752/6 712/984/6 713/986/6
f 549/662/4 550/664/4 661/982/4 662/985/4
f 600/751/8 601/754/8 714/987/8 711/983/8
f 601/754/7 602/756/7 713/986/7 714/987/7
f 575/708/7 576/707/7 687/988/7 688/989/7
f 578/712/6 575/708/6 688/989/6 689/990/6
f 627/801/4 628/800/4 739/991/4 740/992/4
f 576/707/8 577/710/8 690/993/8 687/988/8
f 630/805/6 627/801/6 740/992/6 741/994/6
f 577/710/9 578/712/9 689/990/9 690/993/9
f 628/800/8 629/803/8 742/995/8 739/991/8
f 551/668/1 552/667/1 663/996/1 664/997/1
f 629/803/1 630/805/1 741/994/1 742/995/1
f 554/672/6 551/668/6 664/997/6 665/998/6
f 603/760/9 604/759/9 715/999/9 716/1000/9
f 552/667/8 553/670/8 666/1001/8 663/996/8
f 606/764/6 603/760/6 716/1000/6 717/1002/6
f 553/670/4 554/672/4 665/998/4 666/1001/4
f 604/759/8 605/762/8 718/1003/8 715/999/8
f 605/762/7 606/764/7 717/1002/7 718/1003/7
f 579/716/7 580/715/7 691/1004/7 692/1005/7
f 582/720/6 579/716/6 692/1005/6 693/1006/6
f 631/809/4 632/808/4 743/1007/4 744/1008/4
f 580/715/8 581/718/8 694/1009/8 691/1004/8
f 634/813/19 631/809/19 744/1008/19 745/1010/19
f 581/718/9 582/720/9 693/1006/9 694/1009/9
f 632/808/8 633/811/8 746/1011/8 743/1007/8
f 555/676/1 556/675/1 667/1012/1 668/1013/1
f 633/811/1 634/813/1 745/1010/1 746/1011/1
f 558/680/6 555/676/6 668/1013/6 669/1014/6
f 607/768/9 608/767/9 719/1015/9 720/1016/9
f 556/675/8 557/678/8 670/1017/8 667/1012/8
f 610/772/6 607/768/6 720/1016/6 721/1018/6
f 557/678/4 558/680/4 669/1014/4 670/1017/4
f 608/767/8 609/770/8 722/1019/8 719/1015/8
f 609/770/7 610/772/7 721/1018/7 722/1019/7
f 583/724/7 584/723/7 695/1020/7 696/1021/7
f 586/728/6 583/724/6 696/1021/6 697/1022/6
f 635/816/4 636/491/4 747/492/4 748/1023/4
f 584/723/8 585/726/8 698/1024/8 695/1020/8
f 638/486/6 635/816/6 748/1023/6 749/487/6
f 585/726/9 586/728/9 697/1022/9 698/1024/9
f 778/1025/8 777/1026/8 790/1027/8 789/1028/8
f 784/1029/20 785/1030/20 786/1031/20 783/1032/20
f 765/1033/21 764/1034/21 763/1035/21 766/1036/21
f 780/1037/8 779/1038/8 765/1033/8 766/1036/8
f 781/1039/22 792/1040/22 772/1041/22 762/1042/22 759/1043/22
f 788/1044/20 789/1028/20 790/1027/20 787/1045/20
f 761/1046/21 760/1047/21 759/1043/21 762/1042/21
f 777/1026/21 794/1048/21 768/1049/21 787/1045/21 790/1027/21
f 782/1050/8 781/1039/8 759/1043/8 760/1047/8
f 767/1051/23 778/1025/23 789/1028/23 788/1044/23
f 771/1052/20 782/1050/20 760/1047/20 761/1046/20
f 768/1049/6 767/1051/6 788/1044/6 787/1045/6
f 217/1053/8 767/1054/8 768/1055/8 769/1056/8 770/1057/8 166/1058/8 16/1059/8
f 793/1060/20 769/1061/20 768/1049/20 794/1048/20
f 217/1062/20 187/1063/20 778/1025/20 767/1051/20
f 770/1064/20 775/1065/20 136/1066/20 166/1067/20
f 169/1068/8 771/1069/8 772/1070/8 773/1071/8 774/1072/8 262/1073/8 21/1074/8
f 791/1075/21 773/1076/21 772/1041/21 792/1040/21
f 139/1077/21 782/1050/21 771/1052/21 169/1078/21
f 779/1038/21 238/1079/21 262/1080/21 774/1081/21
f 776/1082/8 775/1065/8 784/1029/8 783/1032/8
f 779/1038/22 774/1081/22 764/1034/22 765/1033/22
f 775/1065/21 770/1064/21 785/1030/21 784/1029/21
f 774/1081/6 773/1076/6 763/1035/6 764/1034/6
f 770/1064/6 769/1061/6 786/1031/6 785/1030/6
f 773/1076/20 791/1075/20 780/1037/20 766/1036/20 763/1035/20
f 769/1061/23 793/1060/23 776/1082/23 783/1032/23 786/1031/23
f 772/1041/6 771/1052/6 761/1046/6 762/1042/6
f 791/1075/8 792/1040/8 801/1083/8 795/1084/8
f 796/1085/21 795/1086/21 801/1087/21 800/1088/21
f 798/1089/20 797/1090/20 802/1091/20 799/1092/20
f 776/1082/23 793/1060/23 797/1093/23 798/1094/23
f 793/1060/8 794/1048/8 802/1095/8 797/1093/8
f 794/1048/21 777/1026/21 799/1096/21 802/1095/21
f 780/1037/20 791/1075/20 795/1084/20 796/1097/20
f 792/1040/22 781/1039/22 800/1098/22 801/1083/22
