# Blender 5.2.1 LTS
# www.blender.org
o Cube
v -5.000000 -4.000000 5.000000
v -4.679093 4.000000 4.679093
v -5.000000 -4.000000 -5.000000
v -4.679093 4.000000 -4.679093
v 5.000000 -4.000000 5.000000
v 4.679093 4.000000 4.679093
v 5.000000 -4.000000 -5.000000
v 4.679093 4.000000 -4.679093
v -5.000000 -1.333333 5.000000
v -5.120966 1.151389 5.120966
v -5.240404 1.515278 5.240404
v -5.000000 -1.333333 -5.000000
v 5.240404 1.515278 5.240404
v 5.000000 -1.615833 -5.000000
v 5.120966 1.151389 5.120966
v 5.000000 -1.615833 5.000000
v -5.000000 1.515278 5.000000
v -5.000000 1.151389 5.000000
v -5.000000 1.151389 -5.000000
v -5.000000 1.515278 -5.000000
v 5.000000 1.151389 -5.000000
v 5.000000 1.515278 -5.000000
v 5.000000 1.151389 5.000000
v 5.000000 1.515278 5.000000
v 5.120966 1.151389 -5.120966
v 5.240404 1.515278 -5.240404
v -5.120966 1.151389 -5.120966
v -5.240404 1.515278 -5.240404
v 4.641042 3.703336 4.641042
v -4.641042 3.703336 4.641042
v -4.641042 3.703336 -4.641042
v 4.641042 3.703336 -4.641042
v -4.708321 3.293232 4.708321
v -4.708321 3.293232 -4.708321
v 4.708321 3.293232 -4.708321
v 4.708321 3.293232 4.708321
v -4.954452 1.792922 4.954452
v -4.954452 1.792922 -4.954452
v 4.954452 1.792922 -4.954452
v 4.954452 1.792922 4.954452
v 4.026155 3.293232 4.708321
v -4.026155 3.293232 4.708321
v 3.944302 1.874773 4.953858
v -3.944302 1.874773 4.953858
v -4.708321 3.293232 4.026155
v -4.708321 3.293232 -4.026155
v -4.953858 1.874773 3.944302
v -4.953858 1.874773 -3.944302
v -4.026155 3.293232 -4.708322
v 4.026155 3.293232 -4.708322
v -3.944302 1.874773 -4.953858
v 3.944302 1.874773 -4.953858
v 4.708322 3.293232 -4.026155
v 4.708322 3.293232 4.026155
v 4.953858 1.874773 -3.944302
v 4.953858 1.874773 3.944302
v 4.026155 3.131300 4.734886
v -4.026155 3.131300 4.734886
v -4.734886 3.131300 4.026155
v -4.734886 3.131300 -4.026155
v -4.026155 3.131300 -4.734887
v 4.026155 3.131300 -4.734887
v 4.734887 3.131300 -4.026155
v 4.734887 3.131300 4.026155
v 2.875825 3.293232 4.708321
v 1.725495 3.293232 4.708321
v 0.575165 3.293232 4.708321
v -0.575165 3.293232 4.708321
v -1.725495 3.293232 4.708321
v -2.875825 3.293232 4.708321
v 2.957678 1.874773 4.953858
v 1.643642 1.874773 4.953858
v 0.657018 1.874773 4.953858
v -0.657018 1.874773 4.953858
v -1.643642 1.874773 4.953858
v -2.957678 1.874773 4.953858
v -4.708321 3.293232 2.875825
v -4.708321 3.293232 1.725495
v -4.708321 3.293232 0.575165
v -4.708321 3.293232 -0.575165
v -4.708321 3.293232 -1.725495
v -4.708321 3.293232 -2.875825
v -4.953858 1.874773 2.957678
v -4.953858 1.874773 1.643642
v -4.953858 1.874773 0.657018
v -4.953858 1.874773 -0.657018
v -4.953858 1.874773 -1.643642
v -4.953858 1.874773 -2.957678
v -2.875825 3.293232 -4.708322
v -1.725495 3.293232 -4.708322
v -0.575165 3.293232 -4.708322
v 0.575165 3.293232 -4.708322
v 1.725495 3.293232 -4.708322
v 2.875825 3.293232 -4.708322
v -2.957678 1.874773 -4.953858
v -1.643642 1.874773 -4.953858
v -0.657018 1.874773 -4.953858
v 0.657018 1.874773 -4.953858
v 1.643642 1.874773 -4.953858
v 2.957678 1.874773 -4.953858
v 4.708322 3.293232 -2.875825
v 4.708322 3.293232 -1.725495
v 4.708322 3.293232 -0.575165
v 4.708322 3.293232 0.575165
v 4.708322 3.293232 1.725495
v 4.708322 3.293232 2.875825
v 4.953858 1.874773 -2.957678
v 4.953858 1.874773 -1.643642
v 4.953858 1.874773 -0.657018
v 4.953858 1.874773 0.657018
v 4.953858 1.874773 1.643642
v 4.953858 1.874773 2.957678
v 4.734887 3.131300 -2.875825
v 4.734887 3.131300 -1.725495
v 4.734887 3.131300 -0.575165
v 4.734887 3.131300 0.575165
v 4.734887 3.131300 1.725495
v 4.734887 3.131300 2.875825
v -2.875825 3.131300 -4.734887
v -1.725495 3.131300 -4.734887
v -0.575165 3.131300 -4.734887
v 0.575165 3.131300 -4.734887
v 1.725495 3.131300 -4.734887
v 2.875825 3.131300 -4.734887
v -4.734886 3.131300 2.875825
v -4.734886 3.131300 1.725495
v -4.734886 3.131300 0.575165
v -4.734886 3.131300 -0.575165
v -4.734886 3.131300 -1.725495
v -4.734886 3.131300 -2.875825
v 2.875825 3.131300 4.734886
v 1.725495 3.131300 4.734886
v 0.575165 3.131300 4.734886
v -0.575165 3.131300 4.734886
v -1.725495 3.131300 4.734886
v -2.875825 3.131300 4.734886
v -2.875825 3.248435 4.918503
v -4.026155 3.248435 4.918503
v -4.918503 3.248435 -2.875825
v -4.918503 3.248435 -4.026155
v 2.875825 3.248435 -4.918504
v 4.026155 3.248435 -4.918504
v 4.918504 3.248435 2.875825
v 4.918504 3.248435 4.026155
v 4.026155 3.248435 4.918503
v 3.944302 3.004652 4.945662
v -3.944302 3.004652 4.945662
v -4.918503 3.248435 4.026155
v -4.945662 3.004652 3.944302
v -4.945662 3.004652 -3.944302
v -4.026155 3.248435 -4.918504
v -3.944302 3.004652 -4.945663
v 3.944302 3.004652 -4.945663
v 4.918504 3.248435 -4.026155
v 4.945663 3.004652 -3.944302
v 4.945663 3.004652 3.944302
v 4.945663 3.004652 2.957678
v 2.957678 3.004652 -4.945663
v -4.945662 3.004652 -2.957678
v -2.957678 3.004652 4.945662
v 2.875825 3.248435 4.918503
v 1.725495 3.248435 4.918503
v 0.575165 3.248435 4.918503
v -0.575165 3.248435 4.918503
v -1.725495 3.248435 4.918503
v -4.918503 3.248435 2.875825
v -4.918503 3.248435 1.725495
v -4.918503 3.248435 0.575165
v -4.918503 3.248435 -0.575165
v -4.918503 3.248435 -1.725495
v -2.875825 3.248435 -4.918504
v -1.725495 3.248435 -4.918504
v -0.575165 3.248435 -4.918504
v 0.575165 3.248435 -4.918504
v 1.725495 3.248435 -4.918504
v 4.918504 3.248435 -2.875825
v 4.918504 3.248435 -1.725495
v 4.918504 3.248435 -0.575165
v 4.918504 3.248435 0.575165
v 4.918504 3.248435 1.725495
v 4.945663 3.004652 -2.957678
v 4.945663 3.004652 -1.643642
v 4.945663 3.004652 -0.657018
v 4.945663 3.004652 0.657018
v 4.945663 3.004652 1.643642
v -2.957678 3.004652 -4.945663
v -1.643642 3.004652 -4.945663
v -0.657018 3.004652 -4.945663
v 0.657018 3.004652 -4.945663
v 1.643642 3.004652 -4.945663
v -4.945662 3.004652 2.957678
v -4.945662 3.004652 1.643642
v -4.945662 3.004652 0.657018
v -4.945662 3.004652 -0.657018
v -4.945662 3.004652 -1.643642
v 2.957678 3.004652 4.945662
v 1.643642 3.004652 4.945662
v 0.657018 3.004652 4.945662
v -0.657018 3.004652 4.945662
v -1.643642 3.004652 4.945662
v -2.875825 1.792922 4.954452
v -4.026155 1.792922 4.954452
v -4.954452 1.792922 -2.875825
v -4.954452 1.792922 -4.026155
v 2.875825 1.792922 -4.954452
v 4.026155 1.792922 -4.954452
v 4.954452 1.792922 2.875825
v 4.954452 1.792922 4.026155
v 4.026155 1.792922 4.954452
v 2.875825 1.792922 4.954452
v 1.725495 1.792922 4.954452
v 0.575165 1.792922 4.954452
v -0.575165 1.792922 4.954452
v -1.725495 1.792922 4.954452
v -4.954452 1.792922 4.026155
v -4.954452 1.792922 2.875825
v -4.954452 1.792922 1.725495
v -4.954452 1.792922 0.575165
v -4.954452 1.792922 -0.575165
v -4.954452 1.792922 -1.725495
v -4.026155 1.792922 -4.954452
v -2.875825 1.792922 -4.954452
v -1.725495 1.792922 -4.954452
v -0.575165 1.792922 -4.954452
v 0.575165 1.792922 -4.954452
v 1.725495 1.792922 -4.954452
v 4.954452 1.792922 -4.026155
v 4.954452 1.792922 -2.875825
v 4.954452 1.792922 -1.725495
v 4.954452 1.792922 -0.575165
v 4.954452 1.792922 0.575165
v 4.954452 1.792922 1.725495
v 4.945070 3.086503 2.875825
v 4.945070 3.086503 4.026155
v 2.875825 3.086503 -4.945070
v 4.026155 3.086503 -4.945070
v -4.945069 3.086503 -2.875825
v -4.945069 3.086503 -4.026155
v -2.875825 3.086503 4.945069
v -4.026155 3.086503 4.945069
v 4.945070 3.086503 -4.026155
v 4.945070 3.086503 -2.875825
v 4.945070 3.086503 -1.725495
v 4.945070 3.086503 -0.575165
v 4.945070 3.086503 0.575165
v 4.945070 3.086503 1.725495
v -4.026155 3.086503 -4.945070
v -2.875825 3.086503 -4.945070
v -1.725495 3.086503 -4.945070
v -0.575165 3.086503 -4.945070
v 0.575165 3.086503 -4.945070
v 1.725495 3.086503 -4.945070
v -4.945069 3.086503 4.026155
v -4.945069 3.086503 2.875825
v -4.945069 3.086503 1.725495
v -4.945069 3.086503 0.575165
v -4.945069 3.086503 -0.575165
v -4.945069 3.086503 -1.725495
v 4.026155 3.086503 4.945069
v 2.875825 3.086503 4.945069
v 1.725495 3.086503 4.945069
v 0.575165 3.086503 4.945069
v -0.575165 3.086503 4.945069
v -1.725495 3.086503 4.945069
v -2.957678 1.874145 4.867299
v -3.944302 1.874145 4.867299
v -4.867299 1.874145 -2.957678
v -4.867299 1.874145 -3.944302
v 2.957678 1.874146 -4.867299
v 3.944302 1.874146 -4.867299
v 4.867299 1.874146 2.957678
v 4.867299 1.874146 3.944302
v 3.944302 1.874145 4.867299
v 2.957678 1.874145 4.867299
v 1.643642 1.874145 4.867299
v 0.657018 1.874145 4.867299
v -0.657018 1.874145 4.867299
v -1.643642 1.874145 4.867299
v -4.867299 1.874145 3.944302
v -4.867299 1.874145 2.957678
v -4.867299 1.874145 1.643642
v -4.867299 1.874145 0.657018
v -4.867299 1.874145 -0.657018
v -4.867299 1.874145 -1.643642
v -3.944302 1.874146 -4.867299
v -2.957678 1.874146 -4.867299
v -1.643642 1.874146 -4.867299
v -0.657018 1.874146 -4.867299
v 0.657018 1.874146 -4.867299
v 1.643642 1.874146 -4.867299
v 4.867299 1.874146 -3.944302
v 4.867299 1.874146 -2.957678
v 4.867299 1.874146 -1.643642
v 4.867299 1.874146 -0.657018
v 4.867299 1.874146 0.657018
v 4.867299 1.874146 1.643642
v 4.859105 3.004024 2.957678
v 4.859105 3.004024 3.944302
v 2.957678 3.004024 -4.859105
v 3.944302 3.004024 -4.859105
v -4.859104 3.004024 -2.957678
v -4.859104 3.004024 -3.944302
v -2.957678 3.004024 4.859104
v -3.944302 3.004024 4.859104
v 4.859105 3.004024 -3.944302
v 4.859105 3.004024 -2.957678
v 4.859105 3.004024 -1.643642
v 4.859105 3.004024 -0.657018
v 4.859105 3.004024 0.657018
v 4.859105 3.004024 1.643642
v -3.944302 3.004024 -4.859105
v -2.957678 3.004024 -4.859105
v -1.643642 3.004024 -4.859105
v -0.657018 3.004024 -4.859105
v 0.657018 3.004024 -4.859105
v 1.643642 3.004024 -4.859105
v -4.859104 3.004024 3.944302
v -4.859104 3.004024 2.957678
v -4.859104 3.004024 1.643642
v -4.859104 3.004024 0.657018
v -4.859104 3.004024 -0.657018
v -4.859104 3.004024 -1.643642
v 3.944302 3.004024 4.859104
v 2.957678 3.004024 4.859104
v 1.643642 3.004024 4.859104
v 0.657018 3.004024 4.859104
v -0.657018 3.004024 4.859104
v -1.643642 3.004024 4.859104
v -5.000000 0.706805 5.000000
v 5.000000 -3.690374 5.000000
v -5.000000 0.706805 -5.000000
v 5.000000 -3.690374 -5.000000
v 5.000000 0.706805 5.000000
v 5.000000 0.706805 -5.000000
v -5.000000 -0.770719 5.000000
v 4.697508 3.922442 -4.697508
v -5.000000 -0.770719 -5.000000
v -4.697508 3.922442 -4.697508
v 5.000000 -0.770719 5.000000
v -4.697508 3.922442 4.697508
v 5.000000 -0.770719 -5.000000
v 4.697508 3.922442 4.697508
v 5.000000 0.706805 -3.888889
v 5.000000 0.706805 -2.777778
v 5.000000 0.706805 -1.666667
v 5.000000 0.706805 -0.555555
v 5.000000 0.706805 0.555556
v 5.000000 0.706805 1.666667
v 5.000000 0.706805 2.777778
v 5.000000 0.706805 3.888889
v 5.000000 0.447935 3.888889
v 5.000000 0.447935 2.777778
v 5.000000 0.447935 1.666667
v 5.000000 0.447935 0.555555
v 5.000000 0.447935 -0.555556
v 5.000000 0.447935 -1.666667
v 5.000000 0.447935 -2.777778
v 5.000000 0.447935 -3.888889
v -3.888889 0.706805 -5.000000
v -2.777778 0.706805 -5.000000
v -1.666667 0.706805 -5.000000
v -0.555555 0.706805 -5.000000
v 0.555556 0.706805 -5.000000
v 1.666667 0.706805 -5.000000
v 2.777778 0.706805 -5.000000
v 3.888889 0.706805 -5.000000
v 3.888889 0.447935 -5.000000
v 2.777778 0.447935 -5.000000
v 1.666667 0.447935 -5.000000
v 0.555555 0.447935 -5.000000
v -0.555556 0.447935 -5.000000
v -1.666667 0.447935 -5.000000
v -2.777778 0.447935 -5.000000
v -3.888889 0.447935 -5.000000
v 3.888889 0.706805 5.000000
v 2.777778 0.706805 5.000000
v 1.666667 0.706805 5.000000
v 0.555555 0.706805 5.000000
v -0.555556 0.706805 5.000000
v -1.666667 0.706805 5.000000
v -2.777778 0.706805 5.000000
v -3.888889 0.706805 5.000000
v -3.888889 0.447935 5.000000
v -2.777778 0.447935 5.000000
v -1.666667 0.447935 5.000000
v -0.555555 0.447935 5.000000
v 0.555556 0.447935 5.000000
v 1.666667 0.447935 5.000000
v 2.777778 0.447935 5.000000
v 3.888889 0.447935 5.000000
v -5.000000 0.706805 3.888889
v -5.000000 0.706805 2.777778
v -5.000000 0.706805 1.666667
v -5.000000 0.706805 0.555555
v -5.000000 0.706805 -0.555556
v -5.000000 0.706805 -1.666667
v -5.000000 0.706805 -2.777778
v -5.000000 0.706805 -3.888889
v -5.000000 0.447935 -3.888889
v -5.000000 0.447935 -2.777778
v -5.000000 0.447935 -1.666667
v -5.000000 0.447935 -0.555555
v -5.000000 0.447935 0.555556
v -5.000000 0.447935 1.666667
v -5.000000 0.447935 2.777778
v -5.000000 0.447935 3.888889
v 5.000000 -0.770719 3.888889
v 5.000000 -0.770719 2.777778
v 5.000000 -0.770719 1.666667
v 5.000000 -0.770719 0.555555
v 5.000000 -0.770719 -0.555556
v 5.000000 -0.770719 -1.666667
v 5.000000 -0.770719 -2.777778
v 5.000000 -0.770719 -3.888889
v 5.000000 -0.706428 -3.888889
v 5.000000 -0.706428 -2.777778
v 5.000000 -0.706428 -1.666667
v 5.000000 -0.706428 -0.555555
v 5.000000 -0.706428 0.555556
v 5.000000 -0.706428 1.666667
v 5.000000 -0.706428 2.777778
v 5.000000 -0.706428 3.888889
v 3.888889 -0.770719 -5.000000
v 2.777778 -0.770719 -5.000000
v 1.666667 -0.770719 -5.000000
v 0.555555 -0.770719 -5.000000
v -0.555556 -0.770719 -5.000000
v -1.666667 -0.770719 -5.000000
v -2.777778 -0.770719 -5.000000
v -3.888889 -0.770719 -5.000000
v -3.888889 -0.706428 -5.000000
v -2.777778 -0.706428 -5.000000
v -1.666667 -0.706428 -5.000000
v -0.555555 -0.706428 -5.000000
v 0.555556 -0.706428 -5.000000
v 1.666667 -0.706428 -5.000000
v 2.777778 -0.706428 -5.000000
v 3.888889 -0.706428 -5.000000
v -3.888889 -0.770719 5.000000
v -2.777778 -0.770719 5.000000
v -1.666667 -0.770719 5.000000
v -0.555555 -0.770719 5.000000
v 0.555556 -0.770719 5.000000
v 1.666667 -0.770719 5.000000
v 2.777778 -0.770719 5.000000
v 3.888889 -0.770719 5.000000
v 3.888889 -0.706428 5.000000
v 2.777778 -0.706428 5.000000
v 1.666667 -0.706428 5.000000
v 0.555555 -0.706428 5.000000
v -0.555556 -0.706428 5.000000
v -1.666667 -0.706428 5.000000
v -2.777778 -0.706428 5.000000
v -3.888889 -0.706428 5.000000
v -5.000000 -0.770719 -3.888889
v -5.000000 -0.770719 -2.777778
v -5.000000 -0.770719 -1.666667
v -5.000000 -0.770719 -0.555555
v -5.000000 -0.770719 0.555556
v -5.000000 -0.770719 1.666667
v -5.000000 -0.770719 2.777778
v -5.000000 -0.770719 3.888889
v -5.000000 -0.706428 3.888889
v -5.000000 -0.706428 2.777778
v -5.000000 -0.706428 1.666667
v -5.000000 -0.706428 0.555555
v -5.000000 -0.706428 -0.555556
v -5.000000 -0.706428 -1.666667
v -5.000000 -0.706428 -2.777778
v -5.000000 -0.706428 -3.888889
v 5.114756 -0.792256 3.888889
v 5.114756 -0.792256 2.777778
v 5.114756 -0.792256 1.666667
v 5.114756 -0.792256 0.555555
v 5.114756 -0.792256 -0.555556
v 5.114756 -0.792256 -1.666667
v 5.114756 -0.792256 -2.777778
v 5.114756 -0.792256 -3.888889
v 5.114756 -0.727965 -3.888889
v 5.114756 -0.727965 -2.777778
v 5.114756 -0.727965 -1.666667
v 5.114756 -0.727965 -0.555555
v 5.114756 -0.727965 0.555556
v 5.114756 -0.727965 1.666667
v 5.114756 -0.727965 2.777778
v 5.114756 -0.727965 3.888889
v 3.888889 -0.792256 -5.114756
v 2.777778 -0.792256 -5.114756
v 1.666667 -0.792256 -5.114756
v 0.555555 -0.792256 -5.114756
v -0.555556 -0.792256 -5.114756
v -1.666667 -0.792256 -5.114756
v -2.777778 -0.792256 -5.114756
v -3.888889 -0.792256 -5.114756
v -3.888889 -0.727965 -5.114756
v -2.777778 -0.727965 -5.114756
v -1.666667 -0.727965 -5.114756
v -0.555555 -0.727965 -5.114756
v 0.555556 -0.727965 -5.114756
v 1.666667 -0.727965 -5.114756
v 2.777778 -0.727965 -5.114756
v 3.888889 -0.727965 -5.114756
v -3.888889 -0.792256 5.114756
v -2.777778 -0.792256 5.114756
v -1.666667 -0.792256 5.114756
v -0.555555 -0.792256 5.114756
v 0.555556 -0.792256 5.114756
v 1.666667 -0.792256 5.114756
v 2.777778 -0.792256 5.114756
v 3.888889 -0.792256 5.114756
v 3.888889 -0.727965 5.114756
v 2.777778 -0.727965 5.114756
v 1.666667 -0.727965 5.114756
v 0.555555 -0.727965 5.114756
v -0.555556 -0.727965 5.114756
v -1.666667 -0.727965 5.114756
v -2.777778 -0.727965 5.114756
v -3.888889 -0.727965 5.114756
v -5.114756 -0.792256 -3.888889
v -5.114756 -0.792256 -2.777778
v -5.114756 -0.792256 -1.666667
v -5.114756 -0.792256 -0.555555
v -5.114756 -0.792256 0.555556
v -5.114756 -0.792256 1.666667
v -5.114756 -0.792256 2.777778
v -5.114756 -0.792256 3.888889
v -5.114756 -0.727965 3.888889
v -5.114756 -0.727965 2.777778
v -5.114756 -0.727965 1.666667
v -5.114756 -0.727965 0.555555
v -5.114756 -0.727965 -0.555556
v -5.114756 -0.727965 -1.666667
v -5.114756 -0.727965 -2.777778
v -5.114756 -0.727965 -3.888889
v 4.894061 0.447935 3.888889
v 4.894061 0.447935 2.777778
v 4.894061 0.447935 1.666667
v 4.894061 0.447935 0.555555
v 4.894061 0.447935 -0.555556
v 4.894061 0.447935 -1.666667
v 4.894061 0.447935 -2.777778
v 4.894061 0.447935 -3.888889
v 3.888889 0.447935 -4.894061
v 2.777778 0.447935 -4.894061
v 1.666667 0.447935 -4.894061
v 0.555555 0.447935 -4.894061
v -0.555556 0.447935 -4.894061
v -1.666667 0.447935 -4.894061
v -2.777778 0.447935 -4.894061
v -3.888889 0.447935 -4.894061
v -3.888889 0.447935 4.894061
v -2.777778 0.447935 4.894061
v -1.666667 0.447935 4.894061
v -0.555555 0.447935 4.894061
v 0.555556 0.447935 4.894061
v 1.666667 0.447935 4.894061
v 2.777778 0.447935 4.894061
v 3.888889 0.447935 4.894061
v -4.894061 0.447935 -3.888889
v -4.894061 0.447935 -2.777778
v -4.894061 0.447935 -1.666667
v -4.894061 0.447935 -0.555555
v -4.894061 0.447935 0.555556
v -4.894061 0.447935 1.666667
v -4.894061 0.447935 2.777778
v -4.894061 0.447935 3.888889
v 4.894061 -0.706428 -3.888889
v 4.894061 -0.706428 -2.777778
v 4.894061 -0.706428 -1.666667
v 4.894061 -0.706428 -0.555555
v 4.894061 -0.706428 0.555556
v 4.894061 -0.706428 1.666667
v 4.894061 -0.706428 2.777778
v 4.894061 -0.706428 3.888889
v -3.888889 -0.706428 -4.894061
v -2.777778 -0.706428 -4.894061
v -1.666667 -0.706428 -4.894061
v -0.555555 -0.706428 -4.894061
v 0.555556 -0.706428 -4.894061
v 1.666667 -0.706428 -4.894061
v 2.777778 -0.706428 -4.894061
v 3.888889 -0.706428 -4.894061
v 3.888889 -0.706428 4.894061
v 2.777778 -0.706428 4.894061
v 1.666667 -0.706428 4.894061
v 0.555555 -0.706428 4.894061
v -0.555556 -0.706428 4.894061
v -1.666667 -0.706428 4.894061
v -2.777778 -0.706428 4.894061
v -3.888889 -0.706428 4.894061
v -4.894061 -0.706428 3.888889
v -4.894061 -0.706428 2.777778
v -4.894061 -0.706428 1.666667
v -4.894061 -0.706428 0.555555
v -4.894061 -0.706428 -0.555556
v -4.894061 -0.706428 -1.666667
v -4.894061 -0.706428 -2.777778
v -4.894061 -0.706428 -3.888889
v 4.523332 -3.797281 0.563019
v 5.000000 -3.845187 -0.674008
v 5.000000 -3.845187 0.674008
v 5.000000 -4.000000 -0.674008
v 5.000000 -4.000000 0.674008
v 5.000000 -1.715280 0.674008
v 5.000000 -1.715280 -0.674008
v 4.523332 -3.797281 -0.563019
v 4.523332 -1.826270 -0.563019
v 4.523332 -1.826270 0.563019
v 4.523332 -3.845187 -0.674008
v 4.523332 -1.715280 -0.674008
v 4.523332 -1.715280 0.674008
v 4.523332 -3.845187 0.674008
v 4.923385 -3.690374 -4.734723
v 4.923385 -3.690374 -0.939285
v 4.923385 -1.715280 -0.939284
v 4.923385 -1.715280 -4.734723
v 5.000000 -3.690374 -4.734723
v 5.000000 -3.690374 -0.939285
v 5.000000 -1.715280 -0.939284
v 5.000000 -1.715280 -4.734723
v 5.000000 -3.690374 0.939284
v 5.000000 -3.690374 4.734723
v 5.000000 -1.715280 4.734723
v 5.000000 -1.715280 0.939285
v 4.923385 -1.715280 0.939285
v 4.923385 -1.715280 4.734723
v 4.923385 -3.690374 4.734723
v 4.923385 -3.690374 0.939284
v 6.190038 -1.804749 0.804969
v 6.148757 -1.762944 0.804969
v 6.148757 -1.762944 -0.804970
v 6.190038 -1.804749 -0.804970
v 5.000000 -1.636736 4.867361
v 5.000000 -1.594931 4.867361
v 5.000000 -1.594931 -4.867362
v 5.000000 -1.636736 -4.867362
v 5.000000 -1.636736 -0.804970
v 5.000000 -1.594931 -0.804970
v 5.000000 -1.615833 -0.770961
v 5.000000 -1.594931 0.804969
v 5.000000 -1.636736 0.804969
v 5.000000 -1.615833 0.770960
v 6.148757 -1.762944 4.867361
v 6.190038 -1.804749 4.867361
v 6.190038 -1.804749 -4.867362
v 6.148757 -1.762944 -4.867362
v 6.200018 -1.797958 -4.867362
v 6.200018 -1.797958 -0.804970
v 6.200018 -1.839763 -4.867362
v 6.200018 -1.839763 4.867361
v 6.200018 -1.839763 0.804969
v 6.200018 -1.797958 4.867361
v 6.200018 -1.797958 0.804969
v 6.200018 -1.839763 -0.804970
v 6.190038 -1.888597 4.867361
v 6.190038 -1.888597 0.804969
v 6.190038 -1.888597 -0.804970
v 6.190038 -1.888597 -4.867362
v 6.200018 -1.888597 4.867361
v 6.200018 -1.888597 0.804969
v 6.200018 -1.888597 -0.804970
v 6.200018 -1.888597 -4.867362
vn -0.0000 -1.0000 -0.0000
vn -0.9501 -0.3119 -0.0000
vn 0.9501 -0.3119 -0.0000
vn -0.0000 -0.0000 -1.0000
vn -0.0000 1.0000 -0.0000
vn -0.0000 -0.0000 1.0000
vn -0.0000 -0.3119 -0.9501
vn 1.0000 -0.0000 -0.0000
vn -1.0000 -0.0000 -0.0000
vn -0.0000 -0.3119 0.9501
vn -0.0000 0.2310 0.9730
vn -0.9730 0.2310 -0.0000
vn -0.0000 0.2310 -0.9730
vn 0.9730 0.2310 -0.0000
vn 0.9868 0.1619 -0.0000
vn -0.0000 0.1619 -0.9868
vn -0.9868 0.1619 -0.0000
vn -0.0000 0.1619 0.9868
vn -0.2085 0.9780 -0.0000
vn 0.0073 1.0000 -0.0000
vn -0.0000 1.0000 -0.0073
vn 0.2085 0.9780 -0.0000
vn -0.0000 0.9780 0.2085
vn -0.0000 0.9780 -0.2085
vn -0.0000 -1.0000 0.0073
vn -0.0073 1.0000 -0.0000
vn -0.0000 0.0073 1.0000
vn -1.0000 0.0073 -0.0000
vn -0.0000 0.0073 -1.0000
vn 1.0000 0.0073 -0.0000
vn -0.0000 1.0000 0.0073
vn 0.0073 -1.0000 -0.0000
vn -0.0000 -1.0000 -0.0073
vn -0.0073 -1.0000 -0.0000
vn -0.9684 -0.2496 -0.0000
vn -0.0000 -0.2496 -0.9684
vn -0.1398 -0.9902 -0.0000
vn -0.0000 -0.2496 0.9684
vn -0.0000 -0.9828 0.1845
vn -0.0000 0.9828 0.1845
vn 0.9684 -0.2496 -0.0000
vn 0.1845 0.9828 -0.0000
vn 0.1845 -0.9828 -0.0000
vn -0.0000 0.9828 -0.1845
vn -0.1845 -0.9828 -0.0000
vn -0.1845 0.9828 -0.0000
vn -0.0000 -0.9828 -0.1845
vn 0.1447 0.9895 -0.0000
vn 0.5640 0.8257 -0.0000
vt 0.622306 0.188425
vt 0.989559 0.188425
vt 0.994560 0.192874
vt 0.617306 0.192874
vt 0.238907 0.238614
vt 0.607472 0.236458
vt 0.612609 0.241654
vt 0.234416 0.243144
vt 0.999503 0.207002
vt 0.612362 0.207002
vt 0.617689 0.256556
vt 0.230022 0.257352
vt 0.033259 0.896347
vt 0.051252 0.886903
vt 0.151110 0.886470
vt 0.158639 0.896347
vt 0.982570 0.351365
vt 0.982570 0.688213
vt 0.645722 0.688213
vt 0.645722 0.351365
vt 0.225942 0.377819
vt 0.214622 0.377814
vt 0.138773 0.377782
vt 0.128600 0.012161
vt 0.226097 0.012202
vt 0.417690 0.768579
vt 0.417690 0.381405
vt 0.431819 0.386350
vt 0.431819 0.763636
vt 0.392418 0.052732
vt 0.392127 0.047170
vt 0.442449 0.044183
vt 0.442801 0.050375
vt 0.436268 0.391350
vt 0.436268 0.758635
vt 0.624210 0.757886
vt 0.526809 0.757929
vt 0.536964 0.392673
vt 0.612737 0.392639
vt 0.624047 0.392634
vt 0.408809 0.759699
vt 0.408809 0.390286
vt 0.988833 0.000497
vt 0.988863 0.097899
vt 0.623607 0.098012
vt 0.623576 0.000611
vt 0.019179 0.389200
vt 0.019179 0.000497
vt 0.033359 0.005568
vt 0.033359 0.384130
vt 0.990623 0.215882
vt 0.621242 0.215882
vt 0.010263 0.380284
vt 0.010263 0.009413
vt 0.037822 0.010696
vt 0.037822 0.379002
vt 0.609411 0.266258
vt 0.238928 0.266258
vt 0.092880 0.403648
vt 0.095995 0.404366
vt 0.096218 0.770021
vt 0.093104 0.770743
vt 0.189595 0.403649
vt 0.192710 0.404366
vt 0.192935 0.770021
vt 0.189820 0.770742
vt 0.286312 0.403648
vt 0.289427 0.404366
vt 0.289651 0.770020
vt 0.286537 0.770741
vt 0.387264 0.407394
vt 0.390379 0.408112
vt 0.390603 0.773768
vt 0.387489 0.774489
vt 0.362388 0.406692
vt 0.378424 0.409606
vt 0.378647 0.772289
vt 0.362559 0.775207
vt 0.362157 0.748011
vt 0.362101 0.703976
vt 0.362065 0.657979
vt 0.362074 0.613619
vt 0.361990 0.567820
vt 0.361940 0.523591
vt 0.361949 0.477721
vt 0.361987 0.433811
vt 0.261435 0.402946
vt 0.277472 0.405860
vt 0.277694 0.768541
vt 0.261607 0.771460
vt 0.261205 0.744263
vt 0.261149 0.700228
vt 0.261113 0.654232
vt 0.261122 0.609872
vt 0.261038 0.564073
vt 0.260988 0.519844
vt 0.260997 0.473975
vt 0.261035 0.430066
vt 0.164719 0.402947
vt 0.180756 0.405861
vt 0.180978 0.768541
vt 0.164890 0.771461
vt 0.164488 0.744264
vt 0.164432 0.700229
vt 0.164397 0.654233
vt 0.164406 0.609873
vt 0.164321 0.564075
vt 0.164271 0.519845
vt 0.164281 0.473976
vt 0.164319 0.430066
vt 0.068004 0.402946
vt 0.084040 0.405860
vt 0.084262 0.768542
vt 0.068174 0.771461
vt 0.067772 0.744265
vt 0.067716 0.700229
vt 0.067681 0.654233
vt 0.067690 0.609873
vt 0.067606 0.564074
vt 0.067556 0.519845
vt 0.067565 0.473975
vt 0.067604 0.430066
vt 0.011525 0.745522
vt 0.061750 0.746420
vt 0.011450 0.781376
vt 0.108240 0.745521
vt 0.158466 0.746419
vt 0.108165 0.781376
vt 0.204956 0.745520
vt 0.255182 0.746419
vt 0.204881 0.781375
vt 0.305909 0.749268
vt 0.356134 0.750167
vt 0.305834 0.785123
vt 0.294882 0.393939
vt 0.305811 0.396792
vt 0.305886 0.432557
vt 0.305907 0.478298
vt 0.305910 0.522845
vt 0.305932 0.568431
vt 0.305935 0.613078
vt 0.305913 0.658761
vt 0.305922 0.703415
vt 0.294882 0.787980
vt 0.193929 0.390194
vt 0.204858 0.393048
vt 0.204933 0.428813
vt 0.204955 0.474553
vt 0.204958 0.519100
vt 0.204979 0.564685
vt 0.204982 0.609332
vt 0.204960 0.655014
vt 0.204969 0.699668
vt 0.193929 0.784232
vt 0.097213 0.390194
vt 0.108142 0.393048
vt 0.108217 0.428813
vt 0.108238 0.474552
vt 0.108241 0.519100
vt 0.108263 0.564685
vt 0.108266 0.609332
vt 0.108244 0.655015
vt 0.108253 0.699669
vt 0.097213 0.784233
vt 0.000497 0.390194
vt 0.011426 0.393048
vt 0.011502 0.428813
vt 0.011523 0.474553
vt 0.011526 0.519100
vt 0.011547 0.564686
vt 0.011551 0.609332
vt 0.011528 0.655015
vt 0.011537 0.699668
vt 0.000497 0.784233
vt 0.061597 0.427918
vt 0.158312 0.427918
vt 0.158708 0.433343
vt 0.154547 0.433288
vt 0.158797 0.650829
vt 0.158812 0.613319
vt 0.255029 0.427918
vt 0.355981 0.431663
vt 0.057973 0.741035
vt 0.062146 0.740979
vt 0.208029 0.523009
vt 0.248202 0.525433
vt 0.246673 0.526349
vt 0.209590 0.525143
vt 0.111289 0.470645
vt 0.111303 0.432775
vt 0.112877 0.434942
vt 0.112829 0.468516
vt 0.151648 0.738900
vt 0.111335 0.741551
vt 0.112911 0.739379
vt 0.150117 0.738013
vt 0.248292 0.648637
vt 0.208040 0.651090
vt 0.209604 0.648949
vt 0.246760 0.647718
vt 0.061514 0.475910
vt 0.061500 0.517884
vt 0.158215 0.517885
vt 0.154512 0.523260
vt 0.061554 0.565998
vt 0.061606 0.607960
vt 0.158321 0.607961
vt 0.154619 0.613356
vt 0.061613 0.656205
vt 0.061649 0.698290
vt 0.154524 0.470535
vt 0.158229 0.475910
vt 0.154559 0.560623
vt 0.158270 0.565999
vt 0.154613 0.650818
vt 0.158329 0.656205
vt 0.158365 0.698290
vt 0.014608 0.651090
vt 0.014610 0.613236
vt 0.016160 0.615361
vt 0.016172 0.648949
vt 0.254946 0.475909
vt 0.254932 0.517884
vt 0.111309 0.703586
vt 0.151598 0.705871
vt 0.150048 0.706797
vt 0.112854 0.705720
vt 0.254986 0.565997
vt 0.255038 0.607960
vt 0.208042 0.613235
vt 0.248288 0.615557
vt 0.246746 0.616493
vt 0.209592 0.615360
vt 0.255045 0.656204
vt 0.255081 0.698289
vt 0.154652 0.703681
vt 0.355898 0.479656
vt 0.355883 0.521630
vt 0.154689 0.741035
vt 0.355938 0.569745
vt 0.355990 0.611706
vt 0.014608 0.560785
vt 0.014599 0.523012
vt 0.016159 0.525146
vt 0.016160 0.558664
vt 0.355998 0.659952
vt 0.356033 0.702036
vt 0.061993 0.433343
vt 0.057831 0.433287
vt 0.062126 0.703653
vt 0.057936 0.703681
vt 0.158741 0.560651
vt 0.158687 0.523246
vt 0.356466 0.654575
vt 0.356481 0.617065
vt 0.057897 0.650818
vt 0.062081 0.650829
vt 0.062097 0.613319
vt 0.057904 0.613356
vt 0.158704 0.470562
vt 0.356409 0.564397
vt 0.356356 0.526992
vt 0.057843 0.560623
vt 0.062025 0.560650
vt 0.061972 0.523246
vt 0.057797 0.523259
vt 0.158843 0.703653
vt 0.158862 0.740979
vt 0.251369 0.703680
vt 0.255559 0.703652
vt 0.255578 0.740978
vt 0.251405 0.741034
vt 0.352320 0.707428
vt 0.356511 0.707400
vt 0.356530 0.744726
vt 0.352357 0.744782
vt 0.352215 0.437033
vt 0.356377 0.437088
vt 0.356373 0.474308
vt 0.352193 0.474281
vt 0.352180 0.527006
vt 0.352228 0.564369
vt 0.352288 0.617102
vt 0.352281 0.654564
vt 0.251263 0.433287
vt 0.255425 0.433343
vt 0.255421 0.470561
vt 0.251241 0.470535
vt 0.251229 0.523259
vt 0.255405 0.523245
vt 0.255457 0.560650
vt 0.251275 0.560622
vt 0.251336 0.613355
vt 0.255529 0.613318
vt 0.255514 0.650828
vt 0.251329 0.650817
vt 0.061989 0.470562
vt 0.057809 0.470535
vt 0.054856 0.615558
vt 0.054859 0.648638
vt 0.053328 0.647719
vt 0.053313 0.616493
vt 0.248364 0.738899
vt 0.208051 0.741550
vt 0.209627 0.739378
vt 0.246833 0.738012
vt 0.014574 0.470645
vt 0.014588 0.432775
vt 0.016162 0.434941
vt 0.016114 0.468516
vt 0.054769 0.525436
vt 0.054792 0.558433
vt 0.053248 0.557506
vt 0.053240 0.526351
vt 0.208026 0.703585
vt 0.248314 0.705871
vt 0.246764 0.706796
vt 0.209571 0.705719
vt 0.309004 0.745298
vt 0.308980 0.707335
vt 0.310525 0.709469
vt 0.310581 0.743126
vt 0.054801 0.435415
vt 0.054758 0.468353
vt 0.053212 0.467432
vt 0.053274 0.436299
vt 0.349142 0.472100
vt 0.308958 0.474391
vt 0.310499 0.472262
vt 0.347595 0.471178
vt 0.014595 0.703588
vt 0.014620 0.741551
vt 0.111313 0.523016
vt 0.111325 0.560789
vt 0.111326 0.613236
vt 0.111324 0.651090
vt 0.208020 0.432775
vt 0.208005 0.470645
vt 0.208040 0.560784
vt 0.308974 0.436522
vt 0.308982 0.526762
vt 0.308994 0.564534
vt 0.308996 0.616984
vt 0.308993 0.654837
vt 0.349316 0.742647
vt 0.349265 0.709620
vt 0.054932 0.738901
vt 0.054881 0.705874
vt 0.349184 0.439163
vt 0.349177 0.562180
vt 0.349152 0.529182
vt 0.349244 0.652385
vt 0.349240 0.619307
vt 0.248190 0.468353
vt 0.248233 0.435415
vt 0.248225 0.558432
vt 0.151473 0.468354
vt 0.151517 0.435416
vt 0.151508 0.558434
vt 0.151483 0.525437
vt 0.151575 0.648638
vt 0.151572 0.615558
vt 0.037005 0.911602
vt 0.072519 0.911602
vt 0.072519 0.952273
vt 0.037005 0.952273
vt 0.659937 0.955637
vt 0.695451 0.955637
vt 0.695451 0.996308
vt 0.659937 0.996308
vt 0.073513 0.911602
vt 0.109027 0.911602
vt 0.109027 0.952273
vt 0.073513 0.952273
vt 0.036011 0.911602
vt 0.036011 0.952273
vt 0.000497 0.952273
vt 0.000497 0.911602
vt 0.110021 0.911602
vt 0.145535 0.911602
vt 0.145535 0.952273
vt 0.110021 0.952273
vt 0.696445 0.955637
vt 0.731959 0.955637
vt 0.731959 0.996308
vt 0.696445 0.996308
vt 0.146529 0.911602
vt 0.182043 0.911602
vt 0.182043 0.952273
vt 0.146529 0.952273
vt 0.183037 0.952273
vt 0.183037 0.911602
vt 0.218551 0.911602
vt 0.218551 0.952273
vt 0.291566 0.911602
vt 0.291566 0.952273
vt 0.256053 0.952273
vt 0.256053 0.911602
vt 0.292561 0.911602
vt 0.328074 0.911602
vt 0.328074 0.952273
vt 0.292561 0.952273
vt 0.329069 0.911602
vt 0.364582 0.911602
vt 0.364582 0.952273
vt 0.329069 0.952273
vt 0.365577 0.911602
vt 0.401090 0.911602
vt 0.401090 0.952273
vt 0.365577 0.952273
vt 0.219545 0.952273
vt 0.219545 0.911602
vt 0.255058 0.911602
vt 0.255058 0.952273
vt 0.402085 0.911602
vt 0.437598 0.911602
vt 0.437598 0.952273
vt 0.402085 0.952273
vt 0.438593 0.911602
vt 0.474106 0.911602
vt 0.474106 0.952273
vt 0.438593 0.952273
vt 0.475101 0.911602
vt 0.510614 0.911602
vt 0.510614 0.952273
vt 0.475101 0.952273
vt 0.150029 0.616494
vt 0.112876 0.615361
vt 0.112873 0.525150
vt 0.112876 0.558667
vt 0.209591 0.558663
vt 0.246681 0.557504
vt 0.112887 0.648949
vt 0.150044 0.647719
vt 0.246706 0.436299
vt 0.209593 0.434941
vt 0.149955 0.526353
vt 0.209546 0.468516
vt 0.246644 0.467432
vt 0.149964 0.557507
vt 0.149989 0.436299
vt 0.149927 0.467432
vt 0.310547 0.438689
vt 0.053331 0.706799
vt 0.016140 0.705722
vt 0.310542 0.528895
vt 0.310545 0.562413
vt 0.016196 0.739380
vt 0.053400 0.738013
vt 0.310546 0.619109
vt 0.310557 0.652696
vt 0.347785 0.741760
vt 0.347716 0.710546
vt 0.347657 0.440047
vt 0.347633 0.561253
vt 0.347624 0.530098
vt 0.347712 0.651466
vt 0.347697 0.620242
vt 0.054307 0.378483
vt 0.054351 0.011270
vt 0.053982 0.052132
vt 0.053971 0.092981
vt 0.053985 0.133790
vt 0.054076 0.174373
vt 0.054108 0.215000
vt 0.054065 0.255790
vt 0.054088 0.296612
vt 0.054054 0.337607
vt 0.989151 0.172050
vt 0.622829 0.171988
vt 0.663508 0.172307
vt 0.704191 0.172311
vt 0.744905 0.172287
vt 0.785484 0.172187
vt 0.826088 0.172114
vt 0.866805 0.172133
vt 0.907530 0.172113
vt 0.948397 0.172172
vt 0.452647 0.758227
vt 0.452706 0.391875
vt 0.452389 0.432554
vt 0.452383 0.473240
vt 0.452405 0.513959
vt 0.452505 0.554543
vt 0.452576 0.595150
vt 0.452559 0.635870
vt 0.452580 0.676598
vt 0.452522 0.717468
vt 0.607455 0.219574
vt 0.239351 0.222404
vt 0.279693 0.222285
vt 0.320260 0.221887
vt 0.361002 0.221428
vt 0.401840 0.220939
vt 0.442526 0.220283
vt 0.483442 0.219896
vt 0.524511 0.219609
vt 0.565799 0.219594
vt 0.988854 0.118283
vt 0.948355 0.118432
vt 0.908025 0.118644
vt 0.867065 0.118662
vt 0.826588 0.118718
vt 0.785648 0.118813
vt 0.745129 0.118797
vt 0.704481 0.118747
vt 0.664069 0.118666
vt 0.623539 0.118330
vt 0.108165 0.377912
vt 0.107899 0.337397
vt 0.107645 0.297011
vt 0.107601 0.255986
vt 0.107527 0.215428
vt 0.107695 0.174352
vt 0.107726 0.134373
vt 0.107724 0.093448
vt 0.107840 0.052800
vt 0.108223 0.012082
vt 0.506422 0.757924
vt 0.506269 0.717421
vt 0.506052 0.677089
vt 0.506032 0.636129
vt 0.505972 0.595652
vt 0.505878 0.554710
vt 0.505897 0.514184
vt 0.505953 0.473530
vt 0.506045 0.433101
vt 0.506361 0.392582
vt 0.970025 0.758955
vt 0.823423 0.758955
vt 0.823421 0.715585
vt 0.970027 0.715585
vt 0.462035 0.717403
vt 0.462120 0.676530
vt 0.464057 0.678480
vt 0.463923 0.715430
vt 0.704205 0.162833
vt 0.663640 0.162831
vt 0.665621 0.160916
vt 0.702280 0.160961
vt 0.104122 0.136147
vt 0.104750 0.173102
vt 0.102555 0.172315
vt 0.102339 0.136294
vt 0.279695 0.212874
vt 0.279440 0.171441
vt 0.281317 0.173258
vt 0.281644 0.210981
vt 0.319627 0.170805
vt 0.320121 0.212445
vt 0.318156 0.210573
vt 0.317657 0.172745
vt 0.048766 0.825185
vt 0.058209 0.836066
vt 0.462037 0.635858
vt 0.462094 0.595090
vt 0.464032 0.597034
vt 0.463881 0.633898
vt 0.684525 0.878212
vt 0.684525 0.949306
vt 0.547909 0.949306
vt 0.547909 0.878212
vt 0.518733 0.820732
vt 0.518733 0.860726
vt 0.514919 0.860726
vt 0.514919 0.820732
vt 0.360856 0.211946
vt 0.360102 0.170225
vt 0.362059 0.172095
vt 0.362755 0.210069
vt 0.063495 0.052284
vt 0.105429 0.052703
vt 0.103548 0.054574
vt 0.065422 0.054285
vt 0.400586 0.169541
vt 0.401514 0.211408
vt 0.399486 0.209500
vt 0.398651 0.171451
vt 0.461946 0.554504
vt 0.461846 0.514012
vt 0.463742 0.515964
vt 0.463800 0.552558
vt 0.105328 0.093347
vt 0.063483 0.093027
vt 0.065344 0.091103
vt 0.103430 0.091290
vt 0.374659 0.856899
vt 0.374659 0.816905
vt 0.378472 0.816905
vt 0.378472 0.856899
vt 0.627113 0.859755
vt 0.627113 0.819761
vt 0.630927 0.819761
vt 0.630927 0.859755
vt 0.442302 0.210639
vt 0.441076 0.168800
vt 0.443799 0.169900
vt 0.444172 0.208666
vt 0.063441 0.133888
vt 0.105017 0.134048
vt 0.103145 0.136287
vt 0.065404 0.135913
vt 0.503918 0.717431
vt 0.551613 0.857650
vt 0.552040 0.859925
vt 0.547837 0.859925
vt 0.547410 0.857650
vt 0.663980 0.121070
vt 0.463901 0.858311
vt 0.464328 0.860586
vt 0.460125 0.860586
vt 0.459698 0.858311
vt 0.704396 0.121103
vt 0.745021 0.121178
vt 0.744958 0.162847
vt 0.552040 0.815381
vt 0.551613 0.817656
vt 0.547410 0.817656
vt 0.547837 0.815381
vt 0.785446 0.162746
vt 0.785478 0.121212
vt 0.825550 0.121208
vt 0.826028 0.162597
vt 0.464328 0.816043
vt 0.463901 0.818317
vt 0.459698 0.818317
vt 0.460125 0.816043
vt 0.948333 0.162660
vt 0.948365 0.120782
vt 0.401751 0.816905
vt 0.401751 0.856899
vt 0.397548 0.856899
vt 0.397548 0.816905
vt 0.105940 0.135735
vt 0.106396 0.172659
vt 0.507292 0.860111
vt 0.507719 0.862385
vt 0.503516 0.862385
vt 0.503089 0.860111
vt 0.063525 0.174343
vt 0.104789 0.174429
vt 0.104989 0.214391
vt 0.063631 0.214922
vt 0.571312 0.857035
vt 0.571739 0.859309
vt 0.567536 0.859309
vt 0.567109 0.857035
vt 0.507719 0.817842
vt 0.507292 0.820116
vt 0.503089 0.820116
vt 0.503516 0.817842
vt 0.503635 0.433017
vt 0.461866 0.432685
vt 0.571739 0.814766
vt 0.571312 0.817041
vt 0.567109 0.817041
vt 0.567536 0.814766
vt 0.461862 0.473254
vt 0.503597 0.473446
vt 0.503518 0.514077
vt 0.422356 0.818455
vt 0.422356 0.858449
vt 0.418153 0.858449
vt 0.418153 0.818455
vt 0.503481 0.554540
vt 0.503484 0.594613
vt 0.522935 0.820732
vt 0.522935 0.860726
vt 0.063587 0.337514
vt 0.105542 0.337414
vt 0.363939 0.816905
vt 0.363513 0.814630
vt 0.367715 0.814630
vt 0.368142 0.816905
vt 0.400566 0.167097
vt 0.442076 0.166239
vt 0.363513 0.859173
vt 0.363939 0.856899
vt 0.368142 0.856899
vt 0.367715 0.859173
vt 0.483300 0.210279
vt 0.482997 0.168038
vt 0.483031 0.165582
vt 0.524586 0.165133
vt 0.523579 0.167713
vt 0.524391 0.209879
vt 0.370456 0.856899
vt 0.370456 0.816905
vt 0.565594 0.164495
vt 0.607171 0.164060
vt 0.565710 0.209859
vt 0.565614 0.166926
vt 0.622911 0.859755
vt 0.622911 0.819761
vt 0.866793 0.162655
vt 0.866986 0.121035
vt 0.907008 0.121127
vt 0.907463 0.162574
vt 0.967958 0.989479
vt 0.967958 0.949485
vt 0.977276 0.949485
vt 0.977276 0.989479
vt 0.962512 0.948640
vt 0.962512 0.988635
vt 0.953193 0.988635
vt 0.953193 0.948640
vt 0.947747 0.949642
vt 0.947747 0.989636
vt 0.938429 0.989636
vt 0.938429 0.949642
vt 0.924121 0.948514
vt 0.924121 0.988508
vt 0.914803 0.988508
vt 0.914803 0.948514
vt 0.063551 0.255766
vt 0.105227 0.255913
vt 0.105161 0.296004
vt 0.063646 0.296524
vt 0.841621 0.948514
vt 0.841621 0.988508
vt 0.832303 0.988508
vt 0.832303 0.948514
vt 0.903496 0.948514
vt 0.903496 0.988508
vt 0.894178 0.988508
vt 0.894178 0.948514
vt 0.882871 0.948514
vt 0.882871 0.988508
vt 0.873553 0.988508
vt 0.873553 0.948514
vt 0.851934 0.948514
vt 0.851934 0.988508
vt 0.842616 0.988508
vt 0.842616 0.948514
vt 0.503659 0.636050
vt 0.503569 0.676073
vt 0.801366 0.988508
vt 0.801366 0.948514
vt 0.810684 0.948514
vt 0.810684 0.988508
vt 0.820996 0.948514
vt 0.820996 0.988508
vt 0.811678 0.988508
vt 0.811678 0.948514
vt 0.153183 0.828107
vt 0.144092 0.837581
vt 0.831309 0.948514
vt 0.831309 0.988508
vt 0.821991 0.988508
vt 0.821991 0.948514
vt 0.453135 0.055840
vt 0.595181 0.053342
vt 0.593757 0.054771
vt 0.454835 0.057244
vt 0.934434 0.948514
vt 0.934434 0.988508
vt 0.925116 0.988508
vt 0.925116 0.948514
vt 0.239356 0.169367
vt 0.279485 0.169043
vt 0.862246 0.948514
vt 0.862246 0.988508
vt 0.852928 0.988508
vt 0.852928 0.948514
vt 0.913809 0.948514
vt 0.913809 0.988508
vt 0.904491 0.988508
vt 0.904491 0.948514
vt 0.893184 0.948514
vt 0.893184 0.988508
vt 0.883866 0.988508
vt 0.883866 0.948514
vt 0.872559 0.948514
vt 0.872559 0.988508
vt 0.863241 0.988508
vt 0.863241 0.948514
vt 0.500775 0.860111
vt 0.500775 0.820116
vt 0.545096 0.857650
vt 0.545096 0.817656
vt 0.473182 0.858312
vt 0.473182 0.818317
vt 0.475496 0.818317
vt 0.475496 0.858312
vt 0.600910 0.859099
vt 0.600910 0.819105
vt 0.603224 0.819105
vt 0.603224 0.859099
vt 0.586194 0.819502
vt 0.586194 0.859496
vt 0.583880 0.859496
vt 0.583880 0.819502
vt 0.106188 0.135555
vt 0.106535 0.172701
vt 0.525249 0.820732
vt 0.525249 0.860726
vt 0.620596 0.859755
vt 0.620596 0.819761
vt 0.415839 0.858449
vt 0.415839 0.818455
vt 0.395234 0.856899
vt 0.395234 0.816904
vt 0.437983 0.817680
vt 0.437983 0.857674
vt 0.435668 0.857674
vt 0.435668 0.817680
vt 0.329533 0.816905
vt 0.329533 0.856899
vt 0.327219 0.856899
vt 0.327219 0.816905
vt 0.564795 0.857035
vt 0.564795 0.817041
vt 0.457384 0.858311
vt 0.457384 0.818317
vt 0.345987 0.857674
vt 0.345987 0.817680
vt 0.348301 0.817680
vt 0.348301 0.857674
vt 0.579677 0.859496
vt 0.579677 0.819502
vt 0.442185 0.817680
vt 0.442185 0.857674
vt 0.341358 0.859949
vt 0.341784 0.857674
vt 0.345560 0.859949
vt 0.468553 0.860586
vt 0.468979 0.858312
vt 0.472755 0.860586
vt 0.341784 0.817680
vt 0.341358 0.815405
vt 0.345560 0.815405
vt 0.468979 0.818317
vt 0.468553 0.816043
vt 0.472755 0.816043
vt 0.333736 0.816905
vt 0.333736 0.856899
vt 0.596281 0.861374
vt 0.596707 0.859099
vt 0.600483 0.861374
vt 0.596707 0.819105
vt 0.596281 0.816831
vt 0.600483 0.816831
vt 0.323016 0.856899
vt 0.323016 0.816905
vt 0.590823 0.817227
vt 0.590397 0.819502
vt 0.586621 0.817227
vt 0.590397 0.859496
vt 0.590823 0.861771
vt 0.586621 0.861771
vt 0.431466 0.857674
vt 0.431466 0.817680
vt 0.105884 0.135468
vt 0.107906 0.173801
vt 0.105219 0.173889
vt 0.106268 0.172604
vt 0.391031 0.856899
vt 0.391031 0.816904
vt 0.529879 0.818457
vt 0.529452 0.820732
vt 0.525676 0.818457
vt 0.529452 0.860726
vt 0.529879 0.863001
vt 0.525676 0.863001
vt 0.607427 0.819105
vt 0.607427 0.859099
vt 0.411636 0.858449
vt 0.411636 0.818455
vt 0.615967 0.862030
vt 0.616394 0.859755
vt 0.620170 0.862030
vt 0.616394 0.819761
vt 0.615967 0.817487
vt 0.620170 0.817487
vt 0.479699 0.818317
vt 0.479699 0.858312
vt 0.422782 0.816180
vt 0.418580 0.816180
vt 0.422782 0.860724
vt 0.418580 0.860724
vt 0.540893 0.857650
vt 0.540893 0.817656
vt 0.352504 0.817680
vt 0.352504 0.857674
vt 0.402178 0.814630
vt 0.397975 0.814630
vt 0.402178 0.859173
vt 0.397975 0.859173
vt 0.496572 0.860111
vt 0.496572 0.820116
vt 0.453181 0.858311
vt 0.453181 0.818317
vt 0.442612 0.815405
vt 0.438409 0.815405
vt 0.442612 0.859949
vt 0.438409 0.859949
vt 0.560593 0.857035
vt 0.560593 0.817041
vt 0.334162 0.814630
vt 0.329960 0.814630
vt 0.334162 0.859173
vt 0.329960 0.859173
vt 0.208065 0.997188
vt 0.168071 0.997188
vt 0.168071 0.955637
vt 0.208065 0.955637
vt 0.372021 0.997188
vt 0.332026 0.997188
vt 0.332026 0.955637
vt 0.372021 0.955637
vt 0.126087 0.997188
vt 0.086093 0.997188
vt 0.086093 0.955637
vt 0.126087 0.955637
vt 0.249054 0.997188
vt 0.209060 0.997188
vt 0.209060 0.955637
vt 0.249054 0.955637
vt 0.413009 0.997188
vt 0.373015 0.997188
vt 0.373015 0.955637
vt 0.413009 0.955637
vt 0.453998 0.997188
vt 0.414004 0.997188
vt 0.414004 0.955637
vt 0.453998 0.955637
vt 0.044110 0.997188
vt 0.004115 0.997188
vt 0.004115 0.955637
vt 0.044110 0.955637
vt 0.617954 0.997188
vt 0.577960 0.997188
vt 0.577960 0.955637
vt 0.617954 0.955637
vt 0.494987 0.997188
vt 0.454993 0.997188
vt 0.454993 0.955637
vt 0.494987 0.955637
vt 0.535976 0.997188
vt 0.495982 0.997188
vt 0.495982 0.955637
vt 0.535976 0.955637
vt 0.085099 0.997188
vt 0.045104 0.997188
vt 0.045104 0.955637
vt 0.085099 0.955637
vt 0.658943 0.997188
vt 0.618948 0.997188
vt 0.618948 0.955637
vt 0.658943 0.955637
vt 0.290043 0.997188
vt 0.250048 0.997188
vt 0.250048 0.955637
vt 0.290043 0.955637
vt 0.576965 0.997188
vt 0.536971 0.997188
vt 0.536971 0.955637
vt 0.576965 0.955637
vt 0.167076 0.997188
vt 0.127082 0.997188
vt 0.127082 0.955637
vt 0.167076 0.955637
vt 0.331032 0.997188
vt 0.291037 0.997188
vt 0.291037 0.955637
vt 0.331032 0.955637
vt 0.502097 0.715536
vt 0.502456 0.678693
vt 0.575864 0.859496
vt 0.575864 0.819502
vt 0.746910 0.160951
vt 0.783499 0.160892
vt 0.501887 0.634116
vt 0.502360 0.597272
vt 0.827971 0.160659
vt 0.864834 0.160810
vt 0.501626 0.552514
vt 0.501631 0.515988
vt 0.319203 0.856899
vt 0.319203 0.816905
vt 0.909413 0.160637
vt 0.946361 0.160773
vt 0.463735 0.471328
vt 0.501697 0.471420
vt 0.501756 0.434879
vt 0.463781 0.434664
vt 0.427652 0.857674
vt 0.427652 0.817680
vt 0.481333 0.208386
vt 0.946469 0.122603
vt 0.909629 0.122240
vt 0.387218 0.856899
vt 0.387218 0.816905
vt 0.526299 0.207893
vt 0.563763 0.207878
vt 0.865052 0.122806
vt 0.828208 0.122331
vt 0.611240 0.819105
vt 0.611240 0.859099
vt 0.407823 0.858449
vt 0.407823 0.818455
vt 0.065456 0.172343
vt 0.783453 0.123068
vt 0.746932 0.123064
vt 0.483512 0.818317
vt 0.483512 0.858312
vt 0.065553 0.216870
vt 0.065403 0.253792
vt 0.702372 0.123004
vt 0.665839 0.122948
vt 0.537080 0.857650
vt 0.537080 0.817656
vt 0.356317 0.817680
vt 0.356317 0.857674
vt 0.065578 0.298476
vt 0.065482 0.335517
vt 0.103724 0.335531
vt 0.104044 0.298629
vt 0.492759 0.860111
vt 0.492759 0.820116
vt 0.449368 0.858311
vt 0.449368 0.818317
vt 0.103455 0.253974
vt 0.563705 0.168870
vt 0.103896 0.217071
vt 0.526242 0.168804
vt 0.556779 0.857035
vt 0.556779 0.817041
vt 0.103190 0.171985
vt 0.481070 0.169879
vt 0.319667 0.168423
vt 0.360071 0.167814
vt 0.239986 0.825697
vt 0.280518 0.825697
vt 0.280518 0.896643
vt 0.239986 0.896643
vt 0.596547 0.128462
vt 0.455392 0.130643
vt 0.456591 0.129287
vt 0.595068 0.126972
vt 0.828080 0.867648
vt 0.828080 0.938741
vt 0.691463 0.938741
vt 0.691463 0.867648
vt 0.382966 0.058955
vt 0.385353 0.132290
vt 0.383846 0.130721
vt 0.381723 0.060558
vt 0.248393 0.135406
vt 0.246361 0.063241
vt 0.247771 0.064520
vt 0.249717 0.134099
vt 0.225231 0.896492
vt 0.225231 0.825546
vt 0.229226 0.823821
vt 0.229226 0.900487
vt 0.184699 0.896492
vt 0.180704 0.900487
vt 0.184699 0.825546
vt 0.180704 0.823821
vt 0.445588 0.130747
vt 0.604979 0.041513
vt 0.605228 0.053165
vt 0.606712 0.132167
vt 0.601632 0.131459
vt 0.238862 0.139206
vt 0.236734 0.063540
vt 0.236421 0.052383
vt 0.395253 0.132206
vt 0.243641 0.138325
vt 0.821929 0.759165
vt 0.822181 0.717268
vt 0.823465 0.712602
vt 0.969984 0.712602
vt 0.806941 0.714414
vt 0.660335 0.714414
vt 0.660379 0.711431
vt 0.806898 0.711431
vt 0.450540 0.133704
vt 0.450617 0.135386
vt 0.449281 0.134530
vt 0.390641 0.136990
vt 0.390445 0.135272
vt 0.391826 0.136008
vt 0.660337 0.757785
vt 0.658843 0.757994
vt 0.659095 0.716098
vt 0.658173 0.767529
vt 0.804398 0.767529
vt 0.804398 0.809318
vt 0.658173 0.809318
vt 0.243666 0.139811
vt 0.601715 0.133123
vt 0.808433 0.757994
vt 0.806939 0.757785
vt 0.808181 0.716098
vt 0.971519 0.759165
vt 0.971267 0.717268
vt 0.819927 0.768385
vt 0.966153 0.768385
vt 0.966153 0.810174
vt 0.819927 0.810174
vt 0.819927 0.812409
vt 0.966153 0.812409
vt 0.966153 0.813914
vt 0.819927 0.813914
vt 0.658173 0.811553
vt 0.804398 0.811553
vt 0.804398 0.813057
vt 0.658173 0.813057
vt 0.660008 0.714348
vt 0.660036 0.713154
vt 0.807240 0.713154
vt 0.807268 0.714348
vt 0.823094 0.715519
vt 0.823122 0.714325
vt 0.970326 0.714325
vt 0.970354 0.715519
vt 0.660201 0.711252
vt 0.807075 0.711252
vt 0.823287 0.712423
vt 0.970161 0.712422
vt 0.804398 0.814815
vt 0.658173 0.814815
vt 0.966153 0.815672
vt 0.819927 0.815672
s 0
f 19/1/1 18/2/1 10/3/1 27/4/1
f 23/5/1 21/6/1 25/7/1 15/8/1
f 11/9/2 28/10/2 27/4/2 10/3/2
f 26/11/3 13/12/3 15/8/3 25/7/3
f 601/13/4 612/14/4 611/15/4 604/16/4
f 8/17/5 4/18/5 2/19/5 6/20/5
f 5/21/6 330/22/6 16/23/6 9/24/6 1/25/6
f 28/26/7 26/27/7 25/28/7 27/29/7
f 601/30/8 603/31/8 602/32/8 600/33/8
f 21/34/1 19/35/1 27/29/1 25/28/1
f 3/36/4 12/37/4 14/38/4 332/39/4 7/40/4
f 20/41/5 22/42/5 26/27/5 28/26/5
f 1/43/9 9/44/9 12/45/9 3/46/9
f 13/47/10 11/48/10 10/49/10 15/50/10
f 17/51/5 20/52/5 28/10/5 11/9/5
f 24/53/5 17/54/5 11/48/5 13/47/5
f 18/55/1 23/56/1 15/50/1 10/49/1
f 22/57/5 24/58/5 13/12/5 26/11/5
f 342/59/11 6/60/11 2/61/11 340/62/11
f 340/63/12 2/64/12 4/65/12 338/66/12
f 338/67/13 4/68/13 8/69/13 336/70/13
f 336/71/14 8/72/14 6/73/14 342/74/14
f 35/75/15 32/76/15 29/77/15 36/78/15 54/79/15 106/80/15 105/81/15 104/82/15 103/83/15 102/84/15 101/85/15 53/86/15
f 34/87/16 31/88/16 32/89/16 35/90/16 50/91/16 94/92/16 93/93/16 92/94/16 91/95/16 90/96/16 89/97/16 49/98/16
f 33/99/17 30/100/17 31/101/17 34/102/17 46/103/17 82/104/17 81/105/17 80/106/17 79/107/17 78/108/17 77/109/17 45/110/17
f 36/111/18 29/112/18 30/113/18 33/114/18 42/115/18 70/116/18 69/117/18 68/118/18 67/119/18 66/120/18 65/121/18 41/122/18
f 202/123/18 58/124/18 42/115/18 33/114/18 37/125/18
f 204/126/17 60/127/17 46/103/17 34/102/17 38/128/17
f 206/129/16 62/130/16 50/91/16 35/90/16 39/131/16
f 208/132/15 64/133/15 54/79/15 36/78/15 40/134/15
f 22/135/15 39/136/15 227/137/15 228/138/15 229/139/15 230/140/15 231/141/15 232/142/15 207/143/15 208/132/15 40/134/15 24/144/15
f 20/145/16 38/146/16 221/147/16 222/148/16 223/149/16 224/150/16 225/151/16 226/152/16 205/153/16 206/129/16 39/131/16 22/154/16
f 17/155/17 37/156/17 215/157/17 216/158/17 217/159/17 218/160/17 219/161/17 220/162/17 203/163/17 204/126/17 38/128/17 20/164/17
f 24/165/18 40/166/18 209/167/18 210/168/18 211/169/18 212/170/18 213/171/18 214/172/18 201/173/18 202/123/18 37/125/18 17/174/18
f 40/166/18 36/111/18 41/122/18 57/175/18 209/167/18
f 59/176/6 45/110/6 148/177/6 253/178/6
f 37/156/17 33/99/17 45/110/17 59/176/17 215/157/17
f 80/106/19 81/105/19 170/179/19 169/180/19
f 38/146/16 34/87/16 49/98/16 61/181/16 221/147/16
f 39/136/15 35/75/15 53/86/15 63/182/15 227/137/15
f 42/115/9 58/124/9 240/183/9 138/184/9
f 96/185/8 187/186/8 313/187/8 287/188/8
f 83/189/20 47/190/20 279/191/20 280/192/20
f 150/193/6 48/194/6 268/195/6 302/196/6
f 190/197/9 99/198/9 290/199/9 316/200/9
f 59/176/6 253/178/6 215/157/6
f 210/168/18 131/201/18 132/202/18 211/169/18
f 126/203/6 255/204/6 217/159/6
f 212/170/18 133/205/18 134/206/18 213/171/18
f 128/207/6 257/208/6 219/161/6
f 214/172/18 135/209/18 136/210/18 201/173/18
f 254/211/4 125/212/4 216/158/4
f 216/158/17 125/212/17 126/203/17 217/159/17
f 256/213/4 127/214/4 218/160/4
f 218/160/17 127/214/17 128/207/17 219/161/17
f 258/215/4 129/216/4 220/162/4
f 220/162/17 129/216/17 130/217/17 203/163/17
f 75/218/21 74/219/21 277/220/21 278/221/21
f 222/148/16 119/222/16 120/223/16 223/149/16
f 88/224/4 159/225/4 301/226/4 267/227/4
f 224/150/16 121/228/16 122/229/16 225/151/16
f 98/230/8 189/231/8 315/232/8 289/233/8
f 226/152/16 123/234/16 124/235/16 205/153/16
f 130/217/6 237/236/6 203/163/6
f 228/138/15 113/237/15 114/238/15 229/139/15
f 60/127/4 204/126/4 238/239/4
f 230/140/15 115/240/15 116/241/15 231/141/15
f 73/242/21 72/243/21 275/244/21 276/245/21
f 232/142/15 117/246/15 118/247/15 207/143/15
f 57/175/8 41/122/8 145/248/8 259/249/8
f 113/237/15 101/85/15 102/84/15 114/238/15
f 136/210/8 70/116/8 137/250/8 239/251/8
f 115/240/15 103/83/15 104/82/15 116/241/15
f 78/108/19 79/107/19 168/252/19 167/253/19
f 117/246/15 105/81/15 106/80/15 118/247/15
f 104/82/22 105/81/22 180/254/22 179/255/22
f 119/222/16 89/97/16 90/96/16 120/223/16
f 121/228/16 91/95/16 92/94/16 122/229/16
f 69/117/9 135/209/9 264/256/9 165/257/9
f 123/234/16 93/93/16 94/92/16 124/235/16
f 134/206/8 68/118/8 164/258/8 263/259/8
f 125/212/17 77/109/17 78/108/17 126/203/17
f 45/110/19 77/109/19 166/260/19 148/177/19
f 127/214/17 79/107/17 80/106/17 128/207/17
f 102/84/22 103/83/22 178/261/22 177/262/22
f 129/216/17 81/105/17 82/104/17 130/217/17
f 131/201/18 65/121/18 66/120/18 132/202/18
f 67/119/9 133/205/9 262/263/9 163/264/9
f 133/205/18 67/119/18 68/118/18 134/206/18
f 132/202/8 66/120/8 162/265/8 261/266/8
f 135/209/18 69/117/18 70/116/18 136/210/18
f 239/251/18 137/250/18 138/184/18 240/183/18
f 237/236/17 139/267/17 140/268/17 238/239/17
f 235/269/16 141/270/16 142/271/16 236/272/16
f 233/273/15 143/274/15 144/275/15 234/276/15
f 241/277/15 154/278/15 176/279/15 242/280/15
f 243/281/15 177/262/15 178/261/15 244/282/15
f 245/283/15 179/255/15 180/254/15 246/284/15
f 247/285/16 151/286/16 171/287/16 248/288/16
f 249/289/16 172/290/16 173/291/16 250/292/16
f 251/293/16 174/294/16 175/295/16 252/296/16
f 253/178/17 148/177/17 166/260/17 254/211/17
f 255/204/17 167/253/17 168/252/17 256/213/17
f 257/208/17 169/180/17 170/179/17 258/215/17
f 259/249/18 145/248/18 161/297/18 260/298/18
f 261/266/18 162/265/18 163/264/18 262/263/18
f 263/259/18 164/258/18 165/257/18 264/256/18
f 46/103/4 60/127/4 238/239/4 140/268/4
f 70/116/23 42/115/23 138/184/23 137/250/23
f 101/85/6 113/237/6 242/280/6 176/279/6
f 61/181/9 49/98/9 151/286/9 247/285/9
f 114/238/4 102/84/4 177/262/4 243/281/4
f 50/91/8 62/130/8 236/272/8 142/271/8
f 103/83/6 115/240/6 244/282/6 178/261/6
f 63/182/4 53/86/4 154/278/4 241/277/4
f 116/241/4 104/82/4 179/255/4 245/283/4
f 54/79/6 64/133/6 234/276/6 144/275/6
f 105/81/6 117/246/6 246/284/6 180/254/6
f 118/247/4 106/80/4 143/274/4 233/273/4
f 82/104/19 46/103/19 140/268/19 139/267/19
f 89/97/8 119/222/8 248/288/8 171/287/8
f 49/98/24 89/97/24 171/287/24 151/286/24
f 120/223/9 90/96/9 172/290/9 249/289/9
f 91/95/8 121/228/8 250/292/8 173/291/8
f 90/96/24 91/95/24 173/291/24 172/290/24
f 41/122/23 65/121/23 161/297/23 145/248/23
f 122/229/9 92/94/9 174/294/9 251/293/9
f 93/93/8 123/234/8 252/296/8 175/295/8
f 92/94/24 93/93/24 175/295/24 174/294/24
f 66/120/23 67/119/23 163/264/23 162/265/23
f 124/235/9 94/92/9 141/270/9 235/269/9
f 77/109/4 125/212/4 254/211/4 166/260/4
f 94/92/24 50/91/24 142/271/24 141/270/24
f 68/118/23 69/117/23 165/257/23 164/258/23
f 126/203/6 78/108/6 167/253/6 255/204/6
f 79/107/4 127/214/4 256/213/4 168/252/4
f 128/207/6 80/106/6 169/180/6 257/208/6
f 81/105/4 129/216/4 258/215/4 170/179/4
f 130/217/6 82/104/6 139/267/6 237/236/6
f 65/121/9 131/201/9 260/298/9 161/297/9
f 106/80/22 54/79/22 144/275/22 143/274/22
f 53/86/22 101/85/22 176/279/22 154/278/22
f 58/124/9 202/123/9 240/183/9
f 264/256/9 135/209/9 214/172/9
f 262/263/9 133/205/9 212/170/9
f 260/298/9 131/201/9 210/168/9
f 239/251/8 201/173/8 136/210/8
f 134/206/8 263/259/8 213/171/8
f 132/202/8 261/266/8 211/169/8
f 57/175/8 259/249/8 209/167/8
f 199/299/25 200/300/25 328/301/25 327/302/25
f 153/303/9 52/304/9 270/305/9 300/306/9
f 71/307/21 43/308/21 273/309/21 274/310/21
f 197/311/25 198/312/25 326/313/25 325/314/25
f 234/276/6 64/133/6 208/132/6
f 246/284/6 117/246/6 232/142/6
f 244/282/6 115/240/6 230/140/6
f 242/280/6 113/237/6 228/138/6
f 118/247/4 233/273/4 207/143/4
f 116/241/4 245/283/4 231/141/4
f 114/238/4 243/281/4 229/139/4
f 63/182/4 241/277/4 227/137/4
f 100/315/8 158/316/8 299/317/8 269/318/8
f 56/319/26 112/320/26 271/321/26 272/322/26
f 146/323/25 196/324/25 324/325/25 323/326/25
f 181/327/4 107/328/4 292/329/4 306/330/4
f 236/272/8 62/130/8 206/129/8
f 252/296/8 123/234/8 226/152/8
f 250/292/8 121/228/8 224/150/8
f 248/288/8 119/222/8 222/148/8
f 124/235/9 235/269/9 205/153/9
f 122/229/9 251/293/9 225/151/9
f 120/223/9 249/289/9 223/149/9
f 61/181/9 247/285/9 221/147/9
f 76/331/27 44/332/27 202/123/27 201/173/27
f 88/224/28 48/194/28 204/126/28 203/163/28
f 100/315/29 52/304/29 206/129/29 205/153/29
f 112/320/30 56/319/30 208/132/30 207/143/30
f 43/308/27 71/307/27 210/168/27 209/167/27
f 72/243/27 73/242/27 212/170/27 211/169/27
f 74/219/27 75/218/27 214/172/27 213/171/27
f 47/190/28 83/189/28 216/158/28 215/157/28
f 84/333/28 85/334/28 218/160/28 217/159/28
f 86/335/28 87/336/28 220/162/28 219/161/28
f 51/337/29 95/338/29 222/148/29 221/147/29
f 96/185/29 97/339/29 224/150/29 223/149/29
f 98/230/29 99/198/29 226/152/29 225/151/29
f 55/340/30 107/328/30 228/138/30 227/137/30
f 108/341/30 109/342/30 230/140/30 229/139/30
f 110/343/30 111/344/30 232/142/30 231/141/30
f 156/345/30 157/346/30 233/273/30 234/276/30
f 153/303/29 158/316/29 235/269/29 236/272/29
f 150/193/28 159/225/28 237/236/28 238/239/28
f 147/347/27 160/348/27 239/251/27 240/183/27
f 181/327/30 155/349/30 241/277/30 242/280/30
f 183/350/30 182/351/30 243/281/30 244/282/30
f 185/352/30 184/353/30 245/283/30 246/284/30
f 186/354/29 152/355/29 247/285/29 248/288/29
f 188/356/29 187/186/29 249/289/29 250/292/29
f 190/197/29 189/231/29 251/293/29 252/296/29
f 191/357/28 149/358/28 253/178/28 254/211/28
f 193/359/28 192/360/28 255/204/28 256/213/28
f 195/361/28 194/362/28 257/208/28 258/215/28
f 196/324/27 146/323/27 259/249/27 260/298/27
f 198/312/27 197/311/27 261/266/27 262/263/27
f 200/300/27 199/299/27 263/259/27 264/256/27
f 159/225/28 88/224/28 203/163/28 237/236/28
f 48/194/28 150/193/28 238/239/28 204/126/28
f 194/362/28 86/335/28 219/161/28 257/208/28
f 87/336/28 195/361/28 258/215/28 220/162/28
f 192/360/28 84/333/28 217/159/28 255/204/28
f 85/334/28 193/359/28 256/213/28 218/160/28
f 149/358/28 47/190/28 215/157/28 253/178/28
f 83/189/28 191/357/28 254/211/28 216/158/28
f 160/348/27 76/331/27 201/173/27 239/251/27
f 44/332/27 147/347/27 240/183/27 202/123/27
f 199/299/27 74/219/27 213/171/27 263/259/27
f 75/218/27 200/300/27 264/256/27 214/172/27
f 197/311/27 72/243/27 211/169/27 261/266/27
f 73/242/27 198/312/27 262/263/27 212/170/27
f 146/323/27 43/308/27 209/167/27 259/249/27
f 71/307/27 196/324/27 260/298/27 210/168/27
f 157/346/30 112/320/30 207/143/30 233/273/30
f 56/319/30 156/345/30 234/276/30 208/132/30
f 184/353/30 110/343/30 231/141/30 245/283/30
f 111/344/30 185/352/30 246/284/30 232/142/30
f 182/351/30 108/341/30 229/139/30 243/281/30
f 109/342/30 183/350/30 244/282/30 230/140/30
f 155/349/30 55/340/30 227/137/30 241/277/30
f 107/328/30 181/327/30 242/280/30 228/138/30
f 158/316/29 100/315/29 205/153/29 235/269/29
f 52/304/29 153/303/29 236/272/29 206/129/29
f 189/231/29 98/230/29 225/151/29 251/293/29
f 99/198/29 190/197/29 252/296/29 226/152/29
f 187/186/29 96/185/29 223/149/29 249/289/29
f 97/339/29 188/356/29 250/292/29 224/150/29
f 152/355/29 51/337/29 221/147/29 247/285/29
f 95/338/29 186/354/29 248/288/29 222/148/29
f 274/363/27 273/364/27 323/365/27 324/366/27
f 276/367/27 275/368/27 325/369/27 326/370/27
f 278/371/27 277/372/27 327/373/27 328/374/27
f 265/375/27 303/376/27 304/377/27 266/378/27
f 280/379/28 279/380/28 317/381/28 318/382/28
f 282/383/28 281/384/28 319/385/28 320/386/28
f 284/387/28 283/388/28 321/389/28 322/390/28
f 267/391/28 301/392/28 302/393/28 268/394/28
f 271/395/30 297/396/30 298/397/30 272/398/30
f 296/399/30 295/400/30 309/401/30 310/402/30
f 294/403/30 293/404/30 307/405/30 308/406/30
f 292/407/30 291/408/30 305/409/30 306/410/30
f 269/411/29 299/412/29 300/413/29 270/414/29
f 290/415/29 289/416/29 315/417/29 316/418/29
f 288/419/29 287/420/29 313/421/29 314/422/29
f 286/423/29 285/424/29 311/425/29 312/426/29
f 86/335/4 194/362/4 321/427/4 283/428/4
f 85/334/20 84/333/20 281/429/20 282/430/20
f 188/356/9 97/339/9 288/431/9 314/432/9
f 195/361/6 87/336/6 284/433/6 322/434/6
f 87/336/20 86/335/20 283/428/20 284/433/20
f 51/337/8 152/355/8 311/435/8 285/436/8
f 84/333/4 192/360/4 319/437/4 281/429/4
f 95/338/31 51/337/31 285/436/31 286/438/31
f 186/354/9 95/338/9 286/438/9 312/439/9
f 193/359/6 85/334/6 282/430/6 320/440/6
f 97/339/31 96/185/31 287/188/31 288/431/31
f 47/190/4 149/358/4 317/441/4 279/191/4
f 99/198/31 98/230/31 289/233/31 290/199/31
f 191/357/6 83/189/6 280/192/6 318/442/6
f 107/328/26 55/340/26 291/443/26 292/329/26
f 76/331/9 160/348/9 303/444/9 265/445/9
f 109/342/26 108/341/26 293/446/26 294/447/26
f 147/347/8 44/332/8 266/448/8 304/449/8
f 111/344/26 110/343/26 295/450/26 296/451/26
f 74/219/9 199/299/9 327/302/9 277/220/9
f 157/346/32 156/345/32 298/452/32 297/453/32
f 200/300/8 75/218/8 278/221/8 328/301/8
f 158/316/33 153/303/33 300/306/33 299/317/33
f 72/243/9 197/311/9 325/314/9 275/244/9
f 159/225/34 150/193/34 302/196/34 301/226/34
f 198/312/8 73/242/8 276/245/8 326/313/8
f 160/348/25 147/347/25 304/449/25 303/444/25
f 43/308/9 146/323/9 323/326/9 273/309/9
f 155/349/32 181/327/32 306/330/32 305/454/32
f 196/324/8 71/307/8 274/310/8 324/325/8
f 182/351/32 183/350/32 308/455/32 307/456/32
f 112/320/6 157/346/6 297/453/6 271/321/6
f 184/353/32 185/352/32 310/457/32 309/458/32
f 156/345/4 56/319/4 272/322/4 298/452/4
f 152/355/33 186/354/33 312/439/33 311/435/33
f 110/343/6 184/353/6 309/458/6 295/450/6
f 187/186/33 188/356/33 314/432/33 313/187/33
f 185/352/4 111/344/4 296/451/4 310/457/4
f 189/231/33 190/197/33 316/200/33 315/232/33
f 108/341/6 182/351/6 307/456/6 293/446/6
f 149/358/34 191/357/34 318/442/34 317/441/34
f 44/332/21 76/331/21 265/445/21 266/448/21
f 183/350/4 109/342/4 294/447/4 308/455/4
f 192/360/34 193/359/34 320/440/34 319/437/34
f 48/194/20 88/224/20 267/227/20 268/195/20
f 55/340/6 155/349/6 305/454/6 291/443/6
f 194/362/34 195/361/34 322/434/34 321/427/34
f 52/304/31 100/315/31 269/318/31 270/305/31
f 30/100/35 340/63/35 338/66/35 31/101/35
f 333/459/6 23/56/6 18/55/6 329/460/6 382/461/6 381/462/6 380/463/6 379/464/6 378/465/6 377/466/6 376/467/6 375/468/6
f 329/469/9 18/2/9 19/1/9 331/470/9 398/471/9 397/472/9 396/473/9 395/474/9 394/475/9 393/476/9 392/477/9 391/478/9
f 331/479/4 19/35/4 21/34/4 334/480/4 366/481/4 365/482/4 364/483/4 363/484/4 362/485/4 361/486/4 360/487/4 359/488/4
f 334/489/8 21/6/8 23/5/8 333/490/8 350/491/8 349/492/8 348/493/8 347/494/8 346/495/8 345/496/8 344/497/8 343/498/8
f 9/44/9 335/499/9 462/500/9 461/501/9 460/502/9 459/503/9 458/504/9 457/505/9 456/506/9 455/507/9 337/508/9 12/45/9
f 16/23/6 339/509/6 446/510/6 445/511/6 444/512/6 443/513/6 442/514/6 441/515/6 440/516/6 439/517/6 335/518/6 9/24/6
f 31/88/36 338/67/36 336/70/36 32/89/36
f 12/37/4 337/519/4 430/520/4 429/521/4 428/522/4 427/523/4 426/524/4 425/525/4 424/526/4 423/527/4 341/528/4 14/38/4
f 637/529/37 636/530/37 645/531/37 632/532/37
f 374/533/1 373/534/1 549/535/1 550/536/1
f 400/537/1 399/538/1 559/539/1 560/540/1
f 452/541/5 451/542/5 587/543/5 588/544/5
f 351/545/4 422/546/4 574/547/4 535/548/4
f 421/549/6 352/550/6 536/551/6 573/552/6
f 601/13/5 600/553/5 609/554/5 612/14/5
f 372/555/1 371/556/1 547/557/1 548/558/1
f 626/559/8 627/560/8 628/561/8 625/562/8
f 450/563/5 449/564/5 585/565/5 586/566/5
f 29/112/38 342/59/38 340/62/38 30/113/38
f 353/567/4 420/568/4 572/569/4 537/570/4
f 383/571/8 454/572/8 590/573/8 551/574/8
f 419/575/6 354/576/6 538/577/6 571/578/6
f 370/579/1 369/580/1 545/581/1 546/582/1
f 453/583/9 384/584/9 552/585/9 589/586/9
f 422/587/5 421/588/5 573/589/5 574/590/5
f 448/591/5 447/592/5 583/593/5 584/594/5
f 355/595/4 418/596/4 570/597/4 539/598/4
f 385/599/8 452/600/8 588/601/8 553/602/8
f 430/520/4 337/519/4 331/479/4 359/488/4 374/533/4 431/603/4
f 458/604/6 467/605/6 531/606/6 522/607/6
f 398/471/9 331/470/9 337/508/9 455/507/9 470/608/9 399/538/9
f 412/609/4 417/610/4 481/611/4 476/612/4
f 400/537/9 469/613/9 456/506/9 457/505/9 468/614/9 401/615/9 396/473/9 397/472/9
f 468/616/4 457/617/4 521/618/4 532/619/4
f 402/620/9 467/621/9 458/504/9 459/503/9 466/622/9 403/623/9 394/475/9 395/474/9
f 418/624/6 411/625/6 475/626/6 482/627/6
f 462/500/9 335/499/9 329/469/9 391/478/9 406/628/9 463/629/9
f 425/630/39 426/631/39 490/632/39 489/633/39
f 382/461/6 329/460/6 335/518/6 439/517/6 454/572/6 383/571/6
f 451/542/40 452/541/40 516/634/40 515/635/40
f 384/584/6 453/583/6 440/516/6 441/515/6 452/600/6 385/599/6 380/463/6 381/462/6
f 456/636/6 469/637/6 533/638/6 520/639/6
f 386/640/6 451/641/6 442/514/6 443/513/6 450/642/6 387/643/6 378/465/6 379/464/6
f 410/644/4 419/645/4 483/646/4 474/647/4
f 32/76/41 336/71/41 342/74/41 29/77/41
f 470/648/4 455/649/4 519/650/4 534/651/4
f 366/481/4 334/480/4 341/528/4 423/527/4 438/652/4 367/653/4
f 420/654/6 409/655/6 473/656/6 484/657/6
f 368/658/4 437/659/4 424/526/4 425/525/4 436/660/4 369/580/4 364/483/4 365/482/4
f 423/661/39 424/662/39 488/663/39 487/664/39
f 370/579/4 435/665/4 426/524/4 427/523/4 434/666/4 371/556/4 362/485/4 363/484/4
f 449/564/40 450/563/40 514/667/40 513/668/40
f 446/510/6 339/509/6 333/459/6 375/468/6 390/669/6 447/670/6
f 408/671/4 421/672/4 485/673/4 472/674/4
f 354/576/8 419/575/8 410/675/8 411/676/8 418/596/8 355/595/8 346/495/8 347/494/8
f 422/677/6 407/678/6 471/679/6 486/680/6
f 356/681/8 417/682/8 412/683/8 413/684/8 416/685/8 357/686/8 344/497/8 345/496/8
f 421/588/42 422/587/42 486/687/42 485/688/42
f 414/689/8 341/690/8 334/489/8 343/498/8 358/691/8 415/692/8
f 447/592/40 448/591/40 512/693/40 511/694/40
f 404/695/9 465/696/9 460/502/9 461/501/9 464/697/9 405/698/9 392/477/9 393/476/9
f 391/699/9 392/700/9 405/701/9 406/702/9
f 393/703/9 394/704/9 403/705/9 404/706/9
f 395/707/9 396/708/9 401/709/9 402/710/9
f 397/711/9 398/712/9 399/713/9 400/714/9
f 388/715/6 449/716/6 444/512/6 445/511/6 448/717/6 389/718/6 376/467/6 377/466/6
f 375/719/6 376/720/6 389/721/6 390/722/6
f 377/723/6 378/724/6 387/725/6 388/726/6
f 379/727/6 380/728/6 385/729/6 386/730/6
f 381/731/6 382/732/6 383/733/6 384/734/6
f 372/555/4 433/735/4 428/522/4 429/521/4 432/736/4 373/534/4 360/487/4 361/486/4
f 359/737/4 360/738/4 373/739/4 374/740/4
f 361/741/4 362/742/4 371/743/4 372/744/4
f 605/745/1 604/16/1 611/15/1 610/746/1
f 363/747/4 364/748/4 369/749/4 370/750/4
f 618/751/5 617/752/5 613/753/5 614/754/5
f 365/755/4 366/756/4 367/757/4 368/758/4
f 350/491/8 333/490/8 339/759/8 407/760/8 422/546/8 351/545/8
f 343/761/8 344/762/8 357/763/8 358/764/8
f 345/765/8 346/766/8 355/767/8 356/768/8
f 347/769/8 348/770/8 353/771/8 354/772/8
f 349/773/8 350/774/8 351/775/8 352/776/8
f 519/650/9 520/639/9 533/777/9 534/778/9
f 521/618/9 522/607/9 531/779/9 532/780/9
f 523/781/9 524/782/9 529/783/9 530/784/9
f 525/785/9 526/786/9 527/787/9 528/788/9
f 503/789/6 504/790/6 517/791/6 518/792/6
f 505/793/6 506/794/6 515/635/6 516/634/6
f 507/795/6 508/796/6 513/668/6 514/667/6
f 509/797/6 510/798/6 511/694/6 512/693/6
f 487/664/4 488/663/4 501/799/4 502/800/4
f 489/633/4 490/632/4 499/801/4 500/802/4
f 491/803/4 492/804/4 497/805/4 498/806/4
f 493/807/4 494/808/4 495/809/4 496/810/4
f 471/679/8 472/674/8 485/688/8 486/687/8
f 473/656/8 474/647/8 483/811/8 484/812/8
f 475/626/8 476/612/8 481/813/8 482/814/8
f 477/815/8 478/816/8 479/817/8 480/818/8
f 453/819/40 454/820/40 518/792/40 517/791/40
f 427/821/39 428/822/39 492/804/39 491/803/39
f 416/823/6 413/824/6 477/815/6 480/825/6
f 466/826/4 459/827/4 523/781/4 530/828/4
f 414/829/4 415/830/4 479/831/4 478/816/4
f 460/832/6 465/833/6 529/834/6 524/782/6
f 455/649/43 456/636/43 520/639/43 519/650/43
f 429/835/39 430/836/39 494/808/39 493/807/39
f 464/837/4 461/838/4 525/785/4 528/839/4
f 462/840/6 463/841/6 527/842/6 526/786/6
f 457/617/43 458/604/43 522/607/43 521/618/43
f 431/843/44 432/844/44 496/810/44 495/809/44
f 454/845/9 439/846/9 503/789/9 518/847/9
f 440/848/8 453/849/8 517/850/8 504/790/8
f 459/827/43 460/832/43 524/782/43 523/781/43
f 433/851/44 434/852/44 498/806/44 497/805/44
f 407/678/45 408/671/45 472/674/45 471/679/45
f 452/600/9 441/515/9 505/793/9 516/853/9
f 442/854/8 451/855/8 515/856/8 506/794/8
f 461/838/43 462/840/43 526/786/43 525/785/43
f 435/857/44 436/858/44 500/802/44 499/801/44
f 409/655/45 410/644/45 474/647/45 473/656/45
f 450/859/9 443/860/9 507/795/9 514/861/9
f 444/862/8 449/863/8 513/864/8 508/796/8
f 463/865/46 464/866/46 528/788/46 527/787/46
f 437/867/44 438/868/44 502/800/44 501/799/44
f 411/625/45 412/609/45 476/612/45 475/626/45
f 448/869/9 445/870/9 509/797/9 512/871/9
f 446/872/8 447/873/8 511/874/8 510/798/8
f 465/875/46 466/876/46 530/784/46 529/783/46
f 439/846/47 440/848/47 504/790/47 503/789/47
f 413/824/45 414/829/45 478/816/45 477/815/45
f 438/877/8 423/661/8 487/664/8 502/878/8
f 424/662/9 437/879/9 501/880/9 488/663/9
f 467/881/46 468/882/46 532/780/46 531/779/46
f 441/515/47 442/854/47 506/794/47 505/793/47
f 415/883/42 416/884/42 480/818/42 479/817/42
f 436/885/8 425/630/8 489/633/8 500/886/8
f 426/631/9 435/887/9 499/888/9 490/632/9
f 469/889/46 470/890/46 534/778/46 533/777/46
f 443/860/47 444/862/47 508/796/47 507/795/47
f 417/891/42 418/892/42 482/814/42 481/813/42
f 434/893/8 427/821/8 491/803/8 498/894/8
f 428/822/9 433/895/9 497/896/9 492/804/9
f 445/870/47 446/872/47 510/798/47 509/797/47
f 419/897/42 420/898/42 484/812/42 483/811/42
f 432/899/8 429/835/8 493/807/8 496/900/8
f 430/836/9 431/901/9 495/902/9 494/808/9
f 542/903/8 541/904/8 568/905/8 567/906/8
f 540/907/8 539/908/8 570/909/8 569/910/8
f 538/911/8 537/912/8 572/913/8 571/914/8
f 536/915/8 535/916/8 574/917/8 573/918/8
f 550/919/4 549/920/4 576/921/4 575/922/4
f 548/923/4 547/924/4 578/925/4 577/926/4
f 546/927/4 545/928/4 580/929/4 579/930/4
f 544/931/4 543/932/4 582/933/4 581/934/4
f 566/935/9 565/936/9 592/937/9 591/938/9
f 564/939/9 563/940/9 594/941/9 593/942/9
f 562/943/9 561/944/9 596/945/9 595/946/9
f 560/947/9 559/948/9 598/949/9 597/950/9
f 558/951/6 557/952/6 584/953/6 583/954/6
f 556/955/6 555/956/6 586/957/6 585/958/6
f 554/959/6 553/960/6 588/961/6 587/962/6
f 552/963/6 551/964/6 590/965/6 589/966/6
f 431/603/8 374/533/8 550/536/8 575/967/8
f 373/534/9 432/736/9 576/968/9 549/535/9
f 454/820/5 453/819/5 589/969/5 590/970/5
f 402/620/1 401/615/1 561/971/1 562/972/1
f 433/735/8 372/555/8 548/558/8 577/973/8
f 371/556/9 434/666/9 578/974/9 547/557/9
f 404/695/1 403/623/1 563/975/1 564/976/1
f 352/550/1 351/545/1 535/548/1 536/551/1
f 435/665/8 370/579/8 546/582/8 579/977/8
f 369/580/9 436/660/9 580/978/9 545/581/9
f 432/844/5 431/843/5 575/979/5 576/980/5
f 406/628/1 405/698/1 565/981/1 566/982/1
f 354/576/1 353/567/1 537/570/1 538/577/1
f 437/659/8 368/658/8 544/983/8 581/984/8
f 367/653/9 438/652/9 582/985/9 543/986/9
f 434/852/5 433/851/5 577/987/5 578/988/5
f 356/681/1 355/595/1 539/598/1 540/989/1
f 463/629/4 406/628/4 566/982/4 591/990/4
f 405/698/6 464/697/6 592/991/6 565/981/6
f 436/858/5 435/857/5 579/992/5 580/993/5
f 384/584/1 383/571/1 551/574/1 552/585/1
f 358/691/1 357/686/1 541/994/1 542/995/1
f 465/696/4 404/695/4 564/976/4 593/996/4
f 403/623/6 466/622/6 594/997/6 563/975/6
f 464/866/5 463/865/5 591/998/5 592/999/5
f 438/868/5 437/867/5 581/1000/5 582/1001/5
f 386/640/1 385/599/1 553/602/1 554/1002/1
f 467/621/4 402/620/4 562/972/4 595/1003/4
f 401/615/6 468/614/6 596/1004/6 561/971/6
f 466/876/5 465/875/5 593/1005/5 594/1006/5
f 388/715/1 387/643/1 555/1007/1 556/1008/1
f 469/613/4 400/537/4 560/540/4 597/1009/4
f 399/538/6 470/608/6 598/1010/6 559/539/6
f 468/882/5 467/881/5 595/1011/5 596/1012/5
f 416/884/5 415/883/5 567/1013/5 568/1014/5
f 390/669/1 389/718/1 557/1015/1 558/1016/1
f 447/670/9 390/669/9 558/1016/9 583/1017/9
f 389/718/8 448/717/8 584/1018/8 557/1015/8
f 470/890/5 469/889/5 597/1019/5 598/1020/5
f 418/892/5 417/891/5 569/1021/5 570/1022/5
f 449/716/9 388/715/9 556/1008/9 585/1023/9
f 415/692/6 358/691/6 542/995/6 567/1024/6
f 387/643/8 450/642/8 586/1025/8 555/1007/8
f 357/686/4 416/685/4 568/1026/4 541/994/4
f 420/898/5 419/897/5 571/1027/5 572/1028/5
f 451/641/9 386/640/9 554/1002/9 587/1029/9
f 368/658/1 367/653/1 543/986/1 544/983/1
f 417/682/6 356/681/6 540/989/6 569/1030/6
f 352/550/8 421/549/8 408/1031/8 409/1032/8 420/568/8 353/567/8 348/493/8 349/492/8
f 599/1033/8 606/1034/8 607/1035/8 608/1036/8
f 620/1037/1 619/1038/1 615/1039/1 616/1040/1
f 615/1041/8 614/1042/8 613/1043/8 616/1044/8
f 617/752/6 620/1037/6 616/1040/6 613/753/6
f 621/1045/6 624/1046/6 625/1047/6 628/1048/6
f 623/1049/4 622/1050/4 627/1051/4 626/1052/4
f 600/553/6 605/745/6 610/746/6 609/554/6
f 607/1053/8 606/1054/8 609/1055/8 610/1056/8
f 608/1057/8 607/1053/8 610/1056/8 611/1058/8
f 606/1054/8 599/1059/8 612/1060/8 609/1055/8
f 599/1059/8 608/1057/8 611/1058/8 612/1060/8
f 624/1046/1 623/1049/1 626/1052/1 625/1047/1
f 622/1050/5 621/1045/5 628/1048/5 627/1051/5
f 618/751/8 619/1038/8 605/1061/8 600/33/8
f 7/1062/8 332/1063/8 617/752/8 618/751/8 600/33/8 602/32/8
f 332/1063/8 14/1064/8 620/1037/8 617/752/8
f 620/1037/8 14/1064/8 636/1065/8
f 622/1050/8 623/1049/8 16/1066/8 330/1067/8
f 603/31/8 601/30/8 621/1045/8 622/1050/8 330/1067/8 5/1068/8
f 601/30/8 604/1069/8 624/1046/8 621/1045/8
f 619/1038/4 618/751/4 614/754/4 615/1039/4
f 633/1070/8 16/1066/8 623/1049/8
f 636/530/4 635/1071/4 646/1072/4 645/531/4
f 632/532/9 645/531/9 658/1073/9 657/1074/9
f 644/1075/9 629/1076/9 656/1077/9 655/1078/9
f 637/1079/8 638/1080/8 639/1081/8
f 640/1082/8 641/1083/8 642/1084/8
f 641/1085/4 640/1086/4 630/1087/4 629/1076/4
f 640/1088/48 634/1089/48 643/1090/48 630/1091/48
f 16/1066/8 633/1070/8 634/1092/8
f 14/1064/8 341/690/8 414/689/8 413/684/8 412/683/8 411/676/8 410/675/8 409/1032/8 408/1031/8 407/760/8 339/759/8 16/1066/8 634/1092/8 640/1082/8 642/1084/8 639/1081/8 638/1080/8 635/1093/8
f 624/1046/8 641/1083/8 633/1070/8 623/1049/8
f 14/1064/8 635/1093/8 636/1065/8
f 634/1094/6 633/1095/6 644/1075/6 643/1096/6
f 638/1097/6 637/529/6 632/532/6 631/1098/6
f 635/1099/48 638/1100/48 631/1101/48 646/1102/48
f 633/1095/37 641/1085/37 629/1076/37 644/1075/37
f 647/1103/8 648/1104/8 654/1105/8 649/1106/8
f 653/1107/8 652/1108/8 650/1109/8 651/1110/8
f 629/1076/4 630/1087/4 653/1111/4 651/1112/4
f 643/1096/6 644/1075/6 650/1113/6 652/1114/6
f 645/531/4 646/1072/4 647/1115/4 649/1116/4
f 646/1102/49 631/1101/49 648/1104/49 647/1103/49
f 631/1098/6 632/532/6 654/1117/6 648/1118/6
f 630/1091/49 643/1090/49 652/1108/49 653/1107/49
f 655/1078/1 656/1077/1 660/1119/1 659/1120/1
f 657/1074/1 658/1073/1 662/1121/1 661/1122/1
f 651/1110/8 650/1109/8 659/1123/8 660/1124/8
f 650/1113/6 644/1075/6 655/1078/6 659/1120/6
f 654/1117/6 632/532/6 657/1074/6 661/1122/6
f 649/1106/8 654/1105/8 661/1125/8 662/1126/8
f 629/1076/4 651/1112/4 660/1119/4 656/1077/4
f 645/531/4 649/1116/4 662/1121/4 658/1073/4
f 636/1065/8 637/1079/8 619/1038/8 620/1037/8
f 604/1069/8 605/1061/8 619/1038/8 637/1079/8 639/1081/8 642/1084/8 641/1083/8 624/1046/8
