# Blender 5.2.1 LTS
# www.blender.org
o Cube
v -5.000000 -6.000000 5.000000
v 5.000000 5.861531 5.382350
v -5.000000 -6.000000 -5.000000
v 5.003587 5.989262 5.385938
v 4.753559 -5.612533 5.000000
v -5.003587 5.989262 5.385938
v 5.000000 -6.000000 -5.000000
v -5.000000 5.861531 5.382350
v -5.000000 -2.439374 5.086174
v -5.000000 -0.056881 5.000000
v 5.000000 -0.056881 5.000000
v -5.000000 -2.549582 5.086174
v -5.000000 2.943119 5.000000
v 5.000000 2.943119 5.000000
v -5.000000 3.056881 5.000000
v -5.000000 5.494478 5.000000
v 5.000000 5.494478 5.000000
v 5.000000 3.056881 5.000000
v 3.457597 -0.619353 5.000000
v 2.256688 -0.619353 5.000000
v 0.600454 -0.619353 5.000000
v -0.600455 -0.619353 5.000000
v -2.256688 -0.619353 5.000000
v -3.457598 -0.619353 5.000000
v 5.000000 0.560627 5.086174
v 5.000000 0.450418 5.086174
v 3.457597 2.380647 5.000000
v 2.256688 2.380647 5.000000
v 0.600454 2.380647 5.000000
v -0.600455 2.380647 5.000000
v -2.256688 2.380647 5.000000
v -3.457598 2.380647 5.000000
v 5.000000 -2.439373 5.086174
v 5.000000 -2.549582 5.086174
v 3.457597 5.380647 5.000000
v 2.256688 5.380647 5.000000
v 0.600454 5.380647 5.000000
v -0.600455 5.380647 5.000000
v -2.256688 5.380647 5.000000
v -3.457598 5.380647 5.000000
v 3.571429 3.426850 5.103084
v 3.571429 3.509236 5.103083
v -3.571429 3.509236 5.103083
v -3.571429 3.426850 5.103084
v -5.000000 -2.943119 5.000000
v -5.000000 -3.056881 5.000000
v -5.000000 0.056881 5.000000
v -5.000000 2.943119 -5.000000
v -5.000000 3.056881 -5.000000
v -5.000000 -0.056881 -5.000000
v -5.000000 0.056881 -5.000000
v -5.000000 -3.056881 -5.000000
v -5.000000 -2.943119 -5.000000
v 5.000000 2.943119 -5.000000
v 5.000000 3.056881 -5.000000
v 5.000000 -0.056881 -5.000000
v 5.000000 0.056881 -5.000000
v 5.000000 -3.056881 -5.000000
v 5.000000 -2.943119 -5.000000
v 5.000000 0.056881 5.000000
v 5.000000 -3.056881 5.000000
v 5.000000 -2.943119 5.000000
v -5.000000 -2.549582 5.000000
v -5.000000 -2.439374 5.000000
v 5.000000 -2.439373 5.000000
v 5.000000 -2.549582 5.000000
v -5.000000 0.450418 5.000000
v -5.000000 0.560626 5.000000
v 5.000000 0.560627 5.000000
v 5.000000 0.450418 5.000000
v -3.457597 -2.325543 5.000000
v -2.256688 -2.325543 5.000000
v -0.600454 -2.325543 5.000000
v 0.600455 -2.325543 5.000000
v 2.256688 -2.325542 5.000000
v 3.457598 -2.325542 5.000000
v -3.457597 0.674458 5.000000
v -2.256688 0.674458 5.000000
v -0.600454 0.674458 5.000000
v 0.600455 0.674458 5.000000
v 2.256688 0.674458 5.000000
v 3.457598 0.674458 5.000000
v -5.000000 0.560626 5.086174
v -5.000000 0.450418 5.086174
v 4.608466 -5.612533 4.507122
v 3.666613 -5.612533 4.507122
v 3.666613 -3.793931 4.507122
v 4.608466 -3.793931 4.507122
v -3.571429 3.464329 5.000000
v -3.457597 3.660546 5.000000
v 4.753559 -6.000000 5.619159
v -2.256688 3.660546 5.000000
v -0.600454 3.660546 5.000000
v 3.571429 3.464329 5.000000
v 0.600455 3.660546 5.000000
v 2.256688 3.660547 5.000000
v 3.457598 3.660547 5.000000
v 4.753559 -5.806267 5.619159
v 3.521521 -6.000000 5.619159
v 3.521521 -5.806267 5.619159
v 4.753559 -5.806267 5.270997
v 3.521521 -5.806267 5.270997
v 3.521520 -5.612533 5.270997
v 3.521521 -6.000000 5.270997
v 4.753559 -6.000000 5.270997
v 4.753559 -5.612533 5.270997
v -5.003587 6.000000 5.003587
v -5.003587 6.000000 -5.003587
v -5.000000 5.872269 -5.000000
v 5.003587 6.000000 5.003587
v 5.003587 6.000000 -5.003587
v 5.000000 5.872269 -5.000000
v -4.804692 5.861531 5.382350
v 4.804692 5.861531 5.382350
v -4.804692 5.872269 5.000000
v -4.804692 5.494478 5.000000
v 4.804692 5.872269 5.000000
v -0.081875 5.861531 5.382350
v 0.081875 5.861531 5.382350
v 0.081875 5.872269 5.000000
v -0.081875 5.872269 5.000000
v 4.804692 5.494478 5.000000
v 3.521520 -5.612533 5.000000
v 4.753559 -4.194030 5.093084
v -4.804692 5.782865 5.351816
v -4.804692 5.514054 5.081944
v -5.000000 5.514054 5.081944
v -5.000000 5.782865 5.351816
v 0.081875 5.782865 5.351816
v 0.081875 5.514054 5.081944
v -0.081875 5.514054 5.081944
v -0.081875 5.782865 5.351816
v 4.804692 5.514054 5.081944
v 4.804692 5.782865 5.351816
v 5.000000 5.782865 5.351816
v 5.000000 5.514054 5.081944
v 3.477738 -4.150248 5.093084
v 4.753559 -6.000000 5.000000
v -5.000000 -3.450758 5.000000
v 3.521521 -6.000000 5.000000
v 5.000000 -6.000000 5.000000
v 0.749781 1.527552 5.099152
v 5.000000 -3.450758 5.000000
v 4.753559 -5.612533 4.507122
v 4.753559 -3.648839 4.507122
v 3.521520 -5.612533 4.507122
v 3.521521 -3.648839 4.507122
v -4.404508 -5.056605 5.000000
v -1.509439 -5.056605 5.000000
v -0.292593 -5.056605 5.000000
v 2.602476 -5.056605 5.000000
v 2.602476 -3.599898 5.000000
v -0.292593 -3.599898 5.000000
v -1.509439 -3.599898 5.000000
v -4.404508 -3.599898 5.000000
v 0.714286 1.492057 5.099152
v -0.749781 1.527552 5.099152
v -0.678790 1.527552 5.099152
v -0.714286 1.492056 5.099152
v -2.178353 1.527552 5.099152
v -2.107361 1.527552 5.099152
v -2.142857 1.492057 5.099152
v -3.606925 1.527552 5.099152
v -3.535933 1.527552 5.099152
v -3.571429 1.492056 5.099152
v 3.535933 1.527552 5.099152
v 3.606925 1.527552 5.099152
v 3.571429 5.494478 5.000000
v 2.142857 5.494478 5.000000
v -0.081876 5.494478 5.000000
v -0.714286 5.494478 5.000000
v -2.142857 5.494478 5.000000
v -3.571429 5.494478 5.000000
v -2.142857 -2.439374 5.000000
v -3.571429 -2.439374 5.000000
v 0.714286 -2.439374 5.000000
v -0.714286 -2.439374 5.000000
v 3.571429 -2.439373 5.000000
v 2.142857 -2.439374 5.000000
v -2.142857 0.560626 5.000000
v -3.571429 0.560626 5.000000
v 0.714286 0.560626 5.000000
v -0.714286 0.560626 5.000000
v 3.571429 0.560626 5.000000
v 2.142857 0.560626 5.000000
v -2.142857 3.546715 5.000000
v -3.571429 3.546715 5.000000
v 0.714286 3.546715 5.000000
v -0.714286 3.546715 5.000000
v 3.571429 3.546715 5.000000
v 2.142857 3.546715 5.000000
v 0.714286 5.494478 5.000000
v 0.081875 5.494478 5.000000
v -4.518339 -5.170436 5.000000
v -1.395607 -5.170436 5.000000
v -0.406424 -5.170436 5.000000
v 2.716307 -5.170436 5.000000
v 3.571429 1.492057 5.099152
v 2.107361 -1.472448 5.099152
v 2.178353 -1.472448 5.099152
v 2.142857 -1.507944 5.099152
v 3.457597 -0.619353 4.881582
v 2.256688 -0.619353 4.881582
v 0.600454 -0.619353 4.881582
v -0.600455 -0.619353 4.881582
v -2.256688 -0.619353 4.881582
v -3.457598 -0.619353 4.881582
v 3.457597 2.380647 4.881582
v 2.256688 2.380647 4.881582
v 0.600454 2.380647 4.881582
v -0.600455 2.380647 4.881582
v -2.256688 2.380647 4.881582
v -3.457598 2.380647 4.881582
v 3.457597 5.380647 4.881582
v 2.256688 5.380647 4.881582
v -0.600455 5.380647 4.881582
v -2.256688 5.380647 4.881582
v -3.457598 5.380647 4.881582
v -2.256688 -2.325543 4.881582
v -3.457597 -2.325543 4.881582
v 0.600455 -2.325543 4.881582
v -0.600454 -2.325543 4.881582
v 3.457598 -2.325542 4.881582
v 2.256688 -2.325542 4.881582
v -2.256688 0.674458 4.881582
v -3.457597 0.674458 4.881582
v 0.600455 0.674458 4.881582
v -0.600454 0.674458 4.881582
v 3.457598 0.674458 4.881582
v 2.256688 0.674458 4.881582
v -2.256688 3.660546 4.881582
v -3.457597 3.660546 4.881582
v 0.600455 3.660546 4.881582
v -0.600454 3.660546 4.881582
v 3.457598 3.660547 4.881582
v 2.256688 3.660547 4.881582
v 0.600454 5.380647 4.881582
v -4.404508 -5.056605 4.881582
v -1.509439 -5.056605 4.881582
v -0.292593 -5.056605 4.881582
v 2.602476 -5.056605 4.881582
v 2.602476 -3.599898 4.881582
v -0.292593 -3.599898 4.881582
v -1.509439 -3.599898 4.881582
v -4.404508 -3.599898 4.881582
v 0.678790 -1.472448 5.099152
v 0.749781 -1.472448 5.099152
v 0.714286 -1.507944 5.099152
v -0.749781 -1.472448 5.099152
v -0.678790 -1.472448 5.099152
v -0.714286 -1.507944 5.099152
v -2.178353 -1.472448 5.099152
v -2.107361 -1.472448 5.099152
v -2.142857 -1.507944 5.099152
v -3.606925 -1.472448 5.099152
v -3.535933 -1.472448 5.099152
v -3.571429 -1.507944 5.099152
v 3.535933 -1.472448 5.099152
v 3.606925 -1.472448 5.099152
v 3.571429 -1.507944 5.099152
v 3.606925 -1.472448 5.000000
v 3.535933 -1.472448 5.000000
v 3.571429 -1.507944 5.000000
v 3.535933 -0.541018 5.000000
v 3.606924 -0.470026 5.000000
v 2.107361 -0.470026 5.000000
v 2.178353 -0.541018 5.000000
v 0.678790 -0.541018 5.000000
v 0.749781 -0.470026 5.000000
v -0.749782 -0.470026 5.000000
v -0.678790 -0.541018 5.000000
v -2.178353 -0.541018 5.000000
v -2.107362 -0.470026 5.000000
v -3.606925 -0.470026 5.000000
v -3.535933 -0.541018 5.000000
v 3.606924 2.529974 5.000000
v 3.535933 2.458982 5.000000
v 2.107361 2.529974 5.000000
v 2.178353 2.458982 5.000000
v 0.749781 2.529974 5.000000
v 0.678790 2.458982 5.000000
v -0.749782 2.529974 5.000000
v -0.678790 2.458982 5.000000
v -2.107362 2.529974 5.000000
v -2.178353 2.458982 5.000000
v -3.606925 2.529974 5.000000
v -3.535933 2.458982 5.000000
v 2.680812 -3.521562 5.000000
v 2.751803 -3.450571 5.000000
v -0.441920 -3.450571 5.000000
v -0.370929 -3.521562 5.000000
v -1.431103 -3.521562 5.000000
v -1.360112 -3.450571 5.000000
v -4.553835 -3.450571 5.000000
v -4.482843 -3.521562 5.000000
v -3.535933 -1.472448 5.000000
v -3.606925 -1.472448 5.000000
v -3.571429 -1.507944 5.000000
v -2.107361 -1.472448 5.000000
v -2.178353 -1.472448 5.000000
v -2.142857 -1.507944 5.000000
v -0.678790 -1.472448 5.000000
v -0.749781 -1.472448 5.000000
v -0.714286 -1.507944 5.000000
v 0.749781 -1.472448 5.000000
v 0.678790 -1.472448 5.000000
v 0.714286 -1.507944 5.000000
v 2.178353 -1.472448 5.000000
v 2.107361 -1.472448 5.000000
v 2.142857 -1.507944 5.000000
v 3.606925 1.527552 5.000000
v 3.535933 1.527552 5.000000
v 3.571429 1.492057 5.000000
v -3.535933 1.527552 5.000000
v -3.606925 1.527552 5.000000
v -3.571429 1.492056 5.000000
v -2.107361 1.527552 5.000000
v -2.178353 1.527552 5.000000
v -2.142857 1.492057 5.000000
v -0.678790 1.527552 5.000000
v -0.749781 1.527552 5.000000
v -0.714286 1.492056 5.000000
v 0.749781 1.527552 5.000000
v 0.678790 1.527552 5.000000
v 0.714286 1.492057 5.000000
v 2.178353 1.527552 5.000000
v 2.107361 1.527552 5.000000
v 2.142857 1.492056 5.000000
v 2.751803 -4.328251 5.000000
v 2.680812 -4.328251 5.000000
v 2.716307 -4.363747 5.000000
v -0.370929 -4.328251 5.000000
v -0.441920 -4.328251 5.000000
v -0.406424 -4.363747 5.000000
v -1.360112 -4.328251 5.000000
v -1.431103 -4.328251 5.000000
v -1.395607 -4.363747 5.000000
v -4.482843 -4.328251 5.000000
v -4.553835 -4.328251 5.000000
v -4.518339 -4.363747 5.000000
v 0.678790 1.527552 5.099152
v 2.142857 1.492056 5.099152
v 2.178353 1.527552 5.099152
v 2.107361 1.527552 5.099152
v 2.716307 -4.363747 5.099152
v 2.751803 -4.328251 5.099152
v 2.680812 -4.328251 5.099152
v -0.406424 -4.363747 5.099152
v -0.370929 -4.328251 5.099152
v -0.441920 -4.328251 5.099152
v -1.395607 -4.363747 5.099152
v -1.360112 -4.328251 5.099152
v -1.431103 -4.328251 5.099152
v -4.518339 -4.363747 5.099152
v -4.482843 -4.328251 5.099152
v -4.553835 -4.328251 5.099152
v 3.535933 -0.541018 5.099152
v 3.606924 -0.470026 5.099152
v 2.107361 -0.470026 5.099152
v 2.178353 -0.541018 5.099152
v 0.678790 -0.541018 5.099152
v 0.749781 -0.470026 5.099152
v -0.749782 -0.470026 5.099152
v -0.678790 -0.541018 5.099152
v -2.178353 -0.541018 5.099152
v -2.107362 -0.470026 5.099152
v -3.606925 -0.470026 5.099152
v -3.535933 -0.541018 5.099152
v 3.535933 2.458982 5.099152
v 3.606924 2.529974 5.099152
v 2.107361 2.529974 5.099152
v 2.178353 2.458982 5.099152
v 0.678790 2.458982 5.099152
v 0.749781 2.529974 5.099152
v -0.749782 2.529974 5.099152
v -0.678790 2.458982 5.099152
v -2.178353 2.458982 5.099152
v -2.107362 2.529974 5.099152
v -3.606925 2.529974 5.099152
v -3.535933 2.458982 5.099152
v 2.680812 -3.521562 5.099152
v 2.751803 -3.450571 5.099152
v -0.441920 -3.450571 5.099152
v -0.370929 -3.521562 5.099152
v -1.431103 -3.521562 5.099152
v -1.360112 -3.450571 5.099152
v -4.553835 -3.450571 5.099152
v -4.482843 -3.521562 5.099152
v 3.521521 -4.150248 5.093084
v 3.521521 -4.194030 5.093084
v 3.477738 -3.605057 5.000000
v 3.521521 -3.648839 4.956218
v 4.797341 -3.605057 5.000000
v 4.753559 -3.648839 4.956218
v 3.521521 -4.157473 4.956218
v 3.477738 -4.157473 5.000000
v 3.521521 -4.201255 5.000000
v 4.797341 -4.157473 5.000000
v 4.753559 -4.157473 4.956218
v 4.753559 -4.201255 5.000000
v 4.797341 -4.150248 5.093084
v 4.753559 -4.150248 5.093084
v 4.753559 -3.641613 5.093084
v 4.797341 -3.597831 5.093084
v 3.477738 -3.597831 5.093084
v 3.521521 -3.641613 5.093084
vn -1.0000 -0.0000 -0.0000
vn -0.0000 -0.0000 1.0000
vn 1.0000 -0.0000 -0.0000
vn -0.0000 -0.0000 -1.0000
vn -0.0000 -1.0000 -0.0000
vn -0.0000 1.0000 -0.0000
vn -1.0000 -0.0032 0.0083
vn 1.0000 -0.0064 0.0063
vn -0.0000 -0.9996 -0.0281
vn -0.0000 -0.0281 0.9996
vn -0.0000 -0.7085 0.7057
vn -0.0000 -0.9726 0.2324
vn -0.0000 -0.3618 0.9322
vn -0.0000 -0.9398 -0.3417
vn -0.0000 0.9398 0.3417
vn -0.7071 -0.7071 -0.0000
vn 0.7071 -0.7071 -0.0000
vn 0.7060 -0.7061 0.0548
vn -0.0000 -0.9986 0.0527
vn -0.0000 0.9970 -0.0774
vn -0.7061 -0.7060 0.0548
vn -0.0000 -0.0281 -0.9996
vn -1.0000 -0.0071 -0.0003
vn -0.9996 -0.0281 -0.0000
vn -0.9996 -0.0281 -0.0008
vn -1.0000 -0.0071 0.0017
vn -1.0000 -0.0064 0.0063
vn 1.0000 -0.0071 0.0017
vn 0.9996 -0.0281 -0.0008
vn 1.0000 -0.0032 0.0083
vn 0.9996 -0.0281 -0.0000
vn 1.0000 -0.0071 -0.0003
vn 0.7061 -0.7060 0.0548
vn -0.0000 0.9996 0.0281
vn -0.7060 -0.7061 0.0548
vt 0.414827 0.553139
vt 0.410303 0.552906
vt 0.413660 0.550032
vt 0.361535 0.593071
vt 0.357747 0.260156
vt 0.361535 0.260156
vt 0.356750 0.593071
vt 0.352963 0.260156
vt 0.356750 0.260156
vt 0.366319 0.593071
vt 0.362532 0.260156
vt 0.366319 0.260156
vt 0.377072 0.999241
vt 0.373285 0.666327
vt 0.377072 0.666327
vt 0.378069 0.000498
vt 0.381857 0.333413
vt 0.378069 0.333413
vt 0.382853 0.000498
vt 0.386641 0.333413
vt 0.382854 0.333413
vt 0.373285 0.333413
vt 0.377072 0.333413
vt 0.381857 0.666327
vt 0.378069 0.666327
vt 0.386641 0.666327
vt 0.382854 0.666327
vt 0.373285 0.000498
vt 0.377072 0.000498
vt 0.381857 0.999241
vt 0.378069 0.999241
vt 0.386641 0.999241
vt 0.382854 0.999241
vt 0.840262 0.089515
vt 0.840255 0.207332
vt 0.836860 0.209101
vt 0.005163 0.615864
vt 0.057975 0.803447
vt 0.005163 0.803451
vt 0.414807 0.827040
vt 0.410303 0.827324
vt 0.411833 0.826206
vt 0.060812 0.803930
vt 0.114952 0.616350
vt 0.114952 0.803930
vt 0.169654 0.616350
vt 0.115514 0.803930
vt 0.115514 0.616350
vt 0.760469 0.424108
vt 0.577284 0.370195
vt 0.760469 0.370195
vt 0.057997 0.991027
vt 0.012272 0.991033
vt 0.445185 0.501770
vt 0.442316 0.498101
vt 0.445185 0.498101
vt 0.428303 0.838390
vt 0.425434 0.834721
vt 0.428303 0.834721
vt 0.124963 0.428769
vt 0.169654 0.803930
vt 0.169654 0.991510
vt 0.124963 0.991510
vt 0.105503 0.991510
vt 0.060812 0.616350
vt 0.060812 0.428769
vt 0.105503 0.428769
vt 0.977819 0.832705
vt 0.876278 0.834718
vt 0.874082 0.832704
vt 0.830386 0.923750
vt 0.787448 0.926352
vt 0.785172 0.924024
vt 0.601589 0.926119
vt 0.605198 0.986817
vt 0.603190 0.988937
vt 0.874030 0.886373
vt 0.975649 0.884361
vt 0.977871 0.886374
vt 0.477983 0.927201
vt 0.435047 0.929803
vt 0.432771 0.927475
vt 0.831967 0.986559
vt 0.828373 0.925867
vt 0.428303 0.501807
vt 0.425434 0.498138
vt 0.428303 0.498138
vt 0.445185 0.838354
vt 0.442316 0.834685
vt 0.445185 0.834685
vt 0.855651 0.837153
vt 0.754032 0.839165
vt 0.751810 0.837152
vt 0.347640 0.797658
vt 0.282796 0.750099
vt 0.347640 0.750099
vt 0.591653 0.927225
vt 0.548837 0.929025
vt 0.546787 0.926469
vt 0.347640 0.892777
vt 0.282796 0.845218
vt 0.347640 0.845218
vt 0.788781 0.984722
vt 0.786774 0.986842
vt 0.481928 0.907311
vt 0.483577 0.909596
vt 0.470404 0.915057
vt 0.451086 0.904528
vt 0.460193 0.895797
vt 0.462610 0.912275
vt 0.012272 0.428282
vt 0.057975 0.615867
vt 0.350383 0.702540
vt 0.363948 0.654981
vt 0.363947 0.987895
vt 0.282796 0.797658
vt 0.270219 0.818712
vt 0.012492 0.257790
vt 0.169722 0.245056
vt 0.169722 0.257790
vt 0.006607 0.339097
vt 0.002349 0.176190
vt 0.002349 0.169660
vt 0.012294 0.241755
vt 0.169523 0.229021
vt 0.169523 0.241755
vt 0.282796 0.892777
vt 0.282796 0.940336
vt 0.270219 0.981393
vt 0.477187 0.894041
vt 0.486251 0.902690
vt 0.423031 0.904858
vt 0.435903 0.899986
vt 0.426643 0.908589
vt 0.446764 0.899908
vt 0.455827 0.891259
vt 0.488964 0.890933
vt 0.470404 0.897177
vt 0.475714 0.891636
vt 0.488602 0.904227
vt 0.438670 0.899443
vt 0.438156 0.912076
vt 0.437986 0.898025
vt 0.432093 0.895937
vt 0.434176 0.893976
vt 0.420697 0.906452
vt 0.420023 0.893119
vt 0.444051 0.888150
vt 0.449438 0.906813
vt 0.444413 0.901445
vt 0.457301 0.888854
vt 0.577284 0.424108
vt 0.394100 0.424108
vt 0.394100 0.416893
vt 0.943654 0.416893
vt 0.732208 0.855505
vt 0.723186 0.855505
vt 0.723186 0.849055
vt 0.670579 0.876118
vt 0.711595 0.876118
vt 0.675409 0.892526
vt 0.421765 0.834721
vt 0.425434 0.501807
vt 0.418896 0.692044
vt 0.418896 0.644484
vt 0.421765 0.501807
vt 0.435778 0.692007
vt 0.435778 0.644448
vt 0.438647 0.501770
vt 0.649966 0.842606
vt 0.658988 0.842606
vt 0.658988 0.849055
vt 0.442316 0.501770
vt 0.670579 0.860646
vt 0.711595 0.849055
vt 0.711595 0.860646
vt 0.670579 0.849055
vt 0.711595 0.842606
vt 0.411853 0.554031
vt 0.670579 0.867096
vt 0.711595 0.867096
vt 0.406089 0.717557
vt 0.406089 0.662674
vt 0.986652 0.806603
vt 0.994929 0.814880
vt 0.924647 0.814880
vt 0.612132 0.902742
vt 0.643488 0.842198
vt 0.643487 0.902742
vt 0.775304 0.987778
vt 0.773265 0.927398
vt 0.775305 0.925380
vt 0.892359 0.921958
vt 0.849422 0.924561
vt 0.847146 0.922233
vt 0.671799 0.645710
vt 0.671800 0.782088
vt 0.665343 0.775632
vt 0.726413 0.993719
vt 0.730634 0.988830
vt 0.712076 0.988535
vt 0.663151 0.991601
vt 0.667404 0.987483
vt 0.909153 0.922187
vt 0.958569 0.917609
vt 0.954367 0.921913
vt 0.896562 0.917654
vt 0.595913 0.923069
vt 0.482186 0.922897
vt 0.834588 0.919445
vt 0.651004 0.921542
vt 0.646802 0.925846
vt 0.690051 0.793029
vt 0.683594 0.799485
vt 0.683594 0.663107
vt 0.805672 0.242454
vt 0.800487 0.247639
vt 0.800487 0.014374
vt 0.784838 0.650693
vt 0.700128 0.644237
vt 0.791294 0.644237
vt 0.568641 0.792485
vt 0.562185 0.798941
vt 0.562185 0.662563
vt 0.667405 0.925084
vt 0.716297 0.919147
vt 0.712075 0.924033
vt 0.492487 0.926288
vt 0.541535 0.923123
vt 0.537274 0.927268
vt 0.730634 0.924328
vt 0.779558 0.921261
vt 0.716297 0.993420
vt 0.492633 0.989778
vt 0.488112 0.921538
vt 0.541535 0.993970
vt 0.537260 0.989927
vt 0.726413 0.919445
vt 0.494624 0.987539
vt 0.663151 0.920966
vt 0.779559 0.991896
vt 0.859718 0.832931
vt 0.869963 0.890595
vt 0.481070 0.612698
vt 0.474613 0.619154
vt 0.474614 0.482776
vt 0.591909 0.607548
vt 0.585452 0.614005
vt 0.585452 0.477627
vt 0.995565 0.470238
vt 0.955585 0.413437
vt 0.995565 0.413437
vt 0.955732 0.531842
vt 0.995712 0.475041
vt 0.995712 0.531842
vt 0.956056 0.224070
vt 0.996036 0.167268
vt 0.996036 0.224070
vt 0.956141 0.285744
vt 0.996121 0.228942
vt 0.996121 0.285744
vt 0.955281 0.162713
vt 0.995261 0.105912
vt 0.995261 0.162713
vt 0.996364 0.408434
vt 0.956384 0.351632
vt 0.996364 0.351632
vt 0.996955 0.348470
vt 0.956975 0.291205
vt 0.996955 0.291205
vt 0.956080 0.595514
vt 0.996060 0.538250
vt 0.996060 0.595514
vt 0.956505 0.657236
vt 0.996485 0.599972
vt 0.996485 0.657236
vt 0.996669 0.054705
vt 0.900288 0.103201
vt 0.900288 0.054705
vt 0.901211 0.051862
vt 0.997592 0.003366
vt 0.997592 0.051862
vt 0.547299 0.990773
vt 0.590039 0.987351
vt 0.592095 0.989358
vt 0.669445 0.927103
vt 0.603865 0.928448
vt 0.751862 0.890821
vt 0.853403 0.888808
vt 0.855599 0.890822
vt 0.848747 0.985051
vt 0.891669 0.982442
vt 0.893940 0.984768
vt 0.494629 0.928748
vt 0.589616 0.929260
vt 0.876252 0.884361
vt 0.910755 0.985005
vt 0.953677 0.982396
vt 0.955948 0.984722
vt 0.732650 0.926878
vt 0.912762 0.982885
vt 0.975623 0.834719
vt 0.646111 0.986328
vt 0.648383 0.988654
vt 0.710059 0.926583
vt 0.952354 0.924031
vt 0.853429 0.839165
vt 0.829696 0.984233
vt 0.850754 0.982931
vt 0.754058 0.888807
vt 0.434372 0.990293
vt 0.477293 0.987684
vt 0.479564 0.990009
vt 0.535234 0.929298
vt 0.890347 0.924076
vt 0.773265 0.985760
vt 0.732650 0.986280
vt 0.549295 0.988191
vt 0.644789 0.927963
vt 0.710059 0.985985
vt 0.436379 0.988173
vt 0.911430 0.924515
vt 0.669444 0.985465
vt 0.475971 0.929319
vt 0.518512 0.995337
vt 0.512114 0.994669
vt 0.855027 0.571438
vt 0.846208 0.608183
vt 0.844558 0.606800
vt 0.816983 0.458736
vt 0.817055 0.460761
vt 0.814725 0.460346
vt 0.843544 0.606312
vt 0.846857 0.570123
vt 0.851513 0.570488
vt 0.793499 0.617244
vt 0.795939 0.617924
vt 0.795517 0.618893
vt 0.820343 0.497083
vt 0.824958 0.570843
vt 0.820255 0.570485
vt 0.798068 0.618725
vt 0.807505 0.581379
vt 0.811811 0.582013
vt 0.630707 0.064222
vt 0.619293 0.041123
vt 0.621155 0.041302
vt 0.819731 0.458888
vt 0.817469 0.460242
vt 0.779435 0.467086
vt 0.782235 0.467919
vt 0.779269 0.468151
vt 0.799319 0.580070
vt 0.796008 0.616951
vt 0.621970 0.040830
vt 0.639378 0.061133
vt 0.634675 0.061921
vt 0.816772 0.609624
vt 0.817496 0.608104
vt 0.819340 0.609432
vt 0.832818 0.572348
vt 0.828527 0.495780
vt 0.832821 0.495196
vt 0.780331 0.609794
vt 0.763675 0.592117
vt 0.767345 0.591041
vt 0.635955 0.287453
vt 0.624328 0.322509
vt 0.622433 0.320768
vt 0.779035 0.467923
vt 0.779960 0.465854
vt 0.770448 0.589078
vt 0.782408 0.609381
vt 0.780942 0.609385
vt 0.622082 0.320296
vt 0.625710 0.285273
vt 0.631497 0.285775
vt 0.814725 0.607981
vt 0.817190 0.608645
vt 0.780738 0.609761
vt 0.779580 0.611078
vt 0.741193 0.567704
vt 0.735797 0.489375
vt 0.739807 0.488788
vt 0.694548 0.471446
vt 0.711909 0.489795
vt 0.708190 0.490866
vt 0.605832 0.072665
vt 0.599550 0.021556
vt 0.605832 0.021556
vt 0.843956 0.606830
vt 0.841222 0.606723
vt 0.704981 0.492815
vt 0.692892 0.471609
vt 0.694451 0.471474
vt 0.599510 0.335112
vt 0.593228 0.279506
vt 0.599510 0.279506
vt 0.781284 0.610704
vt 0.742984 0.486832
vt 0.749977 0.569278
vt 0.745200 0.568633
vt 0.843856 0.459268
vt 0.859480 0.494814
vt 0.855158 0.495426
vt 0.599510 0.077163
vt 0.593228 0.021556
vt 0.599510 0.021556
vt 0.843470 0.608331
vt 0.696049 0.613709
vt 0.692892 0.613461
vt 0.695596 0.613094
vt 0.851534 0.496359
vt 0.841222 0.459250
vt 0.843730 0.459514
vt 0.605832 0.317121
vt 0.599550 0.266012
vt 0.605832 0.266012
vt 0.846831 0.496720
vt 0.729872 0.467871
vt 0.746682 0.485776
vt 0.764198 0.509706
vt 0.776909 0.465854
vt 0.696738 0.613699
vt 0.695443 0.615420
vt 0.727816 0.468198
vt 0.729278 0.468180
vt 0.773521 0.511099
vt 0.768352 0.510621
vt 0.595974 0.956992
vt 0.594704 0.958278
vt 0.175464 0.314162
vt 0.189219 0.455658
vt 0.189219 0.505580
vt 0.544445 0.994363
vt 0.543959 0.958662
vt 0.542532 0.957380
vt 0.845861 0.988011
vt 0.897301 0.951928
vt 0.896039 0.953251
vt 0.845043 0.953786
vt 0.843670 0.952589
vt 0.907869 0.987966
vt 0.959309 0.951883
vt 0.958047 0.953205
vt 0.907050 0.953741
vt 0.905678 0.952544
vt 0.600304 0.991898
vt 0.651744 0.955815
vt 0.650482 0.957138
vt 0.258811 0.989125
vt 0.245056 0.847629
vt 0.245056 0.797707
vt 0.599486 0.957673
vt 0.598114 0.956477
vt 0.783888 0.989803
vt 0.835328 0.953719
vt 0.834066 0.955042
vt 0.783069 0.955577
vt 0.781697 0.954380
vt 0.431486 0.993253
vt 0.482925 0.957171
vt 0.481663 0.958493
vt 0.430668 0.959029
vt 0.429295 0.957832
vt 0.785541 0.365679
vt 0.771462 0.235507
vt 0.771462 0.202670
vt 0.980636 0.829830
vt 0.868722 0.860863
vt 0.870605 0.859511
vt 0.850634 0.090229
vt 0.840434 0.089954
vt 0.844459 0.063384
vt 0.981296 0.859511
vt 0.983178 0.860863
vt 0.749045 0.893696
vt 0.860959 0.862663
vt 0.859076 0.864015
vt 0.748385 0.864015
vt 0.746502 0.862663
vt 0.807954 0.505655
vt 0.812258 0.505056
vt 0.796248 0.617388
vt 0.728959 0.466905
vt 0.729481 0.467854
vt 0.825007 0.496722
vt 0.593228 0.018376
vt 0.599510 0.018376
vt 0.818073 0.460272
vt 0.799734 0.506978
vt 0.803994 0.580457
vt 0.730662 0.466566
vt 0.605832 0.320302
vt 0.599550 0.317121
vt 0.731676 0.609917
vt 0.730380 0.611646
vt 0.730985 0.609928
vt 0.593228 0.077163
vt 0.759398 0.509033
vt 0.599550 0.018376
vt 0.605832 0.018376
vt 0.727816 0.609684
vt 0.730529 0.609311
vt 0.599550 0.072665
vt 0.774424 0.588467
vt 0.599510 0.338293
vt 0.593228 0.335112
vt 0.843239 0.457668
vt 0.843596 0.458575
vt 0.621456 0.322513
vt 0.621988 0.321334
vt 0.641349 0.288266
vt 0.715051 0.573258
vt 0.710285 0.572607
vt 0.845749 0.457914
vt 0.619293 0.320572
vt 0.798625 0.468345
vt 0.796322 0.470029
vt 0.795757 0.468362
vt 0.625634 0.064776
vt 0.706287 0.571670
vt 0.700941 0.493402
vt 0.620838 0.039572
vt 0.621449 0.040836
vt 0.793499 0.470120
vt 0.804397 0.506598
vt 0.736049 0.567223
vt 0.795889 0.470563
vt 0.796966 0.470101
vt 0.733588 0.611566
vt 0.623015 0.039258
vt 0.693902 0.470367
vt 0.694240 0.470985
vt 0.701156 0.571186
vt 0.817250 0.607664
vt 0.698638 0.615346
vt 0.828488 0.571741
vt 0.859316 0.572028
vt 0.695491 0.470125
vt 0.886144 0.031535
vt 0.886144 0.289406
vt 0.880411 0.283674
vt 0.830485 0.209852
vt 0.843842 0.233626
vt 0.841931 0.235893
vt 0.844643 0.233999
vt 0.845896 0.236125
vt 0.844457 0.233447
vt 0.850633 0.206551
vt 0.746181 0.062492
vt 0.765937 0.062492
vt 0.771462 0.088453
vt 0.916370 0.719282
vt 0.893914 0.657677
vt 0.916370 0.657677
vt 0.893914 0.817472
vt 0.893914 0.719282
vt 0.916370 0.744715
vt 0.916370 0.632244
vt 0.893914 0.559487
vt 0.830485 0.087059
vt 0.836840 0.208986
vt 0.219729 0.214950
vt 0.010329 0.214950
vt 0.219729 0.005549
vt 0.843844 0.063209
vt 0.836847 0.087926
vt 0.841923 0.060943
vt 0.844643 0.062832
vt 0.652004 0.362091
vt 0.665106 0.029177
vt 0.665106 0.362091
vt 0.271984 0.317514
vt 0.258883 0.650428
vt 0.258883 0.317514
vt 0.357747 0.593071
vt 0.352963 0.593071
vt 0.362532 0.593071
vt 0.373285 0.999241
vt 0.381857 0.000498
vt 0.386641 0.000498
vt 0.836866 0.087742
vt 0.002767 0.803451
vt 0.002767 0.615864
vt 0.413679 0.830149
vt 0.002790 0.991101
vt 0.425434 0.838390
vt 0.115514 0.428769
vt 0.122896 0.428769
vt 0.169654 0.428769
vt 0.115514 0.991510
vt 0.122896 0.991510
vt 0.114952 0.991510
vt 0.107570 0.991510
vt 0.060812 0.991510
vt 0.114952 0.428769
vt 0.107570 0.428769
vt 0.442316 0.838354
vt 0.483895 0.914104
vt 0.472821 0.898580
vt 0.462610 0.894395
vt 0.449120 0.911322
vt 0.002790 0.428213
vt 0.057997 0.428287
vt 0.347640 0.702540
vt 0.282796 0.702540
vt 0.282796 0.661483
vt 0.282796 0.654980
vt 0.282796 0.987895
vt 0.282796 0.981393
vt 0.347640 0.940336
vt 0.350383 0.940336
vt 0.282796 0.818712
vt 0.270219 0.661483
vt 0.012492 0.245056
vt 0.002349 0.005797
vt 0.006607 0.005678
vt 0.002349 0.012304
vt 0.002377 0.338979
vt 0.002376 0.332514
vt 0.012294 0.229021
vt 0.270219 0.824164
vt 0.282796 0.824164
vt 0.424994 0.910839
vt 0.432817 0.893119
vt 0.394100 0.370195
vt 0.943654 0.370195
vt 0.943654 0.424108
vt 0.723186 0.842606
vt 0.732208 0.842606
vt 0.711595 0.892526
vt 0.706765 0.892526
vt 0.670579 0.892526
vt 0.418896 0.549366
vt 0.418896 0.501807
vt 0.418896 0.834721
vt 0.418896 0.787162
vt 0.418896 0.739603
vt 0.418896 0.596925
vt 0.435778 0.549330
vt 0.435778 0.501770
vt 0.438647 0.834685
vt 0.435778 0.834685
vt 0.435778 0.787125
vt 0.435778 0.739566
vt 0.435778 0.596889
vt 0.658988 0.855505
vt 0.649966 0.855505
vt 0.670579 0.842606
vt 0.406089 0.607790
vt 0.406089 0.552906
vt 0.406089 0.827324
vt 0.406089 0.772441
vt 0.986652 0.702861
vt 0.994929 0.702861
vt 0.924647 0.702861
vt 0.932924 0.806603
vt 0.932924 0.702861
vt 0.612132 0.842198
vt 0.665343 0.652167
vt 0.580634 0.652167
vt 0.580634 0.645710
vt 0.577406 0.648938
vt 0.580634 0.782088
vt 0.577406 0.778860
vt 0.580634 0.775632
vt 0.904537 0.917608
vt 0.842529 0.917654
vt 0.542532 0.921538
vt 0.428153 0.922894
vt 0.780556 0.919445
vt 0.596971 0.921538
vt 0.774760 0.663107
vt 0.690051 0.669563
vt 0.777988 0.666335
vt 0.774760 0.669563
vt 0.774760 0.793029
vt 0.774760 0.799485
vt 0.777988 0.796257
vt 0.864592 0.014374
vt 0.805672 0.019559
vt 0.867184 0.016966
vt 0.864592 0.019559
vt 0.864592 0.242454
vt 0.864592 0.247639
vt 0.867184 0.245046
vt 0.791294 0.780615
vt 0.700128 0.780615
vt 0.784837 0.774159
vt 0.696900 0.777387
vt 0.700128 0.774159
vt 0.700128 0.650693
vt 0.696900 0.647465
vt 0.653350 0.662563
vt 0.568641 0.669020
vt 0.656578 0.665791
vt 0.653350 0.669020
vt 0.653350 0.792485
vt 0.653350 0.798941
vt 0.656578 0.795713
vt 0.488319 0.993997
vt 0.535149 0.987678
vt 0.747743 0.832931
vt 0.981938 0.890595
vt 0.565779 0.482776
vt 0.481070 0.489232
vt 0.569007 0.486004
vt 0.565779 0.489232
vt 0.565779 0.612698
vt 0.565779 0.619154
vt 0.569007 0.615926
vt 0.676618 0.477627
vt 0.591909 0.484083
vt 0.679846 0.480855
vt 0.676618 0.484083
vt 0.676618 0.607549
vt 0.676618 0.614005
vt 0.679846 0.610777
vt 0.955585 0.470238
vt 0.955732 0.475041
vt 0.956056 0.167268
vt 0.956141 0.228942
vt 0.955281 0.105912
vt 0.956384 0.408434
vt 0.956975 0.348470
vt 0.956080 0.538250
vt 0.956505 0.599972
vt 0.996669 0.103201
vt 0.901211 0.003366
vt 0.595061 0.992172
vt 0.222591 0.600699
vt 0.223772 0.599517
vt 0.254781 0.599517
vt 0.254781 0.647076
vt 0.175464 0.647076
vt 0.254781 0.314162
vt 0.222591 0.360539
vt 0.254781 0.361721
vt 0.223772 0.361721
vt 0.189219 0.600699
vt 0.189219 0.360539
vt 0.189219 0.410462
vt 0.189219 0.550776
vt 0.254781 0.551958
vt 0.223772 0.551958
vt 0.222591 0.550776
vt 0.223772 0.504399
vt 0.254781 0.504399
vt 0.222591 0.505580
vt 0.222591 0.410462
vt 0.223772 0.409280
vt 0.254781 0.409280
vt 0.254781 0.456840
vt 0.222591 0.455658
vt 0.223772 0.456840
vt 0.897190 0.988011
vt 0.959198 0.987966
vt 0.651633 0.991898
vt 0.211684 0.702588
vt 0.210503 0.703770
vt 0.179494 0.703770
vt 0.179494 0.656211
vt 0.258810 0.656211
vt 0.179494 0.989125
vt 0.211684 0.942748
vt 0.179494 0.941566
vt 0.210503 0.941566
vt 0.245056 0.702588
vt 0.245056 0.942748
vt 0.245056 0.892825
vt 0.245056 0.752511
vt 0.179494 0.751329
vt 0.210503 0.751329
vt 0.211684 0.752511
vt 0.210503 0.798888
vt 0.179494 0.798888
vt 0.211684 0.797707
vt 0.211684 0.892825
vt 0.210503 0.894007
vt 0.179494 0.894007
vt 0.179494 0.846448
vt 0.211684 0.847629
vt 0.210503 0.846448
vt 0.835217 0.989803
vt 0.482814 0.993253
vt 0.771455 0.008052
vt 0.785541 0.008052
vt 0.771455 0.365679
vt 0.771462 0.349723
vt 0.871265 0.829830
vt 0.845889 0.060706
vt 0.850185 0.062460
vt 0.858416 0.893696
vt 0.599550 0.320302
vt 0.593228 0.338293
vt 0.880412 0.037267
vt 0.815277 0.037267
vt 0.815277 0.031535
vt 0.812411 0.034401
vt 0.815277 0.289407
vt 0.812411 0.286540
vt 0.815277 0.283674
vt 0.840426 0.206825
vt 0.850195 0.234367
vt 0.746181 0.015299
vt 0.744615 0.016865
vt 0.694144 0.016865
vt 0.680287 0.016865
vt 0.680287 0.008052
vt 0.740073 0.088453
vt 0.738804 0.089723
vt 0.709955 0.089723
vt 0.709955 0.201400
vt 0.738804 0.201400
vt 0.740073 0.202670
vt 0.740073 0.235507
vt 0.738804 0.236776
vt 0.709955 0.236776
vt 0.709955 0.348453
vt 0.738804 0.348453
vt 0.740073 0.349723
vt 0.680287 0.365679
vt 0.680287 0.060926
vt 0.694144 0.060926
vt 0.744615 0.060926
vt 0.765937 0.015299
vt 0.918559 0.746905
vt 0.918559 0.817472
vt 0.918559 0.559487
vt 0.918559 0.630055
vt 0.219729 0.222953
vt 0.010329 0.222953
vt 0.010329 0.005549
vt 0.652004 0.029177
vt 0.271984 0.650428
s 0
f 89/1/1 43/2/1 187/3/1
f 45/4/2 61/5/2 62/6/2
f 47/7/2 11/8/2 60/9/2
f 15/10/2 14/11/2 18/12/2
f 62/13/3 58/14/3 59/15/3
f 60/16/3 56/17/3 57/18/3
f 18/19/3 54/20/3 55/21/3
f 59/15/4 52/22/4 53/23/4
f 57/18/4 50/24/4 51/25/4
f 55/21/4 48/26/4 49/27/4
f 53/23/1 46/28/1 45/29/1
f 51/25/1 10/30/1 47/31/1
f 49/27/1 13/32/1 15/33/1
f 406/34/2 403/35/2 404/36/2
f 112/37/4 49/38/4 109/39/4
f 94/40/3 42/41/3 41/42/3
f 48/43/4 57/44/4 51/45/4
f 50/46/4 59/47/4 53/48/4
f 52/49/4 7/50/4 3/51/4
f 49/38/1 15/52/1 16/53/1
f 63/54/1 9/55/1 64/56/1
f 69/57/3 26/58/3 70/59/3
f 64/60/1 50/46/1 53/48/1
f 56/61/3 11/62/3 65/63/3
f 68/64/1 48/43/1 51/45/1
f 54/65/3 14/66/3 69/67/3
f 153/68/5 242/69/5 152/70/5
f 80/71/6 228/72/6 79/73/6
f 81/74/3 209/75/3 28/76/3
f 151/77/6 240/78/6 150/79/6
f 78/80/6 226/81/6 77/82/6
f 29/83/1 227/84/1 80/71/1
f 67/85/1 83/86/1 68/87/1
f 65/88/3 34/89/3 66/90/3
f 149/91/6 238/92/6 148/93/6
f 189/94/2 172/95/2 186/96/2
f 76/97/6 224/98/6 75/99/6
f 191/100/2 192/101/2 188/102/2
f 79/73/3 211/103/3 30/104/3
f 128/105/7 8/106/7 107/107/7
f 135/108/8 136/109/8 110/110/8
f 17/111/3 55/112/3 112/37/3
f 89/113/2 15/114/2 18/115/2
f 172/95/2 171/116/2 121/117/2
f 121/118/9 113/119/9 115/120/9
f 6/121/10 118/122/10 119/123/10
f 117/124/9 119/125/9 120/126/9
f 169/127/2 168/128/2 117/129/2
f 128/105/11 126/130/11 125/131/11
f 132/132/11 130/133/11 129/134/11
f 136/109/11 134/135/11 133/136/11
f 115/137/3 125/131/3 126/130/3
f 126/130/12 16/138/12 116/139/12
f 113/140/13 128/105/13 125/131/13
f 130/133/3 193/141/3 120/142/3
f 193/143/12 131/144/12 170/145/12
f 129/134/13 118/146/13 132/132/13
f 132/132/1 121/147/1 131/144/1
f 117/148/1 133/136/1 134/135/1
f 134/135/13 2/149/13 114/150/13
f 122/151/12 136/109/12 133/136/12
f 58/152/3 61/153/3 143/154/3
f 139/155/1 52/49/1 3/51/1
f 5/156/3 106/157/3 101/158/3
f 123/159/6 5/160/6 86/161/6
f 25/162/2 84/163/2 26/58/2
f 182/164/6 183/165/6 83/166/6
f 176/167/6 177/168/6 9/169/6
f 140/170/1 104/171/1 102/172/1
f 34/89/2 9/169/2 12/173/2
f 102/174/6 98/175/6 101/176/6
f 100/177/2 91/178/2 98/175/2
f 44/179/2 42/41/2 43/2/2
f 103/180/2 101/176/2 106/181/2
f 94/40/14 44/179/14 89/1/14
f 188/182/15 189/183/15 43/2/15
f 88/184/2 145/185/2 147/186/2
f 87/187/2 85/188/2 88/189/2
f 35/190/1 235/191/1 97/192/1
f 74/193/6 222/194/6 73/195/6
f 358/196/2 359/197/2 360/198/2
f 35/190/2 169/199/2 36/200/2
f 39/201/2 173/202/2 40/203/2
f 71/204/2 174/205/2 72/206/2
f 73/195/2 176/207/2 74/193/2
f 75/99/2 178/208/2 76/97/2
f 77/82/2 180/209/2 78/80/2
f 79/73/2 182/210/2 80/71/2
f 81/74/2 184/211/2 82/212/2
f 365/213/2 366/214/2 367/215/2
f 385/216/2 386/217/2 387/218/2
f 377/219/2 161/220/2 378/221/2
f 369/222/2 370/223/2 371/224/2
f 90/225/2 186/226/2 92/227/2
f 93/228/2 188/229/2 95/230/2
f 96/231/2 190/232/2 97/192/2
f 92/227/2 172/233/2 39/201/2
f 38/234/2 189/235/2 93/228/2
f 95/230/2 192/236/2 37/237/2
f 96/231/2 169/199/2 191/238/2
f 216/239/5 37/237/5 38/234/5
f 40/203/2 187/240/2 90/225/2
f 97/192/2 168/241/2 35/190/2
f 148/93/2 195/242/2 149/91/2
f 150/79/2 197/243/2 151/77/2
f 373/244/2 374/245/2 375/246/2
f 361/247/2 362/248/2 363/249/2
f 206/250/2 220/251/2 219/252/2
f 205/253/2 221/254/2 204/255/2
f 203/256/2 223/257/2 202/258/2
f 213/259/2 225/260/2 212/261/2
f 211/262/2 227/263/2 210/264/2
f 208/265/2 230/266/2 229/267/2
f 217/268/2 232/269/2 231/270/2
f 216/271/2 233/272/2 237/273/2
f 215/274/2 235/275/2 214/276/2
f 243/277/2 241/278/2 242/279/2
f 245/280/2 239/281/2 244/282/2
f 20/283/5 202/284/5 19/285/5
f 92/227/6 232/286/6 90/225/6
f 82/212/6 230/287/6 81/74/6
f 155/288/5 244/289/5 154/290/5
f 22/291/5 204/292/5 21/293/5
f 95/230/6 234/294/6 93/228/6
f 19/285/1 223/295/1 76/97/1
f 152/70/1 241/296/1 151/77/1
f 24/297/5 206/298/5 23/299/5
f 97/192/6 236/300/6 96/231/6
f 71/204/3 207/301/3 24/297/3
f 150/79/3 243/302/3 153/68/3
f 28/76/5 208/303/5 27/304/5
f 39/201/1 231/305/1 92/227/1
f 23/299/1 219/306/1 72/206/1
f 154/290/1 239/307/1 149/91/1
f 30/104/5 210/308/5 29/83/5
f 93/228/3 216/239/3 38/234/3
f 73/195/3 205/309/3 22/291/3
f 148/93/3 245/310/3 155/288/3
f 32/311/5 212/312/5 31/313/5
f 37/237/1 233/314/1 95/230/1
f 21/293/1 221/315/1 74/193/1
f 36/200/5 214/316/5 35/190/5
f 96/231/3 215/317/3 36/200/3
f 75/99/3 203/318/3 20/283/3
f 27/304/1 229/319/1 82/212/1
f 40/203/5 217/320/5 39/201/5
f 77/82/3 213/321/3 32/311/3
f 72/206/6 220/322/6 71/204/6
f 90/225/3 218/323/3 40/203/3
f 31/313/1 225/324/1 78/80/1
f 37/237/2 193/325/2 170/326/2
f 265/327/3 259/328/3 261/329/3
f 301/330/16 252/331/16 300/332/16
f 262/333/1 357/334/1 264/335/1
f 326/336/17 342/337/17 328/338/17
f 272/339/5 368/340/5 275/341/5
f 327/342/1 371/343/1 278/344/1
f 295/345/3 355/346/3 338/347/3
f 299/348/17 254/349/17 301/330/17
f 325/350/16 341/351/16 324/352/16
f 279/353/3 343/354/3 326/336/3
f 339/355/1 387/356/1 294/357/1
f 298/358/16 255/359/16 297/360/16
f 274/361/6 366/362/6 273/363/6
f 321/364/1 375/365/1 282/366/1
f 293/367/3 352/368/3 335/369/3
f 323/370/17 156/371/17 325/350/17
f 283/372/3 158/373/3 320/374/3
f 336/375/1 385/376/1 292/377/1
f 296/378/17 257/379/17 298/358/17
f 322/380/16 157/381/16 321/364/16
f 268/382/5 364/383/5 271/384/5
f 315/385/1 379/386/1 286/387/1
f 291/388/3 349/389/3 332/390/3
f 263/391/16 258/392/16 262/333/16
f 287/393/3 164/394/3 314/395/3
f 333/396/1 383/397/1 290/398/1
f 320/374/17 159/399/17 322/380/17
f 270/400/6 362/401/6 269/402/6
f 309/403/1 359/404/1 266/405/1
f 289/406/3 346/407/3 329/408/3
f 261/329/17 260/409/17 263/391/17
f 319/410/16 160/411/16 318/412/16
f 267/413/3 200/414/3 308/415/3
f 330/416/1 381/417/1 288/418/1
f 264/335/5 360/419/5 267/413/5
f 303/420/1 363/421/1 270/400/1
f 280/422/3 142/423/3 323/370/3
f 317/424/17 162/425/17 319/410/17
f 271/384/3 250/426/3 302/427/3
f 324/352/1 373/428/1 281/429/1
f 76/97/2 263/430/2 262/431/2
f 10/432/2 270/433/2 269/434/2
f 19/285/2 267/435/2 20/283/2
f 308/436/2 310/437/2 75/99/2
f 21/293/2 271/438/2 22/291/2
f 74/193/2 307/439/2 306/440/2
f 302/441/2 304/442/2 73/195/2
f 23/299/2 275/443/2 24/297/2
f 72/206/2 301/444/2 300/445/2
f 296/446/2 298/447/2 71/204/2
f 27/304/2 279/448/2 28/76/2
f 82/212/2 313/449/2 312/450/2
f 13/451/2 282/452/2 280/453/2
f 326/454/2 328/455/2 81/74/2
f 29/83/2 283/456/2 30/104/2
f 80/71/2 325/457/2 324/458/2
f 320/459/2 322/460/2 79/73/2
f 31/313/2 287/461/2 32/311/2
f 78/80/2 319/462/2 318/463/2
f 314/464/2 316/465/2 77/82/2
f 46/466/2 293/467/2 290/468/2
f 152/70/2 291/469/2 153/68/2
f 151/77/2 331/470/2 330/471/2
f 392/472/3 406/473/3 389/474/3
f 332/475/2 334/476/2 150/79/2
f 154/290/2 295/477/2 155/288/2
f 149/91/2 337/478/2 336/479/2
f 338/480/2 340/481/2 148/93/2
f 278/344/6 370/482/6 276/483/6
f 328/338/16 344/484/16 327/342/16
f 302/427/17 251/485/17 304/486/17
f 300/332/1 365/487/1 272/339/1
f 329/408/17 345/488/17 331/489/17
f 273/363/3 253/490/3 299/348/3
f 277/491/5 372/492/5 279/353/5
f 304/486/16 249/493/16 303/420/16
f 331/494/16 347/495/16 330/416/16
f 305/496/17 248/497/17 307/498/17
f 290/398/6 382/499/6 289/406/6
f 282/366/6 374/500/6 280/422/6
f 332/390/17 348/501/17 334/502/17
f 307/498/16 246/503/16 306/504/16
f 288/418/5 384/505/5 291/388/5
f 281/429/5 376/506/5 283/372/5
f 334/507/16 350/508/16 333/396/16
f 308/415/17 201/509/17 310/510/17
f 335/369/17 351/511/17 337/512/17
f 294/357/6 386/513/6 293/367/6
f 286/387/6 378/514/6 284/515/6
f 310/510/16 199/516/16 309/403/16
f 337/512/16 353/517/16 336/375/16
f 311/518/17 198/519/17 313/520/17
f 292/377/5 388/521/5 295/345/5
f 285/522/5 380/523/5 287/393/5
f 338/347/17 354/524/17 340/525/17
f 312/526/1 369/527/1 277/491/1
f 306/504/1 361/528/1 268/382/1
f 313/520/16 166/529/16 312/526/16
f 276/483/3 167/530/3 311/518/3
f 269/402/3 247/531/3 305/496/3
f 340/525/16 356/532/16 339/355/16
f 314/395/17 165/533/17 316/534/17
f 318/412/1 377/535/1 285/522/1
f 275/341/3 256/536/3 296/378/3
f 284/515/3 161/537/3 317/424/3
f 297/360/1 367/538/1 274/361/1
f 266/405/6 358/539/6 265/327/6
f 316/534/16 163/540/16 315/385/16
f 382/541/2 383/542/2 384/543/2
f 393/544/3 401/545/3 398/546/3
f 398/546/18 124/547/18 400/548/18
f 400/548/1 124/547/1 402/549/1
f 394/550/19 406/473/19 392/472/19
f 396/551/2 391/552/2 289/553/2
f 392/554/5 145/555/5 394/556/5
f 146/557/3 147/558/3 395/559/3
f 399/560/1 145/555/1 144/561/1
f 391/562/20 404/563/20 393/544/20
f 107/564/6 110/565/6 108/566/6
f 391/562/1 137/567/1 405/568/1
f 396/569/21 390/570/21 137/567/21
f 66/571/2 45/572/2 62/573/2
f 70/574/2 47/575/2 60/576/2
f 63/54/5 34/89/5 12/173/5
f 70/59/5 84/163/5 67/85/5
f 89/1/1 44/179/1 43/2/1
f 45/4/2 46/577/2 61/5/2
f 47/7/2 10/578/2 11/8/2
f 15/10/2 13/579/2 14/11/2
f 62/13/3 61/580/3 58/14/3
f 60/16/3 11/581/3 56/17/3
f 18/19/3 14/582/3 54/20/3
f 59/15/4 58/14/4 52/22/4
f 57/18/4 56/17/4 50/24/4
f 55/21/4 54/20/4 48/26/4
f 53/23/1 52/22/1 46/28/1
f 51/25/1 50/24/1 10/30/1
f 49/27/1 48/26/1 13/32/1
f 405/583/2 137/567/2 406/34/2
f 137/567/2 390/570/2 389/474/2
f 137/567/2 389/474/2 406/34/2
f 124/547/2 401/545/2 402/549/2
f 401/545/2 404/36/2 403/35/2
f 402/549/2 401/545/2 403/35/2
f 405/583/2 406/34/2 404/36/2
f 109/39/22 108/584/22 111/585/22
f 112/37/4 55/112/4 49/38/4
f 109/39/22 111/585/22 112/37/22
f 94/40/3 190/586/3 42/41/3
f 48/43/4 54/65/4 57/44/4
f 50/46/4 56/61/4 59/47/4
f 52/49/4 58/152/4 7/50/4
f 16/53/23 107/587/23 109/39/23
f 107/587/24 108/584/24 109/39/24
f 109/39/1 49/38/1 16/53/1
f 63/54/1 12/173/1 9/55/1
f 69/57/3 25/588/3 26/58/3
f 53/48/1 45/589/1 63/590/1
f 64/60/1 10/591/1 50/46/1
f 53/48/1 63/590/1 64/60/1
f 62/592/3 59/47/3 66/593/3
f 59/47/3 56/61/3 65/63/3
f 66/593/3 59/47/3 65/63/3
f 51/45/1 47/594/1 67/595/1
f 68/64/1 13/596/1 48/43/1
f 51/45/1 67/595/1 68/64/1
f 60/597/3 57/44/3 70/598/3
f 57/44/3 54/65/3 69/67/3
f 70/598/3 57/44/3 69/67/3
f 153/68/5 243/302/5 242/69/5
f 80/71/6 227/84/6 228/72/6
f 81/74/3 230/287/3 209/75/3
f 151/77/6 241/296/6 240/78/6
f 78/80/6 225/324/6 226/81/6
f 29/83/1 210/308/1 227/84/1
f 67/85/1 84/163/1 83/86/1
f 65/88/3 33/599/3 34/89/3
f 149/91/6 239/307/6 238/92/6
f 189/94/2 171/116/2 172/95/2
f 76/97/6 223/295/6 224/98/6
f 191/100/2 169/127/2 192/101/2
f 79/73/3 228/72/3 211/103/3
f 6/600/25 107/107/25 8/106/25
f 107/107/26 16/138/26 127/601/26
f 128/105/27 107/107/27 127/601/27
f 17/602/28 110/110/28 136/109/28
f 110/110/29 4/603/29 2/149/29
f 135/108/30 110/110/30 2/149/30
f 112/37/31 111/585/31 110/604/31
f 17/111/3 18/605/3 55/112/3
f 112/37/32 110/604/32 17/111/32
f 187/606/2 173/607/2 116/608/2
f 116/608/2 16/609/2 15/114/2
f 18/115/2 17/610/2 122/611/2
f 122/611/2 168/128/2 190/612/2
f 122/611/2 190/612/2 18/115/2
f 190/612/2 94/613/2 18/115/2
f 187/606/2 116/608/2 15/114/2
f 89/113/2 187/606/2 15/114/2
f 94/613/2 89/113/2 18/115/2
f 171/116/2 170/614/2 121/117/2
f 121/117/2 115/615/2 172/95/2
f 115/615/2 116/608/2 173/607/2
f 115/615/2 173/607/2 172/95/2
f 121/118/9 118/616/9 113/119/9
f 2/617/10 4/618/10 114/619/10
f 4/618/10 6/121/10 119/123/10
f 114/619/10 4/618/10 119/123/10
f 6/121/10 8/620/10 113/621/10
f 6/121/10 113/621/10 118/122/10
f 117/124/9 114/622/9 119/125/9
f 168/128/2 122/611/2 117/129/2
f 117/129/2 120/623/2 169/127/2
f 120/623/2 193/624/2 192/101/2
f 120/623/2 192/101/2 169/127/2
f 128/105/11 127/601/11 126/130/11
f 132/132/11 131/144/11 130/133/11
f 136/109/11 135/108/11 134/135/11
f 126/130/3 116/139/3 115/137/3
f 115/137/3 113/140/3 125/131/3
f 126/130/12 127/601/12 16/138/12
f 113/140/13 8/106/13 128/105/13
f 120/142/3 119/625/3 129/134/3
f 129/134/3 130/133/3 120/142/3
f 193/143/12 130/133/12 131/144/12
f 129/134/13 119/625/13 118/146/13
f 118/146/1 121/147/1 132/132/1
f 121/147/1 170/626/1 131/144/1
f 134/135/1 114/150/1 117/148/1
f 117/148/1 122/151/1 133/136/1
f 134/135/13 135/108/13 2/149/13
f 122/151/12 17/602/12 136/109/12
f 141/627/3 7/50/3 143/154/3
f 7/50/3 58/152/3 143/154/3
f 3/51/1 1/628/1 139/155/1
f 139/155/1 46/629/1 52/49/1
f 101/158/3 98/175/3 91/178/3
f 105/630/3 138/631/3 101/158/3
f 138/631/3 5/156/3 101/158/3
f 101/158/3 91/178/3 105/630/3
f 123/159/6 103/180/6 106/181/6
f 5/160/6 144/632/6 85/633/6
f 123/159/6 106/181/6 5/160/6
f 86/161/6 146/634/6 123/159/6
f 5/160/6 85/633/6 86/161/6
f 25/162/2 83/166/2 84/163/2
f 181/635/6 68/636/6 83/166/6
f 83/166/6 25/162/6 182/164/6
f 25/162/6 69/637/6 184/638/6
f 25/162/6 184/638/6 185/639/6
f 180/640/6 181/635/6 83/166/6
f 183/165/6 180/640/6 83/166/6
f 25/162/6 185/639/6 182/164/6
f 175/641/6 64/642/6 9/169/6
f 9/169/6 33/643/6 176/167/6
f 33/643/6 65/644/6 178/645/6
f 33/643/6 178/645/6 179/646/6
f 174/647/6 175/641/6 9/169/6
f 177/168/6 174/647/6 9/169/6
f 33/643/6 179/646/6 176/167/6
f 103/648/1 123/649/1 102/172/1
f 123/649/1 140/170/1 102/172/1
f 104/171/1 99/650/1 100/177/1
f 104/171/1 100/177/1 102/172/1
f 34/89/2 33/643/2 9/169/2
f 102/174/6 100/177/6 98/175/6
f 100/177/2 99/650/2 91/178/2
f 44/179/2 41/42/2 42/41/2
f 103/180/2 102/174/2 101/176/2
f 94/40/14 41/42/14 44/179/14
f 186/651/15 187/652/15 43/2/15
f 43/2/15 42/41/15 188/182/15
f 42/41/15 190/653/15 191/654/15
f 42/41/15 191/654/15 188/182/15
f 189/183/15 186/651/15 43/2/15
f 88/184/2 85/655/2 144/656/2
f 147/186/2 146/657/2 87/658/2
f 146/657/2 86/659/2 87/658/2
f 88/184/2 144/656/2 145/185/2
f 147/186/2 87/658/2 88/184/2
f 87/187/2 86/660/2 85/188/2
f 35/190/1 214/316/1 235/191/1
f 74/193/6 221/315/6 222/194/6
f 357/661/2 258/662/2 259/663/2
f 258/662/2 260/664/2 259/663/2
f 259/663/2 358/196/2 357/661/2
f 359/197/2 199/665/2 360/198/2
f 199/665/2 201/666/2 200/667/2
f 360/198/2 199/665/2 200/667/2
f 360/198/2 357/661/2 358/196/2
f 35/190/2 168/241/2 169/199/2
f 39/201/2 172/233/2 173/202/2
f 71/204/2 175/668/2 174/205/2
f 73/195/2 177/669/2 176/207/2
f 75/99/2 179/670/2 178/208/2
f 77/82/2 181/671/2 180/209/2
f 79/73/2 183/672/2 182/210/2
f 81/74/2 185/673/2 184/211/2
f 367/215/2 255/674/2 368/675/2
f 255/674/2 257/676/2 256/677/2
f 368/675/2 255/674/2 256/677/2
f 365/213/2 252/678/2 253/679/2
f 252/678/2 254/680/2 253/679/2
f 367/215/2 368/675/2 365/213/2
f 365/213/2 253/679/2 366/214/2
f 387/218/2 356/681/2 388/682/2
f 356/681/2 354/683/2 355/684/2
f 388/682/2 356/681/2 355/684/2
f 385/216/2 353/685/2 352/686/2
f 353/685/2 351/687/2 352/686/2
f 387/218/2 388/682/2 385/216/2
f 385/216/2 352/686/2 386/217/2
f 379/688/2 163/689/2 380/690/2
f 163/689/2 165/691/2 164/692/2
f 380/690/2 163/689/2 164/692/2
f 377/219/2 160/693/2 161/220/2
f 160/693/2 162/694/2 161/220/2
f 379/688/2 380/690/2 378/221/2
f 380/690/2 377/219/2 378/221/2
f 371/224/2 344/695/2 372/696/2
f 344/695/2 342/697/2 343/698/2
f 372/696/2 344/695/2 343/698/2
f 369/222/2 166/699/2 167/700/2
f 166/699/2 198/701/2 167/700/2
f 371/224/2 372/696/2 369/222/2
f 369/222/2 167/700/2 370/223/2
f 90/225/2 187/240/2 186/226/2
f 93/228/2 189/235/2 188/229/2
f 96/231/2 191/238/2 190/232/2
f 92/227/2 186/226/2 172/233/2
f 38/234/2 171/702/2 189/235/2
f 95/230/2 188/229/2 192/236/2
f 96/231/2 36/200/2 169/199/2
f 216/239/5 237/703/5 37/237/5
f 40/203/2 173/202/2 187/240/2
f 97/192/2 190/232/2 168/241/2
f 148/93/2 194/704/2 195/242/2
f 150/79/2 196/705/2 197/243/2
f 375/246/2 157/706/2 376/707/2
f 157/706/2 159/708/2 158/709/2
f 376/707/2 157/706/2 158/709/2
f 373/244/2 341/710/2 142/711/2
f 341/710/2 156/712/2 142/711/2
f 375/246/2 376/707/2 373/244/2
f 373/244/2 142/711/2 374/245/2
f 363/249/2 249/713/2 364/714/2
f 249/713/2 251/715/2 250/716/2
f 364/714/2 249/713/2 250/716/2
f 361/247/2 246/717/2 247/718/2
f 246/717/2 248/719/2 247/718/2
f 363/249/2 364/714/2 361/247/2
f 361/247/2 247/718/2 362/248/2
f 206/250/2 207/720/2 220/251/2
f 205/253/2 222/721/2 221/254/2
f 203/256/2 224/722/2 223/257/2
f 213/259/2 226/723/2 225/260/2
f 211/262/2 228/724/2 227/263/2
f 208/265/2 209/725/2 230/266/2
f 217/268/2 218/726/2 232/269/2
f 216/271/2 234/727/2 233/272/2
f 215/274/2 236/728/2 235/275/2
f 243/277/2 240/729/2 241/278/2
f 245/280/2 238/730/2 239/281/2
f 20/283/5 203/318/5 202/284/5
f 92/227/6 231/305/6 232/286/6
f 82/212/6 229/319/6 230/287/6
f 155/288/5 245/310/5 244/289/5
f 22/291/5 205/309/5 204/292/5
f 95/230/6 233/314/6 234/294/6
f 19/285/1 202/284/1 223/295/1
f 152/70/1 242/69/1 241/296/1
f 24/297/5 207/301/5 206/298/5
f 97/192/6 235/191/6 236/300/6
f 71/204/3 220/322/3 207/301/3
f 150/79/3 240/78/3 243/302/3
f 28/76/5 209/75/5 208/303/5
f 39/201/1 217/320/1 231/305/1
f 23/299/1 206/298/1 219/306/1
f 154/290/1 244/289/1 239/307/1
f 30/104/5 211/103/5 210/308/5
f 93/228/3 234/294/3 216/239/3
f 73/195/3 222/194/3 205/309/3
f 148/93/3 238/92/3 245/310/3
f 32/311/5 213/321/5 212/312/5
f 37/237/1 237/703/1 233/314/1
f 21/293/1 204/292/1 221/315/1
f 36/200/5 215/317/5 214/316/5
f 96/231/3 236/300/3 215/317/3
f 75/99/3 224/98/3 203/318/3
f 27/304/1 208/303/1 229/319/1
f 40/203/5 218/323/5 217/320/5
f 77/82/3 226/81/3 213/321/3
f 72/206/6 219/306/6 220/322/6
f 90/225/3 232/286/3 218/323/3
f 31/313/1 212/312/1 225/324/1
f 171/702/2 38/234/2 170/326/2
f 38/234/2 37/237/2 170/326/2
f 37/237/2 192/236/2 193/325/2
f 265/327/3 358/539/3 259/328/3
f 301/330/16 254/349/16 252/331/16
f 262/333/1 258/392/1 357/334/1
f 326/336/17 343/354/17 342/337/17
f 272/339/5 365/487/5 368/340/5
f 327/342/1 344/484/1 371/343/1
f 295/345/3 388/521/3 355/346/3
f 299/348/17 253/490/17 254/349/17
f 325/350/16 156/371/16 341/351/16
f 279/353/3 372/492/3 343/354/3
f 339/355/1 356/532/1 387/356/1
f 298/358/16 257/379/16 255/359/16
f 274/361/6 367/538/6 366/362/6
f 321/364/1 157/381/1 375/365/1
f 293/367/3 386/513/3 352/368/3
f 323/370/17 142/423/17 156/371/17
f 283/372/3 376/506/3 158/373/3
f 336/375/1 353/517/1 385/376/1
f 296/378/17 256/536/17 257/379/17
f 322/380/16 159/399/16 157/381/16
f 268/382/5 361/528/5 364/383/5
f 315/385/1 163/540/1 379/386/1
f 291/388/3 384/505/3 349/389/3
f 263/391/16 260/409/16 258/392/16
f 287/393/3 380/523/3 164/394/3
f 333/396/1 350/508/1 383/397/1
f 320/374/17 158/373/17 159/399/17
f 270/400/6 363/421/6 362/401/6
f 309/403/1 199/516/1 359/404/1
f 289/406/3 382/499/3 346/407/3
f 261/329/17 259/328/17 260/409/17
f 319/410/16 162/425/16 160/411/16
f 267/413/3 360/419/3 200/414/3
f 330/416/1 347/495/1 381/417/1
f 264/335/5 357/334/5 360/419/5
f 303/420/1 249/493/1 363/421/1
f 280/422/3 374/500/3 142/423/3
f 317/424/17 161/537/17 162/425/17
f 271/384/3 364/383/3 250/426/3
f 324/352/1 341/351/1 373/428/1
f 264/731/2 19/285/2 262/431/2
f 19/285/2 76/97/2 262/431/2
f 76/97/2 178/208/2 263/430/2
f 261/732/2 263/733/2 178/734/2
f 178/734/2 65/735/2 261/732/2
f 65/735/2 11/736/2 261/732/2
f 10/432/2 64/737/2 297/738/2
f 64/737/2 175/739/2 297/738/2
f 175/739/2 298/740/2 297/738/2
f 265/741/2 261/732/2 11/736/2
f 10/432/2 297/738/2 274/742/2
f 10/432/2 274/742/2 273/743/2
f 265/741/2 11/736/2 266/744/2
f 11/736/2 10/432/2 269/434/2
f 266/744/2 11/736/2 269/434/2
f 179/745/2 310/746/2 309/747/2
f 307/748/2 176/749/2 305/750/2
f 176/749/2 179/745/2 305/750/2
f 305/750/2 179/745/2 309/747/2
f 269/434/2 305/750/2 309/747/2
f 299/751/2 301/752/2 174/753/2
f 174/753/2 177/754/2 303/755/2
f 177/754/2 304/756/2 303/755/2
f 299/751/2 174/753/2 303/755/2
f 299/751/2 303/755/2 270/433/2
f 273/743/2 299/751/2 270/433/2
f 269/434/2 309/747/2 266/744/2
f 10/432/2 273/743/2 270/433/2
f 19/285/2 264/731/2 267/435/2
f 179/670/2 75/99/2 310/437/2
f 75/99/2 20/283/2 308/436/2
f 20/283/2 267/435/2 308/436/2
f 21/293/2 268/757/2 271/438/2
f 268/757/2 21/293/2 306/440/2
f 21/293/2 74/193/2 306/440/2
f 74/193/2 176/207/2 307/439/2
f 177/669/2 73/195/2 304/442/2
f 73/195/2 22/291/2 302/441/2
f 22/291/2 271/438/2 302/441/2
f 23/299/2 272/758/2 275/443/2
f 272/758/2 23/299/2 300/445/2
f 23/299/2 72/206/2 300/445/2
f 72/206/2 174/205/2 301/444/2
f 175/668/2 71/204/2 298/447/2
f 71/204/2 24/297/2 296/446/2
f 24/297/2 275/443/2 296/446/2
f 27/304/2 277/759/2 279/448/2
f 277/759/2 27/304/2 312/450/2
f 27/304/2 82/212/2 312/450/2
f 82/212/2 184/211/2 313/449/2
f 311/760/2 313/761/2 184/762/2
f 184/762/2 69/763/2 311/760/2
f 69/763/2 14/764/2 311/760/2
f 13/451/2 68/765/2 315/766/2
f 68/765/2 181/767/2 315/766/2
f 181/767/2 316/768/2 315/766/2
f 276/769/2 311/760/2 14/764/2
f 13/451/2 315/766/2 286/770/2
f 13/451/2 286/770/2 284/771/2
f 276/769/2 14/764/2 278/772/2
f 14/764/2 13/451/2 280/453/2
f 278/772/2 14/764/2 280/453/2
f 185/773/2 328/774/2 327/775/2
f 325/776/2 182/777/2 323/778/2
f 182/777/2 185/773/2 323/778/2
f 323/778/2 185/773/2 327/775/2
f 280/453/2 323/778/2 327/775/2
f 317/779/2 319/780/2 180/781/2
f 180/781/2 183/782/2 321/783/2
f 183/782/2 322/784/2 321/783/2
f 317/779/2 180/781/2 321/783/2
f 317/779/2 321/783/2 282/452/2
f 284/771/2 317/779/2 282/452/2
f 280/453/2 327/775/2 278/772/2
f 13/451/2 284/771/2 282/452/2
f 185/673/2 81/74/2 328/455/2
f 81/74/2 28/76/2 326/454/2
f 28/76/2 279/448/2 326/454/2
f 29/83/2 281/785/2 283/456/2
f 281/785/2 29/83/2 324/458/2
f 29/83/2 80/71/2 324/458/2
f 80/71/2 182/210/2 325/457/2
f 183/672/2 79/73/2 322/460/2
f 79/73/2 30/104/2 320/459/2
f 30/104/2 283/456/2 320/459/2
f 31/313/2 285/786/2 287/461/2
f 285/786/2 31/313/2 318/463/2
f 31/313/2 78/80/2 318/463/2
f 78/80/2 180/209/2 319/462/2
f 181/671/2 77/82/2 316/465/2
f 77/82/2 32/311/2 314/464/2
f 32/311/2 287/461/2 314/464/2
f 289/553/2 143/787/2 61/788/2
f 61/788/2 46/466/2 290/468/2
f 46/466/2 139/789/2 294/790/2
f 46/466/2 294/790/2 293/467/2
f 290/468/2 289/553/2 61/788/2
f 152/70/2 288/791/2 291/469/2
f 288/791/2 152/70/2 330/471/2
f 152/70/2 151/77/2 330/471/2
f 151/77/2 197/243/2 331/470/2
f 390/570/3 397/792/3 389/474/3
f 397/792/3 395/793/3 389/474/3
f 395/793/3 392/472/3 389/474/3
f 196/705/2 150/79/2 334/476/2
f 150/79/2 153/68/2 332/475/2
f 153/68/2 291/469/2 332/475/2
f 154/290/2 292/794/2 295/477/2
f 292/794/2 154/290/2 336/479/2
f 154/290/2 149/91/2 336/479/2
f 149/91/2 195/242/2 337/478/2
f 194/704/2 148/93/2 340/481/2
f 148/93/2 155/288/2 338/480/2
f 155/288/2 295/477/2 338/480/2
f 278/344/6 371/343/6 370/482/6
f 328/338/16 342/337/16 344/484/16
f 302/427/17 250/426/17 251/485/17
f 300/332/1 252/331/1 365/487/1
f 329/408/17 346/407/17 345/488/17
f 273/363/3 366/362/3 253/490/3
f 277/491/5 369/527/5 372/492/5
f 304/486/16 251/485/16 249/493/16
f 331/494/16 345/795/16 347/495/16
f 305/496/17 247/531/17 248/497/17
f 290/398/6 383/397/6 382/499/6
f 282/366/6 375/365/6 374/500/6
f 332/390/17 349/389/17 348/501/17
f 307/498/16 248/497/16 246/503/16
f 288/418/5 381/417/5 384/505/5
f 281/429/5 373/428/5 376/506/5
f 334/507/16 348/796/16 350/508/16
f 308/415/17 200/414/17 201/509/17
f 335/369/17 352/368/17 351/511/17
f 294/357/6 387/356/6 386/513/6
f 286/387/6 379/386/6 378/514/6
f 310/510/16 201/509/16 199/516/16
f 337/512/16 351/511/16 353/517/16
f 311/518/17 167/530/17 198/519/17
f 292/377/5 385/376/5 388/521/5
f 285/522/5 377/535/5 380/523/5
f 338/347/17 355/346/17 354/524/17
f 312/526/1 166/529/1 369/527/1
f 306/504/1 246/503/1 361/528/1
f 313/520/16 198/519/16 166/529/16
f 276/483/3 370/482/3 167/530/3
f 269/402/3 362/401/3 247/531/3
f 340/525/16 354/524/16 356/532/16
f 314/395/17 164/394/17 165/533/17
f 318/412/1 160/411/1 377/535/1
f 275/341/3 368/340/3 256/536/3
f 284/515/3 378/514/3 161/537/3
f 297/360/1 255/359/1 367/538/1
f 266/405/6 359/404/6 358/539/6
f 316/534/16 165/533/16 163/540/16
f 381/797/2 347/798/2 346/799/2
f 347/798/2 345/800/2 346/799/2
f 346/799/2 382/541/2 381/797/2
f 383/542/2 350/801/2 384/543/2
f 350/801/2 348/802/2 349/803/2
f 384/543/2 350/801/2 349/803/2
f 384/543/2 381/797/2 382/541/2
f 393/544/3 404/563/3 401/545/3
f 398/546/33 401/545/33 124/547/33
f 403/804/1 394/550/1 402/549/1
f 394/550/1 399/805/1 402/549/1
f 399/805/1 400/548/1 402/549/1
f 394/550/19 403/804/19 406/473/19
f 398/806/2 400/807/2 5/808/2
f 5/808/2 138/809/2 141/810/2
f 329/811/2 331/812/2 197/813/2
f 196/814/2 334/815/2 333/816/2
f 333/816/2 290/468/2 293/467/2
f 335/817/2 337/818/2 195/819/2
f 333/816/2 293/467/2 335/817/2
f 196/814/2 333/816/2 335/817/2
f 196/814/2 335/817/2 195/819/2
f 194/820/2 340/821/2 339/822/2
f 339/822/2 294/790/2 139/789/2
f 1/823/2 140/824/2 196/814/2
f 140/824/2 123/825/2 197/813/2
f 123/825/2 397/826/2 197/813/2
f 397/826/2 396/551/2 329/811/2
f 197/813/2 397/826/2 329/811/2
f 339/822/2 139/789/2 1/823/2
f 194/820/2 339/822/2 1/823/2
f 398/806/2 5/808/2 141/810/2
f 195/819/2 194/820/2 1/823/2
f 393/827/2 398/806/2 143/787/2
f 398/806/2 141/810/2 143/787/2
f 196/814/2 195/819/2 1/823/2
f 197/813/2 196/814/2 140/824/2
f 391/552/2 393/827/2 143/787/2
f 391/552/2 143/787/2 289/553/2
f 329/811/2 396/551/2 289/553/2
f 392/554/5 147/558/5 145/555/5
f 147/558/3 392/554/3 395/559/3
f 395/559/3 397/828/3 146/557/3
f 397/828/3 123/829/3 146/557/3
f 144/561/1 5/830/1 400/831/1
f 399/560/1 394/556/1 145/555/1
f 144/561/1 400/831/1 399/560/1
f 391/562/20 405/568/20 404/563/20
f 107/564/34 6/832/34 4/833/34
f 110/565/6 111/834/6 108/566/6
f 107/564/34 4/833/34 110/565/34
f 391/562/1 396/569/1 137/567/1
f 396/569/35 397/792/35 390/570/35
f 66/571/2 63/835/2 45/572/2
f 70/574/2 67/836/2 47/575/2
f 63/54/5 66/90/5 34/89/5
f 70/59/5 26/58/5 84/163/5
