# Blender 5.2.1 LTS
# www.blender.org
mtllib house1.mtl
o Cube
v -5.000000 -2.000000 -5.000000
v -4.798347 2.000000 -4.798347
v 5.000000 -2.000000 -5.000000
v 4.798347 1.589170 -4.798347
v -5.000000 -2.000000 5.000000
v -4.798347 2.000000 4.798347
v 5.000000 -2.000000 5.000000
v 4.798347 1.589170 4.798347
v -5.000000 1.946778 -4.946778
v 5.000000 1.589170 -5.000000
v 5.000000 1.589170 5.000000
v -5.000000 1.946778 4.946778
v -4.798347 1.843760 -4.798347
v 4.798347 1.432931 -4.798347
v 4.798347 1.432931 4.798347
v -4.798347 1.843760 4.798347
v -5.000000 1.157848 -4.946778
v -5.000000 1.157848 4.946778
v 5.000000 1.104626 -5.000000
v 5.000000 1.104626 5.000000
v 5.000000 -1.771365 -5.000000
v 5.000000 -1.771365 5.000000
v -5.000000 -1.771365 5.000000
v -5.000000 -1.771365 -5.000000
v -2.486737 1.104626 5.000000
v -2.486737 -1.771365 5.000000
v -2.486737 1.104626 -5.000000
v -2.486737 -1.771365 -5.000000
v -4.763833 1.104626 5.000000
v -4.763833 1.104626 -5.000000
v -4.763833 -1.771365 5.000000
v -4.763833 -1.771365 -5.000000
v -5.000000 1.157848 -4.721281
v -5.000000 1.157848 4.721282
v -5.000000 -1.771365 4.721281
v -5.000000 -1.771365 -4.721282
v -4.763833 1.104626 4.721281
v -4.763833 1.104626 -4.721282
v -4.763833 -1.771365 -4.721281
v -4.763833 -1.771365 4.721282
v -5.000000 -2.000000 1.038665
v -5.000000 -2.000000 -1.038666
v -4.763833 -1.771365 -1.038665
v -4.763833 -1.771365 1.038666
v -5.000000 -1.771365 -1.038666
v -5.000000 -1.771365 1.038665
v -4.763833 -1.918584 -1.038665
v -4.763833 -1.918584 1.038666
v -5.000000 -1.918584 -1.038666
v -5.000000 -1.918584 1.038665
v -2.486737 0.797063 5.000000
v -2.486737 0.797063 -5.000000
v -2.486737 -0.985036 5.000000
v -2.486737 -0.985036 -5.000000
v -2.550012 -0.985036 -5.000000
v -2.550013 -1.771365 5.000000
v -2.550013 -0.985036 5.000000
v -2.486737 -1.771365 1.358888
v -2.486737 -1.771365 -1.358888
v -2.486737 0.797063 -1.358888
v -2.486737 0.797063 1.358887
v -2.486737 -0.985036 -1.358888
v -2.486737 -0.985036 1.358887
v -2.550012 -1.771365 -5.000000
v -2.550012 -1.771365 1.358888
v -2.550012 -0.985036 1.358887
v -2.550012 -0.985036 -1.358888
v -2.550012 -1.771365 -1.358888
v -2.551519 1.104626 5.000000
v -2.551519 1.104626 -5.000000
v -2.551519 0.797063 5.000000
v -2.551519 0.797063 -5.000000
v -2.551519 0.797063 1.358887
v -2.551519 0.797063 -1.358888
v -5.000000 1.104626 -5.000000
v -5.000000 2.000000 -5.000000
v -5.000000 2.000000 5.000000
v -5.000000 1.104626 5.000000
v -5.000000 1.104626 4.721282
v -5.000000 1.104626 -4.721281
v -4.908813 1.157848 -4.946778
v -4.908813 1.946778 -4.946778
v -4.908813 1.946778 4.946778
v -4.908813 1.157848 4.946778
v -4.908813 1.157848 4.721282
v -4.908813 1.157848 -4.721281
vn -0.0000 -0.0000 -1.0000
vn 1.0000 -0.0000 -0.0000
vn -0.0000 -1.0000 -0.0000
vn -1.0000 -0.0000 -0.0000
vn -0.0000 -0.0000 1.0000
vn 0.0419 0.9991 -0.0000
vn -0.0000 1.0000 -0.0000
vn 0.0428 0.9991 -0.0000
vt 0.821788 0.886828
vt 0.786475 0.886828
vt 0.706443 0.886828
vt 0.692631 0.886828
vt 0.692631 0.550607
vt 0.821788 0.550607
vt 0.918981 0.221209
vt 0.918981 0.350367
vt 0.469892 0.350367
vt 0.469892 0.221209
vt 0.349425 0.043880
vt 0.346878 0.212153
vt 0.343942 0.212108
vt 0.346501 0.043132
vt 0.987727 0.005754
vt 0.978967 0.006564
vt 0.481957 0.008238
vt 0.486051 0.005292
vt 0.463077 0.991027
vt 0.480785 0.560019
vt 0.487777 0.560607
vt 0.470069 0.991615
vt 0.453650 0.999696
vt 0.472100 0.550607
vt 0.495402 0.990640
vt 0.495402 0.559663
vt 0.504458 0.550607
vt 0.504458 0.999696
vt 0.478560 0.491627
vt 0.909568 0.473921
vt 0.918981 0.482605
vt 0.469892 0.501055
vt 0.919160 0.185497
vt 0.479080 0.182698
vt 0.469892 0.173392
vt 0.928466 0.176308
vt 0.431281 0.981979
vt 0.000304 0.981979
vt 0.000304 0.550607
vt 0.431281 0.550607
vt 0.919114 0.192661
vt 0.479035 0.189862
vt 0.488385 0.990640
vt 0.488385 0.559663
vt 0.477972 0.484635
vt 0.908980 0.466929
vt 0.979594 0.009702
vt 0.481967 0.009702
vt 0.431890 0.999696
vt 0.431890 0.663475
vt 0.431890 0.561213
vt 0.431890 0.550607
vt 0.918981 0.522816
vt 0.908375 0.522816
vt 0.806113 0.522816
vt 0.469892 0.522816
vt 0.001310 0.549999
vt 0.000304 0.539339
vt 0.349358 0.506411
vt 0.454174 0.501148
vt 0.461157 0.500329
vt 0.467540 0.506017
vt 0.918981 0.210942
vt 0.469892 0.210942
vt 0.467629 0.044268
vt 0.461245 0.049957
vt 0.454261 0.049139
vt 0.000304 0.010966
vt 0.001309 0.000304
vt 0.692022 0.886828
vt 0.562865 0.886828
vt 0.562865 0.550607
vt 0.576677 0.550607
vt 0.656709 0.550607
vt 0.692022 0.550607
vt 0.976136 0.005663
vt 0.469892 0.005362
vt 0.904760 0.115057
vt 0.904493 0.125604
vt 0.483151 0.127356
vt 0.482796 0.116811
vt 0.481303 0.000386
vt 0.478574 0.001242
vt 0.976030 0.004684
vt 0.972051 0.000386
vt 0.472815 0.132816
vt 0.483656 0.129755
vt 0.484474 0.133788
vt 0.475166 0.134636
vt 0.477925 0.004307
vt 0.976060 0.003294
vt 0.469892 0.000304
vt 0.988034 0.000304
vt 0.469904 0.015065
vt 0.916806 0.013205
vt 0.917515 0.115005
vt 0.470042 0.116865
vt 0.456116 0.230071
vt 0.465381 0.228441
vt 0.465288 0.321889
vt 0.456025 0.320249
vt 0.451608 0.322767
vt 0.451703 0.227551
vt 0.461474 0.491667
vt 0.460931 0.324371
vt 0.469190 0.321945
vt 0.469284 0.228388
vt 0.461027 0.225954
vt 0.461562 0.058621
vt 0.346803 0.338169
vt 0.346434 0.507160
vt 0.343867 0.338214
vt 0.453066 0.059241
vt 0.452979 0.491048
vt 0.859883 0.722399
vt 0.822538 0.724260
vt 0.822397 0.721158
vt 0.858403 0.720967
vt 0.755463 0.386288
vt 0.755463 0.466321
vt 0.633410 0.466321
vt 0.633410 0.386288
vt 0.633410 0.350975
vt 0.755463 0.350975
vt 0.822538 0.550607
vt 0.859883 0.552468
vt 0.858403 0.553900
vt 0.822397 0.553709
vt 0.897865 0.724102
vt 0.860491 0.722245
vt 0.861972 0.720813
vt 0.897987 0.721002
vt 0.861976 0.553707
vt 0.897987 0.553613
vt 0.860493 0.552228
vt 0.897856 0.550607
vt 0.918981 0.386288
vt 0.918981 0.466320
vt 0.471894 0.195026
vt 0.639781 0.193270
vt 0.639797 0.196248
vt 0.473315 0.196568
vt 0.469892 0.466321
vt 0.469892 0.386288
vt 0.473027 0.210333
vt 0.764352 0.196250
vt 0.930781 0.196571
vt 0.931105 0.210333
vt 0.469892 0.012170
vt 0.916794 0.010310
vt 0.469892 0.209912
vt 0.764368 0.193273
vt 0.932202 0.195025
vt 0.934239 0.209904
vt 0.472396 0.170910
vt 0.469952 0.130518
vt 0.925864 0.173654
vt 0.925377 0.132371
vt 0.929313 0.128774
vt 0.903781 0.129216
vt 0.562257 0.994916
vt 0.526827 0.994916
vt 0.526827 0.550607
vt 0.562256 0.550607
vt 0.562256 0.560734
vt 0.562257 0.984789
vt 0.923642 0.171688
vt 0.923740 0.136348
vt 0.474455 0.168977
vt 0.902157 0.135398
vt 0.526218 0.550607
vt 0.526218 0.999696
s 0
f 28/1/1 54/2/1 52/3/1 27/4/1 19/5/1 21/6/1
f 21/7/2 19/8/2 20/9/2 22/10/2
f 28/11/3 59/12/3 68/13/3 64/14/3
f 78/15/4 79/16/4 35/17/4 23/18/4
f 4/19/5 2/20/5 13/21/5 14/22/5
f 2/20/6 4/19/6 10/23/6 76/24/6
f 4/25/7 8/26/7 11/27/7 10/28/7
f 8/29/6 6/30/6 77/31/6 11/32/6
f 6/33/7 2/34/7 76/35/7 77/36/7
f 15/37/8 14/38/8 13/39/8 16/40/8
f 2/34/2 6/33/2 16/41/2 13/42/2
f 8/26/4 4/25/4 14/43/4 15/44/4
f 6/30/1 8/29/1 15/45/1 16/46/1
f 29/47/5 78/15/5 23/18/5 31/48/5
f 19/49/1 27/50/1 30/51/1 75/52/1 76/24/1 10/23/1
f 78/53/5 29/54/5 25/55/5 20/56/5 11/32/5 77/31/5
f 7/57/5 22/58/5 26/59/5 31/60/5 23/61/5 5/62/5
f 3/63/2 21/7/2 22/10/2 7/64/2
f 1/65/1 24/66/1 32/67/1 28/11/1 21/68/1 3/69/1
f 22/70/5 20/71/5 25/72/5 51/73/5 53/74/5 26/75/5
f 79/16/1 37/76/1 40/77/1 35/17/1
f 37/76/2 29/47/2 31/48/2 40/77/2
f 37/78/3 79/79/3 80/80/3 38/81/3
f 32/82/1 24/83/1 75/84/1 30/85/1
f 17/86/7 33/87/7 86/88/7 81/89/7
f 39/90/2 32/82/2 30/85/2 38/91/2
f 36/92/5 39/90/5 38/91/5 80/93/5
f 24/83/4 36/92/4 80/93/4 75/84/4
f 27/94/3 25/95/3 29/96/3 37/78/3 38/81/3 30/97/3
f 47/98/7 49/99/7 50/100/7 48/101/7
f 44/102/4 43/103/4 47/98/4 48/101/4
f 5/62/4 23/61/4 35/104/4 46/105/4 50/100/4 41/106/4
f 42/107/4 49/99/4 45/108/4 36/109/4 24/66/4 1/65/4
f 58/110/3 26/59/3 56/111/3 65/112/3
f 45/108/7 43/103/7 39/113/7 36/109/7
f 35/104/7 40/114/7 44/102/7 46/105/7
f 49/99/4 42/107/4 41/106/4 50/100/4
f 44/102/1 48/101/1 50/100/1 46/105/1
f 45/108/5 49/99/5 47/98/5 43/103/5
f 54/115/1 28/116/1 64/117/1 55/118/1
f 63/119/4 61/120/4 60/121/4 62/122/4 59/123/4 58/124/4
f 59/125/5 62/126/5 67/127/5 68/128/5
f 26/129/5 53/130/5 57/131/5 56/132/5
f 55/118/4 64/117/4 68/128/4 67/127/4
f 66/133/4 65/134/4 56/132/4 57/131/4
f 53/130/7 63/135/7 66/133/7 57/131/7
f 28/11/7 32/67/7 39/113/7 43/103/7 44/102/7 40/114/7 31/60/7 26/59/7 58/110/7 59/12/7
f 63/135/1 58/136/1 65/134/1 66/133/1
f 61/120/4 63/119/4 53/137/4 51/138/4
f 52/139/3 60/140/3 74/141/3 72/142/3
f 52/143/4 54/144/4 62/122/4 60/121/4
f 62/126/7 54/115/7 55/118/7 67/127/7
f 70/145/4 72/142/4 74/141/4 73/146/4 71/147/4 69/148/4
f 25/95/7 27/94/7 70/149/7 69/150/7
f 27/151/1 52/139/1 72/142/1 70/145/1
f 60/140/3 61/152/3 73/146/3 74/141/3
f 61/152/3 51/153/3 71/147/3 73/146/3
f 51/153/5 25/154/5 69/148/5 71/147/5
f 17/86/4 9/155/4 76/35/4 75/156/4
f 9/155/4 12/157/4 77/36/4 76/35/4
f 12/157/4 18/158/4 78/159/4 77/36/4
f 34/160/4 33/87/4 80/80/4 79/79/4
f 33/87/4 17/86/4 75/156/4 80/80/4
f 18/158/4 34/160/4 79/79/4 78/159/4
f 84/161/4 83/162/4 82/163/4 81/164/4 86/165/4 85/166/4
f 18/158/1 12/157/1 83/167/1 84/168/1
f 9/155/5 17/86/5 81/89/5 82/169/5
f 34/160/7 18/158/7 84/168/7 85/170/7
f 33/87/7 34/160/7 85/170/7 86/88/7
f 12/157/3 9/155/3 82/169/3 83/167/3
f 20/171/2 19/172/2 10/28/2 11/27/2
