# Blender 5.2.1 LTS
# www.blender.org
o Plane
v 0.050000 -1.342989 1.217507
v 0.050000 1.735948 -0.261193
v 0.050000 -1.643456 -1.111952
v 0.050000 -1.552303 -0.143032
v 0.050000 -2.193748 -0.210553
v 0.050000 -2.149860 0.414012
v 0.050000 -1.501662 0.346492
v -0.050000 -1.342989 1.217507
v -0.050000 1.735948 -0.261193
v -0.050000 -1.643456 -1.111952
v -0.050000 -1.552303 -0.143032
v -0.050000 -2.193748 -0.210553
v -0.050000 -2.149860 0.414012
v -0.050000 -1.501662 0.346492
vn 1.0000 -0.0000 -0.0000
vn -1.0000 -0.0000 -0.0000
vn -0.0000 0.4329 0.9014
vn -0.0000 0.2441 -0.9697
vn -0.0000 -0.9956 0.0937
vn -0.0000 0.1047 -0.9945
vn -0.0000 -0.9975 0.0701
vn -0.0000 0.1036 0.9946
vn -0.0000 -0.9838 0.1792
vt 0.805229 0.381155
vt 0.815522 0.549059
vt 0.147150 0.589588
vt 0.772977 0.082400
vt 0.834050 0.881395
vt 0.945903 0.572219
vt 0.936982 0.357995
s 0
f 7/1/1 4/2/1 2/3/1
f 14/1/2 9/3/2 11/2/2
f 2/3/3 8/4/3 1/4/3
f 3/5/4 9/3/4 2/3/4
f 4/2/5 10/5/5 3/5/5
f 5/6/6 11/2/6 4/2/6
f 6/7/7 12/6/7 5/6/7
f 7/1/8 13/7/8 6/7/8
f 1/4/9 14/1/9 7/1/9
f 2/3/1 1/4/1 7/1/1
f 7/1/1 6/7/1 4/2/1
f 6/7/1 5/6/1 4/2/1
f 4/2/1 3/5/1 2/3/1
f 14/1/2 8/4/2 9/3/2
f 9/3/2 10/5/2 11/2/2
f 11/2/2 12/6/2 13/7/2
f 13/7/2 14/1/2 11/2/2
f 2/3/3 9/3/3 8/4/3
f 3/5/4 10/5/4 9/3/4
f 4/2/5 11/2/5 10/5/5
f 5/6/6 12/6/6 11/2/6
f 6/7/7 13/7/7 12/6/7
f 7/1/8 14/1/8 13/7/8
f 1/4/9 8/4/9 14/1/9
