# Blender 5.2.1 LTS
# www.blender.org
o Plane
v 0.050000 -1.563107 1.273550
v 0.050000 -0.201892 0.714479
v 0.050000 2.087055 -0.561659
v 0.050000 -1.380801 -1.432675
v 0.050000 -1.429416 -0.197048
v 0.050000 -2.287602 -0.188946
v 0.050000 -2.283551 0.252639
v 0.050000 -1.473979 0.272895
v -0.050000 -1.563107 1.273550
v -0.050000 -0.201892 0.714479
v -0.050000 2.087055 -0.561659
v -0.050000 -1.380801 -1.432675
v -0.050000 -1.429416 -0.197048
v -0.050000 -2.287602 -0.188946
v -0.050000 -2.283551 0.252639
v -0.050000 -1.473979 0.272895
vn 1.0000 -0.0000 -0.0000
vn -1.0000 -0.0000 -0.0000
vn -0.0000 0.3799 0.9250
vn -0.0000 0.4870 0.8734
vn -0.0000 0.2436 -0.9699
vn -0.0000 -0.9992 -0.0393
vn -0.0000 -0.0094 -1.0000
vn -0.0000 -1.0000 0.0092
vn -0.0000 -0.0250 0.9997
vn -0.0000 -0.9961 -0.0887
vt 0.537123 0.294154
vt 0.771030 0.421377
vt 0.762836 0.556771
vt 0.787419 0.133081
vt 0.116240 0.661818
vt 0.753897 0.912764
vt 0.905117 0.554437
vt 0.904372 0.427213
s 0
f 2/1/1 8/2/1 5/3/1
f 10/1/2 13/3/2 16/2/2
f 2/1/3 9/4/3 1/4/3
f 2/1/4 11/5/4 10/1/4
f 4/6/5 11/5/5 3/5/5
f 5/3/6 12/6/6 4/6/6
f 6/7/7 13/3/7 5/3/7
f 7/8/8 14/7/8 6/7/8
f 8/2/9 15/8/9 7/8/9
f 1/4/10 16/2/10 8/2/10
f 2/1/1 1/4/1 8/2/1
f 8/2/1 7/8/1 6/7/1
f 5/3/1 4/6/1 2/1/1
f 4/6/1 3/5/1 2/1/1
f 8/2/1 6/7/1 5/3/1
f 16/2/2 9/4/2 10/1/2
f 10/1/2 11/5/2 12/6/2
f 13/3/2 14/7/2 16/2/2
f 14/7/2 15/8/2 16/2/2
f 10/1/2 12/6/2 13/3/2
f 2/1/3 10/1/3 9/4/3
f 2/1/4 3/5/4 11/5/4
f 4/6/5 12/6/5 11/5/5
f 5/3/6 13/3/6 12/6/6
f 6/7/7 14/7/7 13/3/7
f 7/8/8 15/8/8 14/7/8
f 8/2/9 16/2/9 15/8/9
f 1/4/10 9/4/10 16/2/10
