# Blender 5.2.1 LTS
# www.blender.org
o Plane
v 0.050000 1.334839 1.954345
v 0.050000 1.543094 1.903689
v 0.050000 1.771048 1.734834
v 0.050000 2.150971 1.025644
v 0.050000 2.367669 0.316452
v 0.050000 2.376112 -0.108499
v 0.050000 2.238214 -0.643206
v 0.050000 1.807633 -1.253898
v 0.050000 1.540280 -1.374911
v 0.050000 1.517766 -0.831761
v 0.050000 0.845160 -0.156341
v 0.050000 0.014957 -0.091614
v 0.050000 0.031842 -0.786733
v 0.050000 0.121898 -1.158213
v 0.050000 0.279496 -1.231384
v 0.050000 0.420209 -1.414310
v 0.050000 0.423023 -1.678849
v 0.050000 0.335782 -1.909618
v 0.050000 0.110641 -1.957461
v 0.050000 -0.100428 -1.881476
v 0.050000 -0.198926 -1.622565
v 0.050000 -0.106056 -1.363654
v 0.050000 0.020585 -1.222941
v 0.050000 -0.106056 -0.679792
v 0.050000 -0.108870 -0.074729
v 0.050000 -0.728004 0.012514
v 0.050000 -1.940712 -0.064643
v 0.050000 -2.311255 -0.165487
v 0.050000 -2.393337 -0.310890
v 0.050000 -2.433205 1.138448
v 0.050000 -2.312036 0.996173
v 0.050000 -1.689579 0.745822
v 0.050000 -0.653779 0.567977
v 0.050000 -0.571697 0.927575
v 0.050000 -0.493523 1.081968
v 0.050000 -0.798400 1.345804
v 0.050000 -0.825761 1.478699
v 0.050000 -0.690911 1.519740
v 0.050000 -0.374308 1.453292
v 0.050000 -0.214053 1.253950
v 0.050000 -0.219916 1.085877
v 0.050000 -0.387989 1.035064
v 0.050000 -0.472025 0.769274
v 0.050000 -0.481797 0.505438
v 0.050000 0.862786 0.298275
v 0.050000 1.398275 1.158185
v -0.050000 1.334839 1.954345
v -0.050000 1.543094 1.903689
v -0.050000 1.771048 1.734834
v -0.050000 2.150971 1.025644
v -0.050000 2.367669 0.316452
v -0.050000 2.376112 -0.108499
v -0.050000 2.238214 -0.643206
v -0.050000 1.807633 -1.253898
v -0.050000 1.540280 -1.374911
v -0.050000 1.517766 -0.831761
v -0.050000 0.845160 -0.156341
v -0.050000 0.014957 -0.091614
v -0.050000 0.031842 -0.786733
v -0.050000 0.121898 -1.158213
v -0.050000 0.279496 -1.231384
v -0.050000 0.420209 -1.414310
v -0.050000 0.423023 -1.678849
v -0.050000 0.335782 -1.909618
v -0.050000 0.110641 -1.957461
v -0.050000 -0.100428 -1.881476
v -0.050000 -0.198926 -1.622565
v -0.050000 -0.106056 -1.363654
v -0.050000 0.020585 -1.222941
v -0.050000 -0.106056 -0.679792
v -0.050000 -0.108870 -0.074729
v -0.050000 -0.728004 0.012514
v -0.050000 -1.940712 -0.064643
v -0.050000 -2.311255 -0.165487
v -0.050000 -2.393337 -0.310890
v -0.050000 -2.433205 1.138448
v -0.050000 -2.312036 0.996173
v -0.050000 -1.689579 0.745822
v -0.050000 -0.653779 0.567977
v -0.050000 -0.571697 0.927575
v -0.050000 -0.493523 1.081968
v -0.050000 -0.798400 1.345804
v -0.050000 -0.825761 1.478699
v -0.050000 -0.690911 1.519740
v -0.050000 -0.374308 1.453292
v -0.050000 -0.214053 1.253950
v -0.050000 -0.219916 1.085877
v -0.050000 -0.387989 1.035064
v -0.050000 -0.472025 0.769274
v -0.050000 -0.481797 0.505438
v -0.050000 0.862786 0.298275
v -0.050000 1.398275 1.158185
vn 1.0000 -0.0000 -0.0000
vn -1.0000 -0.0000 -0.0000
vn -0.0000 0.2364 0.9717
vn -0.0000 0.5952 0.8036
vn -0.0000 0.8815 0.4722
vn -0.0000 0.9564 0.2922
vn -0.0000 0.9998 0.0199
vn -0.0000 0.9683 -0.2497
vn -0.0000 0.8173 -0.5762
vn -0.0000 0.4124 -0.9110
vn -0.0000 -0.9991 -0.0414
vn -0.0000 -0.7086 -0.7056
vn -0.0000 -0.0777 -0.9970
vn -0.0000 0.9997 0.0243
vn -0.0000 0.9719 0.2356
vn -0.0000 0.4211 0.9070
vn -0.0000 0.7926 0.6097
vn -0.0000 0.9999 0.0106
vn -0.0000 0.9354 -0.3536
vn -0.0000 0.2079 -0.9782
vn -0.0000 -0.3387 -0.9409
vn -0.0000 -0.9346 -0.3556
vn -0.0000 -0.9413 0.3376
vn -0.0000 -0.7433 0.6690
vn -0.0000 -0.9739 -0.2271
vn -0.0000 -1.0000 -0.0047
vn -0.0000 -0.1395 -0.9902
vn -0.0000 0.0635 -0.9980
vn -0.0000 0.2626 -0.9649
vn -0.0000 0.8708 -0.4916
vn -0.0000 -0.9996 -0.0275
vn -0.0000 0.7613 0.6484
vn -0.0000 0.3731 0.9278
vn -0.0000 0.1692 0.9856
vn -0.0000 -0.9749 0.2225
vn -0.0000 -0.8922 0.4517
vn -0.0000 -0.6544 -0.7562
vn -0.0000 -0.9795 -0.2017
vn -0.0000 -0.2912 0.9567
vn -0.0000 0.2054 0.9787
vn -0.0000 0.7794 0.6266
vn -0.0000 0.9994 -0.0349
vn -0.0000 0.2894 -0.9572
vn -0.0000 0.9535 -0.3015
vn -0.0000 0.9993 -0.0370
vn -0.0000 0.1523 0.9883
vn -0.0000 -0.8489 0.5286
vn -0.0000 -0.9968 -0.0794
vt 0.975243 0.226299
vt 0.962570 0.540537
vt 0.888410 0.515835
vt 0.191168 0.033678
vt 0.232848 0.021269
vt 0.145546 0.075040
vt 0.069509 0.248761
vt 0.026139 0.422483
vt 0.024450 0.526577
vt 0.052048 0.657558
vt 0.138224 0.807151
vt 0.191731 0.836794
vt 0.196237 0.703746
vt 0.330851 0.538297
vt 0.497007 0.522441
vt 0.493627 0.692716
vt 0.475603 0.783712
vt 0.444062 0.801636
vt 0.415900 0.846445
vt 0.415337 0.911246
vt 0.432797 0.967774
vt 0.477856 0.979494
vt 0.520099 0.960881
vt 0.539813 0.897459
vt 0.521226 0.834036
vt 0.495880 0.799568
vt 0.521226 0.666520
vt 0.521789 0.518305
vt 0.645701 0.496935
vt 0.978998 0.576155
vt 0.986977 0.221129
vt 0.839248 0.314700
vt 0.631154 0.360141
vt 0.614817 0.271840
vt 0.599154 0.234060
vt 0.660278 0.169178
vt 0.665712 0.136724
vt 0.638640 0.126870
vt 0.575196 0.143335
vt 0.543123 0.192166
vt 0.544310 0.233303
vt 0.577996 0.245637
vt 0.594802 0.310773
vt 0.596672 0.375605
vt 0.327415 0.426719
vt 0.220224 0.216124
s 0
f 31/1/1 28/2/1 27/3/1
f 73/3/2 74/2/2 77/1/2
f 2/4/3 47/5/3 1/5/3
f 3/6/4 48/4/4 2/4/4
f 3/6/5 50/7/5 49/6/5
f 5/8/6 50/7/6 4/7/6
f 6/9/7 51/8/7 5/8/7
f 7/10/8 52/9/8 6/9/8
f 8/11/9 53/10/9 7/10/9
f 9/12/10 54/11/10 8/11/10
f 10/13/11 55/12/11 9/12/11
f 11/14/12 56/13/12 10/13/12
f 12/15/13 57/14/13 11/14/13
f 13/16/14 58/15/14 12/15/14
f 13/16/15 60/17/15 59/16/15
f 14/17/16 61/18/16 60/17/16
f 16/19/17 61/18/17 15/18/17
f 17/20/18 62/19/18 16/19/18
f 18/21/19 63/20/19 17/20/19
f 18/21/20 65/22/20 64/21/20
f 20/23/21 65/22/21 19/22/21
f 21/24/22 66/23/22 20/23/22
f 21/24/23 68/25/23 67/24/23
f 23/26/24 68/25/24 22/25/24
f 24/27/25 69/26/25 23/26/25
f 25/28/26 70/27/26 24/27/26
f 26/29/27 71/28/27 25/28/27
f 26/29/28 73/3/28 72/29/28
f 28/2/29 73/3/29 27/3/29
f 29/30/30 74/2/30 28/2/30
f 29/30/31 76/31/31 75/30/31
f 31/1/32 76/31/32 30/31/32
f 32/32/33 77/1/33 31/1/33
f 33/33/34 78/32/34 32/32/34
f 34/34/35 79/33/35 33/33/35
f 35/35/36 80/34/36 34/34/36
f 36/36/37 81/35/37 35/35/37
f 37/37/38 82/36/38 36/36/38
f 38/38/39 83/37/39 37/37/39
f 38/38/40 85/39/40 84/38/40
f 39/39/41 86/40/41 85/39/41
f 41/41/42 86/40/42 40/40/42
f 42/42/43 87/41/43 41/41/43
f 43/43/44 88/42/44 42/42/44
f 44/44/45 89/43/45 43/43/45
f 45/45/46 90/44/46 44/44/46
f 46/46/47 91/45/47 45/45/47
f 1/5/48 92/46/48 46/46/48
f 2/4/1 1/5/1 46/46/1
f 3/6/1 2/4/1 46/46/1
f 5/8/1 4/7/1 46/46/1
f 4/7/1 3/6/1 46/46/1
f 7/10/1 6/9/1 10/13/1
f 6/9/1 5/8/1 45/45/1
f 9/12/1 8/11/1 10/13/1
f 8/11/1 7/10/1 10/13/1
f 6/9/1 45/45/1 11/14/1
f 45/45/1 5/8/1 46/46/1
f 11/14/1 10/13/1 6/9/1
f 11/14/1 45/45/1 12/15/1
f 45/45/1 44/44/1 12/15/1
f 16/19/1 15/18/1 22/25/1
f 15/18/1 14/17/1 23/26/1
f 18/21/1 17/20/1 19/22/1
f 17/20/1 16/19/1 22/25/1
f 19/22/1 21/24/1 20/23/1
f 22/25/1 21/24/1 17/20/1
f 17/20/1 21/24/1 19/22/1
f 25/28/1 24/27/1 12/15/1
f 24/27/1 23/26/1 13/16/1
f 23/26/1 22/25/1 15/18/1
f 23/26/1 14/17/1 13/16/1
f 24/27/1 13/16/1 12/15/1
f 42/42/1 41/41/1 40/40/1
f 40/40/1 39/39/1 35/35/1
f 39/39/1 38/38/1 36/36/1
f 40/40/1 35/35/1 42/42/1
f 38/38/1 37/37/1 36/36/1
f 35/35/1 34/34/1 42/42/1
f 34/34/1 33/33/1 43/43/1
f 42/42/1 34/34/1 43/43/1
f 36/36/1 35/35/1 39/39/1
f 44/44/1 43/43/1 33/33/1
f 26/29/1 25/28/1 44/44/1
f 25/28/1 12/15/1 44/44/1
f 44/44/1 33/33/1 26/29/1
f 33/33/1 32/32/1 26/29/1
f 31/1/1 30/31/1 28/2/1
f 30/31/1 29/30/1 28/2/1
f 26/29/1 32/32/1 27/3/1
f 32/32/1 31/1/1 27/3/1
f 92/46/2 47/5/2 48/4/2
f 48/4/2 49/6/2 92/46/2
f 49/6/2 50/7/2 92/46/2
f 50/7/2 51/8/2 92/46/2
f 51/8/2 52/9/2 91/45/2
f 92/46/2 51/8/2 91/45/2
f 52/9/2 53/10/2 56/13/2
f 53/10/2 54/11/2 56/13/2
f 54/11/2 55/12/2 56/13/2
f 52/9/2 56/13/2 57/14/2
f 52/9/2 57/14/2 91/45/2
f 57/14/2 58/15/2 91/45/2
f 90/44/2 91/45/2 58/15/2
f 60/17/2 61/18/2 69/26/2
f 61/18/2 62/19/2 68/25/2
f 69/26/2 61/18/2 68/25/2
f 62/19/2 63/20/2 68/25/2
f 63/20/2 64/21/2 65/22/2
f 67/24/2 65/22/2 66/23/2
f 63/20/2 65/22/2 67/24/2
f 67/24/2 68/25/2 63/20/2
f 69/26/2 70/27/2 59/16/2
f 70/27/2 71/28/2 58/15/2
f 59/16/2 70/27/2 58/15/2
f 59/16/2 60/17/2 69/26/2
f 86/40/2 87/41/2 88/42/2
f 84/38/2 85/39/2 82/36/2
f 85/39/2 86/40/2 81/35/2
f 81/35/2 86/40/2 88/42/2
f 82/36/2 83/37/2 84/38/2
f 79/33/2 80/34/2 89/43/2
f 80/34/2 81/35/2 88/42/2
f 81/35/2 82/36/2 85/39/2
f 80/34/2 88/42/2 89/43/2
f 79/33/2 89/43/2 90/44/2
f 58/15/2 71/28/2 90/44/2
f 71/28/2 72/29/2 90/44/2
f 79/33/2 90/44/2 72/29/2
f 78/32/2 79/33/2 72/29/2
f 75/30/2 76/31/2 74/2/2
f 76/31/2 77/1/2 74/2/2
f 77/1/2 78/32/2 73/3/2
f 78/32/2 72/29/2 73/3/2
f 2/4/3 48/4/3 47/5/3
f 3/6/4 49/6/4 48/4/4
f 3/6/5 4/7/5 50/7/5
f 5/8/6 51/8/6 50/7/6
f 6/9/7 52/9/7 51/8/7
f 7/10/8 53/10/8 52/9/8
f 8/11/9 54/11/9 53/10/9
f 9/12/10 55/12/10 54/11/10
f 10/13/11 56/13/11 55/12/11
f 11/14/12 57/14/12 56/13/12
f 12/15/13 58/15/13 57/14/13
f 13/16/14 59/16/14 58/15/14
f 13/16/15 14/17/15 60/17/15
f 14/17/16 15/18/16 61/18/16
f 16/19/17 62/19/17 61/18/17
f 17/20/18 63/20/18 62/19/18
f 18/21/19 64/21/19 63/20/19
f 18/21/20 19/22/20 65/22/20
f 20/23/21 66/23/21 65/22/21
f 21/24/22 67/24/22 66/23/22
f 21/24/23 22/25/23 68/25/23
f 23/26/24 69/26/24 68/25/24
f 24/27/25 70/27/25 69/26/25
f 25/28/26 71/28/26 70/27/26
f 26/29/27 72/29/27 71/28/27
f 26/29/28 27/3/28 73/3/28
f 28/2/29 74/2/29 73/3/29
f 29/30/30 75/30/30 74/2/30
f 29/30/31 30/31/31 76/31/31
f 31/1/32 77/1/32 76/31/32
f 32/32/33 78/32/33 77/1/33
f 33/33/34 79/33/34 78/32/34
f 34/34/35 80/34/35 79/33/35
f 35/35/36 81/35/36 80/34/36
f 36/36/37 82/36/37 81/35/37
f 37/37/38 83/37/38 82/36/38
f 38/38/39 84/38/39 83/37/39
f 38/38/40 39/39/40 85/39/40
f 39/39/41 40/40/41 86/40/41
f 41/41/42 87/41/42 86/40/42
f 42/42/43 88/42/43 87/41/43
f 43/43/44 89/43/44 88/42/44
f 44/44/45 90/44/45 89/43/45
f 45/45/46 91/45/46 90/44/46
f 46/46/47 92/46/47 91/45/47
f 1/5/48 47/5/48 92/46/48
