# Blender 5.2.1 LTS
# www.blender.org
o Plane
v 0.050000 -1.737984 1.521349
v 0.050000 0.162719 0.896784
v 0.050000 2.357135 -0.284825
v 0.050000 -0.684664 -1.196352
v 0.050000 -1.815632 -1.429298
v 0.050000 -1.822384 0.079785
v 0.050000 -2.399684 0.100042
v 0.050000 -2.423317 0.349868
v 0.050000 -1.832512 0.319484
v -0.050000 -1.737984 1.521349
v -0.050000 0.162719 0.896784
v -0.050000 2.357135 -0.284825
v -0.050000 -0.684664 -1.196352
v -0.050000 -1.815632 -1.429298
v -0.050000 -1.822384 0.079785
v -0.050000 -2.399684 0.100042
v -0.050000 -2.423317 0.349868
v -0.050000 -1.832512 0.319484
vn 1.0000 -0.0000 -0.0000
vn -1.0000 -0.0000 -0.0000
vn -0.0000 0.3122 0.9500
vn -0.0000 0.4741 0.8805
vn -0.0000 0.2871 -0.9579
vn -0.0000 0.2017 -0.9794
vn -0.0000 -1.0000 -0.0045
vn -0.0000 -0.0351 -0.9994
vn -0.0000 -0.9956 -0.0942
vn -0.0000 0.0514 0.9987
vn -0.0000 -0.9969 0.0784
vt 0.853239 0.474736
vt 0.632711 0.878821
vt 0.468460 0.216036
vt 0.836879 0.018270
vt 0.043108 0.590189
vt 0.851930 0.952583
vt 0.965139 0.468322
vt 0.969720 0.389215
vt 0.855202 0.398836
s 0
f 6/1/1 4/2/1 2/3/1
f 11/3/2 13/2/2 15/1/2
f 1/4/3 11/3/3 10/4/3
f 3/5/4 11/3/4 2/3/4
f 4/2/5 12/5/5 3/5/5
f 4/2/6 14/6/6 13/2/6
f 6/1/7 14/6/7 5/6/7
f 7/7/8 15/1/8 6/1/8
f 8/8/9 16/7/9 7/7/9
f 9/9/10 17/8/10 8/8/10
f 1/4/11 18/9/11 9/9/11
f 2/3/1 1/4/1 9/9/1
f 9/9/1 8/8/1 7/7/1
f 6/1/1 5/6/1 4/2/1
f 9/9/1 7/7/1 6/1/1
f 3/5/1 2/3/1 4/2/1
f 2/3/1 9/9/1 6/1/1
f 18/9/2 10/4/2 11/3/2
f 11/3/2 12/5/2 13/2/2
f 13/2/2 14/6/2 15/1/2
f 15/1/2 16/7/2 18/9/2
f 16/7/2 17/8/2 18/9/2
f 18/9/2 11/3/2 15/1/2
f 1/4/3 2/3/3 11/3/3
f 3/5/4 12/5/4 11/3/4
f 4/2/5 13/2/5 12/5/5
f 4/2/6 5/6/6 14/6/6
f 6/1/7 15/1/7 14/6/7
f 7/7/8 16/7/8 15/1/8
f 8/8/9 17/8/9 16/7/9
f 9/9/10 18/9/10 17/8/10
f 1/4/11 10/4/11 18/9/11
