# Blender 5.2.1 LTS
# www.blender.org
o Plane
v 0.050000 -1.810230 1.228984
v 0.050000 0.073592 0.661812
v 0.050000 2.317973 -0.310483
v 0.050000 -1.919613 -1.104524
v 0.050000 -1.891254 -0.010692
v 0.050000 -2.344992 -0.030948
v 0.050000 -2.332838 0.272894
v 0.050000 -1.883152 0.289099
v -0.050000 -1.810230 1.228984
v -0.050000 0.073592 0.661812
v -0.050000 2.317973 -0.310483
v -0.050000 -1.919613 -1.104524
v -0.050000 -1.891254 -0.010692
v -0.050000 -2.344992 -0.030948
v -0.050000 -2.332838 0.272894
v -0.050000 -1.883152 0.289099
vn 1.0000 -0.0000 -0.0000
vn -1.0000 -0.0000 -0.0000
vn -0.0000 0.2883 0.9575
vn -0.0000 0.3975 0.9176
vn -0.0000 0.1842 -0.9829
vn -0.0000 -0.9997 0.0259
vn -0.0000 0.0446 -0.9990
vn -0.0000 -0.9992 0.0400
vn -0.0000 -0.0360 0.9994
vn -0.0000 -0.9970 0.0774
vt 0.485479 0.275022
vt 0.871579 0.401723
vt 0.873178 0.503635
vt 0.857190 0.082215
vt 0.042623 0.605546
vt 0.878773 0.875475
vt 0.962708 0.510521
vt 0.960310 0.407232
s 0
f 2/1/1 8/2/1 5/3/1
f 10/1/2 13/3/2 16/2/2
f 2/1/3 9/4/3 1/4/3
f 2/1/4 11/5/4 10/1/4
f 3/5/5 12/6/5 11/5/5
f 5/3/6 12/6/6 4/6/6
f 6/7/7 13/3/7 5/3/7
f 7/8/8 14/7/8 6/7/8
f 8/2/9 15/8/9 7/8/9
f 1/4/10 16/2/10 8/2/10
f 2/1/1 1/4/1 8/2/1
f 8/2/1 7/8/1 5/3/1
f 7/8/1 6/7/1 5/3/1
f 5/3/1 4/6/1 2/1/1
f 4/6/1 3/5/1 2/1/1
f 16/2/2 9/4/2 10/1/2
f 10/1/2 11/5/2 12/6/2
f 13/3/2 14/7/2 15/8/2
f 10/1/2 12/6/2 13/3/2
f 13/3/2 15/8/2 16/2/2
f 2/1/3 10/1/3 9/4/3
f 2/1/4 3/5/4 11/5/4
f 3/5/5 4/6/5 12/6/5
f 5/3/6 13/3/6 12/6/6
f 6/7/7 14/7/7 13/3/7
f 7/8/8 15/8/8 14/7/8
f 8/2/9 16/2/9 15/8/9
f 1/4/10 9/4/10 16/2/10
