# Blender 5.2.1 LTS
# www.blender.org
o Plane
v 0.050000 -1.300263 1.171944
v 0.050000 -0.372693 0.839419
v 0.050000 1.050749 0.232706
v 0.050000 2.264175 -0.023980
v 0.050000 -1.358600 -1.231572
v 0.050000 -1.323598 0.011023
v 0.050000 -2.216166 0.022690
v 0.050000 -2.286171 0.378551
v 0.050000 -1.323598 0.384385
v -0.050000 -1.300263 1.171944
v -0.050000 -0.372693 0.839419
v -0.050000 1.050749 0.232706
v -0.050000 2.264175 -0.023980
v -0.050000 -1.358600 -1.231572
v -0.050000 -1.323598 0.011023
v -0.050000 -2.216166 0.022690
v -0.050000 -2.286171 0.378551
v -0.050000 -1.323598 0.384385
vn 1.0000 -0.0000 -0.0000
vn -1.0000 -0.0000 -0.0000
vn -0.0000 0.3375 0.9413
vn -0.0000 0.3921 0.9199
vn -0.0000 0.2070 0.9783
vn -0.0000 0.3162 -0.9487
vn -0.0000 -0.9996 0.0282
vn -0.0000 -0.0131 -0.9999
vn -0.0000 -0.9812 -0.1930
vn -0.0000 -0.0061 1.0000
vn -0.0000 -0.9996 0.0296
vt 0.572045 0.209050
vt 0.755864 0.366769
vt 0.755864 0.496179
vt 0.928406 0.492135
vt 0.751353 0.093794
vt 0.296880 0.419342
vt 0.062313 0.508312
vt 0.762630 0.926874
vt 0.941939 0.368791
s 0
f 2/1/1 9/2/1 6/3/1
f 15/3/2 16/4/2 18/2/2
f 2/1/3 10/5/3 1/5/3
f 3/6/4 11/1/4 2/1/4
f 4/7/5 12/6/5 3/6/5
f 5/8/6 13/7/6 4/7/6
f 6/3/7 14/8/7 5/8/7
f 7/4/8 15/3/8 6/3/8
f 8/9/9 16/4/9 7/4/9
f 9/2/10 17/9/10 8/9/10
f 1/5/11 18/2/11 9/2/11
f 2/1/1 1/5/1 9/2/1
f 9/2/1 8/9/1 7/4/1
f 6/3/1 5/8/1 3/6/1
f 5/8/1 4/7/1 3/6/1
f 9/2/1 7/4/1 6/3/1
f 3/6/1 2/1/1 6/3/1
f 18/2/2 10/5/2 11/1/2
f 12/6/2 13/7/2 14/8/2
f 18/2/2 11/1/2 15/3/2
f 11/1/2 12/6/2 15/3/2
f 16/4/2 17/9/2 18/2/2
f 12/6/2 14/8/2 15/3/2
f 2/1/3 11/1/3 10/5/3
f 3/6/4 12/6/4 11/1/4
f 4/7/5 13/7/5 12/6/5
f 5/8/6 14/8/6 13/7/6
f 6/3/7 15/3/7 14/8/7
f 7/4/8 16/4/8 15/3/8
f 8/9/9 17/9/9 16/4/9
f 9/2/10 18/2/10 17/9/10
f 1/5/11 10/5/11 18/2/11
