# Blender 5.2.1 LTS
# www.blender.org
o Plane
v 0.000000 1.946781 2.527253
v 0.000000 2.214162 2.332794
v 0.000000 2.617664 1.778585
v 0.000000 2.909354 1.462590
v 0.000000 3.337163 0.548631
v 0.000000 3.444116 -0.204897
v 0.000000 3.307995 -0.963288
v 0.000000 2.549603 -2.339087
v 0.000000 2.389175 -2.412009
v 0.000000 2.244569 -1.243363
v 0.000000 2.120781 -1.057682
v 0.000000 2.123594 -0.635678
v 0.000000 1.245827 -0.495010
v 0.000000 1.032012 -0.359969
v 0.000000 0.413074 -0.120834
v -0.000000 -0.565973 -0.157408
v -0.000000 -0.397172 -0.495010
v -0.000000 -0.143970 -0.492197
v 0.000000 0.002324 -0.596292
v 0.000000 0.030458 -0.812919
v -0.000000 -0.214304 -0.967654
v -0.000000 -0.506893 -0.984535
v -0.000000 -0.627867 -0.869187
v -0.000000 -0.613800 -0.621612
v -0.000000 -0.830431 -0.143340
v -0.000000 -1.831983 -0.134902
v -0.000000 -2.979832 -0.458438
v -0.000000 -3.030472 -0.610359
v -0.000000 -3.112060 -0.646932
v -0.000000 -3.193647 -0.503451
v -0.000000 -3.173953 -0.314956
v -0.000000 -3.390581 0.768185
v -0.000000 -3.280861 0.779438
v -0.000000 -2.096437 0.357435
v -0.000000 -0.498453 0.351808
v -0.000000 -0.315583 1.077655
v -0.000000 -0.588479 1.356176
v -0.000000 -0.650373 1.522164
v -0.000000 -0.602546 1.766926
v -0.000000 -0.428118 1.916034
v 0.000000 0.024832 2.022941
v 0.000000 0.373688 1.980741
v 0.000000 0.652210 1.738793
v 0.000000 0.728170 1.536231
v 0.000000 0.671904 1.283029
v 0.000000 0.083912 1.080467
v -0.000000 -0.073636 0.405262
v 0.000000 0.508729 0.385569
v 0.000000 1.189560 0.709105
v 0.000000 1.926660 0.849773
v 0.000000 1.926659 2.377424
v -0.100000 1.946781 2.527253
v -0.100000 2.214162 2.332794
v -0.100000 2.617664 1.778585
v -0.100000 2.909354 1.462590
v -0.100000 3.337163 0.548631
v -0.100000 3.444116 -0.204897
v -0.100000 3.307995 -0.963288
v -0.100000 2.549603 -2.339087
v -0.100000 2.389175 -2.412009
v -0.100000 2.244569 -1.243363
v -0.100000 2.120781 -1.057682
v -0.100000 2.123594 -0.635678
v -0.100000 1.245827 -0.495010
v -0.100000 1.032012 -0.359969
v -0.100000 0.413074 -0.120834
v -0.100000 -0.565973 -0.157408
v -0.100000 -0.397172 -0.495010
v -0.100000 -0.143970 -0.492197
v -0.100000 0.002324 -0.596292
v -0.100000 0.030458 -0.812919
v -0.100000 -0.214304 -0.967654
v -0.100000 -0.506893 -0.984535
v -0.100000 -0.627867 -0.869187
v -0.100000 -0.613800 -0.621612
v -0.100000 -0.830431 -0.143340
v -0.100000 -1.831983 -0.134902
v -0.100000 -2.979832 -0.458438
v -0.100000 -3.030472 -0.610359
v -0.100000 -3.112060 -0.646932
v -0.100000 -3.193647 -0.503451
v -0.100000 -3.173953 -0.314956
v -0.100000 -3.390581 0.768185
v -0.100000 -3.280861 0.779438
v -0.100000 -2.096437 0.357435
v -0.100000 -0.498453 0.351808
v -0.100000 -0.315583 1.077655
v -0.100000 -0.588479 1.356176
v -0.100000 -0.650373 1.522164
v -0.100000 -0.602546 1.766926
v -0.100000 -0.428118 1.916034
v -0.100000 0.024832 2.022941
v -0.100000 0.373688 1.980741
v -0.100000 0.652210 1.738793
v -0.100000 0.728170 1.536231
v -0.100000 0.671904 1.283029
v -0.100000 0.083912 1.080467
v -0.100000 -0.073636 0.405262
v -0.100000 0.508729 0.385569
v -0.100000 1.189560 0.709105
v -0.100000 1.926660 0.849773
v -0.100000 1.926659 2.377424
vn 1.0000 -0.0000 -0.0000
vn -1.0000 -0.0000 -0.0000
vn -0.0000 0.5882 0.8087
vn -0.0000 0.8084 0.5886
vn -0.0000 0.7348 0.6783
vn -0.0000 0.9057 0.4239
vn -0.0000 0.9901 0.1405
vn -0.0000 0.9843 -0.1767
vn -0.0000 0.8758 -0.4828
vn -0.0000 0.4138 -0.9104
vn -0.0000 -0.9924 -0.1228
vn -0.0000 -0.8320 -0.5547
vn -0.0000 -1.0000 0.0067
vn -0.0000 -0.1582 -0.9874
vn -0.0000 -0.5340 -0.8455
vn -0.0000 -0.3604 -0.9328
vn -0.0000 0.0373 -0.9993
vn -0.0000 0.8944 0.4472
vn -0.0000 -0.0111 0.9999
vn -0.0000 0.5798 0.8148
vn -0.0000 0.9917 0.1288
vn -0.0000 0.5344 -0.8453
vn -0.0000 0.0576 -0.9983
vn -0.0000 -0.6901 -0.7237
vn -0.0000 -0.9984 0.0567
vn -0.0000 -0.9109 -0.4126
vn -0.0000 -0.0084 -1.0000
vn -0.0000 0.2713 -0.9625
vn -0.0000 0.9487 -0.3162
vn -0.0000 0.4091 -0.9125
vn -0.0000 -0.8693 -0.4943
vn -0.0000 -0.9946 0.1039
vn -0.0000 -0.9806 -0.1961
vn -0.0000 -0.1020 0.9948
vn -0.0000 0.3356 0.9420
vn -0.0000 0.0035 1.0000
vn -0.0000 -0.9697 0.2443
vn -0.0000 -0.7143 -0.6999
vn -0.0000 -0.9370 -0.3494
vn -0.0000 -0.9814 0.1918
vn -0.0000 -0.6498 0.7601
vn -0.0000 -0.2297 0.9733
vn -0.0000 0.1201 0.9928
vn -0.0000 0.6558 0.7549
vn -0.0000 0.9363 0.3511
vn -0.0000 0.9762 -0.2169
vn -0.0000 0.3257 -0.9455
vn -0.0000 0.9738 -0.2272
vn -0.0000 0.0338 0.9994
vn -0.0000 -0.4292 0.9032
vn -0.0000 -0.1875 0.9823
vn -0.0000 -1.0000 -0.0000
vn -0.0000 -0.9911 0.1331
vt 0.787309 0.434705
vt 0.751146 0.524615
vt 0.613844 0.526155
vt 0.196461 0.074338
vt 0.233116 0.038855
vt 0.141145 0.175464
vt 0.101157 0.233123
vt 0.042509 0.399892
vt 0.027847 0.537387
vt 0.046508 0.675770
vt 0.150475 0.926810
vt 0.172469 0.940116
vt 0.192293 0.726875
vt 0.209263 0.692994
vt 0.208877 0.615991
vt 0.329210 0.590324
vt 0.358522 0.565683
vt 0.443372 0.522048
vt 0.572575 0.524615
vt 0.554448 0.590324
vt 0.519737 0.589811
vt 0.499681 0.608805
vt 0.495825 0.648332
vt 0.529379 0.676567
vt 0.569490 0.679647
vt 0.586074 0.658599
vt 0.584146 0.613425
vt 0.908504 0.583650
vt 0.915447 0.611371
vt 0.926632 0.618045
vt 0.937816 0.591864
vt 0.935108 0.557463
vt 0.964798 0.359818
vt 0.949751 0.357759
vt 0.567066 0.434768
vt 0.542832 0.303008
vt 0.580386 0.252304
vt 0.588931 0.222065
vt 0.582439 0.177457
vt 0.558561 0.150278
vt 0.496489 0.130789
vt 0.448664 0.138489
vt 0.410453 0.182614
vt 0.400011 0.219552
vt 0.407665 0.265704
vt 0.488063 0.302493
vt 0.508981 0.425140
vt 0.429834 0.429298
vt 0.336789 0.370501
vt 0.235830 0.344906
vt 0.235866 0.066187
s 0
f 34/1/1 26/2/1 25/3/1
f 77/2/2 85/1/2 76/3/2
f 2/4/3 52/5/3 1/5/3
f 3/6/4 53/4/4 2/4/4
f 4/7/5 54/6/5 3/6/5
f 5/8/6 55/7/6 4/7/6
f 6/9/7 56/8/7 5/8/7
f 7/10/8 57/9/8 6/9/8
f 8/11/9 58/10/9 7/10/9
f 9/12/10 59/11/10 8/11/10
f 10/13/11 60/12/11 9/12/11
f 11/14/12 61/13/12 10/13/12
f 12/15/13 62/14/13 11/14/13
f 13/16/14 63/15/14 12/15/14
f 14/17/15 64/16/15 13/16/15
f 14/17/16 66/18/16 65/17/16
f 16/19/17 66/18/17 15/18/17
f 17/20/18 67/19/18 16/19/18
f 18/21/19 68/20/19 17/20/19
f 19/22/20 69/21/20 18/21/20
f 20/23/21 70/22/21 19/22/21
f 21/24/22 71/23/22 20/23/22
f 22/25/23 72/24/23 21/24/23
f 23/26/24 73/25/24 22/25/24
f 24/27/25 74/26/25 23/26/25
f 25/3/26 75/27/26 24/27/26
f 26/2/27 76/3/27 25/3/27
f 27/28/28 77/2/28 26/2/28
f 28/29/29 78/28/29 27/28/29
f 29/30/30 79/29/30 28/29/30
f 30/31/31 80/30/31 29/30/31
f 31/32/32 81/31/32 30/31/32
f 32/33/33 82/32/33 31/32/33
f 33/34/34 83/33/34 32/33/34
f 34/1/35 84/34/35 33/34/35
f 35/35/36 85/1/36 34/1/36
f 36/36/37 86/35/37 35/35/37
f 37/37/38 87/36/38 36/36/38
f 38/38/39 88/37/39 37/37/39
f 39/39/40 89/38/40 38/38/40
f 40/40/41 90/39/41 39/39/41
f 41/41/42 91/40/42 40/40/42
f 42/42/43 92/41/43 41/41/43
f 42/42/44 94/43/44 93/42/44
f 44/44/45 94/43/45 43/43/45
f 45/45/46 95/44/46 44/44/46
f 46/46/47 96/45/47 45/45/47
f 47/47/48 97/46/48 46/46/48
f 48/48/49 98/47/49 47/47/49
f 49/49/50 99/48/50 48/48/50
f 50/50/51 100/49/51 49/49/51
f 51/51/52 101/50/52 50/50/52
f 1/5/53 102/51/53 51/51/53
f 2/4/1 1/5/1 51/51/1
f 50/50/1 49/49/1 13/16/1
f 49/49/1 48/48/1 14/17/1
f 2/4/1 51/51/1 3/6/1
f 51/51/1 50/50/1 3/6/1
f 5/8/1 4/7/1 50/50/1
f 4/7/1 3/6/1 50/50/1
f 7/10/1 6/9/1 12/15/1
f 6/9/1 5/8/1 12/15/1
f 9/12/1 8/11/1 10/13/1
f 8/11/1 7/10/1 10/13/1
f 12/15/1 11/14/1 10/13/1
f 5/8/1 50/50/1 12/15/1
f 49/49/1 14/17/1 13/16/1
f 12/15/1 50/50/1 13/16/1
f 12/15/1 10/13/1 7/10/1
f 15/18/1 14/17/1 48/48/1
f 48/48/1 47/47/1 15/18/1
f 46/46/1 45/45/1 43/43/1
f 45/45/1 44/44/1 43/43/1
f 16/19/1 15/18/1 47/47/1
f 16/19/1 47/47/1 35/35/1
f 47/47/1 46/46/1 36/36/1
f 35/35/1 47/47/1 36/36/1
f 19/22/1 18/21/1 21/24/1
f 18/21/1 17/20/1 21/24/1
f 20/23/1 19/22/1 21/24/1
f 22/25/1 21/24/1 17/20/1
f 22/25/1 17/20/1 24/27/1
f 24/27/1 23/26/1 22/25/1
f 25/3/1 24/27/1 16/19/1
f 24/27/1 17/20/1 16/19/1
f 25/3/1 16/19/1 35/35/1
f 46/46/1 43/43/1 42/42/1
f 42/42/1 41/41/1 46/46/1
f 41/41/1 40/40/1 46/46/1
f 40/40/1 39/39/1 38/38/1
f 38/38/1 37/37/1 40/40/1
f 37/37/1 36/36/1 40/40/1
f 29/30/1 28/29/1 30/31/1
f 28/29/1 27/28/1 30/31/1
f 31/32/1 30/31/1 27/28/1
f 33/34/1 32/33/1 31/32/1
f 34/1/1 33/34/1 31/32/1
f 31/32/1 27/28/1 34/1/1
f 27/28/1 26/2/1 34/1/1
f 35/35/1 34/1/1 25/3/1
f 46/46/1 40/40/1 36/36/1
f 102/51/2 52/5/2 53/4/2
f 54/6/2 55/7/2 101/50/2
f 55/7/2 56/8/2 101/50/2
f 102/51/2 53/4/2 54/6/2
f 99/48/2 100/49/2 65/17/2
f 100/49/2 101/50/2 64/16/2
f 65/17/2 100/49/2 64/16/2
f 101/50/2 102/51/2 54/6/2
f 56/8/2 57/9/2 63/15/2
f 101/50/2 56/8/2 63/15/2
f 57/9/2 58/10/2 63/15/2
f 58/10/2 59/11/2 61/13/2
f 63/15/2 58/10/2 61/13/2
f 59/11/2 60/12/2 61/13/2
f 61/13/2 62/14/2 63/15/2
f 63/15/2 64/16/2 101/50/2
f 65/17/2 66/18/2 99/48/2
f 98/47/2 99/48/2 66/18/2
f 98/47/2 66/18/2 67/19/2
f 95/44/2 96/45/2 94/43/2
f 96/45/2 97/46/2 94/43/2
f 97/46/2 98/47/2 87/36/2
f 98/47/2 67/19/2 86/35/2
f 68/20/2 69/21/2 72/24/2
f 69/21/2 70/22/2 72/24/2
f 70/22/2 71/23/2 72/24/2
f 72/24/2 73/25/2 68/20/2
f 68/20/2 73/25/2 75/27/2
f 73/25/2 74/26/2 75/27/2
f 68/20/2 75/27/2 67/19/2
f 75/27/2 76/3/2 67/19/2
f 98/47/2 86/35/2 87/36/2
f 67/19/2 76/3/2 86/35/2
f 92/41/2 93/42/2 97/46/2
f 93/42/2 94/43/2 97/46/2
f 90/39/2 91/40/2 89/38/2
f 91/40/2 92/41/2 97/46/2
f 88/37/2 89/38/2 91/40/2
f 87/36/2 88/37/2 91/40/2
f 91/40/2 97/46/2 87/36/2
f 78/28/2 79/29/2 81/31/2
f 79/29/2 80/30/2 81/31/2
f 81/31/2 82/32/2 78/28/2
f 82/32/2 83/33/2 84/34/2
f 82/32/2 84/34/2 85/1/2
f 77/2/2 78/28/2 85/1/2
f 78/28/2 82/32/2 85/1/2
f 85/1/2 86/35/2 76/3/2
f 2/4/3 53/4/3 52/5/3
f 3/6/4 54/6/4 53/4/4
f 4/7/5 55/7/5 54/6/5
f 5/8/6 56/8/6 55/7/6
f 6/9/7 57/9/7 56/8/7
f 7/10/8 58/10/8 57/9/8
f 8/11/9 59/11/9 58/10/9
f 9/12/10 60/12/10 59/11/10
f 10/13/11 61/13/11 60/12/11
f 11/14/12 62/14/12 61/13/12
f 12/15/13 63/15/13 62/14/13
f 13/16/14 64/16/14 63/15/14
f 14/17/15 65/17/15 64/16/15
f 14/17/16 15/18/16 66/18/16
f 16/19/17 67/19/17 66/18/17
f 17/20/18 68/20/18 67/19/18
f 18/21/19 69/21/19 68/20/19
f 19/22/20 70/22/20 69/21/20
f 20/23/21 71/23/21 70/22/21
f 21/24/22 72/24/22 71/23/22
f 22/25/23 73/25/23 72/24/23
f 23/26/24 74/26/24 73/25/24
f 24/27/25 75/27/25 74/26/25
f 25/3/26 76/3/26 75/27/26
f 26/2/27 77/2/27 76/3/27
f 27/28/28 78/28/28 77/2/28
f 28/29/29 79/29/29 78/28/29
f 29/30/30 80/30/30 79/29/30
f 30/31/31 81/31/31 80/30/31
f 31/32/32 82/32/32 81/31/32
f 32/33/33 83/33/33 82/32/33
f 33/34/34 84/34/34 83/33/34
f 34/1/35 85/1/35 84/34/35
f 35/35/36 86/35/36 85/1/36
f 36/36/37 87/36/37 86/35/37
f 37/37/38 88/37/38 87/36/38
f 38/38/39 89/38/39 88/37/39
f 39/39/40 90/39/40 89/38/40
f 40/40/41 91/40/41 90/39/41
f 41/41/42 92/41/42 91/40/42
f 42/42/43 93/42/43 92/41/43
f 42/42/44 43/43/44 94/43/44
f 44/44/45 95/44/45 94/43/45
f 45/45/46 96/45/46 95/44/46
f 46/46/47 97/46/47 96/45/47
f 47/47/48 98/47/48 97/46/48
f 48/48/49 99/48/49 98/47/49
f 49/49/50 100/49/50 99/48/50
f 50/50/51 101/50/51 100/49/51
f 51/51/52 102/51/52 101/50/52
f 1/5/53 52/5/53 102/51/53
