# Blender 5.2.1 LTS
# www.blender.org
o Plane
v 0.050000 -0.954746 0.957553
v 0.050000 2.255857 -0.615676
v 0.050000 1.310568 -0.706829
v 0.050000 -0.920986 -0.700077
v 0.050000 -0.978379 0.103418
v 0.050000 -2.278149 0.235083
v 0.050000 -2.274773 0.613198
v 0.050000 -1.008763 0.417389
v -0.050000 -0.954746 0.957553
v -0.050000 2.255857 -0.615676
v -0.050000 1.310568 -0.706829
v -0.050000 -0.920986 -0.700077
v -0.050000 -0.978379 0.103418
v -0.050000 -2.278149 0.235083
v -0.050000 -2.274773 0.613198
v -0.050000 -1.008763 0.417389
vn 1.0000 -0.0000 -0.0000
vn -1.0000 -0.0000 -0.0000
vn -0.0000 0.4400 0.8980
vn -0.0000 0.0960 -0.9954
vn -0.0000 -0.0030 -1.0000
vn -0.0000 -0.9975 -0.0712
vn -0.0000 -0.1008 -0.9949
vn -0.0000 -1.0000 0.0089
vn -0.0000 0.1528 0.9882
vn -0.0000 -0.9950 0.0995
vt 0.706307 0.322480
vt 0.700093 0.456015
vt 0.231970 0.800622
vt 0.038645 0.761853
vt 0.695259 0.092743
vt 0.688355 0.797750
vt 0.965915 0.400017
vt 0.965224 0.239200
s 0
f 8/1/1 5/2/1 3/3/1
f 11/3/2 13/2/2 16/1/2
f 2/4/3 9/5/3 1/5/3
f 3/3/4 10/4/4 2/4/4
f 4/6/5 11/3/5 3/3/5
f 5/2/6 12/6/6 4/6/6
f 6/7/7 13/2/7 5/2/7
f 7/8/8 14/7/8 6/7/8
f 8/1/9 15/8/9 7/8/9
f 1/5/10 16/1/10 8/1/10
f 2/4/1 1/5/1 3/3/1
f 1/5/1 8/1/1 3/3/1
f 8/1/1 7/8/1 6/7/1
f 5/2/1 4/6/1 3/3/1
f 8/1/1 6/7/1 5/2/1
f 16/1/2 9/5/2 11/3/2
f 9/5/2 10/4/2 11/3/2
f 11/3/2 12/6/2 13/2/2
f 13/2/2 14/7/2 16/1/2
f 14/7/2 15/8/2 16/1/2
f 2/4/3 10/4/3 9/5/3
f 3/3/4 11/3/4 10/4/4
f 4/6/5 12/6/5 11/3/5
f 5/2/6 13/2/6 12/6/6
f 6/7/7 14/7/7 13/2/7
f 7/8/8 15/8/8 14/7/8
f 8/1/9 16/1/9 15/8/9
f 1/5/10 9/5/10 16/1/10
