# Blender 5.2.1 LTS
# www.blender.org
o Plane
v 0.100000 1.136670 1.671272
v 0.100000 1.649826 1.569991
v 0.100000 2.044821 1.283029
v 0.100000 2.308151 0.807010
v 0.100000 2.436439 0.047403
v 0.100000 2.409432 -0.610922
v 0.100000 2.216998 -1.154461
v 0.100000 1.845635 -1.569713
v 0.100000 1.231198 -1.698001
v 0.100000 1.396624 -1.184846
v 0.100000 0.724795 -0.887756
v 0.100000 0.160998 -0.452248
v 0.100000 -0.412926 -0.462376
v 0.100000 -0.426431 -0.793227
v 0.100000 -0.483823 -0.978909
v 0.100000 -0.537839 -0.965405
v 0.100000 -0.595232 -0.479256
v 0.100000 -1.584408 -0.479256
v 0.100000 -2.283245 -0.590666
v 0.100000 -2.327133 -0.718955
v 0.100000 -2.371022 -0.563657
v 0.100000 -2.384526 -0.074133
v 0.100000 -2.452046 0.229709
v 0.100000 -2.036795 0.101420
v 0.100000 -0.483823 0.125052
v 0.100000 -0.257629 0.577440
v 0.100000 -0.092204 0.729361
v 0.100000 -0.136092 0.530176
v 0.100000 -0.298141 0.128428
v 0.100000 0.360184 0.145308
v 0.100000 1.177182 0.881282
v -0.082428 1.136670 1.671272
v -0.082428 1.649826 1.569991
v -0.082428 2.044821 1.283029
v -0.082428 2.308151 0.807010
v -0.082428 2.436439 0.047403
v -0.082428 2.409432 -0.610922
v -0.082428 2.216998 -1.154461
v -0.082428 1.845635 -1.569713
v -0.082428 1.231198 -1.698001
v -0.082428 1.396624 -1.184846
v -0.082428 0.724795 -0.887756
v -0.082428 0.160998 -0.452248
v -0.082428 -0.412926 -0.462376
v -0.082428 -0.426431 -0.793227
v -0.082428 -0.483823 -0.978909
v -0.082428 -0.537839 -0.965405
v -0.082428 -0.595232 -0.479256
v -0.082428 -1.584408 -0.479256
v -0.082428 -2.283245 -0.590666
v -0.082428 -2.327133 -0.718955
v -0.082428 -2.371022 -0.563657
v -0.082428 -2.384526 -0.074133
v -0.082428 -2.452046 0.229709
v -0.082428 -2.036795 0.101420
v -0.082428 -0.483823 0.125052
v -0.082428 -0.257629 0.577440
v -0.082428 -0.092204 0.729361
v -0.082428 -0.136092 0.530176
v -0.082428 -0.298141 0.128428
v -0.082428 0.360184 0.145308
v -0.082428 1.177182 0.881282
vn 1.0000 -0.0000 -0.0000
vn -1.0000 -0.0000 -0.0000
vn -0.0000 0.1936 0.9811
vn -0.0000 0.5878 0.8090
vn -0.0000 0.8750 0.4841
vn -0.0000 0.9860 0.1665
vn -0.0000 0.9992 -0.0410
vn -0.0000 0.9427 -0.3337
vn -0.0000 0.7454 -0.6666
vn -0.0000 0.2044 -0.9789
vn -0.0000 -0.9518 0.3068
vn -0.0000 -0.4044 -0.9146
vn -0.0000 -0.6113 -0.7914
vn -0.0000 0.0176 -0.9998
vn -0.0000 0.9992 -0.0408
vn -0.0000 0.9554 -0.2953
vn -0.0000 -0.2425 -0.9701
vn -0.0000 -0.9931 -0.1172
vn -0.0000 -0.0000 -1.0000
vn -0.0000 0.1574 -0.9875
vn -0.0000 0.9462 -0.3237
vn -0.0000 -0.9623 -0.2720
vn -0.0000 -0.9996 -0.0276
vn -0.0000 -0.9762 -0.2169
vn -0.0000 0.2952 0.9554
vn -0.0000 -0.0152 0.9999
vn -0.0000 -0.8944 0.4472
vn -0.0000 -0.6764 0.7365
vn -0.0000 0.9766 -0.2152
vn -0.0000 0.9274 -0.3741
vn -0.0000 -0.0256 0.9997
vn -0.0000 -0.6693 0.7430
vn -0.0000 -0.9987 -0.0512
vt 0.813271 0.631355
vt 0.617690 0.631355
vt 0.595662 0.465726
vt 0.018265 0.487008
vt 0.428784 0.460174
vt 0.267246 0.258457
vt 0.173795 0.069695
vt 0.275256 0.041936
vt 0.095696 0.148346
vt 0.043630 0.278814
vt 0.023605 0.667442
vt 0.061653 0.816416
vt 0.135079 0.930229
vt 0.256566 0.965390
vt 0.223858 0.824744
vt 0.356693 0.743317
vt 0.468167 0.623953
vt 0.581644 0.626729
vt 0.584314 0.717409
vt 0.595662 0.768301
vt 0.606342 0.764599
vt 0.951446 0.661890
vt 0.960123 0.697052
vt 0.968801 0.654488
vt 0.971471 0.520319
vt 0.984821 0.437041
vt 0.902717 0.472203
vt 0.550939 0.341734
vt 0.518231 0.300096
vt 0.526908 0.354689
vt 0.558949 0.464800
s 0
f 18/1/1 17/2/1 25/3/1
f 36/4/2 61/5/2 62/6/2
f 2/7/3 32/8/3 1/8/3
f 3/9/4 33/7/4 2/7/4
f 4/10/5 34/9/5 3/9/5
f 5/4/6 35/10/6 4/10/6
f 6/11/7 36/4/7 5/4/7
f 7/12/8 37/11/8 6/11/8
f 8/13/9 38/12/9 7/12/9
f 9/14/10 39/13/10 8/13/10
f 10/15/11 40/14/11 9/14/11
f 11/16/12 41/15/12 10/15/12
f 12/17/13 42/16/13 11/16/13
f 13/18/14 43/17/14 12/17/14
f 14/19/15 44/18/15 13/18/15
f 15/20/16 45/19/16 14/19/16
f 16/21/17 46/20/17 15/20/17
f 17/2/18 47/21/18 16/21/18
f 18/1/19 48/2/19 17/2/19
f 19/22/20 49/1/20 18/1/20
f 20/23/21 50/22/21 19/22/21
f 21/24/22 51/23/22 20/23/22
f 22/25/23 52/24/23 21/24/23
f 23/26/24 53/25/24 22/25/24
f 24/27/25 54/26/25 23/26/25
f 25/3/26 55/27/26 24/27/26
f 26/28/27 56/3/27 25/3/27
f 27/29/28 57/28/28 26/28/28
f 28/30/29 58/29/29 27/29/29
f 29/31/30 59/30/30 28/30/30
f 30/5/31 60/31/31 29/31/31
f 31/6/32 61/5/32 30/5/32
f 1/8/33 62/6/33 31/6/33
f 2/7/1 1/8/1 31/6/1
f 3/9/1 2/7/1 31/6/1
f 5/4/1 4/10/1 31/6/1
f 4/10/1 3/9/1 31/6/1
f 7/12/1 6/11/1 10/15/1
f 6/11/1 5/4/1 11/16/1
f 11/16/1 5/4/1 30/5/1
f 9/14/1 8/13/1 10/15/1
f 8/13/1 7/12/1 10/15/1
f 12/17/1 11/16/1 30/5/1
f 11/16/1 10/15/1 6/11/1
f 30/5/1 5/4/1 31/6/1
f 29/31/1 28/30/1 26/28/1
f 28/30/1 27/29/1 26/28/1
f 30/5/1 29/31/1 12/17/1
f 15/20/1 14/19/1 16/21/1
f 14/19/1 13/18/1 17/2/1
f 16/21/1 14/19/1 17/2/1
f 13/18/1 12/17/1 29/31/1
f 29/31/1 26/28/1 25/3/1
f 24/27/1 23/26/1 22/25/1
f 13/18/1 29/31/1 25/3/1
f 25/3/1 24/27/1 18/1/1
f 24/27/1 22/25/1 18/1/1
f 22/25/1 21/24/1 19/22/1
f 21/24/1 20/23/1 19/22/1
f 13/18/1 25/3/1 17/2/1
f 22/25/1 19/22/1 18/1/1
f 62/6/2 32/8/2 33/7/2
f 33/7/2 34/9/2 62/6/2
f 34/9/2 35/10/2 62/6/2
f 35/10/2 36/4/2 62/6/2
f 36/4/2 37/11/2 42/16/2
f 61/5/2 36/4/2 42/16/2
f 37/11/2 38/12/2 41/15/2
f 38/12/2 39/13/2 41/15/2
f 39/13/2 40/14/2 41/15/2
f 41/15/2 42/16/2 37/11/2
f 42/16/2 43/17/2 61/5/2
f 44/18/2 45/19/2 48/2/2
f 45/19/2 46/20/2 47/21/2
f 45/19/2 47/21/2 48/2/2
f 44/18/2 48/2/2 56/3/2
f 48/2/2 49/1/2 56/3/2
f 50/22/2 51/23/2 52/24/2
f 43/17/2 44/18/2 60/31/2
f 49/1/2 50/22/2 53/25/2
f 50/22/2 52/24/2 53/25/2
f 53/25/2 54/26/2 55/27/2
f 44/18/2 56/3/2 60/31/2
f 49/1/2 53/25/2 55/27/2
f 56/3/2 49/1/2 55/27/2
f 56/3/2 57/28/2 60/31/2
f 57/28/2 58/29/2 59/30/2
f 60/31/2 57/28/2 59/30/2
f 43/17/2 60/31/2 61/5/2
f 2/7/3 33/7/3 32/8/3
f 3/9/4 34/9/4 33/7/4
f 4/10/5 35/10/5 34/9/5
f 5/4/6 36/4/6 35/10/6
f 6/11/7 37/11/7 36/4/7
f 7/12/8 38/12/8 37/11/8
f 8/13/9 39/13/9 38/12/9
f 9/14/10 40/14/10 39/13/10
f 10/15/11 41/15/11 40/14/11
f 11/16/12 42/16/12 41/15/12
f 12/17/13 43/17/13 42/16/13
f 13/18/14 44/18/14 43/17/14
f 14/19/15 45/19/15 44/18/15
f 15/20/16 46/20/16 45/19/16
f 16/21/17 47/21/17 46/20/17
f 17/2/18 48/2/18 47/21/18
f 18/1/19 49/1/19 48/2/19
f 19/22/20 50/22/20 49/1/20
f 20/23/21 51/23/21 50/22/21
f 21/24/22 52/24/22 51/23/22
f 22/25/23 53/25/23 52/24/23
f 23/26/24 54/26/24 53/25/24
f 24/27/25 55/27/25 54/26/25
f 25/3/26 56/3/26 55/27/26
f 26/28/27 57/28/27 56/3/27
f 27/29/28 58/29/28 57/28/28
f 28/30/29 59/30/29 58/29/29
f 29/31/30 60/31/30 59/30/30
f 30/5/31 61/5/31 60/31/31
f 31/6/32 62/6/32 61/5/32
f 1/8/33 32/8/33 62/6/33
