# Blender 5.2.1 LTS
# www.blender.org
o Plane
v 0.000000 2.368559 1.511704
v 0.000000 2.860896 1.230368
v 0.000000 3.033801 0.975408
v 0.000000 3.277038 0.711656
v 0.000000 3.485110 0.450834
v 0.000000 3.658013 0.093304
v 0.000000 3.663874 -0.381450
v 0.000000 3.534929 -0.736050
v 0.000000 3.139301 -1.152192
v 0.000000 2.737812 -1.383708
v 0.000000 2.529741 -1.418874
v 0.000000 2.600074 -0.624688
v 0.000000 2.582492 -0.322839
v 0.000000 2.101877 -0.349214
v 0.000000 1.336996 -0.243713
v 0.000000 1.782444 -0.513326
v 0.000000 1.849847 -0.610035
v 0.000000 1.717971 -0.595382
v 0.000000 1.205120 -0.366797
v 0.000000 1.026352 -0.202683
v 0.000000 0.056333 -0.062017
v -0.000000 -0.544436 -0.018058
v -0.000000 -0.523922 -0.231990
v -0.000000 -0.383254 -0.510396
v -0.000000 -0.353948 -0.618827
v -0.000000 -0.474102 -0.580729
v -0.000000 -0.685103 -0.255435
v -0.000000 -0.746645 -0.050294
v -0.000000 -0.910758 -0.038572
v -0.000000 -0.910758 -0.252504
v -0.000000 -0.799396 -0.618826
v -0.000000 -0.784743 -0.782940
v -0.000000 -0.843355 -0.812245
v -0.000000 -1.058263 -0.314535
v -0.000000 -1.063148 -0.041014
v -0.000000 -2.027797 -0.106952
v -0.000000 -1.917900 -0.522117
v -0.000000 -1.812887 -0.717489
v -0.000000 -1.856845 -0.737027
v -0.000000 -2.235378 -0.160680
v -0.000000 -2.775093 -0.299882
v -0.000000 -3.114552 -0.385357
v -0.000000 -3.375861 -0.651552
v -0.000000 -3.373419 -0.771217
v -0.000000 -3.451568 -0.741912
v -0.000000 -3.468663 -0.500138
v -0.000000 -3.578559 1.399852
v -0.000000 -3.434473 1.214249
v -0.000000 -2.994886 0.977361
v -0.000000 -2.547973 0.808853
v -0.000000 -2.372138 1.040857
v -0.000000 -2.179208 1.158080
v -0.000000 -2.064428 1.175175
v -0.000000 -2.061986 1.077489
v -0.000000 -2.337948 0.774663
v -0.000000 -1.641936 0.623250
v -0.000000 -1.368415 0.901654
v -0.000000 -1.202349 0.965150
v -0.000000 -1.131527 0.952940
v -0.000000 -1.353763 0.611039
v -0.000000 -0.308524 0.440088
v 0.000000 0.060241 0.757568
v 0.000000 0.306898 0.840601
v 0.000000 0.218982 0.637904
v -0.000000 -0.059424 0.420552
v 0.000000 0.871035 0.308213
v 0.000000 0.988258 0.620808
v 0.000000 1.110365 0.738031
v 0.000000 1.171419 0.728262
v 0.000000 1.015121 0.305771
v 0.000000 1.295968 0.293560
v 0.000000 1.654965 0.586619
v 0.000000 1.886969 0.672094
v 0.000000 1.884527 0.611040
v 0.000000 1.493783 0.276466
v 0.000000 2.277713 0.193433
v 0.000000 2.556118 0.183664
v 0.000000 2.414473 0.547544
v -0.150000 2.368559 1.511704
v -0.150000 2.860896 1.230368
v -0.150000 3.033801 0.975408
v -0.150000 3.277038 0.711656
v -0.150000 3.485110 0.450834
v -0.150000 3.658013 0.093304
v -0.150000 3.663874 -0.381450
v -0.150000 3.534929 -0.736050
v -0.150000 3.139301 -1.152192
v -0.150000 2.737812 -1.383708
v -0.150000 2.529741 -1.418874
v -0.150000 2.600074 -0.624688
v -0.150000 2.582492 -0.322839
v -0.150000 2.101877 -0.349214
v -0.150000 1.336996 -0.243713
v -0.150000 1.782444 -0.513326
v -0.150000 1.849847 -0.610035
v -0.150000 1.717971 -0.595382
v -0.150000 1.205120 -0.366797
v -0.150000 1.026352 -0.202683
v -0.150000 0.056333 -0.062017
v -0.150000 -0.544436 -0.018058
v -0.150000 -0.523922 -0.231990
v -0.150000 -0.383254 -0.510396
v -0.150000 -0.353948 -0.618827
v -0.150000 -0.474102 -0.580729
v -0.150000 -0.685103 -0.255435
v -0.150000 -0.746645 -0.050294
v -0.150000 -0.910758 -0.038572
v -0.150000 -0.910758 -0.252504
v -0.150000 -0.799396 -0.618826
v -0.150000 -0.784743 -0.782940
v -0.150000 -0.843355 -0.812245
v -0.150000 -1.058263 -0.314535
v -0.150000 -1.063148 -0.041014
v -0.150000 -2.027797 -0.106952
v -0.150000 -1.917900 -0.522117
v -0.150000 -1.812887 -0.717489
v -0.150000 -1.856845 -0.737027
v -0.150000 -2.235378 -0.160680
v -0.150000 -2.775093 -0.299882
v -0.150000 -3.114552 -0.385357
v -0.150000 -3.375861 -0.651552
v -0.150000 -3.373419 -0.771217
v -0.150000 -3.451568 -0.741912
v -0.150000 -3.468663 -0.500138
v -0.150000 -3.578559 1.399852
v -0.150000 -3.434473 1.214249
v -0.150000 -2.994886 0.977361
v -0.150000 -2.547973 0.808853
v -0.150000 -2.372138 1.040857
v -0.150000 -2.179208 1.158080
v -0.150000 -2.064428 1.175175
v -0.150000 -2.061986 1.077489
v -0.150000 -2.337948 0.774663
v -0.150000 -1.641936 0.623250
v -0.150000 -1.368415 0.901654
v -0.150000 -1.202349 0.965150
v -0.150000 -1.131527 0.952940
v -0.150000 -1.353763 0.611039
v -0.150000 -0.308524 0.440088
v -0.150000 0.060241 0.757568
v -0.150000 0.306898 0.840601
v -0.150000 0.218982 0.637904
v -0.150000 -0.059424 0.420552
v -0.150000 0.871035 0.308213
v -0.150000 0.988258 0.620808
v -0.150000 1.110365 0.738031
v -0.150000 1.171419 0.728262
v -0.150000 1.015121 0.305771
v -0.150000 1.295968 0.293560
v -0.150000 1.654965 0.586619
v -0.150000 1.886969 0.672094
v -0.150000 1.884527 0.611040
v -0.150000 1.493783 0.276466
v -0.150000 2.277713 0.193433
v -0.150000 2.556118 0.183664
v -0.150000 2.414473 0.547544
vn 1.0000 -0.0000 -0.0000
vn -1.0000 -0.0000 -0.0000
vn -0.0000 0.4961 0.8682
vn -0.0000 0.8276 0.5613
vn -0.0000 0.7351 0.6779
vn -0.0000 0.7817 0.6236
vn -0.0000 0.9003 0.4354
vn -0.0000 0.9999 0.0123
vn -0.0000 0.9398 -0.3417
vn -0.0000 0.7247 -0.6890
vn -0.0000 0.4995 -0.8663
vn -0.0000 0.1666 -0.9860
vn -0.0000 -0.9961 0.0882
vn -0.0000 -0.9983 -0.0581
vn -0.0000 0.0548 -0.9985
vn -0.0000 -0.1366 -0.9906
vn -0.0000 0.5178 0.8555
vn -0.0000 0.8204 0.5718
vn -0.0000 -0.1104 -0.9939
vn -0.0000 -0.4071 -0.9134
vn -0.0000 -0.6763 -0.7367
vn -0.0000 -0.1435 -0.9896
vn -0.0000 -0.0730 -0.9973
vn -0.0000 0.9954 0.0955
vn -0.0000 0.8925 0.4510
vn -0.0000 0.9654 0.2609
vn -0.0000 -0.3022 -0.9532
vn -0.0000 -0.8390 -0.5442
vn -0.0000 -0.9578 -0.2873
vn -0.0000 -0.0712 -0.9975
vn -0.0000 1.0000 -0.0000
vn -0.0000 0.9568 0.2909
vn -0.0000 0.9960 0.0889
vn -0.0000 0.4472 -0.8944
vn -0.0000 -0.9181 -0.3964
vn -0.0000 -0.9998 -0.0179
vn -0.0000 0.0682 -0.9977
vn -0.0000 0.9667 0.2559
vn -0.0000 0.8808 0.4734
vn -0.0000 0.4062 -0.9138
vn -0.0000 -0.8358 -0.5490
vn -0.0000 0.2497 -0.9683
vn -0.0000 0.2442 -0.9697
vn -0.0000 0.7136 -0.7005
vn -0.0000 0.9998 0.0204
vn -0.0000 -0.3511 -0.9363
vn -0.0000 -0.9975 -0.0705
vn -0.0000 -0.9983 -0.0577
vn -0.0000 0.7899 0.6132
vn -0.0000 0.4744 0.8803
vn -0.0000 0.3528 0.9357
vn -0.0000 -0.7970 0.6040
vn -0.0000 -0.5193 0.8546
vn -0.0000 -0.1473 0.9891
vn -0.0000 0.9997 0.0250
vn -0.0000 0.7391 -0.6736
vn -0.0000 0.2126 0.9771
vn -0.0000 -0.7133 0.7008
vn -0.0000 -0.3571 0.9341
vn -0.0000 0.1699 0.9855
vn -0.0000 0.8384 -0.5450
vn -0.0000 0.1614 0.9869
vn -0.0000 -0.6524 0.7578
vn -0.0000 -0.3190 0.9477
vn -0.0000 0.9174 -0.3979
vn -0.0000 0.6154 -0.7882
vn -0.0000 0.1199 0.9928
vn -0.0000 -0.9363 0.3511
vn -0.0000 -0.6925 0.7214
vn -0.0000 0.1580 0.9874
vn -0.0000 0.9379 -0.3470
vn -0.0000 0.0434 0.9991
vn -0.0000 -0.6324 0.7747
vn -0.0000 -0.3457 0.9383
vn -0.0000 0.9992 -0.0400
vn -0.0000 0.6504 -0.7596
vn -0.0000 0.1053 0.9944
vn -0.0000 0.0351 0.9994
vn -0.0000 -0.9319 -0.3627
vn -0.0000 -0.9989 -0.0476
vt 0.768671 0.531699
vt 0.717294 0.321512
vt 0.809144 0.285670
vt 0.947282 0.693112
vt 0.946958 0.728580
vt 0.957313 0.719894
vt 0.120948 0.135333
vt 0.186180 0.051948
vt 0.098039 0.210900
vt 0.065812 0.289073
vt 0.038243 0.366378
vt 0.015335 0.472346
vt 0.014558 0.613057
vt 0.031643 0.718157
vt 0.084061 0.841497
vt 0.137256 0.910115
vt 0.164824 0.920538
vt 0.155505 0.685150
vt 0.157835 0.595686
vt 0.221514 0.603503
vt 0.322856 0.572234
vt 0.263837 0.652144
vt 0.254906 0.680807
vt 0.272379 0.676464
vt 0.340329 0.608715
vt 0.364014 0.560073
vt 0.492536 0.518381
vt 0.572135 0.505352
vt 0.569417 0.568759
vt 0.550779 0.651275
vt 0.546896 0.683413
vt 0.562816 0.672122
vt 0.590772 0.575708
vt 0.598926 0.514907
vt 0.620670 0.511432
vt 0.620670 0.574839
vt 0.605915 0.683413
vt 0.603974 0.732054
vt 0.611740 0.740740
vt 0.640213 0.593225
vt 0.640861 0.512156
vt 0.754111 0.654750
vt 0.740197 0.712656
vt 0.746021 0.718446
vt 0.796174 0.547624
vt 0.867683 0.588882
vt 0.912660 0.614215
vt 0.959578 0.648235
vt 0.952783 0.610597
vt 0.949639 0.273204
vt 0.895105 0.252157
vt 0.836745 0.281107
vt 0.813750 0.204905
vt 0.788366 0.165773
vt 0.773212 0.159389
vt 0.772846 0.189369
vt 0.681111 0.237594
vt 0.659139 0.218011
vt 0.649764 0.221420
vt 0.679177 0.323531
vt 0.540806 0.371314
vt 0.491948 0.277204
vt 0.459276 0.252382
vt 0.470924 0.312467
vt 0.507814 0.376812
vt 0.384557 0.409524
vt 0.369018 0.317080
vt 0.352840 0.282304
vt 0.344752 0.285172
vt 0.365468 0.410218
vt 0.328260 0.413771
vt 0.280694 0.326942
vt 0.249958 0.301527
vt 0.250264 0.320054
vt 0.302016 0.419703
vt 0.198131 0.444764
vt 0.161250 0.447510
vt 0.180014 0.339733
s 0
f 36/1/1 56/2/1 55/3/1
f 121/4/2 122/5/2 123/6/2
f 2/7/3 79/8/3 1/8/3
f 3/9/4 80/7/4 2/7/4
f 3/9/5 82/10/5 81/9/5
f 5/11/6 82/10/6 4/10/6
f 6/12/7 83/11/7 5/11/7
f 7/13/8 84/12/8 6/12/8
f 8/14/9 85/13/9 7/13/9
f 9/15/10 86/14/10 8/14/10
f 10/16/11 87/15/11 9/15/11
f 11/17/12 88/16/12 10/16/12
f 12/18/13 89/17/13 11/17/13
f 13/19/14 90/18/14 12/18/14
f 13/19/15 92/20/15 91/19/15
f 15/21/16 92/20/16 14/20/16
f 16/22/17 93/21/17 15/21/17
f 17/23/18 94/22/18 16/22/18
f 18/24/19 95/23/19 17/23/19
f 19/25/20 96/24/20 18/24/20
f 20/26/21 97/25/21 19/25/21
f 20/26/22 99/27/22 98/26/22
f 22/28/23 99/27/23 21/27/23
f 23/29/24 100/28/24 22/28/24
f 24/30/25 101/29/25 23/29/25
f 25/31/26 102/30/26 24/30/26
f 25/31/27 104/32/27 103/31/27
f 27/33/28 104/32/28 26/32/28
f 28/34/29 105/33/29 27/33/29
f 29/35/30 106/34/30 28/34/30
f 30/36/31 107/35/31 29/35/31
f 31/37/32 108/36/32 30/36/32
f 32/38/33 109/37/33 31/37/33
f 33/39/34 110/38/34 32/38/34
f 34/40/35 111/39/35 33/39/35
f 35/41/36 112/40/36 34/40/36
f 35/41/37 114/1/37 113/41/37
f 37/42/38 114/1/38 36/1/38
f 38/43/39 115/42/39 37/42/39
f 39/44/40 116/43/40 38/43/40
f 39/44/41 118/45/41 117/44/41
f 41/46/42 118/45/42 40/45/42
f 42/47/43 119/46/43 41/46/43
f 43/4/44 120/47/44 42/47/44
f 44/5/45 121/4/45 43/4/45
f 45/6/46 122/5/46 44/5/46
f 46/48/47 123/6/47 45/6/47
f 47/49/48 124/48/48 46/48/48
f 48/50/49 125/49/49 47/49/49
f 49/51/50 126/50/50 48/50/50
f 49/51/51 128/52/51 127/51/51
f 51/53/52 128/52/52 50/52/52
f 52/54/53 129/53/53 51/53/53
f 52/54/54 131/55/54 130/54/54
f 54/56/55 131/55/55 53/55/55
f 55/3/56 132/56/56 54/56/56
f 56/2/57 133/3/57 55/3/57
f 57/57/58 134/2/58 56/2/58
f 58/58/59 135/57/59 57/57/59
f 59/59/60 136/58/60 58/58/60
f 60/60/61 137/59/61 59/59/61
f 61/61/62 138/60/62 60/60/62
f 61/61/63 140/62/63 139/61/63
f 62/62/64 141/63/64 140/62/64
f 64/64/65 141/63/65 63/63/65
f 65/65/66 142/64/66 64/64/66
f 65/65/67 144/66/67 143/65/67
f 67/67/68 144/66/68 66/66/68
f 68/68/69 145/67/69 67/67/69
f 69/69/70 146/68/70 68/68/70
f 70/70/71 147/69/71 69/69/71
f 71/71/72 148/70/72 70/70/72
f 71/71/73 150/72/73 149/71/73
f 73/73/74 150/72/74 72/72/74
f 74/74/75 151/73/75 73/73/75
f 75/75/76 152/74/76 74/74/76
f 76/76/77 153/75/77 75/75/77
f 77/77/78 154/76/78 76/76/78
f 78/78/79 155/77/79 77/77/79
f 1/8/80 156/78/80 78/78/80
f 2/7/1 1/8/1 78/78/1
f 2/7/1 78/78/1 3/9/1
f 78/78/1 77/77/1 4/10/1
f 3/9/1 78/78/1 4/10/1
f 5/11/1 4/10/1 77/77/1
f 7/13/1 6/12/1 13/19/1
f 6/12/1 5/11/1 77/77/1
f 9/15/1 8/14/1 12/18/1
f 8/14/1 7/13/1 13/19/1
f 11/17/1 10/16/1 12/18/1
f 10/16/1 9/15/1 12/18/1
f 8/14/1 13/19/1 12/18/1
f 6/12/1 77/77/1 13/19/1
f 15/21/1 14/20/1 75/75/1
f 14/20/1 13/19/1 76/76/1
f 76/76/1 13/19/1 77/77/1
f 17/23/1 16/22/1 18/24/1
f 16/22/1 15/21/1 18/24/1
f 19/25/1 18/24/1 15/21/1
f 20/26/1 19/25/1 15/21/1
f 21/27/1 20/26/1 66/66/1
f 20/26/1 15/21/1 71/71/1
f 71/71/1 15/21/1 75/75/1
f 14/20/1 76/76/1 75/75/1
f 22/28/1 21/27/1 61/61/1
f 75/75/1 74/74/1 72/72/1
f 74/74/1 73/73/1 72/72/1
f 20/26/1 71/71/1 70/70/1
f 25/31/1 24/30/1 26/32/1
f 24/30/1 23/29/1 26/32/1
f 28/34/1 27/33/1 22/28/1
f 27/33/1 26/32/1 23/29/1
f 27/33/1 23/29/1 22/28/1
f 29/35/1 28/34/1 61/61/1
f 28/34/1 22/28/1 61/61/1
f 75/75/1 72/72/1 71/71/1
f 20/26/1 70/70/1 66/66/1
f 32/38/1 31/37/1 33/39/1
f 31/37/1 30/36/1 34/40/1
f 33/39/1 31/37/1 34/40/1
f 21/27/1 66/66/1 65/65/1
f 34/40/1 30/36/1 35/41/1
f 30/36/1 29/35/1 35/41/1
f 70/70/1 69/69/1 67/67/1
f 69/69/1 68/68/1 67/67/1
f 67/67/1 66/66/1 70/70/1
f 65/65/1 64/64/1 62/62/1
f 64/64/1 63/63/1 62/62/1
f 21/27/1 65/65/1 61/61/1
f 65/65/1 62/62/1 61/61/1
f 35/41/1 29/35/1 60/60/1
f 29/35/1 61/61/1 60/60/1
f 36/1/1 35/41/1 56/2/1
f 60/60/1 59/59/1 58/58/1
f 35/41/1 60/60/1 56/2/1
f 39/44/1 38/43/1 37/42/1
f 60/60/1 58/58/1 57/57/1
f 40/45/1 39/44/1 37/42/1
f 60/60/1 57/57/1 56/2/1
f 40/45/1 37/42/1 36/1/1
f 42/47/1 41/46/1 49/51/1
f 41/46/1 40/45/1 50/52/1
f 45/6/1 44/5/1 43/4/1
f 41/46/1 50/52/1 49/51/1
f 40/45/1 36/1/1 55/3/1
f 50/52/1 40/45/1 55/3/1
f 46/48/1 45/6/1 43/4/1
f 46/48/1 43/4/1 42/47/1
f 48/50/1 47/49/1 46/48/1
f 49/51/1 48/50/1 46/48/1
f 49/51/1 46/48/1 42/47/1
f 52/54/1 51/53/1 54/56/1
f 51/53/1 50/52/1 55/3/1
f 55/3/1 54/56/1 51/53/1
f 54/56/1 53/55/1 52/54/1
f 156/78/2 79/8/2 80/7/2
f 81/9/2 82/10/2 156/78/2
f 82/10/2 83/11/2 155/77/2
f 156/78/2 80/7/2 81/9/2
f 155/77/2 156/78/2 82/10/2
f 83/11/2 84/12/2 155/77/2
f 84/12/2 85/13/2 91/19/2
f 85/13/2 86/14/2 91/19/2
f 86/14/2 87/15/2 90/18/2
f 87/15/2 88/16/2 90/18/2
f 88/16/2 89/17/2 90/18/2
f 91/19/2 92/20/2 154/76/2
f 92/20/2 93/21/2 153/75/2
f 154/76/2 92/20/2 153/75/2
f 90/18/2 91/19/2 86/14/2
f 154/76/2 155/77/2 91/19/2
f 155/77/2 84/12/2 91/19/2
f 93/21/2 94/22/2 96/24/2
f 94/22/2 95/23/2 96/24/2
f 96/24/2 97/25/2 93/21/2
f 97/25/2 98/26/2 93/21/2
f 151/73/2 152/74/2 150/72/2
f 152/74/2 153/75/2 150/72/2
f 149/71/2 150/72/2 153/75/2
f 146/68/2 147/69/2 145/67/2
f 147/69/2 148/70/2 145/67/2
f 148/70/2 149/71/2 98/26/2
f 149/71/2 153/75/2 93/21/2
f 98/26/2 149/71/2 93/21/2
f 98/26/2 99/27/2 144/66/2
f 148/70/2 98/26/2 144/66/2
f 144/66/2 145/67/2 148/70/2
f 99/27/2 100/28/2 139/61/2
f 144/66/2 99/27/2 143/65/2
f 143/65/2 99/27/2 139/61/2
f 101/29/2 102/30/2 104/32/2
f 102/30/2 103/31/2 104/32/2
f 101/29/2 104/32/2 105/33/2
f 101/29/2 105/33/2 100/28/2
f 105/33/2 106/34/2 100/28/2
f 100/28/2 106/34/2 139/61/2
f 106/34/2 107/35/2 139/61/2
f 141/63/2 142/64/2 140/62/2
f 142/64/2 143/65/2 140/62/2
f 108/36/2 109/37/2 112/40/2
f 109/37/2 110/38/2 111/39/2
f 109/37/2 111/39/2 112/40/2
f 108/36/2 112/40/2 113/41/2
f 107/35/2 108/36/2 113/41/2
f 139/61/2 140/62/2 143/65/2
f 136/58/2 137/59/2 138/60/2
f 135/57/2 136/58/2 138/60/2
f 138/60/2 139/61/2 107/35/2
f 138/60/2 107/35/2 113/41/2
f 134/2/2 135/57/2 138/60/2
f 131/55/2 132/56/2 130/54/2
f 132/56/2 133/3/2 129/53/2
f 130/54/2 132/56/2 129/53/2
f 134/2/2 138/60/2 113/41/2
f 133/3/2 134/2/2 114/1/2
f 134/2/2 113/41/2 114/1/2
f 128/52/2 129/53/2 133/3/2
f 133/3/2 114/1/2 118/45/2
f 114/1/2 115/42/2 118/45/2
f 115/42/2 116/43/2 117/44/2
f 118/45/2 119/46/2 128/52/2
f 119/46/2 120/47/2 127/51/2
f 115/42/2 117/44/2 118/45/2
f 128/52/2 133/3/2 118/45/2
f 127/51/2 128/52/2 119/46/2
f 124/48/2 125/49/2 126/50/2
f 126/50/2 127/51/2 124/48/2
f 127/51/2 120/47/2 124/48/2
f 123/6/2 124/48/2 121/4/2
f 121/4/2 124/48/2 120/47/2
f 2/7/3 80/7/3 79/8/3
f 3/9/4 81/9/4 80/7/4
f 3/9/5 4/10/5 82/10/5
f 5/11/6 83/11/6 82/10/6
f 6/12/7 84/12/7 83/11/7
f 7/13/8 85/13/8 84/12/8
f 8/14/9 86/14/9 85/13/9
f 9/15/10 87/15/10 86/14/10
f 10/16/11 88/16/11 87/15/11
f 11/17/12 89/17/12 88/16/12
f 12/18/13 90/18/13 89/17/13
f 13/19/14 91/19/14 90/18/14
f 13/19/15 14/20/15 92/20/15
f 15/21/16 93/21/16 92/20/16
f 16/22/17 94/22/17 93/21/17
f 17/23/18 95/23/18 94/22/18
f 18/24/19 96/24/19 95/23/19
f 19/25/20 97/25/20 96/24/20
f 20/26/21 98/26/21 97/25/21
f 20/26/22 21/27/22 99/27/22
f 22/28/23 100/28/23 99/27/23
f 23/29/24 101/29/24 100/28/24
f 24/30/25 102/30/25 101/29/25
f 25/31/26 103/31/26 102/30/26
f 25/31/27 26/32/27 104/32/27
f 27/33/28 105/33/28 104/32/28
f 28/34/29 106/34/29 105/33/29
f 29/35/30 107/35/30 106/34/30
f 30/36/31 108/36/31 107/35/31
f 31/37/32 109/37/32 108/36/32
f 32/38/33 110/38/33 109/37/33
f 33/39/34 111/39/34 110/38/34
f 34/40/35 112/40/35 111/39/35
f 35/41/36 113/41/36 112/40/36
f 35/41/37 36/1/37 114/1/37
f 37/42/38 115/42/38 114/1/38
f 38/43/39 116/43/39 115/42/39
f 39/44/40 117/44/40 116/43/40
f 39/44/41 40/45/41 118/45/41
f 41/46/42 119/46/42 118/45/42
f 42/47/43 120/47/43 119/46/43
f 43/4/44 121/4/44 120/47/44
f 44/5/45 122/5/45 121/4/45
f 45/6/46 123/6/46 122/5/46
f 46/48/47 124/48/47 123/6/47
f 47/49/48 125/49/48 124/48/48
f 48/50/49 126/50/49 125/49/49
f 49/51/50 127/51/50 126/50/50
f 49/51/51 50/52/51 128/52/51
f 51/53/52 129/53/52 128/52/52
f 52/54/53 130/54/53 129/53/53
f 52/54/54 53/55/54 131/55/54
f 54/56/55 132/56/55 131/55/55
f 55/3/56 133/3/56 132/56/56
f 56/2/57 134/2/57 133/3/57
f 57/57/58 135/57/58 134/2/58
f 58/58/59 136/58/59 135/57/59
f 59/59/60 137/59/60 136/58/60
f 60/60/61 138/60/61 137/59/61
f 61/61/62 139/61/62 138/60/62
f 61/61/63 62/62/63 140/62/63
f 62/62/64 63/63/64 141/63/64
f 64/64/65 142/64/65 141/63/65
f 65/65/66 143/65/66 142/64/66
f 65/65/67 66/66/67 144/66/67
f 67/67/68 145/67/68 144/66/68
f 68/68/69 146/68/69 145/67/69
f 69/69/70 147/69/70 146/68/70
f 70/70/71 148/70/71 147/69/71
f 71/71/72 149/71/72 148/70/72
f 71/71/73 72/72/73 150/72/73
f 73/73/74 151/73/74 150/72/74
f 74/74/75 152/74/75 151/73/75
f 75/75/76 153/75/76 152/74/76
f 76/76/77 154/76/77 153/75/77
f 77/77/78 155/77/78 154/76/78
f 78/78/79 156/78/79 155/77/79
f 1/8/80 79/8/80 156/78/80
